<svg xmlns="http://www.w3.org/2000/svg" width="65" height="65" viewBox="0 0 65 65">
  <g id="Group_14281" data-name="Group 14281" transform="translate(-734 -1284.466)">
    <g id="Group_14273" data-name="Group 14273" transform="translate(739.455 1289.469)">
      <path id="Path_28772" data-name="Path 28772" d="M29.274,56.549A27.274,27.274,0,1,0,2,29.274,27.275,27.275,0,0,0,29.274,56.549Z" transform="translate(-2 -2)" fill="none" stroke="#194b98" stroke-linecap="round" stroke-linejoin="round" stroke-width="4"/>
      <path id="Path_28773" data-name="Path 28773" d="M8.8,3h2.727a77.524,77.524,0,0,0,0,49.094H8.8" transform="translate(7.566 -0.273)" fill="none" stroke="#194b98" stroke-linecap="round" stroke-linejoin="round" stroke-width="4"/>
      <path id="Path_28774" data-name="Path 28774" d="M15,3a77.524,77.524,0,0,1,0,49.094" transform="translate(20.457 -0.273)" fill="none" stroke="#194b98" stroke-linecap="round" stroke-linejoin="round" stroke-width="4"/>
      <path id="Path_28775" data-name="Path 28775" d="M3,17.727V15a77.524,77.524,0,0,0,49.094,0v2.727" transform="translate(-0.273 20.457)" fill="none" stroke="#194b98" stroke-linecap="round" stroke-linejoin="round" stroke-width="4"/>
      <path id="Path_28776" data-name="Path 28776" d="M3,11.526a77.524,77.524,0,0,1,49.094,0" transform="translate(-0.273 7.566)" fill="none" stroke="#194b98" stroke-linecap="round" stroke-linejoin="round" stroke-width="4"/>
    </g>
    <rect id="Rectangle_3831" data-name="Rectangle 3831" width="65" height="65" transform="translate(734 1284.466)" fill="none"/>
  </g>
</svg>
