<svg xmlns="http://www.w3.org/2000/svg" xmlns:xlink="http://www.w3.org/1999/xlink" width="353.817" height="27.736" viewBox="0 0 353.817 27.736">
  <defs>
    <clipPath id="clip-path">
      <rect id="Rectangle_754" data-name="Rectangle 754" width="353.817" height="27.736" fill="none"/>
    </clipPath>
  </defs>
  <g id="Group_2032" data-name="Group 2032" transform="translate(0 0)">
    <g id="Group_2031" data-name="Group 2031" transform="translate(0 0)" clip-path="url(#clip-path)">
      <path id="Path_1807" data-name="Path 1807" d="M297.374,27.463c-.031-.217-.1-.262-.184-.112a.286.286,0,0,0,.052.361c.1.062.161-.05.132-.248" transform="translate(56.435 -3.327)" fill="#ff9934"/>
      <path id="Path_1808" data-name="Path 1808" d="M352.971,25.839c-.209.032-.322-.091-.28-.31a.437.437,0,0,0-.252-.482.3.3,0,0,1-.167-.439.355.355,0,0,1,.421-.221c.144.054.17-.186.058-.528-.154-.466-.125-.556.112-.348s.281.146.157-.285a7.745,7.745,0,0,1-.193-.819c-.018-.144-.15-.2-.309-.126a.2.2,0,0,1-.3-.181c-.013-.176.219-.362.541-.434.43-.1.484-.184.233-.37-.189-.14-.255-.327-.154-.439s-.026-.19-.271-.183a.424.424,0,0,1-.476-.384c-.015-.217.106-.349.265-.289s.28-.09.262-.362c-.018-.254.077-.5.207-.542s-.018-.343-.333-.678-.512-.687-.437-.784.012-.224-.156-.285-.3,0-.3.145-.18.032-.383-.233-.5-.475-.659-.46-.333-.162-.4-.4-.233-.419-.383-.414c-.484.015-.3-.354.192-.378,1.222-.061,1.412-.132,1.266-.465a.807.807,0,0,0-.735-.321c-.489.015-.527-.032-.237-.283.194-.169.265-.35.162-.414s-.18-.021-.17.105-.1.22-.27.226-.3-.208-.319-.461c-.023-.326.087-.444.355-.384.414.092.752-.757.471-1.183a6.848,6.848,0,0,0-2.856-.6c-.069.05.046.234.245.391.339.269.318.271-.217.025a4.748,4.748,0,0,1-.779-.428,2.763,2.763,0,0,0-1.215-.045,2.465,2.465,0,0,1-1.105-.02,3.556,3.556,0,0,0-1.227-.212,12.675,12.675,0,0,1-2.747-.32c-.159-.061-.27.028-.258.209.02.29-.019.291-.462.024-.369-.224-.572-.24-.863-.064-.208.126-.384.152-.39.057s-.244-.176-.518-.183-1.437-.1-2.589-.219c-1.263-.126-2.08-.133-2.073-.018s-.127.126-.352.024a20.158,20.158,0,0,0-4.455-.194c-.516.006-.929-.057-.935-.142s-.242-.131-.512-.1a6.622,6.622,0,0,1-1.341-.076,2.515,2.515,0,0,0-1.354.114c-.4.187-.518.186-.531,0-.012-.169-.493-.229-1.58-.2a4.976,4.976,0,0,1-1.573-.078c0-.068-.4-.073-.858-.011s-.856.042-.862-.046c-.013-.179-1.3-.245-3.8-.192a6.407,6.407,0,0,1-1.667-.075,40.757,40.757,0,0,0-5.906-.3c-.792-.017-2.061-.085-2.8-.152a3.136,3.136,0,0,0-1.512.065c-.178.214-.892-.371-.959-.786-.134-.848-1.653-3.176-2.062-3.163-.369.011-.321-1.092.052-1.206.4-.122-.992-.165-2.075-.062-.4.037-1.016.083-1.423.106a2.141,2.141,0,0,0-1.08.342c-.322.27-.345.264-.221-.047.113-.283.018-.335-.495-.275a2.738,2.738,0,0,1-.985-.052,14.134,14.134,0,0,0-2.364-.108,6.84,6.84,0,0,1-2.025-.137c-.006-.083-.4-.1-.862-.037a1.874,1.874,0,0,1-1.04-.068,1.666,1.666,0,0,0-.934-.126,5.23,5.23,0,0,1-.9.018c-.084-.022-.726-.051-1.435-.064s-1.735-.054-2.3-.093-1.655-.093-2.446-.124-1.89-.1-2.45-.155a34.213,34.213,0,0,0-4.181-.175,14.994,14.994,0,0,1-2.338-.127,21.3,21.3,0,0,0-2.83-.148c-1.391-.017-2.737-.074-2.98-.126a16.781,16.781,0,0,0-2.011-.119c-.872-.014-2.161-.034-2.9-.047a6.423,6.423,0,0,0-1.68.133.927.927,0,0,1-.784-.111,1.136,1.136,0,0,0-.815-.156.619.619,0,0,1-.563-.073q-.191-.184-.583.054c-.306.187-.519.169-.972-.078a1.554,1.554,0,0,0-1.41-.093c-.588.16-.928.162-1.171.009-.264-.167-.4-.151-.581.073-.206.249-.268.243-.452-.04a.58.58,0,0,0-.6-.218,2.76,2.76,0,0,1-1.052-.031,2.132,2.132,0,0,0-1.18.063c-.371.148-.577.147-.733,0a6.113,6.113,0,0,0-3.026-.106c-.109.132-.313.134-.566.009a1.552,1.552,0,0,0-.773-.148,2.984,2.984,0,0,1-.919-.09,1.773,1.773,0,0,0-1.082.115,1.059,1.059,0,0,1-.881.083c-.451-.226-1.925-.14-1.918.112,0,.112-.186,0-.436-.268s-.439-.345-.436-.186c0,.2-.084.226-.307.091A3.47,3.47,0,0,0,235.662,2c-.729.1-1.26.09-1.268-.015s-.186-.13-.426-.06a.524.524,0,0,1-.565-.1c-.108-.158-.233-.138-.432.068s-.343.234-.5.1c-.282-.245-1.54-.43-1.525-.225.013.179-1.571.131-2.1-.063a5.457,5.457,0,0,0-1.358-.12c-.54.007-1.637-.038-2.4-.1-1.342-.105-1.4-.092-1.22.282.1.214.076.446-.059.509s-.263-.055-.278-.272-.124-.4-.246-.4c-.264-.018-2.264-.04-4.308-.047a4.189,4.189,0,0,1-1.51-.149c0-.08-.388-.1-.847-.047a1.856,1.856,0,0,1-1.042-.095q-.2-.194-.418.058c-.154.179-.327.2-.609.062-.4-.19-1.9-.234-5.024-.147a5.264,5.264,0,0,1-1.806-.112c-.006-.093-.256-.155-.582-.145s-.565.1-.557.216c.02.3-.6.236-1-.1-.371-.308-1.16-.164-.835.153.088.085-.336.04-.917-.1-.832-.2-1.124-.2-1.268-.024a.479.479,0,0,1-.51.115c-.167-.061-.32,0-.318.127,0,.182-.057.186-.231.017a1.2,1.2,0,0,0-.84-.128c-.431.071-.571.025-.488-.157s-.112-.241-.6-.208c-.407.028-.714.119-.707.212s-.183.121-.432.068a2.969,2.969,0,0,0-1.136.108c-.508.147-.7.137-.712-.041-.01-.139-.581-.313-1.322-.4-.935-.114-1.3-.1-1.291.049.008.117-.365.24-.852.28-.543.045-.8-.009-.691-.142s-.025-.164-.453-.059a1.031,1.031,0,0,1-.847-.055c-.332-.32-1.082,0-1.243.528-.084.275-.276.427-.455.358-.224-.085-.23-.174-.023-.325.409-.3.346-.518-.144-.5-.244.007-.427.112-.419.239s-.174.069-.384-.105c-.546-.455-4.109-.479-4.335-.03-.132.265-.2.263-.714-.024A2.811,2.811,0,0,0,181.54.876a2.912,2.912,0,0,1-1.724-.11,1.284,1.284,0,0,0-1.082-.076,2.6,2.6,0,0,1-1.5-.072c-.779-.234-.869-.228-1.085.07s-.265.308-.775.029a.9.9,0,0,0-1.41.392c-.2.389-.227.378-.275-.127s-.119-.54-.9-.407a1.822,1.822,0,0,1-1.009-.024.949.949,0,0,0-.66-.089c-.269.043-.591.09-.7.1a.217.217,0,0,0-.189.223c.008.116.146.139.331.054s.239-.053.13.077c-.24.286-.322.283-.863-.036A.97.97,0,0,0,168.8.816c-.371.147-.609.155-.748.023a.638.638,0,0,0-.577-.082.642.642,0,0,1-.578-.083.645.645,0,0,0-.578-.082.62.62,0,0,1-.556-.064c-.2-.19-1.854-.106-1.84.093a3.1,3.1,0,0,1-1.144.008,3.06,3.06,0,0,0-1.145.008c.013.188-1.759.145-1.973-.048C159.466.414,156.874.38,152.74.5a7.767,7.767,0,0,1-2.366-.14c-.151-.14-.214-.13-.2.033s-.192.191-.772.068c-.552-.116-.84-.1-.964.048s-.452.148-1.173-.022a7.8,7.8,0,0,0-3.321.042c-.083.061-.334-.035-.545-.21s-.39-.223-.389-.105-.3.188-.712.148-.708.016-.7.131c.014.212-.891.1-1.171-.146a1.439,1.439,0,0,0-1.493.427c-.077.238-.113.244-.155.023-.08-.432-1.182-.8-1.611-.53a.642.642,0,0,1-.737-.013c-.307-.173-.337-.162-.132.049.22.227.18.234-.244.034s-.665-.176-1.594.185A2.988,2.988,0,0,1,133.2.833c-.09-.06-.181.015-.193.161s-.121.021-.243-.283c-.227-.572-.35-.6-2-.45a.359.359,0,0,0-.328.367.977.977,0,0,1-.257.624c-.214.221-.245.189-.132-.141a1.15,1.15,0,0,0-.056-.8c-.186-.342-.256-.349-.81-.084-.519.249-.772.257-1.767.056-1.436-.291-2.172-.281-2.15.028.011.152-.1.14-.3-.036-.234-.2-.261-.11-.1.339.136.376.1.613-.08.618-.164.005-.317-.244-.338-.551-.038-.543-.365-.637-1.084-.311a.543.543,0,0,1-.549-.047c-.148-.146-.262-.137-.407.031s-.355.184-.857.026c-.528-.167-.7-.156-.881.054-.163.186-.233.193-.249.025-.033-.362-.828-.246-.948.138-.1.321-.106.321-.155,0a.436.436,0,0,0-.406-.343,4.881,4.881,0,0,0-2.348.364c-.231.217-.345.219-.664.011a.816.816,0,0,0-.65-.134c-.153.068-.27.026-.28-.1-.015-.234-2.293-.07-2.9.208-.184.084-.243.06-.139-.06s-.008-.3-.262-.428-.433-.146-.426-.041a6.833,6.833,0,0,1-2.2.232c-2.068.047-2.208.076-2.1.427s.083.351-.465-.031c-.325-.226-.663-.349-.756-.276s-.173.062-.18-.04a3.553,3.553,0,0,0-1.509-.144c-1.2.023-1.594.111-1.985.442s-.455.336-.336.073c.09-.2,0-.346-.23-.355L100.457.356c-.382-.015-.634.077-.625.227a.449.449,0,0,1-.3.39c-.215.094-.264.009-.152-.267.173-.422-.265-.572-.581-.2-.1.118-.478.087-1.035-.086A2.309,2.309,0,0,0,96.732.262a1.1,1.1,0,0,1-.7-.06q-.544-.174-.53.025c.008.118-.289.157-.729.1a11.6,11.6,0,0,0-3.431.041,2.218,2.218,0,0,1-1.1-.022c-.39-.125-.6-.105-.732.068s-.219.188-.325.011C89,.112,87.719.341,87.1.795c-.4.292-.458.286-.619-.072-.153-.34-.255-.362-.747-.167-.451.178-.543.17-.439-.041S85.138.261,84.242.3a11.593,11.593,0,0,0-1.784.209,1,1,0,0,1-.808-.047.46.46,0,0,0-.52-.043A1.652,1.652,0,0,1,79.487.34c-.255-.248-.288-.245-.28.027.011.323-.29.356-1.178.132a1.635,1.635,0,0,0-1.421.2c-.1.1-.524.053-.944-.116C74.712.2,74.238.225,74.489.639c.174.286.15.285-.237-.011-.413-.316-.439-.313-.595.072a.642.642,0,0,1-.462.414c-.187.005-.176-.1.027-.291.391-.361.281-.377-.681-.095-.4.117-.726.147-.731.066C71.795.569,70.3.62,69.909.859c-.236.143-.371.152-.381.024-.007-.107-.243-.167-.513-.129a2.794,2.794,0,0,1-1-.087c-.306-.1-.564-.074-.663.056-.115.152-.29.149-.6-.009a1.249,1.249,0,0,0-1.089.007c-.48.168-.739.173-.979.021-.192-.121-.328-.132-.33-.026s-.111.076-.238-.047c-.339-.325-.892.028-.926.591-.021.363-.13.459-.382.338a.471.471,0,0,1-.228-.546c.1-.313,0-.356-.618-.262-.432.066-.747.026-.757-.095S60.963.54,60.561.633c-.349.081-.823.172-1.063.2a3.688,3.688,0,0,0-.815.225.524.524,0,0,1-.634-.107c-.2-.213-.534-.234-1.533-.1a3.366,3.366,0,0,1-1.291.049c-.015-.23-1.3-.087-1.575.176-.223.212-.453.223-1.228.056-.8-.174-.992-.162-1.193.073-.129.148-.333.223-.439.158-.234-.141-.956.356-.935.645.007.109-.111.2-.258.207-.463.015-.39-.507.09-.647.867-.255.35-.453-1.176-.451-.953,0-1.574.085-1.566.211.008.108-.129.212-.284.217s-.208-.111-.112-.241.08-.182-.035-.107a1.2,1.2,0,0,1-.751-.023c-.4-.126-.565-.073-.678.22a.479.479,0,0,1-.864.19c-.126-.123-.075-.158.12-.085.212.08.322,0,.3-.218-.032-.294-.113-.277-.564.118-.322.282-.534.355-.546.189-.017-.251-.676-.324-2.883-.318-.9,0-.994.049-.882.434.068.234-.012.435-.174.441s-.313-.181-.327-.4c-.023-.326-.107-.362-.421-.177s-.432.167-.577-.064a.4.4,0,0,0-.475-.167c-.158.069-.211.207-.115.3s-.027.182-.3.191c-.326.01-.427-.084-.32-.3.118-.237.036-.276-.338-.162a4.273,4.273,0,0,1-.984.155c-.572,0-1.136.621-.8.869.113.083-.112-.012-.48-.2-.565-.293-.608-.373-.234-.435.947-.155.386-.331-.779-.246-3.145.232-3.485.293-3.384.616.051.162-.019.309-.149.313-.45.014-.881-.407-.735-.72.113-.243,0-.223-.493.088-.445.277-.684.329-.782.169a3.8,3.8,0,0,0-2.518.024c-.236.282-.69.238-.712-.069-.014-.208-.178-.227-.714-.077-.374.1-.7.135-.7.067s-.139-.032-.32.1a1.429,1.429,0,0,1-.919.116,2.663,2.663,0,0,0-2,.21c-.378.227-.451.212-.483-.095-.037-.343-.056-.344-.383-.015-.186.187-.434.291-.543.225-.422-.255-1.308-.195-1.452.1-.127.258-.232.274-.593.09-.282-.143-.432-.151-.424-.023.007.1.168.259.337.325.223.088.215.175-.021.283-.45.2-1.42-.382-1.115-.673.174-.166-.02-.176-.747-.04a3.257,3.257,0,0,1-1.152.081c-.093-.056-.165-.013-.157.1.017.247-1.21.11-1.525-.171-.15-.133-.212-.12-.2.043.01.147-.391.248-1.071.269a3.621,3.621,0,0,0-1.373.241c-.2.143-.441.116-.783-.084-.312-.184-.485-.21-.468-.068.021.16-.34.2-1.243.138-.821-.056-1.34-.011-1.462.127a.72.72,0,0,1-.6.124c-.383-.083-.512.227-.346.838.039.144-.064.2-.24.134a.531.531,0,0,1-.326-.389.274.274,0,0,0-.25-.264c-.129,0-.158.268-.068.592.115.413.069.55-.158.467-.2-.071-.314,0-.3.181a.289.289,0,0,1-.278.308c-.2.006-.207-.121-.024-.38.355-.5.036-.883-.478-.574-.277.166-.287.38-.04.881.351.714.209,1.061-.378.927-.255-.058-.419.112-.477.494-.1.674.03.732.539.237.312-.3.349-.273.363.288q.016.626-.245.388c-.2-.179-.257-.155-.239.1a.422.422,0,0,0,.458.321c.245-.008.436.077.437.195s-.18.165-.4.112a.444.444,0,0,0-.543.325c-.213.641-.15.9.2.841A.4.4,0,0,1,2,10.089c-.169.077-.212.04-.1-.09s.012-.218-.261-.21a.392.392,0,0,0-.422.394.377.377,0,0,0,.381.369c.227-.007.208.058-.056.183-.35.167-.34.193.068.189a.7.7,0,0,0,.626-.391c.087-.22.256-.389.4-.393s.108.214-.049.473a1.025,1.025,0,0,1-.634.491,1,1,0,0,0-.615.354c-.239.3-.278.3-.3.037-.012-.176-.233-.414-.515-.556-.456-.228-.464-.212-.094.212a6.891,6.891,0,0,0,.757.738c.386.3.425.549.138.883-.125.147.035.389.4.614.342.206.606.291.6.19-.025-.343.975-.1,1.066.257.089.342.081.342-.149.013s-.252-.336-.64.011c-.208.188-.246.291-.08.217.387-.171.862,1.011.635,1.579-.109.276-.036.334.3.236.24-.072.447-.029.456.095s.228.356.485.51.409.4.337.543c-.1.193.084.222.731.113.727-.121.851-.087.791.22-.05.261.093.36.5.348.438-.014.556.083.506.41-.045.291.077.423.383.414s.465.167.5.51c.046.488.075.5.407.169s.369-.337.584-.018c.144.212.271.248.345.1.155-.317.947-.119.973.242.013.2.126.227.361.09.393-.23,1.775.007,1.559.267-.075.09.212.127.618.081a2.629,2.629,0,0,1,1.166.119c.319.159.465.131.662-.129.308-.408.907-.442.707-.04-.083.166-.026.24.13.169a.417.417,0,0,0,.246-.388c-.018-.14.227-.257.527-.252.382.007.478.084.3.244s-.117.266.188.335c.415.095.546-.095.413-.6-.038-.142.117-.2.394-.14.249.052.464.21.474.348a.447.447,0,0,0,.283.355c.152.057.19-.061.09-.275s-.043-.379.137-.385c.163,0,.318.068.324.154.018.253,2.633-.009,2.872-.288.169-.2.232-.179.259.074s.268.327,1.029.3c.544-.017.986-.12.978-.229-.015-.235,1.045-.284,1.2-.055.165.249,1.418.421,1.4.193-.008-.11.163-.2.38-.212a.664.664,0,0,0,.527-.261c.081-.152.15-.122.177.076.064.466,1.392.41,1.585-.068a1.246,1.246,0,0,1,1.76-.254.8.8,0,0,0,.688.251.2.2,0,0,1,.286.182.309.309,0,0,0,.306.29c.163-.005.28-.09.272-.2s.1-.193.258-.2.212.111.129.277-.007.281.183.276c.368-.011.658-.873.382-1.136-.126-.12-.037-.157.24-.1.249.053.436.15.426.222-.089.709.162.968.907.931.489-.025.6-.067.293-.111-.468-.066-.77-.449-.328-.416a1.1,1.1,0,0,0,.352-.025,8.673,8.673,0,0,1,1.943-.273c.353,0,.566-.091.463-.191s-.12-.187-.026-.19.292.181.451.412l.288.417-.014-.435c-.013-.435.372-.587.695-.275.1.095.021.227-.165.286s-.088.11.239.11a1.747,1.747,0,0,0,.909-.245c.175-.133.33-.158.337-.056s.258.183.584.173.566-.091.559-.19.168-.132.416-.076a.647.647,0,0,0,.593-.1c.1-.124.376-.079.745.122.452.248.627.261.794.057.137-.167.286-.191.414-.067a18.049,18.049,0,0,0,4.838-.212,2.229,2.229,0,0,1,.978-.04c.415.093.428.144.076.306-.369.169-.043.161,2.583-.07.089-.008.173-.2.183-.414.029-.544.3-.706.645-.382.221.208.274.173.25-.171-.019-.271.089-.39.29-.317a.817.817,0,0,0,.712-.293c.48-.5.923-.552.945-.1.008.175-.393.539-.866.788-.6.318-.727.457-.39.447.271-.008.482-.111.474-.232-.023-.327.318-.083.436.313a.656.656,0,0,0,.459.4c.249.043.3-.073.164-.377-.1-.233-.109-.33-.014-.208a.384.384,0,0,0,.431.114c.137-.064.259.018.271.182s.218.292.456.284a.488.488,0,0,1,.491.411c.051.379.069.384.169.04a1.983,1.983,0,0,1,1.416-1.142c.4-.085.5-.038.382.19q-.157.3.174.158c.186-.083.338-.047.346.08.011.143.212.1.55-.126A1.224,1.224,0,0,1,62.1,17.9c.159.061.3,0,.29-.127-.01-.144.077-.169.214-.061a1.735,1.735,0,0,0,.806.219l1.4.093c.712.049.8.009.646-.3a.322.322,0,0,1,.186-.468c.22-.068.339.017.3.217-.08.474,1.009,1.042,1.467.766a8.17,8.17,0,0,1,2.4-.177c1.636.021,2.088-.03,2.2-.249a.975.975,0,0,1,.558-.4c.317-.093.376-.021.252.309-.15.4-.136.407.223.066s.4-.342.584-.063c.312.466.746.339.833-.243.073-.49.086-.483.176.094.094.6.138.616,1.014.477a16.809,16.809,0,0,1,3.916-.107,1.445,1.445,0,0,0,.986-.117A.432.432,0,0,1,81,17.712c.168.06.275.032.268-.072s.491-.187,1.116-.206a2.862,2.862,0,0,1,1.117.075c-.037.363.125.421.522.184.34-.2.47-.2.7.013s.352.189.671-.129c.226-.225.408-.292.426-.158.038.3.65.2,1.065-.178.287-.259.337-.255.369.034a.44.44,0,0,0,.471.32c.245-.007.346-.1.231-.215-.144-.141-.038-.147.353-.016a13.754,13.754,0,0,0,2.454.413.962.962,0,0,1,.389.121A2.12,2.12,0,0,0,92.17,17.7c.69-.257.9-.268,1.317-.068.338.163.42.167.263.01-.288-.285-.051-.293.676-.022a1.23,1.23,0,0,0,1.169-.044c.5-.227.632-.219.957.053.351.293.386.287.512-.1.071-.22.268-.416.42-.421s.226.183.152.421c-.131.421-.121.422.466.049.339-.215.59-.491.578-.634-.037-.42.656-.328,1,.133a1.421,1.421,0,0,0,1.6.258c.332-.334,3.4-.249,3.428.094.02.277,1.127.129,1.222-.164s.112-.3.17,0a.467.467,0,0,0,.472.321c.264-.009.337-.128.207-.342-.173-.284-.133-.295.294-.082.283.142.49.186.484.1s.326-.012.719.141c.7.275.741.271,1.065-.105.418-.484.762-.51.814-.061.03.249.093.224.268-.107.126-.24.283-.435.351-.437s.075.188.017.426c-.064.255-.019.342.109.214a1.132,1.132,0,0,1,.651-.238,6.5,6.5,0,0,0,.7-.073c.646-.122,1.008-.017,1.029.3.019.271.063.279.263.047s.432-.246,1.259-.1a2.163,2.163,0,0,0,1.266-.011c.154-.118.389-.084.628.09.43.313,1.028.37.716.068-.152-.147-.05-.162.339-.047a9.378,9.378,0,0,0,1.919.167c1.145,0,1.359-.051,1.339-.34s.021-.3.268-.072.293.182.3-.2c0-.291.063-.355.151-.168a1.073,1.073,0,0,0,1.351.32q.253-.188.681.07c.483.293,1.548.323,1.528.043-.006-.1.168-.141.389-.093a1.294,1.294,0,0,0,.842-.234c.4-.294.481-.269.906.3.253.336.462.471.457.294-.006-.212.183-.307.539-.27a.747.747,0,0,0,.693-.23c.118-.234.257-.22.769.071.624.357,1.4.306,1.416-.093,0-.125.123-.058.277.155.245.337.271.34.275.028,0-.284.168-.327.936-.247a3.258,3.258,0,0,1,1.228.325c.344.263.95.152,1.534-.283.332-.247.415-.231.641.125a.626.626,0,0,0,.77.284,4.631,4.631,0,0,1,1.417.02q.91.144,1-.059c.065-.137.3-.136.75,0a1.219,1.219,0,0,0,1.008,0,.643.643,0,0,1,.709.005c.227.138.35.14.34.007s.227-.257.55-.325.57-.04.577.064c.013.2,1.1.113,1.625-.128a1.075,1.075,0,0,1,.822.058c.508.255,1.846.3,1.83.065s1.078-.2,1.249.053c.1.141.159.1.159-.1,0-.462.859-.244.892.227a.348.348,0,0,0,.311.353c.163-.005.274-.172.259-.389-.036-.512.441-.5.738.014l.246.427.17-.476c.158-.44.176-.445.232-.062.087.6.552.688,1.105.22.6-.508,1.211-.544,1.243-.075a.617.617,0,0,0,.5.466c.664.147.885.111.4-.066-.293-.108-.319-.237-.1-.515.158-.2.3-.282.307-.173.03.3.965.236,1.512-.109.262-.165.493-.241.52-.171s.084.206.131.313.1.237.13.3.283-.038.544-.21c.543-.357.882-.26.917.264a.352.352,0,0,0,.324.334c.163,0,.212-.093.108-.193s-.04-.19.15-.195a1.512,1.512,0,0,0,.739-.358c.363-.317.387-.293.278.272-.139.73-.052.755.672.2.343-.264.57-.338.581-.19.008.132.259.019.541-.243a2.918,2.918,0,0,1,1.115-.615c.488-.1.565-.054.443.294-.128.367-.109.378.143.087s.4-.308,1.233-.1c.693.172.926.34.878.635-.07.437.264.5.756.14a.586.586,0,0,1,.721-.022c.32.161.543.1,1.029-.277a1.408,1.408,0,0,1,.9-.381.436.436,0,0,0,.469-.123c.137-.162.494-.151,1.3.041.776.185,1.193.2,1.393.06.506-.363,1.343-.28,1.372.136a.365.365,0,0,0,.352.37c.192-.006.129.15-.15.377-.466.377-.464.383.1.26a.791.791,0,0,0,.632-.518c.042-.3.273-.4.978-.435,1.005-.047,1.161.136.545.632-.384.308-.355.337.325.316.571-.018.7-.092.55-.316-.107-.16-.106-.238,0-.172s.381-.011.588-.163c.5-.365,1.02-.212.835.247-.121.3.01.335,1.011.249.622-.054,1.157-.011,1.164.091s.19.184.434.176.413-.148.4-.311a.974.974,0,0,1,.407-.62c.377-.284.481-.288.883-.037s.4.306-.127.521c-.318.129-.577.33-.569.443.01.13.171.111.432-.049.236-.145.5-.209.6-.146s.362-.065.568-.271a1.968,1.968,0,0,1,1.333-.413c.518-.016.995-.13,1.046-.249.168-.4,1.072.329.938.751-.1.322-.015.37.552.291a2.124,2.124,0,0,1,1,.069c.225.111.28,0,.18-.359-.08-.288-.058-.418.048-.291a.408.408,0,0,0,.444.113c.14-.065.258-.017.267.11s.248.019.541-.243.539-.37.556-.244.286.184.582.136a.9.9,0,0,1,.944.442c.221.3.494.489.629.434a2.067,2.067,0,0,1,.966.178c.391.149.721.185.714.078-.017-.237,1.1-.28,1.658-.063a2.4,2.4,0,0,0,1.262-.063,2.13,2.13,0,0,1,1.4-.018c.559.206,1.1.114,1.077-.184-.006-.09-.342-.209-.754-.267-.6-.085-.684-.156-.427-.385a4.592,4.592,0,0,1,2.909.025c.474.149.559.141.378-.036-.15-.147-.1-.2.154-.154.607.118,1.084.729.658.844-.188.05-.263.175-.164.27.3.288.7-.04.663-.546-.025-.344.093-.46.4-.393a.659.659,0,0,0,.589-.09c.152-.176.659-.175,2.416.008.791.083.5.576-.389.669-1.191.124-1.508.431-.358.346a3.988,3.988,0,0,1,1.286.074q.337.144.46-.431a.668.668,0,0,1,.585-.589c.271-.009.39.085.288.227s0,.09.212-.1q.386-.337.7-.148a2.919,2.919,0,0,0,1.184.176c.926-.014,1.321.277,1.067.788-.083.166,0,.29.193.284s.268.071.176.176q-.164.186.557-.018c.4-.112.726-.143.732-.068s.108.024.224-.106c.158-.179.384-.146.867.127.652.37.652.37.626-.011-.025-.362,1.426-1.092,1.763-.888s.189.366-.53.61c-.927.314-.7.461.771.507.819.025,1.214-.047,1.3-.241.113-.239.269-.242,1.157-.027,1.33.323,4.6.285,4.261-.048-.089-.088.008-.262.218-.388.261-.158.443-.169.583-.036a.438.438,0,0,0,.43.1c.119-.052.318.045.422.2.162.246.061.288-.543.225-.412-.042-.634-.011-.5.07a5.707,5.707,0,0,0,1.537.17,4.077,4.077,0,0,1,1.655.293c.314.235.358.225.349-.083q-.011-.353.446-.249a3.923,3.923,0,0,0,.593.1c.077,0,.067.08-.027.191s-.042.191.121.186a.447.447,0,0,0,.371-.174c.124-.24,1.64-.5,1.654-.287a.288.288,0,0,1-.2.27c-.119.049-.064.055.124.014a.622.622,0,0,1,.526.119,2.762,2.762,0,0,0,1.446.028c.972-.128,1.259-.108,1.273.088s.083.188.311-.037.328-.238.451-.059c.225.328.695.269,1.115-.143.317-.309.349-.3.389.1.023.235.181.429.343.425s.212-.094.109-.194-.068-.188.1-.193a.649.649,0,0,1,.493.365q.384.7,1.072-.033a.658.658,0,0,1,.772-.223,1.136,1.136,0,0,0,.644.053c.118-.051.237.065.249.247.02.289.064.3.276.046.188-.224.259-.233.283-.036.02.169.193.215.485.13a1.523,1.523,0,0,1,.906.09c.384.189.424.16.259-.2s-.112-.394.35-.247q.544.174.39.514c-.125.276-.084.293.211.093.416-.281,1.234-.365,1.016-.1-.075.09.189.2.574.236.466.045.707-.019.7-.185-.024-.334.406-.338.858-.008s1.154.146,1.132-.289c-.014-.266.027-.263.307.018a.633.633,0,0,0,.587.208.194.194,0,0,1,.284.182.311.311,0,0,0,.307.29c.163-.005.28-.09.271-.2s.164-.195.409-.2.425.048.431.132.255.138.582.127.565-.091.558-.19.168-.132.418-.076a.644.644,0,0,0,.584-.09c.255-.3.684-.22.726.141.032.278.068.27.256-.062.218-.387.326-.319.432.277.057.325,1.078.359,1.387.047.111-.111.219-.006.234.229.036.506.478.54.842.064.25-.325.262-.325.47-.005s.224.32.571-.018.363-.338.57-.026a.424.424,0,0,0,.477.2c.151-.067.118-.221-.079-.36-.246-.174-.257-.28-.04-.37.171-.072.314,0,.325.162.029.413.5.524,1.136.27a.949.949,0,0,1,.985.063A1.738,1.738,0,0,0,262,20.8a.313.313,0,0,1,.328.226c.017.13.2.012.412-.266.328-.434.525-.415.44.04-.014.08.111.152.275.159a2.714,2.714,0,0,1,1.02.169,5.837,5.837,0,0,0,1.452.111c2.1-.035,2.7.024,2.715.263.024.346.5.256.7-.13.15-.3.227-.288.727.077a2.409,2.409,0,0,0,1.579.378c.571-.018,1.025.04,1.032.131.015.223,1.095.076,2.322-.314,1.305-.416,1.352-.416,1.188.007-.1.253,0,.227.412-.112.438-.357.577-.39.725-.167a.727.727,0,0,0,.6.262c.263-.008.366.1.277.282-.08.165,0,.29.183.284s.323-.082.315-.182.2-.234.441-.3c.34-.1.425-.04.337.234-.165.512.8.622,1.378.156a.985.985,0,0,1,.8-.246,2.918,2.918,0,0,0,1.96-.111c.12-.126.276-.045.4.205a2.331,2.331,0,0,0,2.226.374.5.5,0,0,1,.585.083c.414.332,1.579.461,1.8.2.083-.1.565.083,1.041.394.845.554.9.563,1.253.206s.381-.357.584-.036c.146.231.313.277.527.147a2.532,2.532,0,0,1,1.107-.152c.465.023.792-.054.791-.188s.132-.122.358.053a1.4,1.4,0,0,0,.659.29c.71.026,1.6.268,1.611.438.008.113.175.151.388.088a.961.961,0,0,1,.7.087c.243.147.37.115.5-.124a.582.582,0,0,1,.413-.33,7.728,7.728,0,0,1,2.614.753c.006.087.194.051.4-.077.464-.285.877,0,.564.392-.106.133.042.1.33-.074.967-.585,1.309-.675,1.044-.277-.358.536.294,1.188,1,.995a18,18,0,0,1,1.775-.319c.972-.132,1.218-.106,1.235.125.024.344.024.344,1.224-.031a2.652,2.652,0,0,0,1.105-.557c.063-.133.146-.032.178.221.044.343.137.414.345.262.38-.277,1.406-.153,1.429.173.009.133.214.332.468.457.311.152.447.156.437.013-.007-.113.189-.214.434-.222.3-.009.4.1.308.317s0,.182.3-.118c.527-.542.911-.572.744-.059-.089.274.007.38.337.37.245-.008.462-.126.459-.25s.214,0,.47.284c.432.476.51.494.928.216a1.008,1.008,0,0,1,1.041-.107c.809.271,3.314.251,3.295-.026-.008-.122.221,0,.524.283.378.351.65.45.909.334a4.749,4.749,0,0,1,2.6.158.521.521,0,0,0,.69-.087c.433-.412,1.279-.489,1.514-.137a.559.559,0,0,0,.574.191.623.623,0,0,1,.549.055.7.7,0,0,0,.576.046c.213-.064.311-.211.209-.314-.124-.126.03-.162.443-.1s.682-.006.772-.187c.259-.511.71-.293.564.273-.09.348-.017.615.189.689a15.8,15.8,0,0,0,4.167-.08c.243-.287.595-.182.822.246l.228.428.234-.442c.2-.368.82-.468.842-.134,0,.052-.119.044-.287-.018s-.286.018-.274.181c.023.326.472.368.72.068.121-.147.282-.147.565,0,.307.16.5.1.84-.252l.446-.457-.161.44c-.094.256-.03.435.152.43.163-.005.307-.1.3-.2s.123-.194.286-.2.234.067.157.158c-.267.316,1,.34,1.436.026.233-.169.49-.252.587-.189s.355,0,.589-.135c.34-.2.445-.205.558-.018a2.232,2.232,0,0,0,.637.533c.472.287.5.284.568-.062a1.066,1.066,0,0,1,.328-.563c.168-.129.2-.07.08.169s-.076.32.112.232a.413.413,0,0,1,.488.157.408.408,0,0,0,.475.167c.158-.072.2-.2.1-.3s-.026-.181.137-.185a.293.293,0,0,1,.331.243c.012.175.274.22.841.147.513-.067.765-.194.67-.338-.171-.258.588-.572,1.008-.418.4.149.6-.32.239-.581-.595-.435.228-.562.882-.136.885.577,1.136.455,1.116-.542-.01-.507.05-.72.134-.485.09.251.275.366.456.285s.226-.043.118.087c-.2.242.864,1.012,1.13.817.29-.212.161-.442-.218-.382M2.009,13.2c-.163.005-.29-.068-.3-.172s.106-.234.264-.307a.2.2,0,0,1,.3.172.282.282,0,0,1-.265.307m.3-1.532c-.244.008-.374-.075-.284-.181a.642.642,0,0,1,.434-.2c.156-.005.278.073.286.181s-.19.2-.436.2m.992-.229c-.163,0-.292-.073-.3-.182s.109-.193.272-.2.29.073.3.181-.109.194-.272.2m.264-2.274a.381.381,0,0,1-.43.085c-.168-.06-.22-.174-.13-.285a.381.381,0,0,1,.431-.086c.168.06.219.175.129.286m.426,3.974c-.163,0-.29-.073-.3-.182s.109-.193.272-.2.292.073.3.181-.109.194-.272.2m.748-.024c-.272.009-.451-.565-.211-.677.144-.067.276.059.292.276s-.021.4-.081.4m.638,3.488c-.158.072-.283.045-.29-.064s.1-.244.264-.316.282-.045.29.064-.106.243-.264.316m.32-3.617c-.158.072-.283.045-.29-.063s.106-.244.264-.316.283-.046.29.063-.106.244-.264.316m1.308,2.343c-.149,0-.293-.09-.3-.2s.126-.155.278-.1c.168.062.3.147.3.2s-.115.094-.278.1M7.755,5.4c-.224.255-.264.253-.283-.018a.464.464,0,0,1,.243-.439c.344-.16.365.085.04.457m.477-1.437c-.158.072-.283.045-.29-.064s.106-.244.264-.316.282-.045.29.064-.106.244-.264.316m.913-.2c.276.06.446.163.369.224S9.2,3.991,9,3.871c-.3-.183-.272-.2.143-.113m.276.843c-.149.005-.292-.09-.3-.2s.126-.155.28-.1.3.147.3.2-.117.095-.28.1m.79-.8c-.215.241-.272.217-.3-.127-.017-.234.1-.428.27-.434.351-.011.361.188.026.561m.535,1.841a.287.287,0,0,1-.052-.361c.08-.149.154-.1.186.112.029.2-.031.31-.133.248m.839-.275c-.24.071-.355.04-.263-.069a.65.65,0,0,1,.436-.2c.4-.012.308.132-.173.273M12.2,3.65c-.158.071-.231.187-.159.254s-.063.257-.3.417c-.38.261-.408.24-.244-.183a2.168,2.168,0,0,0,.149-.793c-.023-.2.119-.284.38-.227.5.107.577.349.173.532m.383,5.5a.84.84,0,0,1,.253-.479c.155-.168.271-.21.278-.1a.831.831,0,0,1-.252.479c-.155.168-.271.209-.28.1m.359,1.049c-.149,0-.293-.09-.3-.2s.126-.156.28-.1.3.147.3.2-.117.094-.28.1m1.21-7.269c.164-.005.292.073.3.181s-.108.194-.271.2-.292-.073-.3-.182.108-.193.271-.2M14.029,5.22a.328.328,0,0,1-.3-.327c-.02-.289.017-.3.278-.054.378.35.38.369.017.38m.558-.4c-.149,0-.293-.091-.3-.2s.126-.156.278-.1c.168.062.3.147.3.2s-.115.094-.278.1m.186-.849c-.186.169-.38.255-.46.2-.269-.164.167-.723.474-.609.219.081.214.2-.013.4M15.41,19.4a.276.276,0,0,1-.052-.37c.077-.151.153-.1.184.111.029.2-.032.319-.132.258M17.471,3.211c.245-.007.427.063.434.168s-.167.141-.416.086-.431-.126-.433-.169.171-.077.415-.085m.048,1.657c-.424-.211-.551-.7-.186-.709.393-.012.595.181.588.562,0,.254-.111.292-.4.147m1.351-.177c-.133,0-.352-.3-.478-.656-.259-.735-.029-1.244.382-.845a.243.243,0,0,1-.075.42c-.252.133-.245.192.032.258.415.1.535.811.139.824m1.944-1.609c.282.133.528.338.535.446s-.026.162-.074.119S21,3.41,20.741,3.2c-.406-.332-.4-.343.073-.12m.607,1.468c-.331-.047-.574-.009-.566.09s-.1.176-.259.18c-.339.011-.4-.368-.113-.7.271-.317,1.471-.136,1.5.226.014.193-.173.263-.557.208m2.023.091a.27.27,0,0,1-.136-.394c.193-.4.356-.356.387.1.015.217-.1.352-.251.3m1.214-.372A.278.278,0,0,1,24.6,3.9c.077-.151.153-.1.184.112.029.2-.032.318-.131.258m1.217-1.5c-.008-.109.115-.2.271-.208s.288.026.292.073-.114.135-.272.208-.283.036-.29-.073m.676,1.3c-.163.005-.288-.03-.292-.082s.113-.144.271-.217.284-.026.292.082-.123.212-.271.217m.278-1.295A.569.569,0,0,1,26.8,2.3c.067-.14.133-.04.151.231s-.032.379-.118.248m1.753,1.706a.442.442,0,0,0-.468.13c-.134.167-.3.137-.594-.108A1.273,1.273,0,0,1,27.1,4c-.015-.233.966-.211,1.365.031.427.258.512.6.113.451m5.1-.45a.285.285,0,0,1-.3-.271.261.261,0,0,1,.265-.289.287.287,0,0,1,.306.271.262.262,0,0,1-.267.289m1.474.435c-.151.068-.283.036-.29-.073s.115-.2.271-.207.288.025.29.072-.113.136-.271.208m.4-2.278c-.011-.158.2-.3.441-.313.493-.015.437.393-.073.522a.271.271,0,0,1-.369-.21m.919,12.994c-.149,0-.293-.09-.3-.2s.126-.155.278-.1c.168.062.3.147.3.2s-.117.095-.28.1M36.81,4.092c-.532.241-.575.227-.516-.174a.711.711,0,0,1,.578-.517c.694-.109.652.368-.062.691m2.4,1.449c-.165-.028-.324-.14-.33-.234s.134-.22.3-.263a.247.247,0,0,1,.33.234.235.235,0,0,1-.3.263m.618-1.5c-.652.02-1.108-.484-.8-.881.145-.186.289-.25.3-.136s.358.263.771.32c.606.084.682.158.409.4a1.251,1.251,0,0,1-.688.3m.96,9.486c-.3.009-.45-.352-.2-.468a.2.2,0,0,1,.312.165c.011.162-.042.3-.115.3M45.1,3.4a.716.716,0,0,1-.67.166,2.936,2.936,0,0,0-.719-.152c-.934-.062-.616-.234.5-.268,1.06-.032,1.179,0,.89.254m2.708-1.987c.152-.068.284-.036.292.073s-.115.2-.271.207-.288-.025-.292-.072.113-.136.271-.208M46.059,3.091a.421.421,0,0,1,.462.367c.014.217-.084.383-.232.387a.653.653,0,0,1-.456-.294c-.268-.408-.249-.445.226-.46M45.8,5.464c-.158.073-.283.046-.29-.063s.106-.244.264-.316.282-.045.29.063-.106.244-.264.316m.745,12.456a.578.578,0,0,1-.326-.18c-.1-.1-.04-.189.123-.194s.319.081.326.18-.045.192-.123.194m.861-12.659a1.226,1.226,0,0,1-.574-.029c-.5-.111-.7-.44-.277-.453.272-.008.977.391.851.482m.19-2.553a1.272,1.272,0,0,1-.84.249c-.4-.147.292-.888.734-.791a.418.418,0,0,0,.452-.157c.075-.144.138-.122.168.058.026.162-.2.444-.514.641m1.31,1a.542.542,0,0,0-.431-.313c-.413.012-.3-.324.159-.456.331-.1.427.011.428.483,0,.327-.073.458-.157.286m2.832-.4c-.1.293-.2.331-.4.148-.38-.351-.339-.515.13-.529.265-.009.361.125.271.381m.152-.956c-.019-.271.1-.353.415-.285.277.06.406.008.345-.137-.052-.126.062-.278.25-.332.431-.123.441-.034.069.593-.351.591-1.042.694-1.079.161M53.277,9.9c-.163.005-.292-.072-.3-.181s.108-.194.271-.2.292.072.3.181-.108.194-.271.2m.07-6.221c-.693-.378-.691-.542.007-.692.48-.1.562-.04.547.432-.015.527-.043.539-.555.26m.535-1.509a.191.191,0,0,1-.3-.163.272.272,0,0,1,.265-.3c.163,0,.29.065.3.163s-.107.226-.265.3m.948,1.3a.415.415,0,0,1-.439-.2c-.237-.355-.065-.519.374-.357.391.146.421.4.065.557M54.4,1.533c-.9-.061-.958-.239-.106-.344a1.061,1.061,0,0,1,.976.387c0,.01-.377-.009-.87-.043m2.348.84c-.169-.158-.287-.2-.278-.091s-.13.095-.33-.026a.433.433,0,0,1-.188-.52c.2-.4.906-.046,1.011.513.062.324.023.347-.215.125m1.6,2.243c-.156,0-.267-.155-.258-.373s.113-.384.245-.388.243.156.258.373-.09.384-.245.388m.946,9.486c-.149.005-.293-.09-.3-.2s.126-.156.28-.1.3.147.3.2-.117.095-.28.1M61.849,1.545c.169.061.3.14.3.181s-.114.126-.272.2a.2.2,0,0,1-.3-.181.188.188,0,0,1,.271-.2m.387,1.428c-.327.011-.577-.06-.584-.163s.233-.176.56-.171.577.076.583.163-.233.162-.559.171M63.4,17.584a.584.584,0,0,1-.312-.181c-.1-.1-.055-.189.108-.194s.306.077.313.181-.039.191-.109.194m.86-1.73c-.149,0-.293-.091-.3-.2s.126-.156.28-.1.3.147.3.2-.117.094-.28.1M64.6,3.083a.711.711,0,0,1-.657.4c-.3.01-.533-.018-.537-.065a1.623,1.623,0,0,0-.232-.4c-.151-.213-.119-.28.1-.2a.418.418,0,0,0,.468-.133c.082-.141.1-.04.03.234-.1.438-.081.452.258.147.514-.465.733-.458.575.018m1.5-1.75c.163-.005.3.076.312.18s-.039.192-.109.194a.588.588,0,0,1-.312-.181c-.1-.1-.054-.189.109-.193m-.931,2.874c-.164.005-.288-.025-.292-.072s.113-.136.271-.208.283-.036.292.073-.117.2-.271.207m1.5-1a1.439,1.439,0,0,0-.862-.037c-.407.117-.468.06-.349-.325a3.29,3.29,0,0,0,.144-.657c0-.108.175.013.4.277a1.028,1.028,0,0,0,.7.423.265.265,0,0,1,.315.226c.014.2-.079.224-.347.092m2.015-.022a.625.625,0,0,1-.487.054c-.412-.157-.274-.406.29-.524s.7.2.2.47m1.1,13.719c-.168-.061-.3-.182-.3-.28s.109-.176.272-.181a.3.3,0,0,1,.306.281c.012.162-.108.241-.274.18M70.877,2.835a1.167,1.167,0,0,0-.806.1c-.215.254-.7.04-.722-.322-.012-.163.149-.251.366-.2.245.055.547-.162.817-.587.236-.37.569-.623.738-.561.4.148.231.581-.208.53-.455-.053-.393.579.087.891.3.2.25.226-.272.154m.941,1.982a.5.5,0,0,1-.456.1c-.287-.173.1-.553.433-.428.2.074.2.191.023.323m1.047-1.79c-.381.011-.645-.209-.481-.4s.695-.04.713.213c.007.109-.086.184-.232.189m1.257,10.419a.31.31,0,0,1-.307-.29c-.011-.162.113-.248.274-.19s.3.186.306.29-.109.184-.272.19m0-10.4a.542.542,0,0,1-.6-.193c-.114-.178-.073-.345.1-.39.516-.136.288-.552-.406-.74-.61-.166-.615-.181-.1-.335a.9.9,0,0,1,.931.171c.544.455.594,1.337.083,1.487m1.648,7.821a.287.287,0,0,1-.052-.361c.08-.149.153-.1.186.112.029.2-.031.311-.133.248m.885-7.685c-.465-.385-.462-.683.01-.8.162-.041.326.2.364.548.068.6.052.607-.374.256M80.9,8.19c-.151.068-.284.036-.292-.073s.117-.2.271-.208.288.026.292.073-.113.135-.271.208m2.274,8.983c-.3.01-.3-.208.01-.562.2-.228.255-.2.246.128-.007.236-.121.429-.256.434m.795-13.236q-.318.134-.162-.169c.108-.212-.151-.414-.85-.663-.559-.2-1.01-.507-1.016-.694-.008-.309.023-.309.409.005s.434.322.758-.068.365-.356.729.394c.509,1.054.508,1.033.131,1.194m.293-1.08c-.163,0-.292-.073-.3-.181s.109-.194.272-.2.29.073.3.181-.109.194-.272.2m.857.173c-.163,0-.288-.03-.292-.082s.112-.145.27-.217.284-.027.292.082-.121.212-.27.217m.8-.406c-.139,0-.256-.155-.27-.372a.36.36,0,0,1,.368-.392c.263-.009.353.116.271.372-.071.219-.228.387-.369.392m1.455-.045c-.163.005-.3-.154-.312-.371s.1-.383.258-.388.3.154.313.37-.1.384-.259.389M89.211,3a.342.342,0,0,1-.4.175c-.428-.157-.317-.63.126-.534.221.049.347.216.27.359m.307-.49c-.237.007-.431-.114-.441-.277-.035-.5.524-.361.834.21.017.031-.148.059-.393.067m1.571.06a.39.39,0,0,0-.282-.327c-.143-.03-.067-.189.167-.349.393-.269.416-.266.275.028a.294.294,0,0,0,.125.428c.364.138.387.471.033.482a.308.308,0,0,1-.318-.263m.738,14.713c-.149,0-.292-.09-.3-.2s.126-.156.28-.1.3.147.3.2-.117.094-.28.1M92.264,2.81a.3.3,0,0,1-.306-.281.271.271,0,0,1,.265-.3.3.3,0,0,1,.306.28.271.271,0,0,1-.265.3m2.43-1.9a.688.688,0,0,1,.326.588c.019.271-.094.432-.259.37a.688.688,0,0,1-.327-.588c-.019-.271.094-.432.261-.37M93.6,2.561l-.652-.37.927.017c.682.012.934.108.952.36a.321.321,0,0,1-.275.353,2.589,2.589,0,0,1-.952-.36m1.468,7.395a.765.765,0,0,1-.491-.212c-.123-.123-.084-.168.088-.1A.372.372,0,0,0,95.1,9.52c.079-.142.154-.1.183.094a.272.272,0,0,1-.221.342M98.117,2.15c-.255.209-.346.2-.521-.047-.422-.6-.319-.8.265-.5.424.219.488.355.256.546m2.383.769c-.315.372-.315.372-.812.025-.546-.382-.61-1.151-.107-1.282.187-.049.336.124.356.414.021.307.2.493.456.485.337-.011.358.061.107.359m.345-1.7c.3-.019.477.022.387.088a.813.813,0,0,1-.556.035c-.227-.052-.157-.1.169-.123m.231,6.644c-.06,0-.2-.129-.307-.289s-.07-.246.083-.19c.28.1.451.471.224.478m.332-3.055c-.077,0-.275-.155-.462-.366-.263-.3-.24-.352.118-.271.388.087.679.628.344.637m1.834-2.041a3.252,3.252,0,0,1-1.167-.13c-.944-.243-1.295-.681-.447-.559.421.061.57-.048.634-.467.074-.475.1-.457.174.14a.834.834,0,0,0,.6.806c.277.065.371.162.206.211M110.127.738c.377.351.378.369.015.38a.33.33,0,0,1-.3-.327c-.02-.289.018-.3.28-.054m.732,2.442a.25.25,0,0,1-.287-.209c-.011-.148-.146-.137-.434.039-.441.27-.54.064-.174-.364.194-.227.324-.236.69-.05.537.271.641.572.2.585m1.076-1.175c-.156,0-.292-.082-.3-.191s.119-.149.28-.09.3.144.3.191-.117.085-.28.09m2.58.853c-.474-.153-.665-.149-.734.014a.616.616,0,0,1-.5.233c-.278.009-.424-.213-.457-.7-.037-.525.031-.64.256-.434.171.157.3.205.294.109s.171-.079.426.05a.91.91,0,0,0,.7.1c.143-.068.333.072.416.3a3.386,3.386,0,0,0,.2.484,2.1,2.1,0,0,1-.6-.155m8.128-.848a.278.278,0,0,1-.052-.37c.077-.151.154-.1.184.111.029.2-.032.318-.132.258m1.308,1.953c.119.269.1.526-.054.594-.332.151-.777-1.991-.464-2.237a.662.662,0,0,0,.218-.514c-.019-.275.3-.341,1.048-.212a1.187,1.187,0,0,1,.121.575,1.148,1.148,0,0,1-.52.94c-.4.272-.5.514-.35.853m.757.693a.308.308,0,0,1-.306-.29c-.012-.162.113-.249.272-.19s.3.186.307.29-.111.184-.274.19m1.625-3.077c-.256.207-.515.346-.578.308-.24-.145.456-.9.735-.8.184.068.121.264-.157.49m1.02-.049c-.215.241-.272.217-.3-.127-.017-.235.1-.428.269-.434.351-.011.361.188.027.561m.615.643c-.155.07-.289-.046-.3-.263s.1-.393.258-.4a.3.3,0,0,1,.3.263.461.461,0,0,1-.258.4m1.489.634c-.149,0-.293-.091-.3-.2s.126-.156.278-.1c.168.062.3.147.3.2s-.115.094-.278.1m1.963-.36c.162-.074.292.082.312.371s-.088.451-.258.388a.485.485,0,0,1-.312-.37.443.443,0,0,1,.258-.389m.173,8.541c-.249-.054-.449-.182-.457-.294s.184-.1.439.032a1.51,1.51,0,0,1,.456.293c0,.036-.189.022-.438-.032m1-8.268c-.007-.109.106-.244.264-.316s.283-.046.292.063-.106.244-.264.316-.283.045-.292-.063m.581,8.528c-.163,0-.292-.073-.3-.182s.108-.193.271-.2.292.073.3.181-.109.194-.272.2m1.6-5.94c-.163,0-.288-.03-.292-.082s.112-.145.27-.217.284-.027.293.082-.123.212-.271.217M136,1.467c-.12.011-.5.066-.85.122s-.639.016-.646-.089.231-.2.557-.208.563-.137.552-.3a.268.268,0,0,1,.28-.29c.326-.01.431.731.107.762m.488,3.687c-.168-.062-.3-.186-.306-.29s.109-.184.272-.19a.311.311,0,0,1,.307.29c.011.163-.113.249-.274.19m3.058-3.239c-.245.008-.44-.066-.447-.168s.181-.139.43-.085.445.126.449.167-.186.079-.431.086m1.019.349c-.155.005-.292-.082-.3-.191s.119-.149.28-.09.3.143.3.19-.117.085-.281.09M144.327,13.7a.289.289,0,0,1-.052-.361c.08-.149.153-.1.186.112.029.2-.031.31-.133.248m1.464-7.558a.49.49,0,0,1-.033-.47c.073-.129.149-.023.167.23s-.044.364-.133.24m.559-2.917c-.156.005-.292-.082-.3-.19s-.134-.145-.278-.08c-.317.144-.422-.131-.132-.342.208-.152.966.188.984.441.006.093-.112.167-.275.171m8.559.234c-.134.061-.256-.146-.278-.471-.025-.362.1-.584.34-.591.438-.013.387.859-.062,1.061m11.062,0c-.24.068-.433.042-.44-.059s.178-.187.422-.195.438.018.44.06-.182.126-.422.194M168.358,17c-.275.169-.412.154-.55-.06-.1-.16-.136-.286-.074-.288a3.777,3.777,0,0,0,.535-.13c.534-.159.594.168.088.478m.568-3.193a.53.53,0,0,1-.032-.471c.064-.129.134-.022.151.231s-.037.363-.119.24m3.708-8.379c.077-.151.155-.1.186.111.029.2-.033.318-.132.258a.277.277,0,0,1-.054-.37m.375,4.411a.587.587,0,0,1-.325-.181c-.1-.1-.04-.189.123-.194s.319.082.326.181-.045.191-.124.194m4.862-6.095c-.214.058-.324-.009-.256-.155a.77.77,0,0,1,.48-.35c.214-.055.319.008.256.155a.768.768,0,0,1-.48.35m.9.77c-.353.011-.5-.083-.414-.269.1-.22.22-.237.527-.072.549.294.539.32-.113.341m4.009,8.068c-.163.005-.292-.072-.3-.181s.108-.194.273-.2.29.072.3.181-.108.194-.271.2m3.375-9.058a.308.308,0,0,1-.306-.29c-.012-.162.112-.248.272-.19s.3.186.306.29-.109.185-.273.19m.563,2.6a.278.278,0,0,1-.054-.37c.077-.15.153-.1.184.112.029.2-.032.318-.131.258m1.229-1.515c-.163.005-.288-.026-.292-.073s.113-.135.272-.207.283-.036.29.072-.115.2-.271.208m3.7,10.543c-.245.008-.375-.075-.286-.181a.644.644,0,0,1,.436-.2c.156-.005.277.073.286.181s-.192.2-.436.2m3.043,2.625c-.238.176-.97-.042-.988-.3-.008-.124.23-.236.555-.262.514-.04.781.3.433.557m2.659.024c-.414.25-.754.135-.782-.263-.01-.145.227-.261.553-.27.652-.02.753.215.228.533m15.831.4a.588.588,0,0,1-.53-.328c-.115-.322.48-.475.883-.227.307.189.082.542-.353.555m5.269-.833a.579.579,0,0,1-.313-.181c-.1-.1-.054-.188.109-.193s.3.077.312.181-.038.191-.108.193m3.387-14.749c-.163,0-.288-.031-.292-.083s.113-.144.271-.216.284-.027.292.082-.121.212-.271.217M232.52,3.819c-.163.005-.288-.03-.293-.082s.113-.145.271-.217.284-.027.292.082-.121.212-.27.217M238.879,3c-.378.033-.709-.02-.716-.118-.011-.151.641-.182,1.358-.066.261.043-.045.13-.641.183m12.178,16.613c-.149,0-.292-.09-.3-.2s.126-.156.28-.1.3.147.3.2-.117.094-.28.1m3.413-.3c-.156,0-.292-.082-.3-.191s.12-.149.28-.09.3.143.3.19-.117.085-.28.09m12.98,1.322c-.163.005-.288-.03-.292-.082s.112-.145.27-.217.284-.027.293.082-.123.212-.271.217m1.128-.234c-.163.005-.292-.073-.3-.181s.109-.194.272-.2.29.072.3.181-.109.194-.272.2M276.1,8.087c-.083.165-.189.286-.252.288s-.118-.114-.129-.277a.255.255,0,0,1,.252-.289c.158,0,.212.111.129.277m4.968,6.979c-.156.005-.293-.082-.3-.191s.12-.149.28-.09.3.143.3.19-.117.085-.28.09m7.758,6.948a.277.277,0,0,1-.052-.37c.076-.151.154-.1.184.112.029.2-.033.318-.132.258m.208-3.668c-.151.068-.284.036-.292-.073s.115-.2.271-.207.288.025.292.072-.113.136-.271.208m6.279,4.093c-.163.005-.292-.072-.3-.181s.109-.194.272-.2.29.073.3.182-.108.193-.271.2m1.554-2.332c-.163.005-.288-.03-.292-.082s.112-.144.271-.216c.144-.067.283-.027.292.082s-.123.212-.271.216m5.375,1.674a.287.287,0,0,1-.052-.361c.08-.149.154-.1.186.112.029.2-.031.311-.133.248m11.547-7.524a.578.578,0,0,1-.312-.181c-.1-.1-.055-.189.108-.193s.306.077.313.181-.039.191-.109.193m3.373,7.563c-.24.068-.432.05-.439-.041s.176-.216.416-.284.433-.051.439.04-.176.216-.416.285m.9,1a.286.286,0,0,1-.052-.361c.08-.149.154-.1.184.112.029.2-.031.311-.132.248m5.02-7.7a.653.653,0,0,1-.4.52c-.213.053-.288-.064-.206-.32.181-.567.682-.733.6-.2m3.327,1.982c-.163.005-.29-.073-.3-.181s.109-.194.273-.2.292.073.3.182-.108.193-.273.2m1.182-5.736a.646.646,0,0,1,.436-.2c.156-.005.277.073.284.182s-.19.2-.434.2-.375-.076-.286-.182m.551,9.87c-.163.005-.288-.026-.292-.072s.113-.136.271-.208.284-.036.292.073-.115.2-.271.207m6.409-6.568c-.151.068-.283.036-.292-.073s.117-.2.272-.208.287.026.29.073-.113.136-.271.208m1.766,10.884a.591.591,0,0,1-.313-.181c-.1-.1-.054-.189.109-.193s.3.076.312.18-.038.192-.108.194m2.2,1.075a.311.311,0,0,1-.307-.29c-.011-.163.113-.249.274-.191s.3.187.306.29-.109.185-.272.191m3.2-9.8a.578.578,0,0,1-.326-.18c-.1-.1-.04-.19.123-.194s.319.081.326.18-.045.191-.123.194m1.653,9.465c-.161,0-.223-.12-.143-.286s.2-.3.265-.3.132.123.143.285a.272.272,0,0,1-.265.3m1.809-6.907c-.164,0-.292-.073-.3-.182s.108-.194.271-.2.292.072.3.181-.108.194-.271.2m.84,3.861c-.168-.061-.3-.19-.307-.3s.113-.143.281-.081.3.19.307.3-.113.143-.281.081m.869,2.693a.277.277,0,0,1-.052-.37c.077-.151.154-.1.184.112.029.2-.032.318-.132.258m.336-11.629a.286.286,0,0,1-.052-.361c.08-.149.154-.1.184.112.029.2-.031.311-.132.248m1.18,12.073a.48.48,0,0,1-.562-.238c-.136-.3-.076-.316.4-.138.643.242.643.242.162.376m1.189-.935c-.353.011-.581-.113-.595-.326-.027-.4.14-.429.7-.128.6.323.575.433-.1.454m1.541-6.627c-.163.005-.3-.154-.312-.371s.1-.383.259-.388.3.154.312.37-.1.384-.259.389" transform="translate(0.03 0)" fill="#ff9934"/>
      <path id="Path_1809" data-name="Path 1809" d="M294.831,18.2c-.1.2.02.445.317.624.675.41.762.285.267-.389-.338-.46-.446-.5-.583-.235" transform="translate(55.988 -2.201)" fill="#ff9934"/>
      <path id="Path_1810" data-name="Path 1810" d="M295.257,30.754a.383.383,0,0,0,.425.038c.362-.165.312-.224-.177-.209-.218.007-.333.087-.247.171" transform="translate(56.07 -3.732)" fill="#ff9934"/>
      <path id="Path_1811" data-name="Path 1811" d="M294.451,30.587c-.381.011-.54.062-.346.111a1.574,1.574,0,0,0,.707-.022c.187-.06.02-.1-.361-.089" transform="translate(55.841 -3.733)" fill="#ff9934"/>
      <path id="Path_1812" data-name="Path 1812" d="M293.412,31.044c-.245.008-.443.1-.436.2s.13.186.286.182a.655.655,0,0,0,.436-.2c.089-.107-.04-.19-.286-.182" transform="translate(55.642 -3.789)" fill="#ff9934"/>
      <path id="Path_1813" data-name="Path 1813" d="M177.072,20.714c-.475-.241-1.015-.1-.99.266.01.126.343.225.723.213.816-.025.892-.162.267-.479" transform="translate(33.442 -2.513)" fill="#ff9934"/>
      <path id="Path_1814" data-name="Path 1814" d="M175.385,20.676c-.158.072-.271.208-.264.316s.132.136.29.064.272-.208.264-.317-.132-.135-.29-.063" transform="translate(33.259 -2.518)" fill="#ff9934"/>
      <path id="Path_1815" data-name="Path 1815" d="M161.213,19.973a.351.351,0,0,0-.4.183q-.145.277.257.164c.481-.135.51-.211.139-.348" transform="translate(30.535 -2.436)" fill="#ff9934"/>
      <path id="Path_1816" data-name="Path 1816" d="M145.8,19.581a.278.278,0,0,0,.052.37c.1.061.161-.059.132-.257-.031-.217-.107-.263-.184-.112" transform="translate(27.682 -2.379)" fill="#ff9934"/>
      <path id="Path_1817" data-name="Path 1817" d="M144.9,19.917c-.1.064.029.213.282.342.521.263.572.212.176-.175-.163-.158-.363-.231-.458-.167" transform="translate(27.514 -2.428)" fill="#ff9934"/>
      <path id="Path_1818" data-name="Path 1818" d="M139.064,19.485c-.679.021-.74.129-.145.257a.675.675,0,0,0,.593-.09c.082-.1-.121-.177-.447-.168" transform="translate(26.306 -2.378)" fill="#ff9934"/>
      <path id="Path_1819" data-name="Path 1819" d="M35.217,21.942a1.019,1.019,0,0,0-.69.073c-.142.1.054.175.463.179.79.009.894-.105.227-.252" transform="translate(6.549 -2.675)" fill="#ff9934"/>
      <path id="Path_1820" data-name="Path 1820" d="M19.465,22.742c-.163.005-.28.09-.272.2s.136.186.3.182.281-.09.272-.2-.136-.186-.3-.181" transform="translate(3.645 -2.775)" fill="#ff9934"/>
      <path id="Path_1821" data-name="Path 1821" d="M2.075,17.292c.026.38.15.585.308.512.359-.165.338-.5-.054-.864-.223-.209-.287-.119-.255.352" transform="translate(0.393 -2.054)" fill="#ff9934"/>
      <path id="Path_1822" data-name="Path 1822" d="M1.331,6.485c.163,0,.274-.171.259-.388s-.149-.376-.313-.371S1,5.9,1.019,6.115s.149.376.312.37" transform="translate(0.193 -0.699)" fill="#ff9934"/>
      <path id="Path_1823" data-name="Path 1823" d="M.418,14.347c-.249-.055-.425-.027-.418.068s.2.255.449.385c.357.181.434.168.419-.068-.012-.162-.208-.331-.45-.385" transform="translate(0 -1.747)" fill="#ff9934"/>
      <path id="Path_1824" data-name="Path 1824" d="M104.222,2.875c-.182.133-.258.29-.167.341s.246-.062.337-.246c.136-.277.1-.294-.17-.095" transform="translate(19.755 -0.334)" fill="#ff9934"/>
    </g>
  </g>
</svg>
