<svg id="Group_1845" data-name="Group 1845" xmlns="http://www.w3.org/2000/svg" width="20" height="20" viewBox="0 0 20 20">
  <path id="Path_1568" data-name="Path 1568" d="M0,20V0H20V20Z" fill="#c4c4c4" fill-rule="evenodd" opacity="0.01"/>
  <path id="Path_1569" data-name="Path 1569" d="M10.333,18.667a8.333,8.333,0,1,1,8.333-8.333A8.333,8.333,0,0,1,10.333,18.667Z" transform="translate(-0.333 -0.333)" fill="none" stroke="#292d32" stroke-linecap="round" stroke-linejoin="round" stroke-width="1.5" fill-rule="evenodd"/>
  <path id="Path_1570" data-name="Path 1570" d="M7.923,3h.833a23.686,23.686,0,0,0,0,15H7.923" transform="translate(-1.256 -0.5)" fill="none" stroke="#292d32" stroke-linecap="round" stroke-linejoin="round" stroke-width="1.5"/>
  <path id="Path_1571" data-name="Path 1571" d="M15,3a23.686,23.686,0,0,1,0,15" transform="translate(-2.5 -0.5)" fill="none" stroke="#292d32" stroke-linecap="round" stroke-linejoin="round" stroke-width="1.5"/>
  <path id="Path_1572" data-name="Path 1572" d="M3,15.833V15a23.686,23.686,0,0,0,15,0v.833" transform="translate(-0.5 -2.5)" fill="none" stroke="#292d32" stroke-linecap="round" stroke-linejoin="round" stroke-width="1.5"/>
  <path id="Path_1573" data-name="Path 1573" d="M3,8.756a23.686,23.686,0,0,1,15,0" transform="translate(-0.5 -1.256)" fill="none" stroke="#292d32" stroke-linecap="round" stroke-linejoin="round" stroke-width="1.5"/>
</svg>
