<svg xmlns="http://www.w3.org/2000/svg" xmlns:xlink="http://www.w3.org/1999/xlink" width="80.486" height="76.18" viewBox="0 0 80.486 76.18"><defs><style>.a,.d{isolation:isolate;}.b{fill:url(#a);}.c{fill:url(#b);}.d{opacity:0.7;mix-blend-mode:overlay;fill:url(#c);}.e{fill:url(#d);}</style><linearGradient id="a" x1="-0.029" y1="0.333" x2="0.936" y2="0.877" gradientUnits="objectBoundingBox"><stop offset="0" stop-color="#31ffae"/><stop offset="0.011" stop-color="#2af3a6"/><stop offset="0.039" stop-color="#1eda96"/><stop offset="0.065" stop-color="#16cb8c"/><stop offset="0.086" stop-color="#14c689"/><stop offset="0.136" stop-color="#0eb17e"/><stop offset="0.207" stop-color="#079b74"/><stop offset="0.285" stop-color="#038c6c"/><stop offset="0.374" stop-color="#008268"/><stop offset="0.501" stop-color="#008067"/><stop offset="0.637" stop-color="#008268"/><stop offset="0.729" stop-color="#038b6c"/><stop offset="0.809" stop-color="#079a74"/><stop offset="0.88" stop-color="#0db07e"/><stop offset="0.934" stop-color="#14c689"/><stop offset="0.95" stop-color="#17cb8b"/><stop offset="0.971" stop-color="#21dc91"/><stop offset="0.994" stop-color="#31f79b"/><stop offset="1" stop-color="#36ff9f"/></linearGradient><linearGradient id="b" x1="0.305" y1="1.146" x2="0.694" y2="-0.14" gradientUnits="objectBoundingBox"><stop offset="0" stop-color="#08bf8c"/><stop offset="0.411" stop-color="#20e49f"/><stop offset="0.673" stop-color="#31ffae"/><stop offset="0.99" stop-color="#6effcd"/></linearGradient><linearGradient id="c" x1="0.594" y1="-0.054" x2="0.407" y2="1.05" gradientUnits="objectBoundingBox"><stop offset="0.076" stop-color="#d9ffff"/><stop offset="1" stop-color="#d9ffff" stop-opacity="0"/></linearGradient><linearGradient id="d" x1="0.58" y1="-0.243" x2="0.224" y2="2.385" gradientUnits="objectBoundingBox"><stop offset="0" stop-color="#cff"/><stop offset="1" stop-color="#a8e7ff"/></linearGradient></defs><g class="a" transform="translate(-232.368 -59.707)"><path class="b" d="M303.3,120.69c.169-.225.342-.446.5-.677.278-.4.537-.8.794-1.213.126-.2.261-.4.382-.6.366-.621.711-1.256,1.026-1.907l4.185-8.671c-.315.652-.66,1.286-1.025,1.909-.122.2-.255.4-.382.6-.257.411-.517.821-.8,1.217-.16.229-.333.45-.5.675-.266.354-.536.706-.819,1.048-.19.227-.387.45-.583.672q-.43.485-.884.953c-.21.215-.423.429-.641.638-.315.3-.641.6-.97.889-.224.2-.446.393-.677.582-.354.292-.721.573-1.09.848-.226.169-.446.342-.677.5-.428.3-.872.587-1.318.868-.19.119-.371.247-.564.362-.645.388-1.309.757-1.991,1.1-.113.057-.233.106-.346.162-.575.282-1.157.553-1.757.8-.25.106-.509.2-.765.3-.474.187-.952.37-1.439.536-.3.1-.6.192-.9.286-.463.143-.929.283-1.4.41-.321.085-.645.164-.971.241-.472.112-.948.216-1.431.31-.333.066-.669.129-1.008.186-.494.081-.993.152-1.5.216-.337.043-.671.088-1.011.122-.535.055-1.079.091-1.624.124-.316.019-.63.046-.951.057-.587.022-1.185.019-1.783.016-.3,0-.592.008-.893,0-.9-.024-1.812-.073-2.734-.156-21.029-1.873-39.011-18.429-40.149-36.981a27.406,27.406,0,0,1,2.606-13.706l-4.185,8.67a27.409,27.409,0,0,0-2.606,13.706c1.138,18.554,19.12,35.108,40.149,36.982.921.081,1.832.13,2.734.154.3.009.594,0,.893,0,.513,0,1.028.015,1.533,0,.085,0,.167-.012.25-.016.32-.011.633-.038.951-.057.545-.033,1.088-.069,1.624-.123.34-.035.675-.08,1.01-.123.5-.064,1-.134,1.5-.216.339-.057.675-.12,1.009-.186q.722-.14,1.427-.309c.327-.078.653-.156.975-.242.473-.126.937-.265,1.4-.408.3-.095.608-.185.906-.287.487-.167.963-.349,1.437-.535.255-.1.514-.192.766-.3.6-.252,1.182-.523,1.757-.806.114-.056.233-.1.346-.162.682-.345,1.346-.715,1.992-1.1.191-.114.372-.242.56-.36.447-.282.891-.568,1.32-.87.231-.163.452-.336.677-.5.37-.277.737-.556,1.089-.847.231-.19.455-.387.678-.583.331-.291.655-.585.97-.889.218-.209.43-.422.641-.638q.454-.467.884-.952c.2-.222.394-.445.582-.673C302.765,121.4,303.035,121.044,303.3,120.69Z" transform="translate(0 2.955)"/><path class="c" d="M312.055,96.863c-1.138-18.544-19.12-35.108-40.16-36.982S234.73,71.53,235.868,90.074s19.12,35.108,40.149,36.981S313.194,115.416,312.055,96.863Z" transform="translate(0.742 0)"/><path class="d" d="M312.055,96.863c-1.138-18.544-19.12-35.108-40.16-36.982S234.73,71.53,235.868,90.074s19.12,35.108,40.149,36.981S313.194,115.416,312.055,96.863Zm-7.523,20.184c-5.948,6.322-14.7,9.805-24.648,9.805h0c-1.261,0-2.55-.058-3.832-.173-20.825-1.856-38.681-18.288-39.806-36.629a26.7,26.7,0,0,1,7.149-20.16c5.947-6.324,14.7-9.806,24.639-9.806,1.259,0,2.548.058,3.829.173,20.829,1.856,38.692,18.288,39.816,36.629A26.7,26.7,0,0,1,304.532,117.047Z" transform="translate(0.742 0)"/><path class="e" d="M282.308,78.308l-15.96,13.385-8.46-7.792-6.533,5.475,15.741,14.5,22.493-18.861Z" transform="translate(4.094 4.011)"/></g></svg>