<svg xmlns="http://www.w3.org/2000/svg" xmlns:xlink="http://www.w3.org/1999/xlink" width="50" height="50" viewBox="0 0 50 50">
  <defs>
    <linearGradient id="linear-gradient" x1="0.017" y1="0.093" x2="0.985" y2="0.923" gradientUnits="objectBoundingBox">
      <stop offset="0" stop-color="#f70049"/>
      <stop offset="1" stop-color="#fc8900"/>
    </linearGradient>
  </defs>
  <g id="Group_2182" data-name="Group 2182" transform="translate(-1784 -10886)">
    <rect id="Rectangle_834" data-name="Rectangle 834" width="50" height="50" rx="12" transform="translate(1784 10886)" fill="url(#linear-gradient)"/>
    <g id="Group_2181" data-name="Group 2181" transform="translate(-95.285 -79.285)">
      <rect id="Rectangle_836" data-name="Rectangle 836" width="35" height="35" transform="translate(1887.285 10973.284)" fill="none"/>
      <g id="Group_2178" data-name="Group 2178" transform="translate(1889.967 10977.455)">
        <path id="Path_1849" data-name="Path 1849" d="M16.882,28.8H9.441C4.976,28.8,2,26.567,2,21.358V10.941C2,5.732,4.976,3.5,9.441,3.5H24.323c4.465,0,7.441,2.232,7.441,7.441v4.465" transform="translate(-2 -3.5)" fill="none" stroke="#fff" stroke-linecap="round" stroke-linejoin="round" stroke-miterlimit="10" stroke-width="2"/>
        <path id="Path_1850" data-name="Path 1850" d="M21.882,9l-4.658,3.72a4.711,4.711,0,0,1-5.581,0L7,9" transform="translate(0.441 -0.815)" fill="none" stroke="#fff" stroke-linecap="round" stroke-linejoin="round" stroke-miterlimit="10" stroke-width="2"/>
        <path id="Path_1851" data-name="Path 1851" d="M21.182,15.05l-5.268,5.268a1.834,1.834,0,0,0-.447.878l-.283,2.009a.945.945,0,0,0,1.131,1.131l2.009-.283a1.77,1.77,0,0,0,.878-.446l5.268-5.268a2.031,2.031,0,0,0,0-3.3A2.025,2.025,0,0,0,21.182,15.05Z" transform="translate(4.43 1.722)" fill="none" stroke="#fff" stroke-linecap="round" stroke-linejoin="round" stroke-miterlimit="10" stroke-width="2"/>
        <path id="Path_1852" data-name="Path 1852" d="M18.7,15.28a4.74,4.74,0,0,0,3.3,3.3" transform="translate(6.153 2.251)" fill="none" stroke="#fff" stroke-linecap="round" stroke-linejoin="round" stroke-miterlimit="10" stroke-width="2"/>
      </g>
    </g>
  </g>
</svg>
