<svg xmlns="http://www.w3.org/2000/svg" xmlns:xlink="http://www.w3.org/1999/xlink" width="50" height="50" viewBox="0 0 50 50">
  <defs>
    <linearGradient id="linear-gradient" x1="0.109" y1="0.032" x2="0.902" y2="0.964" gradientUnits="objectBoundingBox">
      <stop offset="0" stop-color="#a4e0ff"/>
      <stop offset="1" stop-color="#00a8ff"/>
    </linearGradient>
  </defs>
  <g id="Group_2076" data-name="Group 2076" transform="translate(-1216 -11367)">
    <circle id="Ellipse_2762" data-name="Ellipse 2762" cx="25" cy="25" r="25" transform="translate(1216 11367)" fill="url(#linear-gradient)"/>
    <g id="Group_2015" data-name="Group 2015" transform="translate(1228 11379)">
      <path id="Path_1765" data-name="Path 1765" d="M22.778,15A7.772,7.772,0,0,1,15,22.778l1.167-1.944" transform="translate(1.667 1.667)" fill="none" stroke="#fff" stroke-linecap="round" stroke-linejoin="round" stroke-width="1.5"/>
      <path id="Path_1766" data-name="Path 1766" d="M2,9.778A7.772,7.772,0,0,1,9.778,2L8.611,3.944" transform="translate(0.222 0.222)" fill="none" stroke="#fff" stroke-linecap="round" stroke-linejoin="round" stroke-width="1.5"/>
      <path id="Path_1767" data-name="Path 1767" d="M13.7,4.45l4.422,2.556L22.5,4.461" transform="translate(1.522 0.494)" fill="none" stroke="#fff" stroke-linecap="round" stroke-linejoin="round" stroke-width="1.5"/>
      <path id="Path_1768" data-name="Path 1768" d="M17.68,11.273V6.74" transform="translate(1.964 0.749)" fill="none" stroke="#fff" stroke-linecap="round" stroke-linejoin="round" stroke-width="1.5"/>
      <path id="Path_1769" data-name="Path 1769" d="M14.45,3.711a2.374,2.374,0,0,0-1.1,1.867V8.4a2.346,2.346,0,0,0,1.1,1.867l2.667,1.478a2.354,2.354,0,0,0,2.078,0l2.667-1.478a2.374,2.374,0,0,0,1.1-1.867V5.578a2.346,2.346,0,0,0-1.1-1.867L19.194,2.233a2.429,2.429,0,0,0-2.078,0Z" transform="translate(1.483 0.222)" fill="none" stroke="#fff" stroke-linecap="round" stroke-linejoin="round" stroke-width="1.5"/>
      <path id="Path_1770" data-name="Path 1770" d="M2.35,15.45l4.411,2.555,4.389-2.544" transform="translate(0.261 1.717)" fill="none" stroke="#fff" stroke-linecap="round" stroke-linejoin="round" stroke-width="1.5"/>
      <path id="Path_1771" data-name="Path 1771" d="M6.32,22.273V17.74" transform="translate(0.702 1.971)" fill="none" stroke="#fff" stroke-linecap="round" stroke-linejoin="round" stroke-width="1.5"/>
      <path id="Path_1772" data-name="Path 1772" d="M3.1,14.711A2.374,2.374,0,0,0,2,16.578V19.4a2.346,2.346,0,0,0,1.1,1.867l2.667,1.478a2.354,2.354,0,0,0,2.078,0l2.667-1.478a2.374,2.374,0,0,0,1.1-1.867V16.578a2.346,2.346,0,0,0-1.1-1.867L7.844,13.233a2.429,2.429,0,0,0-2.078,0Z" transform="translate(0.222 1.444)" fill="none" stroke="#fff" stroke-linecap="round" stroke-linejoin="round" stroke-width="1.5"/>
      <path id="Path_1773" data-name="Path 1773" d="M26.667,0V26.667H0V0Z" fill="#c4c4c4" opacity="0.01"/>
    </g>
  </g>
</svg>
