<svg xmlns="http://www.w3.org/2000/svg" width="238.429" height="41" viewBox="0 0 238.429 41">
  <path id="Path_231" data-name="Path 231" d="M35.124,24.5a2.153,2.153,0,0,1-2.2.147c-.813-.459-1.26-1.534-1.26-3.029V17.145c0-2.16-.854-3.7-2.282-4.112-2.42-.7-4.24,2.256-4.924,3.368l-4.268,6.92V14.863c-.048-1.946-.68-3.11-1.88-3.461-.794-.232-1.982-.139-3.136,1.627L5.615,28.383A16.869,16.869,0,0,1,3.671,20.5,16.668,16.668,0,0,1,20.193,3.727,16.667,16.667,0,0,1,36.714,20.5c0,.016,0,.03.005.045s0,.03,0,.046a4.18,4.18,0,0,1-1.593,3.91Zm5.261-4h0v-.092A20.369,20.369,0,0,0,20.192,0,20.371,20.371,0,0,0,0,20.5,20.372,20.372,0,0,0,20.193,41a19.962,19.962,0,0,0,13.728-5.467,1.882,1.882,0,0,0,.1-2.633,1.817,1.817,0,0,0-2.594-.1A16.333,16.333,0,0,1,7.9,31.69l8.623-13.846v6.383c0,3.066,1.189,4.057,2.186,4.347s2.523.092,4.124-2.508l4.743-7.689c.152-.248.292-.462.42-.647v3.888c0,2.866,1.148,5.158,3.149,6.287a5.774,5.774,0,0,0,5.92-.24c2.24-1.415,3.447-4.022,3.321-7.164Zm28.113-7a1.982,1.982,0,0,1,.9,1.542,1.759,1.759,0,0,1-1.713,1.738,2.051,2.051,0,0,1-.646-.131A6.564,6.564,0,0,0,63.2,15.334c-3.36,0-5.687,2.755-5.687,6.166s2.327,6.134,5.687,6.134A6.3,6.3,0,0,0,67.5,25.9a1.745,1.745,0,0,1,1-.328,1.612,1.612,0,0,1,1.616,1.64,1.734,1.734,0,0,1-.808,1.41,9.548,9.548,0,0,1-6.075,2.3,9.513,9.513,0,0,1,0-19.024A9.355,9.355,0,0,1,68.5,13.5Zm9.454,3.969a6.623,6.623,0,0,1,6.5,6.658,6.74,6.74,0,0,1-6.5,6.79,6.852,6.852,0,0,1-6.754-6.79A6.739,6.739,0,0,1,77.952,17.466Zm-.033,10.168c1.552,0,2.876-1.476,2.876-3.477a2.976,2.976,0,0,0-2.876-3.247,3.029,3.029,0,0,0-3.07,3.247A3.252,3.252,0,0,0,77.919,27.634Zm8.743,1.246V19.5a1.849,1.849,0,0,1,1.81-1.87,1.876,1.876,0,0,1,1.842,1.87v9.38a1.876,1.876,0,0,1-1.842,1.87,1.849,1.849,0,0,1-1.81-1.87Zm-.29-14.792a2.148,2.148,0,0,1,2.1-2.2,2.182,2.182,0,0,1,2.165,2.2,2.148,2.148,0,0,1-2.165,2.132A2.112,2.112,0,0,1,86.372,14.088ZM97.312,23.8V28.88a1.877,1.877,0,0,1-1.843,1.87,1.85,1.85,0,0,1-1.81-1.87V19.073a1.446,1.446,0,0,1,1.423-1.443,1.419,1.419,0,0,1,1.39,1.443,5.393,5.393,0,0,1,4.006-1.607c3.652,0,5.268,2.755,5.268,5.871V28.88a1.876,1.876,0,0,1-1.842,1.87,1.849,1.849,0,0,1-1.81-1.87V23.8c0-1.607-.194-2.952-2.488-2.952-1.616,0-2.295,1.345-2.295,2.952Zm20.311,1.936a1.189,1.189,0,0,1-.937-.46l-4.266-4.624V28.88a1.876,1.876,0,0,1-1.842,1.87,1.849,1.849,0,0,1-1.81-1.87V12.58a.714.714,0,0,1,.68-.46,1.2,1.2,0,0,1,.775.46l6.786,7.642a.649.649,0,0,0,1.163,0l6.787-7.643a1.2,1.2,0,0,1,.775-.46.715.715,0,0,1,.679.46v16.3a1.849,1.849,0,0,1-1.81,1.87,1.876,1.876,0,0,1-1.842-1.87V20.648L118.5,25.272a1.165,1.165,0,0,1-.873.46Zm17.565,1.9a3.248,3.248,0,0,0,3.037-3.477,3.117,3.117,0,0,0-3.037-3.313,3.041,3.041,0,0,0-2.909,3.313A3.216,3.216,0,0,0,135.188,27.634Zm3.878,1.673L139,28.88c-.71,1.41-2.973,2.034-4.427,2.034-3.426,0-5.946-3.116-5.946-6.79s2.585-6.658,6.14-6.658A5.661,5.661,0,0,1,139,19.5l.065-.427a1.418,1.418,0,0,1,1.39-1.443,1.445,1.445,0,0,1,1.421,1.443V29.307a1.445,1.445,0,0,1-1.422,1.443,1.419,1.419,0,0,1-1.39-1.443Zm12.943-8.463h-.387c-2.295.132-2.747,1.444-2.747,2.952V28.88a1.876,1.876,0,0,1-1.842,1.87,1.849,1.849,0,0,1-1.81-1.87V19.073a1.445,1.445,0,0,1,1.422-1.443,1.418,1.418,0,0,1,1.39,1.443,5.181,5.181,0,0,1,3.587-1.607h.355a1.689,1.689,0,0,1,.032,3.378Zm14.075,7.184a1.661,1.661,0,0,1,.259.885,1.911,1.911,0,0,1-1.81,1.837,2.256,2.256,0,0,1-1.616-1.017l-4.2-4.887V28.88a1.877,1.877,0,0,1-1.843,1.87,1.849,1.849,0,0,1-1.81-1.87V13.99a1.849,1.849,0,0,1,1.81-1.87,1.876,1.876,0,0,1,1.842,1.87v9.282l4.2-4.658a2.255,2.255,0,0,1,1.584-.984,1.846,1.846,0,0,1,1.745,1.8,1.607,1.607,0,0,1-.227.853l-3.328,3.64,3.393,4.1Zm7.16-7.118c-1,0-2.618.525-2.618,2.066h5.267c0-1.574-1.68-2.066-2.65-2.066Zm4.782,4.4h-7.4c0,2.2,2.1,2.526,3.037,2.526a6.4,6.4,0,0,0,2.392-.46,1.775,1.775,0,0,1,.937-.3,1.516,1.516,0,0,1,1.486,1.51,1.565,1.565,0,0,1-.807,1.311,6.7,6.7,0,0,1-3.975,1.017c-3.684,0-6.754-2-6.754-6.626,0-3.64,1.874-6.822,6.237-6.822,3.522,0,6.2,2.3,6.269,6.4a1.445,1.445,0,0,1-1.422,1.443Zm10.165,5.609h-1c-2.78,0-4.4-1.214-4.4-5.576V20.844h-.937a1.69,1.69,0,0,1,0-3.378h.937V13.989a1.849,1.849,0,0,1,1.81-1.87,1.877,1.877,0,0,1,1.842,1.87v3.477h1.518a1.689,1.689,0,0,1,0,3.378h-1.518v3.772c0,2.493.129,3.018,1.228,3.018h.517a1.633,1.633,0,0,1,1.615,1.64,1.654,1.654,0,0,1-1.615,1.64ZM205.885,13.5a1.985,1.985,0,0,1,.9,1.542,1.759,1.759,0,0,1-1.713,1.738,2.045,2.045,0,0,1-.646-.131,6.564,6.564,0,0,0-3.846-1.312c-3.36,0-5.688,2.755-5.688,6.166s2.327,6.134,5.688,6.134a6.3,6.3,0,0,0,4.3-1.738,1.745,1.745,0,0,1,1-.328,1.611,1.611,0,0,1,1.615,1.64,1.733,1.733,0,0,1-.807,1.41,9.551,9.551,0,0,1-6.076,2.3,9.513,9.513,0,0,1,0-19.024,9.355,9.355,0,0,1,5.268,1.607Zm9.26,14.137a3.248,3.248,0,0,0,3.037-3.477,3.118,3.118,0,0,0-3.038-3.313,3.041,3.041,0,0,0-2.908,3.313,3.216,3.216,0,0,0,2.908,3.477Zm3.877,1.673-.064-.427c-.711,1.41-2.973,2.034-4.428,2.034-3.425,0-5.946-3.116-5.946-6.79s2.586-6.658,6.14-6.658a5.664,5.664,0,0,1,4.234,2.034l.064-.427a1.418,1.418,0,0,1,1.39-1.443,1.446,1.446,0,0,1,1.422,1.443V29.307a1.446,1.446,0,0,1-1.422,1.443A1.418,1.418,0,0,1,219.022,29.307Zm12.847-1.673a3.215,3.215,0,0,0,2.908-3.477,3.04,3.04,0,0,0-2.908-3.313,3.117,3.117,0,0,0-3.038,3.313A3.249,3.249,0,0,0,231.869,27.634Zm-3.038,2.2v4.657a1.876,1.876,0,0,1-1.842,1.87,1.85,1.85,0,0,1-1.81-1.87V19.073a1.411,1.411,0,1,1,2.813.131,5.821,5.821,0,0,1,4.3-1.738c3.555,0,6.14,2.985,6.14,6.658s-2.52,6.79-5.946,6.79a6.658,6.658,0,0,1-3.652-1.082Z" fill="#3861fb" fill-rule="evenodd"/>
</svg>
