<svg xmlns="http://www.w3.org/2000/svg" width="159" height="159" viewBox="0 0 159 159"><defs><style>.a{fill:#edf3fc;}.b{fill:#00a8ff;}.c{fill:#5d8ef9;}.d{fill:#8ac9f9;}.e{fill:#fff;}</style></defs><g transform="translate(-1318 -467)"><path class="a" d="M134.329,67.163A67.164,67.164,0,1,1,67.163,0,67.165,67.165,0,0,1,134.329,67.163Z" transform="translate(1330.47 479.203)"/><path class="a" d="M79.5,159A79.5,79.5,0,1,1,159,79.5,79.59,79.59,0,0,1,79.5,159Zm0-156.453A76.953,76.953,0,1,0,156.453,79.5,77.04,77.04,0,0,0,79.5,2.547Z" transform="translate(1318 467)"/><path class="b" d="M0,52.932V7.277A7.278,7.278,0,0,1,7.278,0h63.5a7.277,7.277,0,0,1,7.277,7.277V52.932Z" transform="translate(1358.604 514.42)"/><path class="c" d="M0,0V3.239a4.9,4.9,0,0,0,4.9,4.9H89.622a4.9,4.9,0,0,0,4.9-4.9V0Z" transform="translate(1350.375 567.226)"/><path class="d" d="M0,0H66.485V45.655H0Z" transform="translate(1364.391 521.697)"/><path class="e" d="M12.159.831H3.228a1.744,1.744,0,1,0,0,1.824h8.132l4.436,4.8H25.9V5.629H16.595Z" transform="translate(1404.976 547.26)"/><path class="e" d="M13.182,3.48,7.11.834H3.229a1.744,1.744,0,1,0,0,1.824h3.5L12.8,5.3H27.5V3.48Z" transform="translate(1403.377 526.331)"/><path class="e" d="M6.126,3.508h-2.9a1.744,1.744,0,1,0,0,1.824H7.257L9,1.824H19.32V0H7.866Z" transform="translate(1411.556 535.207)"/><path class="e" d="M11.164,3.246H3.228a1.745,1.745,0,1,0,0,1.824H11.7l5.015-3.245H28.652V0H16.18Z" transform="translate(1402.223 557.555)"/><path class="e" d="M1.744,0A1.743,1.743,0,1,0,3.228,2.655H14.415V.83H3.227A1.742,1.742,0,0,0,1.744,0Z" transform="translate(1416.461 542.876)"/><path class="e" d="M25.893,18.239l-1.616-.933a11.638,11.638,0,0,0,0-6.628l1.616-.933A.836.836,0,0,0,26.2,8.6L24.346,5.39A.836.836,0,0,0,23.2,5.084l-1.619.934A11.59,11.59,0,0,0,15.846,2.7V.838A.837.837,0,0,0,15.01,0H11.3a.837.837,0,0,0-.837.838V2.7A11.6,11.6,0,0,0,4.727,6.018L3.109,5.084a.836.836,0,0,0-1.143.306L.112,8.6A.836.836,0,0,0,.418,9.744l1.616.933a11.652,11.652,0,0,0,0,6.628l-1.615.933a.836.836,0,0,0-.307,1.143l1.854,3.212a.838.838,0,0,0,1.143.306l1.619-.935a11.594,11.594,0,0,0,5.738,3.315v1.866a.837.837,0,0,0,.837.838H15.01a.837.837,0,0,0,.837-.838V25.28a11.591,11.591,0,0,0,5.738-3.316L23.2,22.9a.838.838,0,0,0,1.143-.306L26.2,19.381A.836.836,0,0,0,25.893,18.239Zm-12.738,2.1A6.346,6.346,0,1,1,19.5,13.991,6.346,6.346,0,0,1,13.156,20.337Z" transform="translate(1371.321 530.533)"/></g></svg>