<svg xmlns="http://www.w3.org/2000/svg" width="158" height="158" viewBox="0 0 158 158"><defs><style>.a{fill:#edf3fc;}.b{fill:#bee9ff;}.c{fill:#fff;}.d{fill:#ffbe1b;}.e{fill:#ffe37b;}.f{fill:#00a8ff;}</style></defs><g transform="translate(-5296 -872)"><path class="a" d="M174.012,107.473a66.541,66.541,0,1,1-66.541-66.54A66.541,66.541,0,0,1,174.012,107.473Z" transform="translate(5267.424 843.632)"/><path class="a" d="M80,159a79,79,0,1,1,79-79A79.09,79.09,0,0,1,80,159ZM80,3.531A76.469,76.469,0,1,0,156.469,80,76.555,76.555,0,0,0,80,3.531Z" transform="translate(5295 871)"/><path class="b" d="M290.286,144.045c0-.157.006-.312.015-.467l-22.233,3.185a5.112,5.112,0,0,1-1.387,2.923,4.992,4.992,0,0,1-.544.479l24.6-3.524A7.656,7.656,0,0,1,290.286,144.045Z" transform="translate(5111.894 772.744)"/><path class="b" d="M168.2,144.144a7.653,7.653,0,0,1-.466,2.638l24.954,3.723a4.948,4.948,0,0,1-.885-.722,5.1,5.1,0,0,1-1.362-2.742l-22.253-3.319C168.195,143.862,168.2,144,168.2,144.144Z" transform="translate(5179.853 772.645)"/><path class="b" d="M151.985,189.805l-4.51-21.95a7.64,7.64,0,0,1-3.026.621h0l4.077,19.847A4.8,4.8,0,0,1,151.985,189.805Z" transform="translate(5195.937 755.979)"/><path class="b" d="M148.292,263.631l-4.1,21.056.083,0a7.647,7.647,0,0,1,2.955.591l4.488-23.038A4.784,4.784,0,0,1,148.292,263.631Z" transform="translate(5196.112 690.797)"/><path class="c" d="M173.417,247.757c-.015-.36-.028-.721-.028-1.085a25.312,25.312,0,0,1,.127-2.535h-1.259a5.242,5.242,0,0,1,.084,3.62Z" transform="translate(5176.728 703.298)"/><path class="c" d="M253.26,168.58c.52,0,1.035.021,1.547.052v-1.373a4.746,4.746,0,0,1-3.094,0v1.374C252.225,168.6,252.74,168.58,253.26,168.58Z" transform="translate(5121.856 756.391)"/><path class="b" d="M313.7,171.231l11.265-10.762a7.7,7.7,0,0,1-2.138-2.237l-11.264,10.761A25.124,25.124,0,0,1,313.7,171.231Z" transform="translate(5080.526 762.624)"/><path class="b" d="M171.952,169l-11.263-10.761a7.7,7.7,0,0,1-2.138,2.237l11.264,10.761A25.119,25.119,0,0,1,171.952,169Z" transform="translate(5186.194 762.622)"/><path class="b" d="M311.556,306.643l11.265,10.762a7.706,7.706,0,0,1,2.137-2.237l-11.266-10.762A25.207,25.207,0,0,1,311.556,306.643Z" transform="translate(5080.527 661.675)"/><path class="b" d="M169.815,304.4,158.55,315.167a7.7,7.7,0,0,1,2.138,2.237l11.265-10.762A25.122,25.122,0,0,1,169.815,304.4Z" transform="translate(5186.195 661.676)"/><path class="c" d="M338.272,247.757a5.246,5.246,0,0,1,.084-3.62H337.1a25.317,25.317,0,0,1,.127,2.535c0,.364-.012.725-.028,1.085Z" transform="translate(5062.888 703.298)"/><path class="b" d="M349.116,188.4,353,168.538l-.076,0a7.649,7.649,0,0,1-2.961-.593L345.74,189.54A4.774,4.774,0,0,1,349.116,188.4Z" transform="translate(5056.92 755.915)"/><path class="b" d="M343.973,261.231c-.1-.1-.193-.213-.282-.323l4.8,23.477a7.643,7.643,0,0,1,3.02-.618h.011L347.216,262.7A4.8,4.8,0,0,1,343.973,261.231Z" transform="translate(5058.335 691.715)"/><path class="c" d="M254.807,334.326v-1.377c-.512.031-1.027.052-1.547.052s-1.035-.021-1.547-.052v1.376A4.748,4.748,0,0,1,254.807,334.326Z" transform="translate(5121.856 641.963)"/><path class="b" d="M290,342.737l-24.953-3.722a4.913,4.913,0,0,1,.883.72,5.106,5.106,0,0,1,1.362,2.743l22.254,3.319c-.008-.14-.012-.281-.012-.422A7.662,7.662,0,0,1,290,342.737Z" transform="translate(5112.65 637.774)"/><path class="b" d="M190.447,343.189a5.11,5.11,0,0,1,1.386-2.922,4.963,4.963,0,0,1,.546-.481l-24.6,3.525a7.645,7.645,0,0,1,.452,2.6c0,.157-.006.312-.015.467Z" transform="translate(5179.821 637.241)"/><path class="b" d="M135.011,127.972a7.667,7.667,0,1,1-7.667-7.667A7.665,7.665,0,0,1,135.011,127.972Z" transform="translate(5213.041 788.817)"/><path class="d" d="M225.911,196.529a25,25,0,1,1-25-25A25,25,0,0,1,225.911,196.529Z" transform="translate(5174.202 753.44)"/><path class="e" d="M233.589,210.442a18.764,18.764,0,1,1-18.763-18.765A18.764,18.764,0,0,1,233.589,210.442Z" transform="translate(5160.29 739.527)"/><path class="f" d="M137.367,132.241a5.755,5.755,0,1,1-5.755-5.755A5.755,5.755,0,0,1,137.367,132.241Z" transform="translate(5208.773 784.548)"/><path class="b" d="M359.522,127.972a7.666,7.666,0,1,1-7.665-7.667A7.665,7.665,0,0,1,359.522,127.972Z" transform="translate(5057.991 788.817)"/><path class="f" d="M361.876,132.241a5.755,5.755,0,1,1-5.754-5.755A5.755,5.755,0,0,1,361.876,132.241Z" transform="translate(5053.725 784.548)"/><path class="b" d="M135.011,342.457a7.667,7.667,0,1,1-7.667-7.667A7.665,7.665,0,0,1,135.011,342.457Z" transform="translate(5213.041 640.692)"/><path class="f" d="M137.367,346.726a5.755,5.755,0,1,1-5.755-5.755A5.755,5.755,0,0,1,137.367,346.726Z" transform="translate(5208.773 636.423)"/><path class="b" d="M359.522,342.457a7.666,7.666,0,1,1-7.665-7.667A7.665,7.665,0,0,1,359.522,342.457Z" transform="translate(5057.991 640.692)"/><path class="f" d="M361.876,346.726a5.755,5.755,0,1,1-5.754-5.755A5.754,5.754,0,0,1,361.876,346.726Z" transform="translate(5053.725 636.423)"/><path class="b" d="M249.248,144.018a4.777,4.777,0,0,1-6.921,0,5.188,5.188,0,0,1,0-7.162,4.778,4.778,0,0,1,6.921,0A5.192,5.192,0,0,1,249.248,144.018Z" transform="translate(5129.329 778.413)"/><path class="f" d="M251.11,145.942a3.586,3.586,0,0,1-5.2,0,3.9,3.9,0,0,1,0-5.376,3.586,3.586,0,0,1,5.2,0A3.9,3.9,0,0,1,251.11,145.942Z" transform="translate(5126.603 775.594)"/><path class="b" d="M348.326,242.654a4.778,4.778,0,0,1-6.921,0,5.192,5.192,0,0,1,0-7.163,4.781,4.781,0,0,1,6.922,0A5.192,5.192,0,0,1,348.326,242.654Z" transform="translate(5060.903 710.292)"/><path class="f" d="M350.189,244.581a3.588,3.588,0,0,1-5.194,0,3.9,3.9,0,0,1,0-5.378,3.586,3.586,0,0,1,5.2,0A3.9,3.9,0,0,1,350.189,244.581Z" transform="translate(5058.177 707.474)"/><path class="b" d="M150.169,242.655a4.776,4.776,0,0,1-6.921,0,5.188,5.188,0,0,1,0-7.161,4.779,4.779,0,0,1,6.922,0A5.189,5.189,0,0,1,150.169,242.655Z" transform="translate(5197.753 710.292)"/><path class="f" d="M152.03,244.581a3.587,3.587,0,0,1-5.2,0,3.894,3.894,0,0,1,0-5.375,3.586,3.586,0,0,1,5.2,0A3.9,3.9,0,0,1,152.03,244.581Z" transform="translate(5195.028 707.472)"/><path class="b" d="M249.249,338.029a4.777,4.777,0,0,0-6.921,0,5.191,5.191,0,0,0,0,7.162,4.778,4.778,0,0,0,6.921,0A5.191,5.191,0,0,0,249.249,338.029Z" transform="translate(5129.327 639.48)"/><path class="f" d="M251.11,347.118a3.589,3.589,0,0,1-5.2,0,3.9,3.9,0,0,1,0-5.378,3.585,3.585,0,0,1,5.2,0A3.9,3.9,0,0,1,251.11,347.118Z" transform="translate(5126.603 636.662)"/></g></svg>