<svg xmlns="http://www.w3.org/2000/svg" width="160" height="160" viewBox="0 0 160 160"><defs><style>.a{fill:#edf3fc;}.b{fill:#ffbe1b;}.c{fill:#ffe37b;}.d{fill:#f9d88a;}.e{fill:#00a8ff;}.f{fill:#fff;}</style></defs><g transform="translate(-6668 -1648.743)"><path class="a" d="M175.705,108.315A67.386,67.386,0,1,1,108.32,40.927,67.387,67.387,0,0,1,175.705,108.315Z" transform="translate(6639.579 1620.532)"/><path class="a" d="M80,160a80,80,0,1,1,80-80A80.091,80.091,0,0,1,80,160ZM80,2.563A77.437,77.437,0,1,0,157.436,80,77.525,77.525,0,0,0,80,2.563Z" transform="translate(6668 1648.743)"/><path class="b" d="M12.686,35.973s13.792-4.266,14.221-2.52c.25,1.02,1.015,5.317-3.831,8.994-1.705,1.294-5.805,2.674-8,4.168-3.237,2.2-3.469,4.446-3.636,5.357a4.207,4.207,0,0,0,.979,3.658,30.925,30.925,0,0,0,3.418,2.216,17.1,17.1,0,0,0,2.346.712c4.073.94,10.816.305,17.931-.7,5.613-.792,10.878-3.008,12.578-4.309a31.368,31.368,0,0,0,6.249-6.5s3.783-6.861,6.043-9.278A30.879,30.879,0,1,0,2.274,42.524,112.486,112.486,0,0,1,12.686,35.973Z" transform="translate(6727.276 1679.541)"/><path class="c" d="M4.987,28.272s13.792-4.266,14.221-2.52c.25,1.02,1.015,5.317-3.831,8.994-1.705,1.294-5.805,2.674-8,4.168-.256.175-.488.349-.708.523a23.163,23.163,0,1,0-5.484-8.953C3.459,29.1,4.987,28.272,4.987,28.272Z" transform="translate(6734.976 1687.243)"/><path class="d" d="M72.094,4.659C69.844,7,65.974,14.02,65.974,14.02a31.368,31.368,0,0,1-6.249,6.5c-1.7,1.3-6.964,3.518-12.578,4.309-7.115,1-13.858,1.637-17.931.7s-7.4-3.023-6.743-6.586c.167-.91.4-3.155,3.636-5.357,2.2-1.495,6.3-2.874,8-4.168C38.96,5.737,38.194,1.44,37.944.42c-.429-1.746-14.221,2.52-14.221,2.52S11.569,9.51,4.733,16.684c-.652.684-2.647,1.35-4.733,1.891V42.794c10.893.883,33.929,2.4,42.819.29,21.78-5.169,32.476-23.606,33.167-25.5s3.683-8.9,4.277-11.968C80.576,4.008,75.749.86,72.094,4.659Z" transform="translate(6716.24 1712.575)"/><path class="e" d="M7.454,0H9.508a7.455,7.455,0,0,1,7.455,7.455v22.9A7.455,7.455,0,0,1,9.508,37.81H7.454A7.454,7.454,0,0,1,0,30.356V7.454A7.454,7.454,0,0,1,7.454,0Z" transform="translate(6699.277 1727.807)"/><path class="f" d="M4.971,2.485A2.485,2.485,0,1,1,2.485,0,2.485,2.485,0,0,1,4.971,2.485Z" transform="translate(6706.975 1732.502)"/></g></svg>