<svg xmlns="http://www.w3.org/2000/svg" width="160" height="160" viewBox="0 0 160 160"><defs><style>.a{fill:#edf3fc;}.b{fill:#00a8ff;}.c{fill:#fff;}.d{fill:#8ac9f9;}.e{fill:#ffbe1b;}</style></defs><g transform="translate(-1026 -467)"><path class="a" d="M175.879,108.4a67.472,67.472,0,1,1-67.472-67.474A67.473,67.473,0,0,1,175.879,108.4Z" transform="translate(997.594 438.598)"/><path class="a" d="M81,161a80,80,0,1,1,80-80A80.091,80.091,0,0,1,81,161ZM81,3.563A77.437,77.437,0,1,0,158.436,81,77.525,77.525,0,0,0,81,3.563Z" transform="translate(1025 466)"/><path class="b" d="M381.081,192.461a5.152,5.152,0,0,1,.147,1.215,5.014,5.014,0,0,1-.374,1.914c6.647.6,11.915,7.907,11.915,16.806S387.5,228.6,380.849,229.2a5.026,5.026,0,0,1,.373,1.913,5.144,5.144,0,0,1-.147,1.216c8.274-.717,14.833-9.38,14.833-19.934S389.352,193.182,381.081,192.461Z" transform="translate(764.319 334.605)"/><path class="b" d="M90.435,231.5a4.986,4.986,0,0,1,.452-2.1c-6.068-1.318-10.712-8.268-10.712-16.621s4.647-15.309,10.717-16.624a4.985,4.985,0,0,1-.451-2.1,5.223,5.223,0,0,1,.107-1.037c-7.64,1.471-13.51,9.77-13.51,19.756s5.867,18.279,13.5,19.754A5.161,5.161,0,0,1,90.435,231.5Z" transform="translate(972.817 334.216)"/><path class="b" d="M204.5,175.243H147.158a5.64,5.64,0,0,1-5.641-5.64V145.365a5.64,5.64,0,0,1,5.641-5.641H204.5a5.641,5.641,0,0,1,5.641,5.641V169.6a5.641,5.641,0,0,1-5.641,5.64Z" transform="translate(928.567 370.797)"/><path class="c" d="M189.007,173.607a14.576,14.576,0,0,0,.163-18.285l.942-.932a1.569,1.569,0,0,0-2.206-2.231l-.929.919a14.583,14.583,0,0,0-18.647.075l-1-.994a1.569,1.569,0,0,0-2.206,2.231l1.034,1.023a14.572,14.572,0,0,0,.163,18.1l-1.2,1.185a1.569,1.569,0,1,0,2.206,2.23l1.209-1.2a14.571,14.571,0,0,0,18.237.072l1.136,1.123a1.569,1.569,0,0,0,2.206-2.23Zm.168-9.246a11.416,11.416,0,0,1-2.412,7.027l-2.653-2.625a7.756,7.756,0,0,0,.147-8.581l2.668-2.639A11.415,11.415,0,0,1,189.175,164.361Zm-16.122,0a4.618,4.618,0,0,1,.354-1.773l1.978,1.957-1.861,1.84A4.611,4.611,0,0,1,173.053,164.361Zm2.464-4.1a4.61,4.61,0,0,1,4.25-.053l-2.152,2.129Zm2.1,6.489,1.9,1.882a4.612,4.612,0,0,1-3.751-.053Zm2.231-2.206,2.092-2.07a4.606,4.606,0,0,1-.12,4.02ZM177.7,152.883a11.419,11.419,0,0,1,7.033,2.417l-2.658,2.63a7.759,7.759,0,0,0-8.845.068l-2.654-2.626A11.421,11.421,0,0,1,177.7,152.883Zm-11.478,11.478a11.413,11.413,0,0,1,2.184-6.723l2.672,2.643a7.762,7.762,0,0,0,.144,8.385l-2.659,2.631A11.417,11.417,0,0,1,166.219,164.361ZM177.7,175.84a11.419,11.419,0,0,1-6.918-2.326l2.668-2.639a7.754,7.754,0,0,0,8.4.064l2.674,2.645A11.415,11.415,0,0,1,177.7,175.84Z" transform="translate(913.767 363.919)"/><rect class="d" width="3.765" height="22.275" transform="translate(1110.549 517.143)"/><rect class="d" width="3.765" height="22.275" transform="translate(1118.497 517.143)"/><rect class="d" width="3.765" height="22.275" transform="translate(1126.445 517.143)"/><path class="e" d="M360.262,181.813h2.567a4.565,4.565,0,0,1,0,9.111h-2.567Z" transform="translate(778.448 341.913)"/><path class="e" d="M126.6,181.813h-2.568a4.565,4.565,0,0,0,0,9.111H126.6Z" transform="translate(943.497 341.913)"/><path class="b" d="M204.481,294.577H147.137a5.64,5.64,0,0,1-5.641-5.64V264.7a5.64,5.64,0,0,1,5.641-5.641h57.344a5.64,5.64,0,0,1,5.64,5.641v24.238a5.641,5.641,0,0,1-5.64,5.64Z" transform="translate(928.581 288.901)"/><path class="c" d="M188.986,292.941a14.577,14.577,0,0,0,.163-18.285l.942-.932a1.569,1.569,0,0,0-2.207-2.231l-.928.919a14.583,14.583,0,0,0-18.647.075l-1-.994a1.569,1.569,0,0,0-2.206,2.231l1.034,1.023a14.571,14.571,0,0,0,.162,18.1l-1.2,1.185a1.569,1.569,0,1,0,2.206,2.23l1.209-1.2a14.571,14.571,0,0,0,18.236.072l1.136,1.123a1.569,1.569,0,1,0,2.207-2.23Zm.168-9.246a11.423,11.423,0,0,1-2.411,7.027l-2.654-2.625a7.758,7.758,0,0,0,.147-8.581l2.668-2.639A11.415,11.415,0,0,1,189.154,283.695Zm-16.122,0a4.616,4.616,0,0,1,.354-1.773l1.978,1.957L173.5,285.72A4.612,4.612,0,0,1,173.032,283.695Zm2.464-4.1a4.608,4.608,0,0,1,4.25-.053l-2.152,2.129Zm2.1,6.489,1.9,1.882a4.612,4.612,0,0,1-3.751-.053Zm2.231-2.207,2.092-2.069a4.608,4.608,0,0,1-.12,4.02Zm-2.149-11.662a11.418,11.418,0,0,1,7.033,2.417l-2.658,2.63a7.76,7.76,0,0,0-8.846.068l-2.654-2.626A11.42,11.42,0,0,1,177.677,272.217ZM166.2,283.695a11.412,11.412,0,0,1,2.184-6.723l2.672,2.643A7.763,7.763,0,0,0,171.2,288l-2.659,2.63A11.418,11.418,0,0,1,166.2,283.695Zm11.478,11.479a11.418,11.418,0,0,1-6.918-2.326l2.667-2.639a7.755,7.755,0,0,0,8.4.064l2.674,2.645A11.416,11.416,0,0,1,177.677,295.174Z" transform="translate(913.782 282.024)"/><rect class="d" width="3.765" height="22.275" transform="translate(1110.542 554.581)"/><rect class="d" width="3.765" height="22.275" transform="translate(1118.49 554.581)"/><rect class="d" width="3.765" height="22.275" transform="translate(1126.438 554.581)"/><path class="e" d="M360.241,301.147h2.568a4.565,4.565,0,0,1,0,9.11h-2.568Z" transform="translate(778.462 260.017)"/><path class="e" d="M126.579,301.147h-2.567a4.565,4.565,0,0,0,0,9.11h2.567Z" transform="translate(943.511 260.017)"/></g></svg>