<svg xmlns="http://www.w3.org/2000/svg" xmlns:xlink="http://www.w3.org/1999/xlink" width="417" height="200" viewBox="0 0 417 200">
  <defs>
    <filter id="Rectangle_3968" x="0" y="0" width="417" height="200" filterUnits="userSpaceOnUse">
      <feOffset dy="12" input="SourceAlpha"/>
      <feGaussianBlur stdDeviation="12" result="blur"/>
      <feFlood flood-color="#e02a2a" flood-opacity="0.102"/>
      <feComposite operator="in" in2="blur"/>
      <feComposite in="SourceGraphic"/>
    </filter>
  </defs>
  <g id="Group_14639" data-name="Group 14639" transform="translate(-734 -2544)">
    <g transform="matrix(1, 0, 0, 1, 734, 2544)" filter="url(#Rectangle_3968)">
      <rect id="Rectangle_3968-2" data-name="Rectangle 3968" width="345" height="128" rx="16" transform="translate(36 24)" fill="#fff"/>
    </g>
    <g id="Group_14637" data-name="Group 14637" transform="translate(810.469 2599)">
      <g id="Group_14618" data-name="Group 14618" transform="translate(0 0)">
        <g id="Group_14617" data-name="Group 14617" transform="translate(0)">
          <g id="Group_14615" data-name="Group 14615" transform="translate(26.325 15.136)">
            <path id="Path_29087" data-name="Path 29087" d="M115.81-239.62v12.64l17.5-9.854-19.356-10.686L110.34-229.1v-19.854c0-1.163,0-2.33.041-3.452.041-.6.186-1.622.48-1.726a2.938,2.938,0,0,1,2,.394c2.827,1.581,5.612,3.286,8.4,4.9l18.856,10.893c1.456.853,1.436,1.539,0,2.392l-27.233,15.674a2.318,2.318,0,0,1-.707.373c-.459.083-1.08.249-1.374,0a1.534,1.534,0,0,1-.311-1.329c1.622-6.113,3.306-12.225,4.97-18.335A3.979,3.979,0,0,1,115.81-239.62Z" transform="translate(-110.34 254.169)" fill="#383838"/>
          </g>
          <g id="Group_14616" data-name="Group 14616" transform="translate(0 5.45)">
            <path id="Path_29088" data-name="Path 29088" d="M32.647-259.145A28.217,28.217,0,0,1,54.86-286.709a30.629,30.629,0,0,0-3.271-.181A30.179,30.179,0,0,0,21.41-256.711,30.181,30.181,0,0,0,51.589-226.53a30.042,30.042,0,0,0,17.574-5.651,28.19,28.19,0,0,1-8.306,1.246A28.211,28.211,0,0,1,32.647-259.145Z" transform="translate(-21.41 286.89)" fill="#383838"/>
          </g>
          <path id="Path_29089" data-name="Path 29089" d="M146.411-305.3a30.031,30.031,0,0,0-18.181,6.095,28.219,28.219,0,0,1,7.827-1.107,28.211,28.211,0,0,1,28.21,28.21,28.22,28.22,0,0,1-20.244,27.062c.79.062,1.587.1,2.395.1A30.179,30.179,0,0,0,176.6-275.115,30.185,30.185,0,0,0,146.411-305.3Z" transform="translate(-96.61 305.3)" fill="#e02a2a"/>
        </g>
      </g>
      <g id="Group_14637-2" data-name="Group 14637" transform="translate(86.329 13.998)">
        <path id="Path_29023" data-name="Path 29023" d="M616.843,148.779a6.726,6.726,0,0,1-1.7,4.765,5.862,5.862,0,0,1-4.429,1.848H592.262a5.839,5.839,0,0,1-4.449-1.825,6.644,6.644,0,0,1-1.7-4.785v-5.689h8.418v4.157h13.9v-6.781H591.842a5.524,5.524,0,0,1-4.241-1.6,6.374,6.374,0,0,1-1.491-4.556V125.69a6.726,6.726,0,0,1,1.7-4.765,5.809,5.809,0,0,1,4.449-1.825h18.431a5.839,5.839,0,0,1,4.449,1.825,6.726,6.726,0,0,1,1.7,4.765v4.974h-8.418v-3.441H594.548v5.793h16.583a5.524,5.524,0,0,1,4.24,1.6,6.351,6.351,0,0,1,1.492,4.533Z" transform="translate(-549.169 -119.03)" fill="#e02a2a"/>
        <path id="Path_29024" data-name="Path 29024" d="M755.889,155.452H747.43V127.325H736.2V119.18h30.919v8.145h-11.23Z" transform="translate(-665.187 -119.091)" fill="#e02a2a"/>
        <path id="Path_29025" data-name="Path 29025" d="M917.458,155.3h-9.886L902.2,143.823h-5.941V155.3H887.84V118.99h23.489a5.839,5.839,0,0,1,4.449,1.825,6.743,6.743,0,0,1,1.7,4.785v11.63a6.867,6.867,0,0,1-1.155,4.052,6.024,6.024,0,0,1-3.044,2.288,7.01,7.01,0,0,1-1.764.272Zm-8.415-19.625v-8.542H896.237v8.542Z" transform="translate(-782.403 -118.944)" fill="#e02a2a"/>
        <path id="Path_29026" data-name="Path 29026" d="M1069.551,155.235h-8.417V136.659c0-.924.02-1.868.041-2.813s.064-1.868.084-2.813l-7.073,24.181H1046.4l-7.033-24.2c.021.924.064,1.868.084,2.813s.041,1.868.041,2.813v18.576h-8.417V118.9h11.439l5.857,19.711c.252.881.545,1.909.881,3.108s.692,2.52,1.049,4.009c.356-1.469.713-2.813,1.049-4.009s.629-2.225.881-3.108l5.857-19.711h11.439Z" transform="translate(-893.118 -118.875)" fill="#e02a2a"/>
        <path id="Path_29027" data-name="Path 29027" d="M423.38,124.9v24.147a6.034,6.034,0,0,0,6.034,6.034H448.2a6.034,6.034,0,0,0,6.034-6.034V137.986a4.458,4.458,0,0,0-4.459-4.458H437.9V140.6h7.287v6.37h-14.12V126.9h14.179v3.573h8.994V124.6a5.806,5.806,0,0,0-5.807-5.807H429.5A6.111,6.111,0,0,0,423.38,124.9Z" transform="translate(-423.38 -118.79)" fill="#383838"/>
      </g>
    </g>
  </g>
</svg>
