<?xml version="1.0" encoding="UTF-8"?><svg id="a" xmlns="http://www.w3.org/2000/svg" viewBox="0 0 384.42 105.29"><defs><style>.b{fill:#231f20;}</style></defs><path class="b" d="M64.83,32c-.11-.32-.25-.64-.39-.92,.21,.32,.32,.64,.39,.92Z"/><g><path class="b" d="M159.45,42.12c-1.03-4.05-3.66-7.03-8.81-7.03-7.56,0-10.72,6.67-10.72,13.46s3.16,13.46,10.72,13.46c5.5,0,8.52-4.12,9.02-9.27h6.04c-.5,8.45-6.5,14.31-15.05,14.31-10.58,0-16.94-8.41-16.94-18.5s6.32-18.5,16.94-18.5c7.95,.04,14.24,4.44,14.98,12.07h-6.18Z"/><path class="b" d="M169.36,53.37c0-7.81,4.69-13.46,12.92-13.46s12.92,5.65,12.92,13.46-4.69,13.49-12.92,13.49c-8.24,.04-12.92-5.61-12.92-13.49Zm20.17,0c0-4.4-2.24-9.02-7.28-9.02s-7.28,4.62-7.28,9.02,2.24,9.05,7.28,9.05,7.28-4.58,7.28-9.05Z"/><path class="b" d="M200.03,30.86h5.65v5.36h-5.65v-5.36Zm0,9.76h5.65v25.6h-5.65v-25.6Z"/><path class="b" d="M211.82,40.63h5.36v3.76l.11,.11c1.67-2.8,4.62-4.54,7.95-4.54,5.54,0,9.05,2.98,9.05,8.7v17.57h-5.65v-16.08c-.11-4.01-1.67-5.75-5.01-5.75-3.76,0-6.18,2.98-6.18,6.75v15.09h-5.65v-25.6h0Z"/><path class="b" d="M271.82,66.19h-3.94l-.92-4.15c-3.3,3.76-6.32,5.01-10.65,5.01-10.58,0-16.94-8.41-16.94-18.5s6.32-18.5,16.94-18.5c7.7,0,14.2,4.12,15.13,12.07h-6.04c-.6-4.65-4.65-7.03-9.09-7.03-7.56,0-10.72,6.67-10.72,13.46s3.16,13.46,10.72,13.46c6.32,.11,9.8-3.73,9.91-9.69h-9.41v-4.69h15.05v18.57h-.04Z"/><path class="b" d="M282.15,54.86c0,4.01,2.17,7.56,6.89,7.56,3.27,0,5.25-1.42,6.25-4.26h5.36c-1.24,5.57-6,8.7-11.57,8.7-8.02,0-12.53-5.57-12.53-13.46,0-7.28,4.76-13.49,12.36-13.49,8.06,0,13.03,7.28,12.07,14.95h-18.82Zm13.17-3.69c-.21-3.55-2.63-6.78-6.43-6.78s-6.57,2.98-6.75,6.78h13.17Z"/><path class="b" d="M322.56,49.18c-.46-3.12-2.73-4.79-5.82-4.79-2.91,0-7.03,1.53-7.03,9.3,0,4.26,1.88,8.77,6.78,8.77,3.27,0,5.54-2.17,6.07-5.82h5.61c-1.03,6.64-5.15,10.3-11.72,10.3-8.02,0-12.43-5.68-12.43-13.21s4.19-13.74,12.6-13.74c5.93,0,10.97,2.98,11.54,9.27h-5.61v-.07Z"/><path class="b" d="M332.93,30.86h5.65v20.1l10.19-10.33h6.92l-9.8,9.41,10.72,16.19h-6.89l-7.81-12.43-3.37,3.27v9.16h-5.65V30.86h.04Z"/><path class="b" d="M358.17,53.37c0-7.81,4.69-13.46,12.92-13.46s12.92,5.65,12.92,13.46-4.69,13.49-12.92,13.49c-8.24,.04-12.92-5.61-12.92-13.49Zm20.2,0c0-4.4-2.24-9.02-7.28-9.02s-7.28,4.62-7.28,9.02,2.24,9.05,7.28,9.05,7.28-4.58,7.28-9.05Z"/></g><g><path class="b" d="M51.27,1.71C23.15,1.86,.42,24.76,.57,52.88c.14,28.12,23.04,50.84,51.16,50.7,28.12-.14,50.84-23.04,50.7-51.16-.11-28.12-23.01-50.81-51.16-50.7Zm-6.46,48.46c-5.04,0-9.12-4.08-9.12-9.12s4.08-9.12,9.12-9.12,9.12,4.08,9.12,9.12c0,5.04-4.08,9.12-9.12,9.12Zm7.28,9.83l.04-.07,.04-.07c2.59,1.67,5.57,2.27,8.52,2.34,2.98,.07,6-.14,8.98-.75,2.98-.6,5.89-1.53,8.73-2.7,1.6-.64,3.16-1.35,4.65-2.2,0,0,.04,0,.04-.04,.92-.57,1.85-1.17,2.73-1.78,.18-.14,.39-.28,.57-.43l.04,.04,.07,.11c-2.27,2.09-5.01,3.62-7.81,5.01-2.8,1.31-5.72,2.41-8.73,3.2s-6.14,1.35-9.34,1.07c-3.12-.25-6.43-1.35-8.52-3.73Zm23.36-9.83c0-1.1,.89-1.99,1.95-1.99s1.99,.89,1.99,1.95-.89,1.99-1.95,1.99-1.95-.89-1.99-1.95Zm-15.59,48.85c-1.95-13.78,10.08-27.3,16.86-34.19,1.53-1.56,3.91-3.73,6.14-6.04,8.81-8.24,10.58-18.07-7.46-23.01-3.41-.99-6.96-2.38-10.54-3.8-.11-.32-.25-.64-.39-.92-.43-.71-1.14-1.53-2.24-2.45-2.34-2.02-6.75-1.99-10.54-1.07-4.19-.99-8.34-1.35-12.32-.39-17.43,4.79-20.24,13.31-20.91,23.58-.92,11.08-1.46,19.31-5.65,28.76-5.22-7.56-8.31-16.69-8.34-26.59C4.26,26.85,25.28,5.65,51.3,5.55c26.03-.11,47.22,20.88,47.33,46.9,.07,23.26-16.65,42.64-38.77,46.58Z"/><path class="b" d="M51.23,41.12c0,3.55-2.88,6.39-6.39,6.39s-6.43-2.88-6.43-6.39,2.88-6.39,6.43-6.39,6.39,2.88,6.39,6.39Z"/></g></svg>