<svg xmlns="http://www.w3.org/2000/svg" xmlns:xlink="http://www.w3.org/1999/xlink" viewBox="0 0 561 561.01"><defs><style>.cls-1{fill:url(#linear-gradient);}.cls-2{fill:url(#linear-gradient-2);}.cls-3{isolation:isolate;}.cls-4{fill:#fff;}.cls-5{fill:#e02a2a;}.cls-6{fill:#383838;}.cls-7{fill:#231f20;}</style><linearGradient id="linear-gradient" x1="-677.38" y1="820.91" x2="-676.94" y2="821.39" gradientTransform="matrix(551.21, 0, 0, -549.58, 373602.2, 451498.98)" gradientUnits="userSpaceOnUse"><stop offset="0" stop-color="#ef3a3a"/><stop offset="1" stop-color="#a80000"/></linearGradient><linearGradient id="linear-gradient-2" x1="-676.59" y1="820.74" x2="-676.83" y2="820.49" gradientTransform="matrix(352.45, 0, 0, -346.48, 238635.29, 284765.68)" gradientUnits="userSpaceOnUse"><stop offset="0" stop-color="#ffc800"/><stop offset="1" stop-color="#f88c07"/></linearGradient></defs><title>Asset 1</title><g id="Layer_2" data-name="Layer 2"><g id="Layer_1-2" data-name="Layer 1"><g id="Group_14596" data-name="Group 14596"><g id="Group_14593" data-name="Group 14593"><path id="Path_29042" data-name="Path 29042" class="cls-1" d="M280.16,0C156.39.06,43.46,82.68,9.79,207.31l117.58,30.12A159.06,159.06,0,1,1,326.61,432.75l33,116.83a280.28,280.28,0,0,0,192.54-199.5C590.59,200,500.11,47.26,350.06,8.84A281.08,281.08,0,0,0,280.48,0Z"/><path id="Path_29043" data-name="Path 29043" class="cls-2" d="M210.91,552.19a279.26,279.26,0,0,0,141.54-.59l-33-116.86a159.16,159.16,0,0,1-193.9-190.09L7.94,214.53c-36.08,148.88,54.13,299.54,203,337.66"/></g><g id="_33.33_" data-name=" 33.33 " class="cls-3"><g class="cls-3"><path class="cls-4" d="M92.43,424a4.08,4.08,0,0,1,2.65-.83,4.21,4.21,0,0,1,1.88.39,2.84,2.84,0,0,1,1.2,1.06,2.91,2.91,0,0,1,.41,1.52,2.68,2.68,0,0,1-.57,1.72,2.5,2.5,0,0,1-1.48.92v.08a2.83,2.83,0,0,1,2.26,3,3.2,3.2,0,0,1-.42,1.64,2.78,2.78,0,0,1-1.25,1.14,4.38,4.38,0,0,1-2,.42,4.25,4.25,0,0,1-2.78-.89,3.43,3.43,0,0,1-1.22-2.52h1.41a2.43,2.43,0,0,0,.79,1.57,2.52,2.52,0,0,0,1.79.61,2.31,2.31,0,0,0,1.7-.59,2,2,0,0,0,.59-1.51,1.94,1.94,0,0,0-.8-1.73,4.49,4.49,0,0,0-2.42-.52H93.8v-1.22h.39a4.25,4.25,0,0,0,2.22-.49,1.6,1.6,0,0,0,.75-1.46,1.75,1.75,0,0,0-.55-1.36,2.24,2.24,0,0,0-1.58-.51,2.42,2.42,0,0,0-1.6.51,2.12,2.12,0,0,0-.72,1.37H91.29A3.08,3.08,0,0,1,92.43,424Z"/><path class="cls-4" d="M101.85,424a4.11,4.11,0,0,1,2.66-.83,4.16,4.16,0,0,1,1.87.39,2.72,2.72,0,0,1,1.61,2.58,2.73,2.73,0,0,1-.56,1.72,2.53,2.53,0,0,1-1.48.92v.08a2.84,2.84,0,0,1,2.25,3,3.3,3.3,0,0,1-.41,1.64,2.83,2.83,0,0,1-1.25,1.14,4.41,4.41,0,0,1-2,.42,4.3,4.3,0,0,1-2.79-.89,3.43,3.43,0,0,1-1.21-2.52H102a2.37,2.37,0,0,0,.78,1.57,2.54,2.54,0,0,0,1.79.61,2.32,2.32,0,0,0,1.71-.59,2.06,2.06,0,0,0,.58-1.51A1.94,1.94,0,0,0,106,430a4.46,4.46,0,0,0-2.42-.52h-.36v-1.22h.38a4.25,4.25,0,0,0,2.22-.49,1.6,1.6,0,0,0,.76-1.46,1.76,1.76,0,0,0-.56-1.36,2.21,2.21,0,0,0-1.57-.51,2.4,2.4,0,0,0-1.6.51,2,2,0,0,0-.72,1.37h-1.43A3.15,3.15,0,0,1,101.85,424Z"/><path class="cls-4" d="M110.17,434.76a1,1,0,0,1,.7-1.7.91.91,0,0,1,.68.29,1,1,0,0,1,0,1.41.91.91,0,0,1-.68.29A1,1,0,0,1,110.17,434.76Z"/><path class="cls-4" d="M114.63,424a4.13,4.13,0,0,1,2.66-.83,4.24,4.24,0,0,1,1.88.39,2.84,2.84,0,0,1,1.2,1.06,2.91,2.91,0,0,1,.41,1.52,2.68,2.68,0,0,1-.57,1.72,2.5,2.5,0,0,1-1.48.92v.08a2.83,2.83,0,0,1,2.26,3,3.2,3.2,0,0,1-.42,1.64,2.78,2.78,0,0,1-1.25,1.14,4.38,4.38,0,0,1-2,.42,4.25,4.25,0,0,1-2.78-.89,3.43,3.43,0,0,1-1.22-2.52h1.41a2.37,2.37,0,0,0,.78,1.57,2.56,2.56,0,0,0,1.79.61,2.32,2.32,0,0,0,1.71-.59,2,2,0,0,0,.58-1.51,1.91,1.91,0,0,0-.8-1.73,4.45,4.45,0,0,0-2.41-.52H116v-1.22h.38a4.29,4.29,0,0,0,2.23-.49,1.6,1.6,0,0,0,.75-1.46,1.78,1.78,0,0,0-.55-1.36,2.26,2.26,0,0,0-1.58-.51,2.42,2.42,0,0,0-1.6.51,2.12,2.12,0,0,0-.72,1.37H113.5A3.1,3.1,0,0,1,114.63,424Z"/><path class="cls-4" d="M124.06,424a4.08,4.08,0,0,1,2.65-.83,4.21,4.21,0,0,1,1.88.39,2.84,2.84,0,0,1,1.2,1.06,2.91,2.91,0,0,1,.41,1.52,2.68,2.68,0,0,1-.57,1.72,2.5,2.5,0,0,1-1.48.92v.08a3,3,0,0,1,1.65,1,3,3,0,0,1,.61,2,3.2,3.2,0,0,1-.42,1.64,2.73,2.73,0,0,1-1.25,1.14,4.38,4.38,0,0,1-2,.42,4.27,4.27,0,0,1-2.78-.89,3.47,3.47,0,0,1-1.22-2.52h1.41a2.43,2.43,0,0,0,.79,1.57,2.52,2.52,0,0,0,1.79.61,2.29,2.29,0,0,0,1.7-.59,2,2,0,0,0,.59-1.51,1.94,1.94,0,0,0-.8-1.73,4.49,4.49,0,0,0-2.42-.52h-.37v-1.22h.39a4.25,4.25,0,0,0,2.22-.49,1.6,1.6,0,0,0,.75-1.46,1.75,1.75,0,0,0-.55-1.36,2.24,2.24,0,0,0-1.58-.51,2.42,2.42,0,0,0-1.6.51,2.12,2.12,0,0,0-.72,1.37h-1.42A3.11,3.11,0,0,1,124.06,424Z"/><path class="cls-4" d="M132.71,424.25a2.52,2.52,0,0,1,3.36,0,2.64,2.64,0,0,1,0,3.49,2.5,2.5,0,0,1-3.36,0,2.67,2.67,0,0,1,0-3.49Zm.83.63a1.69,1.69,0,0,0-.32,1.11,1.74,1.74,0,0,0,.32,1.12,1,1,0,0,0,.85.38,1.07,1.07,0,0,0,.87-.39,1.73,1.73,0,0,0,.32-1.11,1.69,1.69,0,0,0-.32-1.11,1.09,1.09,0,0,0-.87-.38A1,1,0,0,0,133.54,424.88Zm7.86-1.1L134.92,435h-1.44L140,423.78ZM138.84,431a2.31,2.31,0,0,1,1.68-.65,2.27,2.27,0,0,1,1.67.65,2.68,2.68,0,0,1,0,3.5,2.48,2.48,0,0,1-3.35,0,2.65,2.65,0,0,1,0-3.5Zm.8.64a2.07,2.07,0,0,0,0,2.21,1.06,1.06,0,0,0,.86.37,1.08,1.08,0,0,0,.87-.37,2.07,2.07,0,0,0,0-2.21,1.09,1.09,0,0,0-.87-.38A1.07,1.07,0,0,0,139.64,431.63Z"/></g></g><g id="_66.66_" data-name=" 66.66 " class="cls-3"><g class="cls-3"><path class="cls-4" d="M404.59,111.25a2.36,2.36,0,0,0-2.13,1.1,6.85,6.85,0,0,0-.69,3.61,2.71,2.71,0,0,1,1.22-1.31,3.94,3.94,0,0,1,1.91-.47,3.51,3.51,0,0,1,2.64,1,4,4,0,0,1,1,2.84,4.43,4.43,0,0,1-.42,1.95,3.31,3.31,0,0,1-1.28,1.37,4,4,0,0,1-2.07.52,4.06,4.06,0,0,1-2.58-.74,3.88,3.88,0,0,1-1.3-2,12.17,12.17,0,0,1-.36-3.2c0-3.92,1.36-5.87,4.09-5.87a3.27,3.27,0,0,1,3.52,3h-1.34A2,2,0,0,0,404.59,111.25Zm-1.29,4.44a2.37,2.37,0,0,0-1,.85,2.45,2.45,0,0,0-.37,1.38,2.8,2.8,0,0,0,.7,2,2.6,2.6,0,0,0,2,.76,2.33,2.33,0,0,0,1.78-.7,2.61,2.61,0,0,0,.66-1.88,2.82,2.82,0,0,0-.64-2,2.39,2.39,0,0,0-1.87-.71A3,3,0,0,0,403.3,115.69Z"/><path class="cls-4" d="M414.75,111.25a2.37,2.37,0,0,0-2.13,1.1,6.85,6.85,0,0,0-.69,3.61,2.71,2.71,0,0,1,1.22-1.31,3.94,3.94,0,0,1,1.91-.47,3.51,3.51,0,0,1,2.64,1,4,4,0,0,1,1,2.84,4.43,4.43,0,0,1-.42,1.95,3.31,3.31,0,0,1-1.28,1.37,4,4,0,0,1-2.07.52,4.06,4.06,0,0,1-2.58-.74,3.88,3.88,0,0,1-1.3-2,12.17,12.17,0,0,1-.36-3.2c0-3.92,1.36-5.87,4.09-5.87a3.27,3.27,0,0,1,3.52,3h-1.34A2,2,0,0,0,414.75,111.25Zm-1.28,4.44a2.33,2.33,0,0,0-1,.85,2.45,2.45,0,0,0-.37,1.38,2.8,2.8,0,0,0,.7,2,2.6,2.6,0,0,0,2,.76,2.33,2.33,0,0,0,1.78-.7,2.61,2.61,0,0,0,.66-1.88,2.82,2.82,0,0,0-.64-2,2.39,2.39,0,0,0-1.87-.71A3,3,0,0,0,413.47,115.69Z"/><path class="cls-4" d="M420.65,121.65a1,1,0,0,1,.7-1.69.9.9,0,0,1,.68.28,1,1,0,0,1,0,1.41.91.91,0,0,1-.68.29A1,1,0,0,1,420.65,121.65Z"/><path class="cls-4" d="M428.26,111.25a2.35,2.35,0,0,0-2.12,1.1,6.85,6.85,0,0,0-.69,3.61,2.71,2.71,0,0,1,1.22-1.31,3.94,3.94,0,0,1,1.91-.47,3.51,3.51,0,0,1,2.64,1,4,4,0,0,1,1,2.84,4.43,4.43,0,0,1-.42,1.95,3.31,3.31,0,0,1-1.28,1.37,4,4,0,0,1-2.07.52,4.06,4.06,0,0,1-2.58-.74,3.88,3.88,0,0,1-1.3-2,12.13,12.13,0,0,1-.37-3.2c0-3.92,1.37-5.87,4.1-5.87a3.27,3.27,0,0,1,3.52,3h-1.34A2,2,0,0,0,428.26,111.25ZM427,115.69a2.37,2.37,0,0,0-1,.85,2.45,2.45,0,0,0-.37,1.38,2.8,2.8,0,0,0,.7,2,2.59,2.59,0,0,0,2,.76,2.34,2.34,0,0,0,1.79-.7,2.61,2.61,0,0,0,.66-1.88,2.82,2.82,0,0,0-.64-2,2.39,2.39,0,0,0-1.87-.71A3,3,0,0,0,427,115.69Z"/><path class="cls-4" d="M438.43,111.25a2.36,2.36,0,0,0-2.13,1.1,6.85,6.85,0,0,0-.69,3.61,2.71,2.71,0,0,1,1.22-1.31,3.94,3.94,0,0,1,1.91-.47,3.51,3.51,0,0,1,2.64,1,4,4,0,0,1,1,2.84,4.43,4.43,0,0,1-.42,1.95,3.31,3.31,0,0,1-1.28,1.37,4,4,0,0,1-2.07.52,4.06,4.06,0,0,1-2.58-.74,3.88,3.88,0,0,1-1.3-2,12.13,12.13,0,0,1-.37-3.2c0-3.92,1.37-5.87,4.1-5.87a3.27,3.27,0,0,1,3.52,3h-1.34A2,2,0,0,0,438.43,111.25Zm-1.29,4.44a2.37,2.37,0,0,0-1,.85,2.45,2.45,0,0,0-.37,1.38,2.8,2.8,0,0,0,.7,2,2.6,2.6,0,0,0,2,.76,2.33,2.33,0,0,0,1.78-.7,2.61,2.61,0,0,0,.66-1.88,2.82,2.82,0,0,0-.64-2,2.39,2.39,0,0,0-1.87-.71A3,3,0,0,0,437.14,115.69Z"/><path class="cls-4" d="M444.66,111.15a2.27,2.27,0,0,1,1.68-.65,2.24,2.24,0,0,1,1.68.65,2.62,2.62,0,0,1,0,3.48,2.24,2.24,0,0,1-1.68.65,2.27,2.27,0,0,1-1.68-.65,2.65,2.65,0,0,1,0-3.48Zm.83.62a1.69,1.69,0,0,0-.31,1.11,1.72,1.72,0,0,0,.31,1.12,1,1,0,0,0,.85.39,1.06,1.06,0,0,0,.87-.39,1.78,1.78,0,0,0,.32-1.12,1.69,1.69,0,0,0-.32-1.11,1.08,1.08,0,0,0-.87-.38A1.05,1.05,0,0,0,445.49,111.77Zm7.86-1.1-6.48,11.17h-1.44l6.48-11.17Zm-2.56,7.21a2.31,2.31,0,0,1,1.68-.65,2.27,2.27,0,0,1,1.67.65,2.68,2.68,0,0,1,0,3.5,2.24,2.24,0,0,1-1.67.66,2.31,2.31,0,0,1-1.68-.65,2.69,2.69,0,0,1,0-3.51Zm.8.64a1.69,1.69,0,0,0-.32,1.11,1.66,1.66,0,0,0,.32,1.1,1.09,1.09,0,0,0,.87.38,1.07,1.07,0,0,0,.86-.38,1.66,1.66,0,0,0,.32-1.1,1.69,1.69,0,0,0-.32-1.11,1.06,1.06,0,0,0-.86-.37A1.08,1.08,0,0,0,451.59,118.52Z"/></g></g><g id="Group_14592" data-name="Group 14592"><g id="Group_14588" data-name="Group 14588"><path id="Path_29023" data-name="Path 29023" class="cls-5" d="M256.69,267.08a7.84,7.84,0,0,1-2,5.56,6.86,6.86,0,0,1-5.17,2.15H228a6.8,6.8,0,0,1-5.19-2.13,7.74,7.74,0,0,1-2-5.58v-6.64h9.82v4.85h16.21v-7.91H227.53a6.43,6.43,0,0,1-4.95-1.86,7.47,7.47,0,0,1-1.74-5.32V240.14a7.84,7.84,0,0,1,2-5.56,6.77,6.77,0,0,1,5.19-2.13h21.5a6.83,6.83,0,0,1,5.19,2.13,7.83,7.83,0,0,1,2,5.56v5.8h-9.82v-4H230.68v6.76H250a6.47,6.47,0,0,1,4.95,1.86,7.48,7.48,0,0,1,1.74,5.29Z"/><path id="Path_29024" data-name="Path 29024" class="cls-5" d="M283.56,274.79h-9.87V242h-13.1v-9.5h36.07V242h-13.1Z"/><path id="Path_29025" data-name="Path 29025" class="cls-5" d="M335.31,274.79H323.77l-6.27-13.4h-6.93v13.4h-9.82V232.42h27.4a6.8,6.8,0,0,1,5.19,2.13,7.84,7.84,0,0,1,2,5.58V253.7a8,8,0,0,1-1.35,4.73,7,7,0,0,1-3.55,2.67,8.43,8.43,0,0,1-2.06.32Zm-9.82-22.9v-10H310.55v10Z"/><path id="Path_29026" data-name="Path 29026" class="cls-5" d="M383.58,274.79h-9.82V253.12c0-1.08,0-2.18.05-3.29s.07-2.18.1-3.28l-8.25,28.21h-9.09l-8.21-28.23c0,1.08.08,2.18.1,3.28s.05,2.18.05,3.28v21.67h-9.82V232.4H352l6.83,23,1,3.62c.39,1.4.8,2.94,1.22,4.68.42-1.71.83-3.28,1.22-4.68s.74-2.6,1-3.62l6.83-23h13.35Z"/><path id="Path_29027" data-name="Path 29027" class="cls-6" d="M177.74,239.5v28.17a7,7,0,0,0,7,7H206.7a7,7,0,0,0,7-7h0V254.76a5.2,5.2,0,0,0-5.2-5.2H194.68v8.26h8.5v7.43H186.71V241.83h16.54V246h10.49v-6.86a6.77,6.77,0,0,0-6.77-6.77h-22.1a7.13,7.13,0,0,0-7.13,7.12Z"/></g><g id="Total_Supply_16_950_000_000" data-name="Total Supply 16 950 000 000" class="cls-3"><g class="cls-3"><path class="cls-7" d="M228.12,302.17v1.48h-3.8v12.46H222.5V303.65h-3.82v-1.48Z"/><path class="cls-7" d="M232.35,315.59a4.94,4.94,0,0,1-2-2,6.12,6.12,0,0,1-.71-3,5.89,5.89,0,0,1,.73-3,5.05,5.05,0,0,1,2-2,6.11,6.11,0,0,1,5.64,0,5.09,5.09,0,0,1,2,2,5.9,5.9,0,0,1,.73,3,5.82,5.82,0,0,1-.75,3,5.18,5.18,0,0,1-2,2,5.78,5.78,0,0,1-2.84.7A5.56,5.56,0,0,1,232.35,315.59Zm4.63-1.36a3.42,3.42,0,0,0,1.39-1.38,5,5,0,0,0,0-4.48A3.45,3.45,0,0,0,237,307a3.8,3.8,0,0,0-1.82-.45,3.76,3.76,0,0,0-1.83.45,3.32,3.32,0,0,0-1.33,1.37,5.36,5.36,0,0,0,0,4.5,3.22,3.22,0,0,0,1.31,1.37,3.7,3.7,0,0,0,1.8.45A3.81,3.81,0,0,0,237,314.23Z"/><path class="cls-7" d="M245.38,306.65v6.46a1.51,1.51,0,0,0,.34,1.13,1.68,1.68,0,0,0,1.18.33h1.34v1.54H246.6a3.26,3.26,0,0,1-2.28-.7,3,3,0,0,1-.76-2.3v-6.46h-1.42v-1.5h1.42v-2.76h1.82v2.76h2.86v1.5Z"/><path class="cls-7" d="M250.44,307.64a5,5,0,0,1,1.87-2A5.19,5.19,0,0,1,255,305a4.9,4.9,0,0,1,2.5.62,4.23,4.23,0,0,1,1.58,1.56v-2h1.84v11H259v-2a4.31,4.31,0,0,1-1.61,1.59,4.8,4.8,0,0,1-2.49.63,5,5,0,0,1-4.5-2.74,6.3,6.3,0,0,1-.68-3A6.2,6.2,0,0,1,250.44,307.64Zm8.1.81a3.53,3.53,0,0,0-1.35-1.41,3.75,3.75,0,0,0-1.87-.49,3.68,3.68,0,0,0-1.86.48,3.48,3.48,0,0,0-1.34,1.4,4.53,4.53,0,0,0-.5,2.16,4.6,4.6,0,0,0,.5,2.19,3.47,3.47,0,0,0,1.34,1.42,3.59,3.59,0,0,0,1.86.49,3.65,3.65,0,0,0,1.87-.49,3.43,3.43,0,0,0,1.35-1.42,4.94,4.94,0,0,0,0-4.33Z"/><path class="cls-7" d="M265.78,301.31v14.8H264v-14.8Z"/><path class="cls-7" d="M276.17,315.76a4,4,0,0,1-1.71-1.36,3.48,3.48,0,0,1-.64-2h1.94a2.55,2.55,0,0,0,.81,1.65,2.88,2.88,0,0,0,2.07.67,3,3,0,0,0,2.05-.65,2.1,2.1,0,0,0,.75-1.67,1.93,1.93,0,0,0-.44-1.3,2.89,2.89,0,0,0-1.1-.76,17.76,17.76,0,0,0-1.78-.56,15.53,15.53,0,0,1-2.21-.72,3.5,3.5,0,0,1-1.42-1.13,3.33,3.33,0,0,1-.59-2.07,3.57,3.57,0,0,1,.58-2,3.84,3.84,0,0,1,1.63-1.36,5.73,5.73,0,0,1,2.41-.48,5.05,5.05,0,0,1,3.21,1,3.66,3.66,0,0,1,1.41,2.6h-2a2.2,2.2,0,0,0-.84-1.41,3,3,0,0,0-2-.61,2.86,2.86,0,0,0-1.86.59,2,2,0,0,0-.72,1.65,1.77,1.77,0,0,0,.43,1.24,2.73,2.73,0,0,0,1.06.73,17.12,17.12,0,0,0,1.77.57,18.79,18.79,0,0,1,2.22.75,3.76,3.76,0,0,1,1.44,1.14,3.33,3.33,0,0,1,.6,2.09,3.67,3.67,0,0,1-.54,1.92,3.92,3.92,0,0,1-1.6,1.46,5.21,5.21,0,0,1-2.5.56A5.92,5.92,0,0,1,276.17,315.76Z"/><path class="cls-7" d="M295.68,305.15v11h-1.82v-1.62a3.54,3.54,0,0,1-1.45,1.31,4.39,4.39,0,0,1-2.05.47,4.84,4.84,0,0,1-2.3-.53,3.8,3.8,0,0,1-1.61-1.59,5.24,5.24,0,0,1-.59-2.58v-6.42h1.8v6.18a3.48,3.48,0,0,0,.82,2.49,2.93,2.93,0,0,0,2.24.87,3,3,0,0,0,2.3-.9,3.7,3.7,0,0,0,.84-2.62v-6Z"/><path class="cls-7" d="M302.19,305.6a4.8,4.8,0,0,1,2.49-.63,5.19,5.19,0,0,1,2.65.7,5,5,0,0,1,1.87,2,6.2,6.2,0,0,1,.68,2.95,6.3,6.3,0,0,1-.68,3,5,5,0,0,1-4.52,2.74,4.78,4.78,0,0,1-2.47-.63,4.48,4.48,0,0,1-1.63-1.57v7.22h-1.82V305.15h1.82v2A4.42,4.42,0,0,1,302.19,305.6Zm5.33,2.83a3.44,3.44,0,0,0-1.35-1.4,3.75,3.75,0,0,0-1.87-.48,3.71,3.71,0,0,0-1.85.49,3.58,3.58,0,0,0-1.36,1.42,4.83,4.83,0,0,0,0,4.32,3.52,3.52,0,0,0,1.36,1.42,3.61,3.61,0,0,0,1.85.49,3.65,3.65,0,0,0,1.87-.49,3.43,3.43,0,0,0,1.35-1.42,4.6,4.6,0,0,0,.5-2.19A4.53,4.53,0,0,0,307.52,308.43Z"/><path class="cls-7" d="M315.71,305.6a4.8,4.8,0,0,1,2.49-.63,5.22,5.22,0,0,1,2.65.7,5,5,0,0,1,1.87,2,6.2,6.2,0,0,1,.68,2.95,6.3,6.3,0,0,1-.68,3,5,5,0,0,1-4.52,2.74,4.78,4.78,0,0,1-2.47-.63,4.48,4.48,0,0,1-1.63-1.57v7.22h-1.82V305.15h1.82v2A4.42,4.42,0,0,1,315.71,305.6Zm5.33,2.83a3.44,3.44,0,0,0-1.35-1.4,3.75,3.75,0,0,0-1.87-.48A3.71,3.71,0,0,0,316,307a3.58,3.58,0,0,0-1.36,1.42,4.83,4.83,0,0,0,0,4.32A3.52,3.52,0,0,0,316,314.2a3.61,3.61,0,0,0,1.85.49,3.65,3.65,0,0,0,1.87-.49,3.43,3.43,0,0,0,1.35-1.42,4.6,4.6,0,0,0,.5-2.19A4.53,4.53,0,0,0,321,308.43Z"/><path class="cls-7" d="M327.62,301.31v14.8H325.8v-14.8Z"/><path class="cls-7" d="M340.16,305.15l-6.6,16.12h-1.88l2.16-5.28-4.42-10.84h2l3.44,8.88,3.4-8.88Z"/></g><g class="cls-3"><path class="cls-7" d="M202.54,334.69v-3.18h5.54v14.6h-3.56V334.69Z"/><path class="cls-7" d="M217.08,334.34a1.66,1.66,0,0,0-1.14-.37,1.7,1.7,0,0,0-1.64,1,7.5,7.5,0,0,0-.52,3.13,3.05,3.05,0,0,1,1.27-1.1,4.23,4.23,0,0,1,1.83-.4,4.18,4.18,0,0,1,3.15,1.24,4.81,4.81,0,0,1,1.19,3.46,5.35,5.35,0,0,1-.59,2.56,4.13,4.13,0,0,1-1.72,1.72,5.38,5.38,0,0,1-2.67.62q-3.08,0-4.28-1.93a10.54,10.54,0,0,1-1.2-5.55,10.07,10.07,0,0,1,1.27-5.65,4.59,4.59,0,0,1,4.07-1.85,5.06,5.06,0,0,1,2.53.59,4,4,0,0,1,1.56,1.55,5.35,5.35,0,0,1,.63,2.1h-3.18A2.09,2.09,0,0,0,217.08,334.34Zm-2.45,5.46a1.85,1.85,0,0,0-.57,1.45,2.06,2.06,0,0,0,.53,1.5,2,2,0,0,0,1.51.54,1.81,1.81,0,0,0,1.39-.53,2,2,0,0,0,.51-1.45,2.12,2.12,0,0,0-.5-1.48,1.86,1.86,0,0,0-1.44-.54A2.07,2.07,0,0,0,214.63,339.8Z"/><path class="cls-7" d="M227.18,343,225,348.69h-2.18l1.16-5.74Z"/><path class="cls-7" d="M234.42,343.41a1.52,1.52,0,0,0,1.5-.94,7.76,7.76,0,0,0,.44-3.06,2.73,2.73,0,0,1-1.2,1,4.07,4.07,0,0,1-1.7.34,4.74,4.74,0,0,1-2.28-.53,3.74,3.74,0,0,1-1.57-1.58,5.87,5.87,0,0,1,0-5.13,4.25,4.25,0,0,1,1.74-1.7,5.6,5.6,0,0,1,2.67-.6c2,0,3.35.62,4.14,1.84a10.12,10.12,0,0,1,1.18,5.42,16.43,16.43,0,0,1-.47,4.29,4.28,4.28,0,0,1-4.61,3.45,5.22,5.22,0,0,1-2.59-.6,4.23,4.23,0,0,1-1.64-1.58,4.83,4.83,0,0,1-.65-2.16h3.16A1.71,1.71,0,0,0,234.42,343.41Zm1.16-5.91a1.91,1.91,0,0,0,.5-1.39,2,2,0,0,0-.52-1.48,1.92,1.92,0,0,0-1.4-.52,1.85,1.85,0,0,0-1.39.53,2,2,0,0,0-.51,1.45,1.8,1.8,0,0,0,2,1.92A1.79,1.79,0,0,0,235.58,337.5Z"/><path class="cls-7" d="M251.48,334.49h-6.24v2.76a3,3,0,0,1,1.12-.72,4.41,4.41,0,0,1,1.56-.28,4.32,4.32,0,0,1,2.49.68,4.06,4.06,0,0,1,1.45,1.76,5.85,5.85,0,0,1,.46,2.34,5.12,5.12,0,0,1-1.32,3.71,4.9,4.9,0,0,1-3.72,1.37,6.48,6.48,0,0,1-2.78-.55,4.17,4.17,0,0,1-1.82-1.53,4.37,4.37,0,0,1-.7-2.26h3.34a1.75,1.75,0,0,0,.58,1,1.81,1.81,0,0,0,1.26.41,1.65,1.65,0,0,0,1.4-.6A2.54,2.54,0,0,0,249,341a2.15,2.15,0,0,0-.48-1.5,1.84,1.84,0,0,0-1.4-.52,1.82,1.82,0,0,0-1.12.33,1.54,1.54,0,0,0-.58.87h-3.3v-8.7h9.34Z"/><path class="cls-7" d="M255.53,333.19a5.64,5.64,0,0,1,8.58,0,11.79,11.79,0,0,1,0,10.88,5.64,5.64,0,0,1-8.58,0,11.79,11.79,0,0,1,0-10.88Zm6.11,2.31a2.06,2.06,0,0,0-3.64,0,8.74,8.74,0,0,0-.44,3.11,12.7,12.7,0,0,0,.16,2.25,2.83,2.83,0,0,0,.65,1.44,2.19,2.19,0,0,0,2.9,0,2.83,2.83,0,0,0,.65-1.44,12.7,12.7,0,0,0,.16-2.25A8.74,8.74,0,0,0,261.64,335.5Z"/><path class="cls-7" d="M271.26,343,269,348.69h-2.18L268,343Z"/><path class="cls-7" d="M274.31,333.19a5.64,5.64,0,0,1,8.58,0,11.79,11.79,0,0,1,0,10.88,5.64,5.64,0,0,1-8.58,0,11.79,11.79,0,0,1,0-10.88Zm6.11,2.31a2.06,2.06,0,0,0-3.64,0,8.74,8.74,0,0,0-.44,3.11,12.7,12.7,0,0,0,.16,2.25,2.83,2.83,0,0,0,.65,1.44,2.19,2.19,0,0,0,2.9,0,2.83,2.83,0,0,0,.65-1.44,12.7,12.7,0,0,0,.16-2.25A8.74,8.74,0,0,0,280.42,335.5Z"/><path class="cls-7" d="M287.35,333.19a5.64,5.64,0,0,1,8.58,0,11.79,11.79,0,0,1,0,10.88,5.64,5.64,0,0,1-8.58,0,11.79,11.79,0,0,1,0-10.88Zm6.11,2.31a2.06,2.06,0,0,0-3.64,0,8.74,8.74,0,0,0-.44,3.11,12.7,12.7,0,0,0,.16,2.25,2.75,2.75,0,0,0,.65,1.44,2.19,2.19,0,0,0,2.9,0,2.83,2.83,0,0,0,.65-1.44,12.7,12.7,0,0,0,.16-2.25A8.74,8.74,0,0,0,293.46,335.5Z"/><path class="cls-7" d="M300.39,333.19a5.64,5.64,0,0,1,8.58,0,11.79,11.79,0,0,1,0,10.88,5.64,5.64,0,0,1-8.58,0,11.79,11.79,0,0,1,0-10.88Zm6.11,2.31a2.06,2.06,0,0,0-3.64,0,8.52,8.52,0,0,0-.44,3.11,12.7,12.7,0,0,0,.16,2.25,2.75,2.75,0,0,0,.65,1.44,2.19,2.19,0,0,0,2.9,0,2.83,2.83,0,0,0,.65-1.44,13.73,13.73,0,0,0,.16-2.25A8.74,8.74,0,0,0,306.5,335.5Z"/><path class="cls-7" d="M316.12,343l-2.22,5.74h-2.18l1.16-5.74Z"/><path class="cls-7" d="M319.17,333.19a5.64,5.64,0,0,1,8.58,0,11.79,11.79,0,0,1,0,10.88,5.64,5.64,0,0,1-8.58,0,11.79,11.79,0,0,1,0-10.88Zm6.11,2.31a2.06,2.06,0,0,0-3.64,0,8.52,8.52,0,0,0-.44,3.11,12.7,12.7,0,0,0,.16,2.25,2.83,2.83,0,0,0,.65,1.44,2.19,2.19,0,0,0,2.9,0,2.91,2.91,0,0,0,.65-1.44,13.73,13.73,0,0,0,.16-2.25A8.74,8.74,0,0,0,325.28,335.5Z"/><path class="cls-7" d="M332.21,333.19a5.64,5.64,0,0,1,8.58,0,11.79,11.79,0,0,1,0,10.88,5.64,5.64,0,0,1-8.58,0,11.79,11.79,0,0,1,0-10.88Zm6.11,2.31a2.06,2.06,0,0,0-3.64,0,8.52,8.52,0,0,0-.44,3.11,12.7,12.7,0,0,0,.16,2.25,2.75,2.75,0,0,0,.65,1.44,2.19,2.19,0,0,0,2.9,0,2.91,2.91,0,0,0,.65-1.44,12.7,12.7,0,0,0,.16-2.25A8.74,8.74,0,0,0,338.32,335.5Z"/><path class="cls-7" d="M345.25,333.19a5.64,5.64,0,0,1,8.58,0,11.79,11.79,0,0,1,0,10.88,5.64,5.64,0,0,1-8.58,0,11.79,11.79,0,0,1,0-10.88Zm6.11,2.31a2.06,2.06,0,0,0-3.64,0,8.52,8.52,0,0,0-.44,3.11,12.7,12.7,0,0,0,.16,2.25,2.75,2.75,0,0,0,.65,1.44,2.19,2.19,0,0,0,2.9,0,2.91,2.91,0,0,0,.65-1.44,13.73,13.73,0,0,0,.16-2.25A8.74,8.74,0,0,0,351.36,335.5Z"/></g></g></g></g></g></g></svg>