<svg xmlns="http://www.w3.org/2000/svg" xmlns:xlink="http://www.w3.org/1999/xlink" width="168.497" height="26.418" viewBox="0 0 168.497 26.418">
  <defs>
    <linearGradient id="linear-gradient" x1="0.972" y1="0.028" x2="0" y2="1" gradientUnits="objectBoundingBox">
      <stop offset="0" stop-color="#11c4d1"/>
      <stop offset="1" stop-color="#0062ad"/>
    </linearGradient>
  </defs>
  <g id="imTokenLogo" transform="translate(0.009 -0.543)">
    <path id="Path_29076" data-name="Path 29076" d="M37.288.949c1.233,16.7-9.5,24.6-19.128,25.439C9.211,27.17.788,21.672.049,13.224c-.61-6.979,3.7-9.951,7.093-10.247,3.486-.306,6.415,2.1,6.669,5.009.245,2.8-1.5,4.072-2.716,4.178a2.038,2.038,0,0,1-2.278-1.751c-.094-1.076.315-1.222.215-2.365A2.43,2.43,0,0,0,6.11,5.861C4.935,5.964,2.8,7.336,3.1,10.753c.3,3.447,3.606,6.17,7.938,5.792,4.675-.408,7.93-4.049,8.175-9.154a1.855,1.855,0,0,1,.167-.784l0-.006a2.2,2.2,0,0,1,.176-.307,4.155,4.155,0,0,1,.393-.5s0,0,0,0c.12-.136.265-.282.429-.44,2.042-1.927,9.4-6.471,16.353-5.032a.7.7,0,0,1,.549.628" transform="translate(0 0.5)" fill="url(#linear-gradient)"/>
    <g id="Group_14611" data-name="Group 14611" transform="translate(51.547 2.111)">
      <rect id="Rectangle_3965" data-name="Rectangle 3965" width="3.402" height="16.102" rx="0.071" transform="translate(0.355 6.495)" fill="#11293b"/>
      <path id="Path_29077" data-name="Path 29077" d="M46.22.734v2.5a.109.109,0,0,1-.109.106H39.663a.109.109,0,0,0-.111.106V22.422a.109.109,0,0,1-.112.106H36.117a.109.109,0,0,1-.111-.1V3.45a.109.109,0,0,0-.111-.106H28.866a.109.109,0,0,1-.109-.106V.734a.109.109,0,0,1,.109-.106H46.1a.115.115,0,0,1,.084.028.1.1,0,0,1,.036.078ZM29.753,12.255l.034.006V22.422a.109.109,0,0,1-.109.106h-3.1a.109.109,0,0,1-.112-.106V14.629c0-.33.006-.663.006-.988,0-.168,0-.33-.006-.494a10.775,10.775,0,0,0-.094-1.416c-.234-1.693-.924-2.921-3.38-2.889a4.583,4.583,0,0,0-2.031.549,5.193,5.193,0,0,0-1.989,1.835,12.639,12.639,0,0,1,.111,1.634v.017c0,.09.006.181.006.265v9.5a.109.109,0,0,1-.111.106H15.946a.109.109,0,0,1-.111-.106V14.62c0-1.769.094-3.612-.783-4.753-.53-.684-1.283-1.006-2.753-1.006a5.059,5.059,0,0,0-1.983.5,5.283,5.283,0,0,0-1.141.72,2.239,2.239,0,0,0-.854,1.64V22.427a.109.109,0,0,1-.109.106H5.12a.109.109,0,0,1-.109-.106V6.632a.109.109,0,0,1,.109-.106h1.3a1.178,1.178,0,0,1,1.138.814l.2.639a.1.1,0,0,0,.069.1.119.119,0,0,0,.12-.022A7.7,7.7,0,0,1,13.2,6.136a5.17,5.17,0,0,1,4.1,1.529l-.087-.112a5.346,5.346,0,0,1,.664.937.114.114,0,0,0,.187.019,7.961,7.961,0,0,1,5.726-2.371c4.543,0,5.971,3.09,5.971,6.111l-.012.006Zm50.778,10.3H77.158a.112.112,0,0,1-.089-.044c-1.272-1.687-2.217-3.317-2.635-3.832l-.076-.094c-.694-.861-2.12-2.672-4.078-3.013a.114.114,0,0,0-.1.031l-1.442,1.487a.1.1,0,0,0-.031.073v5.257a.109.109,0,0,1-.111.1h-3.14a.109.109,0,0,1-.109-.1V.374a.109.109,0,0,1,.109-.106H68.6a.107.107,0,0,1,.111.106v12.7a.1.1,0,0,0,.069.094.116.116,0,0,0,.118-.019L75.8,6.222a.114.114,0,0,1,.078-.031h3.7a.11.11,0,0,1,.1.065.1.1,0,0,1-.02.112L72.609,13.4a.1.1,0,0,0-.028.092.106.106,0,0,0,.059.075,11.946,11.946,0,0,1,4.1,3.494l.073.092c.561.692,2.432,3.409,3.815,5.246a.1.1,0,0,1,0,.1.112.112,0,0,1-.094.053Z" transform="translate(2.704 0.073)" fill="#11293b"/>
      <ellipse id="Ellipse_2800" data-name="Ellipse 2800" cx="2.056" cy="1.964" rx="2.056" ry="1.964" transform="translate(0 0)" fill="#11293b"/>
      <path id="Path_29078" data-name="Path 29078" d="M39.283,3.787c-4.906,0-8.119,3.123-8.119,8.45,0,5.347,3.227,8.451,8.119,8.451s8.116-3.105,8.116-8.45c0-5.319-3.238-8.451-8.116-8.451Zm0,14.254c-3.314,0-4.9-2.172-4.9-5.963,0-3.77,1.59-5.647,4.9-5.647s4.894,2.033,4.894,5.8-1.59,5.807-4.894,5.807Zm36.37.21A4.839,4.839,0,0,1,71.1,16.346a5.654,5.654,0,0,1-1.029-2.583.1.1,0,0,1,.02-.078.112.112,0,0,1,.072-.042l8.961-1.208A3.08,3.08,0,0,0,81.676,7.92a7.541,7.541,0,0,0-4.091-3.706,8.281,8.281,0,0,0-7.449,1,8.3,8.3,0,0,0-3.246,6.457c-.016.265-.022.53-.022.8a9.3,9.3,0,0,0,.143,1.637c.614,3.554,3.225,6.819,7.6,6.834,4.951.016,7.29-2.859,7.69-5.014a.1.1,0,0,0-.031-.089.114.114,0,0,0-.094-.031l-3.087.457a.118.118,0,0,0-.078.053,4.528,4.528,0,0,1-3.36,1.939ZM71.023,8.174a4.929,4.929,0,0,1,3.5-1.8,4.2,4.2,0,0,1,3.517,1.013,4.864,4.864,0,0,1,.895,1.135,1.113,1.113,0,0,1-.834,1.626l-8.163,1.094a.114.114,0,0,1-.094-.028.1.1,0,0,1-.031-.086,5.445,5.445,0,0,1,1.205-2.956Zm28.594,2.435v9.867a.109.109,0,0,1-.109.106H96.431a.109.109,0,0,1-.112-.106v-8.2A26.176,26.176,0,0,0,96.241,9.6,3.289,3.289,0,0,0,95.119,7.24,3.715,3.715,0,0,0,92.634,6.6,7.019,7.019,0,0,0,88.3,8.967l-.056.064.056-.023V20.472a.109.109,0,0,1-.111.106H85.1a.109.109,0,0,1-.112-.106V4.373a.109.109,0,0,1,.111-.106h2.533a.109.109,0,0,1,.112.106V5.951a.1.1,0,0,0,.07.094.111.111,0,0,0,.117-.022,7.489,7.489,0,0,1,5.353-2.175c1.715,0,6.332.072,6.332,6.761Z" transform="translate(17.323 2.017)" fill="#11293b"/>
    </g>
  </g>
</svg>
