<svg xmlns="http://www.w3.org/2000/svg" width="189.687" height="34.907" viewBox="0 0 189.687 34.907">
  <g id="Group_14610" data-name="Group 14610" transform="translate(-0.875 -0.875)">
    <path id="Path_29063" data-name="Path 29063" d="M163.095,17.541c-.992-.646-2.073-1.114-3.1-1.694a12.377,12.377,0,0,1-1.961-1.181,1.968,1.968,0,0,1,.245-3.087c1.482-.981,3.923-.435,4.19,1.571a.086.086,0,0,0,.089.078h2.229a.079.079,0,0,0,.078-.111,4.39,4.39,0,0,0-1.627-3.276,5.193,5.193,0,0,0-3.165-1.081c-5.884,0-6.43,6.229-3.254,8.191.368.223,3.477,1.783,4.569,2.463a2.253,2.253,0,0,1,.981,2.9,2.844,2.844,0,0,1-2.7,1.449,2.662,2.662,0,0,1-2.518-1.772,3.361,3.361,0,0,1-.089-.7.1.1,0,0,0-.089-.089h-2.418a.1.1,0,0,0-.078.089,3.869,3.869,0,0,0,1.616,3.588,5.858,5.858,0,0,0,3.588,1.192c3.31,0,5.015-1.872,5.349-3.8a4.451,4.451,0,0,0-1.939-4.725ZM58.121,9.083H55.87a.1.1,0,0,0-.078.056l-1.984,6.53a.089.089,0,0,1-.178,0l-1.984-6.53c-.011-.045-.045-.056-.089-.056H47.869a.1.1,0,0,0-.089.078V25.832a.1.1,0,0,0,.089.089h2.418a.1.1,0,0,0,.089-.089V13.151a.085.085,0,0,1,.167-.022L52.549,19.7l.145.446c0,.056.033.067.078.067h1.861a.088.088,0,0,0,.078-.056l.145-.468,2.006-6.575c.022-.089.167-.067.167.033v12.67a.1.1,0,0,0,.089.089h2.418a.1.1,0,0,0,.089-.089V9.161a.1.1,0,0,0-.089-.078H58.121Zm67.954,0a.1.1,0,0,0-.089.056L124,15.669a.089.089,0,1,1-.178,0l-1.984-6.53c0-.045-.033-.056-.078-.056h-3.677a.1.1,0,0,0-.089.078V25.832a.1.1,0,0,0,.089.089H120.5a.1.1,0,0,0,.078-.089V13.151c0-.1.145-.111.178-.022l2.006,6.575.134.446c.022.056.045.067.089.067h1.85a.111.111,0,0,0,.089-.056l.145-.468,2.006-6.575c.022-.089.167-.067.167.033v12.67a.1.1,0,0,0,.089.089h2.418a.1.1,0,0,0,.089-.089V9.161a.1.1,0,0,0-.089-.078h-3.677Zm-31.191,0H83.462a.1.1,0,0,0-.078.078v2.1a.1.1,0,0,0,.078.089h4.424V25.832a.1.1,0,0,0,.078.1h2.418a.1.1,0,0,0,.089-.089V11.334h4.413a.1.1,0,0,0,.089-.089V9.161a.079.079,0,0,0-.089-.078Zm14.264,16.838h2.206a.086.086,0,0,0,.078-.111L106.886,9.083c0-.045-.033-.067-.078-.067h-3.176a.1.1,0,0,0-.078.067L99.008,25.8a.082.082,0,0,0,.078.111h2.206a.1.1,0,0,0,.089-.056L102.7,21c.011-.045.045-.056.089-.056h4.859a.088.088,0,0,1,.089.056l1.315,4.859a.157.157,0,0,0,.089.067Zm-5.772-7.366,1.761-6.519a.089.089,0,1,1,.178,0l1.761,6.519a.082.082,0,0,1-.078.111h-3.533a.084.084,0,0,1-.089-.111Zm43.293,7.366h2.206a.1.1,0,0,0,.089-.111L144.418,9.072c-.022-.045-.045-.067-.089-.067h-3.154a.1.1,0,0,0-.089.067l-4.547,16.716a.094.094,0,0,0,.089.111h2.2a.088.088,0,0,0,.089-.056l1.315-4.859a.083.083,0,0,1,.089-.056h4.87a.084.084,0,0,1,.078.056l1.326,4.859c0,.033.045.067.078.067ZM140.9,18.555l1.772-6.519a.089.089,0,0,1,.167,0l1.772,6.519a.1.1,0,0,1-.089.111h-3.533c-.056,0-.111-.056-.089-.111ZM69.443,23.447V18.277a.086.086,0,0,1,.078-.089h6.441a.1.1,0,0,0,.089-.078V16.026a.1.1,0,0,0-.089-.089h-6.43a.086.086,0,0,1-.078-.089V11.434a.086.086,0,0,1,.078-.089h7.333a.1.1,0,0,0,.089-.089V9.183a.1.1,0,0,0-.089-.089H66.947a.1.1,0,0,0-.089.089V25.832a.1.1,0,0,0,.089.089H77.166a.1.1,0,0,0,.089-.089V23.626a.1.1,0,0,0-.089-.089H69.521a.09.09,0,0,1-.067-.1Zm115.738,2.329-8.358-8.625a.089.089,0,0,1,0-.111l7.522-7.8a.08.08,0,0,0-.067-.145H181.2a.051.051,0,0,0-.056.033l-6.385,6.608a.089.089,0,0,1-.145-.056v-6.5a.1.1,0,0,0-.089-.089H172.11a.1.1,0,0,0-.089.089v16.66a.1.1,0,0,0,.089.089h2.418a.1.1,0,0,0,.089-.089V18.511a.083.083,0,0,1,.145-.056l7.243,7.444a.111.111,0,0,0,.045.033h3.087c.056-.011.111-.111.045-.156Z" transform="translate(5.35 0.887)" fill="#161616"/>
    <path id="Path_29064" data-name="Path 29064" d="M34.463,1,19.82,11.832l2.73-6.385Z" transform="translate(2.152)" fill="#e17726" stroke="#e17726" stroke-linecap="round" stroke-linejoin="round" stroke-width="0.25"/>
    <path id="Path_29065" data-name="Path 29065" d="M2.819,1,17.328,11.921l-2.6-6.463ZM31.313,26.107l-3.9,5.951,8.347,2.3,2.385-8.113-6.831-.134ZM1.27,26.24l2.374,8.113,8.324-2.3L8.09,26.107l-6.82.134Z" transform="translate(0.031)" fill="#e27625" stroke="#e27625" stroke-linecap="round" stroke-linejoin="round" stroke-width="0.25"/>
    <path id="Path_29066" data-name="Path 29066" d="M10.708,15.035l-2.318,3.5,8.246.379-.267-8.882-5.661,5.015Zm16.359.011L21.317,9.92l-.189,8.993,8.246-.379ZM11.154,31.037l5-2.407-4.3-3.343Zm10.475-2.418,4.97,2.418-.669-5.761-4.3,3.343Z" transform="translate(0.845 1.02)" fill="#e27625" stroke="#e27625" stroke-linecap="round" stroke-linejoin="round" stroke-width="0.25"/>
    <path id="Path_29067" data-name="Path 29067" d="M26.315,29.117l-4.97-2.407.4,3.232L21.7,31.312Zm-15.445,0,4.636,2.2-.033-1.371.4-3.232Z" transform="translate(1.129 2.94)" fill="#d5bfb2" stroke="#d5bfb2" stroke-linecap="round" stroke-linejoin="round" stroke-width="0.25"/>
    <path id="Path_29068" data-name="Path 29068" d="M15.523,22.042l-4.123-1.2L14.32,19.5l1.215,2.541Zm6.029,0,1.226-2.552,2.931,1.337-4.157,1.226Z" transform="translate(1.189 2.115)" fill="#233447" stroke="#233447" stroke-linecap="round" stroke-linejoin="round" stroke-width="0.25"/>
    <path id="Path_29069" data-name="Path 29069" d="M11.268,30.153l.724-5.951-4.6.134,3.878,5.817ZM26.011,24.2l.7,5.951,3.9-5.817ZM29.5,17.65l-8.246.379.758,4.235L23.236,19.7l2.931,1.337L29.5,17.65Zm-17.64,3.4,2.92-1.337,1.215,2.541.769-4.235L8.516,17.65Z" transform="translate(0.731 1.904)" fill="#cc6228" stroke="#cc6228" stroke-linecap="round" stroke-linejoin="round" stroke-width="0.25"/>
    <path id="Path_29070" data-name="Path 29070" d="M8.4,17.65l3.455,6.742-.111-3.343L8.4,17.65Zm17.652,3.4-.134,3.343,3.455-6.742-3.321,3.4Zm-9.405-3.02-.78,4.235.981,4.992.223-6.586Zm4.48,0-.4,2.63.2,6.6.97-5-.769-4.235Z" transform="translate(0.846 1.904)" fill="#e27525" stroke="#e27525" stroke-linecap="round" stroke-linejoin="round" stroke-width="0.25"/>
    <path id="Path_29071" data-name="Path 29071" d="M21.553,21.9l-.97,5,.7.49,4.29-3.343L25.71,20.7ZM11.4,20.7l.111,3.343,4.3,3.343.691-.479-.97-5L11.39,20.7Z" transform="translate(1.188 2.253)" fill="#f5841f" stroke="#f5841f" stroke-linecap="round" stroke-linejoin="round" stroke-width="0.25"/>
    <path id="Path_29072" data-name="Path 29072" d="M21.713,31.065l.033-1.371-.379-.312H15.84l-.368.312.033,1.371-4.636-2.2L12.5,30.207l3.287,2.262h5.628l3.3-2.273,1.6-1.326-4.613,2.2Z" transform="translate(1.129 3.187)" fill="#c0ac9d" stroke="#c0ac9d" stroke-linecap="round" stroke-linejoin="round" stroke-width="0.25"/>
    <path id="Path_29073" data-name="Path 29073" d="M20.873,26.749l-.7-.479H16.092l-.691.49L15,29.992l.368-.312H20.9l.379.312-.4-3.232Z" transform="translate(1.601 2.89)" fill="#161616" stroke="#161616" stroke-linecap="round" stroke-linejoin="round" stroke-width="0.25"/>
    <path id="Path_29074" data-name="Path 29074" d="M37.239,12.534l1.226-5.962L36.615,1,22.463,11.475l5.449,4.58,7.689,2.24,1.694-1.972-.735-.535,1.17-1.07-.891-.691,1.17-.891-.78-.6ZM1,6.561l1.248,5.973-.8.591,1.192.891-.891.7,1.159,1.07-.735.535,1.694,1.972,7.689-2.229L17,11.464,2.85,1Z" fill="#763e1a" stroke="#763e1a" stroke-linecap="round" stroke-linejoin="round" stroke-width="0.25"/>
    <path id="Path_29075" data-name="Path 29075" d="M35.57,17.839,27.881,15.61,30.2,19.1,26.744,25.84l4.569-.056h6.831ZM11.522,15.6l-7.689,2.24L1.27,25.784H8.1l4.569.056L9.215,19.1l2.318-3.5Zm10.419,3.878.5-8.469L24.672,4.99h-9.94l2.229,6.018.5,8.469.189,2.652V28.7h4.09l.022-6.575.178-2.652Z" transform="translate(0.031 0.456)" fill="#f5841f" stroke="#f5841f" stroke-linecap="round" stroke-linejoin="round" stroke-width="0.25"/>
  </g>
</svg>
