<svg xmlns="http://www.w3.org/2000/svg" xmlns:xlink="http://www.w3.org/1999/xlink" width="183.605" height="42" viewBox="0 0 183.605 42">
  <defs>
    <clipPath id="clip-path">
      <rect id="Rectangle_3963" data-name="Rectangle 3963" width="43" height="42" transform="translate(0.231 0.38)" fill="#fff"/>
    </clipPath>
  </defs>
  <g id="Group_14609" data-name="Group 14609" transform="translate(2552.769 -1517.38)">
    <g id="Group_14607" data-name="Group 14607" transform="translate(-2553 1517)" clip-path="url(#clip-path)">
      <path id="Path_29059" data-name="Path 29059" d="M1.456,7.3C0,10.155,0,13.9,0,21.38S0,32.6,1.456,35.464A13.4,13.4,0,0,0,7.3,41.3c2.86,1.457,6.6,1.457,14.084,1.457s11.224,0,14.084-1.457A13.4,13.4,0,0,0,41.3,35.464c1.457-2.86,1.457-6.6,1.457-14.084s0-11.224-1.457-14.084a13.4,13.4,0,0,0-5.839-5.839C32.6,0,28.863,0,21.38,0S10.155,0,7.3,1.456A13.4,13.4,0,0,0,1.456,7.3Zm30.593,4.236a1.392,1.392,0,0,1,1.39,1.41c-.067,3.982-.22,7.029-.508,9.44A19.739,19.739,0,0,1,31.6,28.034a8.947,8.947,0,0,1-1.577,2.452,12.27,12.27,0,0,1-2.833,2.178c-.446.266-.909.53-1.395.806-1.037.589-2.177,1.236-3.469,2.1a1.382,1.382,0,0,1-1.543,0c-1.312-.875-2.467-1.53-3.513-2.124l-.682-.389A14.853,14.853,0,0,1,13.3,30.7a8.382,8.382,0,0,1-1.637-2.352,16.48,16.48,0,0,1-1.31-4.69,81.884,81.884,0,0,1-.675-10.717,1.392,1.392,0,0,1,.394-1,1.417,1.417,0,0,1,1-.414h.575a14.565,14.565,0,0,0,9.06-2.8,1.394,1.394,0,0,1,1.7,0,14.571,14.571,0,0,0,9.066,2.8ZM28.943,27.146a13.891,13.891,0,0,0,1.069-3.909,73.1,73.1,0,0,0,.621-8.939,17.056,17.056,0,0,1-9.08-2.759A17.173,17.173,0,0,1,12.48,14.3c.073,3.247.22,5.773.454,7.757a17.362,17.362,0,0,0,1.122,4.864A5.941,5.941,0,0,0,15.133,28.6a9.543,9.543,0,0,0,2.211,1.684c.4.238.833.485,1.309.754.847.48,1.818,1.029,2.9,1.718,1.063-.678,2.019-1.221,2.856-1.7q.379-.215.725-.414a12.5,12.5,0,0,0,2.692-1.891A5.912,5.912,0,0,0,28.943,27.146Z" fill="#3375bb"/>
    </g>
    <path id="Path_29060" data-name="Path 29060" d="M53.865,15.622H49.076V12.8H62.118v2.822H57.329V27.766H53.865ZM66.04,17.781a3.718,3.718,0,0,1,1.6-1.261,6.071,6.071,0,0,1,2.352-.428v3.079q-.556-.043-.748-.043A3.034,3.034,0,0,0,67,19.941a3.2,3.2,0,0,0-.812,2.395v5.43H62.854v-11.5H66.04Zm16.968-1.518v11.5H79.844V26.4a4.54,4.54,0,0,1-1.582,1.155,5.1,5.1,0,0,1-1.988.385,4.9,4.9,0,0,1-3.592-1.3,5.2,5.2,0,0,1-1.326-3.87v-6.5h3.335v6.008q0,2.779,2.33,2.779a2.523,2.523,0,0,0,1.924-.77,3.333,3.333,0,0,0,.727-2.33V16.263Zm6.318,11.673a11.5,11.5,0,0,1-2.8-.342,7.5,7.5,0,0,1-2.181-.9L85.456,24.3a7.24,7.24,0,0,0,1.86.812,8.057,8.057,0,0,0,2.138.3q2.117,0,2.117-1.048a.742.742,0,0,0-.577-.706,8.549,8.549,0,0,0-1.775-.363,17.12,17.12,0,0,1-2.33-.492,3.691,3.691,0,0,1-1.6-.983,2.825,2.825,0,0,1-.663-2.01,3.139,3.139,0,0,1,.62-1.924,4.1,4.1,0,0,1,1.839-1.326,7.939,7.939,0,0,1,2.865-.47,10.647,10.647,0,0,1,2.416.278,6.594,6.594,0,0,1,2.01.727L93.26,19.47a6.637,6.637,0,0,0-3.314-.855,3.372,3.372,0,0,0-1.6.3.88.88,0,0,0-.534.77.764.764,0,0,0,.577.748,10.216,10.216,0,0,0,1.839.406,18.086,18.086,0,0,1,2.309.513,3.387,3.387,0,0,1,1.561.962,2.76,2.76,0,0,1,.663,1.967,3.037,3.037,0,0,1-.641,1.9,4.161,4.161,0,0,1-1.881,1.3A8.423,8.423,0,0,1,89.326,27.937Zm14.266-.727a3.565,3.565,0,0,1-1.219.556,6.337,6.337,0,0,1-1.5.171,4.518,4.518,0,0,1-3.186-1.048,4.03,4.03,0,0,1-1.112-3.079V19.086H94.8V16.52h1.775v-2.8h3.335v2.8h2.865v2.566H99.914v4.682a1.64,1.64,0,0,0,.363,1.133,1.445,1.445,0,0,0,1.069.385,2.144,2.144,0,0,0,1.347-.428Zm29.5-14.41-4.9,14.966h-3.72l-3.292-10.134-3.4,10.134h-3.7L109.166,12.8h3.592l3.378,10.519L119.664,12.8h3.207l3.421,10.6,3.485-10.6Zm4.841,3.292a5.954,5.954,0,0,1,4.1,1.283,4.832,4.832,0,0,1,1.432,3.827v6.564h-3.121V26.333q-.94,1.6-3.506,1.6a5.518,5.518,0,0,1-2.309-.449,3.437,3.437,0,0,1-1.475-1.24,3.228,3.228,0,0,1-.513-1.8,3.008,3.008,0,0,1,1.2-2.523,6.206,6.206,0,0,1,3.741-.919h2.651a2.091,2.091,0,0,0-.663-1.668,2.885,2.885,0,0,0-1.988-.6,5.712,5.712,0,0,0-1.817.3,4.639,4.639,0,0,0-1.5.77l-1.2-2.33a7.227,7.227,0,0,1,2.245-1.026A10.223,10.223,0,0,1,137.931,16.092Zm-.257,9.6a2.967,2.967,0,0,0,1.518-.385,2.215,2.215,0,0,0,.941-1.176V22.955h-2.288q-2.052,0-2.052,1.347a1.238,1.238,0,0,0,.492,1.026A2.364,2.364,0,0,0,137.674,25.692Zm8.172-13.79h3.335V27.766h-3.335Zm5.788,0h3.335V27.766h-3.335Zm17.056,10.155q0,.064-.064.9h-8.7a2.715,2.715,0,0,0,1.112,1.689,3.686,3.686,0,0,0,2.181.62,4.49,4.49,0,0,0,1.582-.257,3.966,3.966,0,0,0,1.3-.855l1.775,1.924a5.962,5.962,0,0,1-4.746,1.86,7.6,7.6,0,0,1-3.442-.748,5.644,5.644,0,0,1-2.309-2.117,5.806,5.806,0,0,1-.812-3.057,5.889,5.889,0,0,1,.791-3.036,5.62,5.62,0,0,1,2.2-2.117,6.8,6.8,0,0,1,6.2-.043,5.216,5.216,0,0,1,2.138,2.1A6.088,6.088,0,0,1,168.691,22.057Zm-5.965-3.442a2.873,2.873,0,0,0-1.9.641,2.734,2.734,0,0,0-.941,1.753h5.666a2.712,2.712,0,0,0-.941-1.732A2.783,2.783,0,0,0,162.726,18.615Zm14.964,8.595a3.578,3.578,0,0,1-1.219.556,6.341,6.341,0,0,1-1.5.171,4.517,4.517,0,0,1-3.186-1.048,4.029,4.029,0,0,1-1.112-3.079V19.086H168.9V16.52h1.775v-2.8h3.335v2.8h2.865v2.566h-2.865v4.682a1.636,1.636,0,0,0,.363,1.133,1.444,1.444,0,0,0,1.069.385,2.147,2.147,0,0,0,1.347-.428Z" transform="translate(-2546.854 1518.491)" fill="#3375bb"/>
  </g>
</svg>
