<svg xmlns="http://www.w3.org/2000/svg" width="186" height="54.006" viewBox="0 0 186 54.006">
  <g id="Group_2541" data-name="Group 2541" transform="translate(-931 -798)">
    <path id="Path_2350" data-name="Path 2350" d="M48.265,53.955l-1.486-4.118H41.731l-1.486,4.118H39.019l3.939-10.773a6.942,6.942,0,0,0,.337-1.168c0-.834-.911-.834-1.524-.93V40.65h3.722l4.831,13.324H48.265ZM44.187,43.126l-2.12,5.781h4.375ZM65.224,53.955l-3.5-6.156H60.493v6.156H58.315V43.321c0-1.9,0-1.981-1.88-2.259v-.434h5.088c2.4,0,5.366.514,5.366,3.545,0,2-1.147,2.954-3.029,3.267L67.5,53.955H65.245ZM61.819,41.56c-1.425,0-1.326.535-1.326,1.781v3.524h1.129c1.738,0,3.088-.634,3.088-2.572,0-1.96-1.008-2.732-2.89-2.732ZM80.107,54.151c-4.553,0-5.838-2.951-5.838-7.048,0-3.823,1.268-6.534,5.526-6.534a12.747,12.747,0,0,1,3.962.594l.118,3.307H83.3a2.937,2.937,0,0,0-.415-1.208,3.29,3.29,0,0,0-2.891-1.743c-2.989,0-3.385,3.3-3.385,5.583,0,2.455.752,5.939,3.823,5.939A5.657,5.657,0,0,0,83.9,52.035V53.4a8.915,8.915,0,0,1-3.8.752Zm20.087-.2V47.479H94.808v6.474H92.63V43.242c0-1.738-.316-1.762-1.981-1.941v-.434l4.158-.455v6.137h5.387V40.632h2.177V53.957h-2.177Zm9.83,0v-.5c1.486,0,1.686-.4,1.686-1.842V43.1c0-1.446-.2-1.842-1.686-1.842v-.49h5.56v.5c-1.484,0-1.682.417-1.682,1.842v8.514c0,1.425.2,1.842,1.682,1.842v.5Zm20.005,0h-1.738l-3.88-10.773c-.594-1.663-.7-1.781-2.4-2.1v-.434h3.823l3.88,10.85h.04l3.781-10.85h1.286Zm20.461,0h-7.9V43.321c0-1.9-.017-1.96-1.882-2.259v-.434h9.486l.059,2.93H149.7c0-1.486-.733-2-2.137-2H146c-.911,0-1.248.017-1.248,1.029v3.939h2.4c1.129,0,1.446-.514,1.623-1.524h.556v4.158h-.556c0-1.109-.474-1.7-1.623-1.7h-2.4v4.414c0,1.09.238,1.147,1.248,1.147h2.2c1.347,0,1.682-.672,1.781-1.941h.556ZM39.137,35.883v-.5c1.484,0,1.682-.4,1.682-1.842V25.032c0-1.446-.2-1.842-1.682-1.842V22.7H44.7v.5c-1.486,0-1.686.417-1.686,1.842v8.514c0,1.425.2,1.842,1.686,1.842v.5Z" transform="translate(948.521 789.636)"/>
    <path id="Path_2351" data-name="Path 2351" d="M55.769,35.944,49.235,24.679H49.2V35.944H47.948V25.171c0-1.859-.3-1.781-1.981-2.1v-.434h4.177L56.4,33.407h.04V22.62h1.248V35.944Z" transform="translate(953.647 789.577)"/>
    <path id="Path_2352" data-name="Path 2352" d="M67.011,25.549c0-1.564-.672-2-2.158-2H63.506V35.943H61.329V23.551H59.963c-1.5,0-2.019.434-2.137,1.941H57.27l.08-2.871H67.487l.08,2.93Z" transform="translate(961.984 789.577)"/>
    <path id="Path_2353" data-name="Path 2353" d="M76.473,35.944h-7.9V25.313c0-1.9-.017-1.96-1.88-2.259V22.62h9.484l.059,2.93h-.556c0-1.486-.733-2-2.137-2H71.98c-.911,0-1.248.017-1.248,1.029v3.939h2.4c1.129,0,1.446-.514,1.623-1.524h.556v4.158h-.556c0-1.109-.474-1.7-1.623-1.7h-2.4v4.414c0,1.09.238,1.147,1.248,1.147h2.2c1.347,0,1.682-.672,1.781-1.941h.556Z" transform="translate(968.936 789.577)"/>
    <path id="Path_2354" data-name="Path 2354" d="M85.225,35.944l-3.5-6.156H80.493v6.156H78.316V25.313c0-1.9,0-1.981-1.88-2.259V22.62h5.088c2.4,0,5.366.514,5.366,3.545,0,2-1.147,2.954-3.029,3.267L87.5,35.948H85.244ZM81.819,23.551c-1.425,0-1.326.535-1.326,1.781v3.524h1.129c1.738,0,3.088-.634,3.088-2.572,0-1.96-1.008-2.732-2.89-2.732Z" transform="translate(976.122 789.577)"/>
    <path id="Path_2355" data-name="Path 2355" d="M55.769,35.944,49.235,24.679H49.2V35.944H47.948V25.171c0-1.859-.3-1.781-1.981-2.1v-.434h4.177L56.4,33.407h.04V22.62h1.248V35.944Z" transform="translate(1024.187 789.577)"/>
    <path id="Path_2356" data-name="Path 2356" d="M76.473,35.944h-7.9V25.313c0-1.9-.017-1.96-1.88-2.259V22.62h9.484l.059,2.93h-.556c0-1.486-.733-2-2.137-2H71.98c-.911,0-1.248.017-1.248,1.029v3.939h2.4c1.129,0,1.446-.514,1.623-1.524h.556v4.158h-.556c0-1.109-.474-1.7-1.623-1.7h-2.4v4.414c0,1.09.238,1.147,1.248,1.147h2.2c1.347,0,1.682-.672,1.781-1.941h.556Z" transform="translate(1022.945 789.577)"/>
    <path id="Path_2357" data-name="Path 2357" d="M67.011,25.549c0-1.564-.672-2-2.158-2H63.506V35.943H61.329V23.551H59.963c-1.5,0-2.019.434-2.137,1.941H57.27l.08-2.871H67.487l.08,2.93Z" transform="translate(1049.433 789.577)"/>
    <path id="Path_2358" data-name="Path 2358" d="M6.48,66.023H54.225v2.433H6.48Zm1.88-4.706H52.432v3.388H8.36Zm-.281-38.61H51.916V27.4H8.079ZM30,21.3H51.631l1.321-1.46L30.015,14.45,7.078,19.837,8.4,21.3ZM14.4,42.339,14.216,35.4l-.348-6.528c-.009-.188-.087-.229-.243-.261a9.349,9.349,0,0,0-1.936-.209,8.678,8.678,0,0,0-1.936.209c-.174.035-.236.075-.243.261L9.163,35.4,9,42.339l.017,4.918.142,5.456.308,5.847.087,1.109a8.949,8.949,0,0,0,2.146.3,8.949,8.949,0,0,0,2.146-.3l.087-1.109.308-5.847.142-5.456.017-4.918Zm11.934,0L26.15,35.4,25.8,28.874c-.009-.188-.087-.229-.243-.261a9.349,9.349,0,0,0-1.936-.209,8.678,8.678,0,0,0-1.936.209c-.174.035-.236.075-.243.261L21.1,35.4l-.16,6.937v4.918l.142,5.456.308,5.847.087,1.109a8.949,8.949,0,0,0,2.146.3,8.949,8.949,0,0,0,2.146-.3l.087-1.109.308-5.847.142-5.456.017-4.918Z" transform="translate(924.52 783.55)"/>
    <path id="Path_2359" data-name="Path 2359" d="M28.178,36.414l-.188-6.937-.348-6.528c-.009-.188-.087-.229-.243-.261a9.123,9.123,0,0,0-1.936-.207,9.007,9.007,0,0,0-1.936.209c-.174.035-.236.075-.243.261l-.348,6.528-.188,6.937.017,4.918.142,5.456.308,5.847.087,1.109a8.949,8.949,0,0,0,2.146.3,8.949,8.949,0,0,0,2.146-.3l.087-1.109.308-5.847.142-5.456.017-4.918Z" transform="translate(936.521 789.475)"/>
    <path id="Path_2360" data-name="Path 2360" d="M28.178,36.414l-.188-6.937-.348-6.528c-.009-.188-.087-.229-.243-.261a9.123,9.123,0,0,0-1.936-.207,9.007,9.007,0,0,0-1.936.209c-.174.035-.236.075-.243.261l-.348,6.528-.188,6.937.017,4.918.142,5.456.308,5.847.087,1.109a8.949,8.949,0,0,0,2.146.3,8.949,8.949,0,0,0,2.146-.3l.087-1.109.308-5.847.142-5.456.017-4.918Z" transform="translate(948.174 789.475)"/>
  </g>
</svg>
