<svg id="Group_2543" data-name="Group 2543" xmlns="http://www.w3.org/2000/svg" xmlns:xlink="http://www.w3.org/1999/xlink" width="204" height="36.979" viewBox="0 0 204 36.979">
  <defs>
    <clipPath id="clip-path">
      <rect id="Rectangle_957" data-name="Rectangle 957" width="204" height="36.979" fill="none"/>
    </clipPath>
  </defs>
  <g id="Group_2542" data-name="Group 2542" transform="translate(0 0)" clip-path="url(#clip-path)">
    <path id="Path_2362" data-name="Path 2362" d="M14.356,14.473h9.569V28.679H20.9l-.377-3.9a8.807,8.807,0,0,1-7.934,4.15C6.171,28.932,0,24.279,0,14.472S6.044.016,12.592.016A10.717,10.717,0,0,1,23.673,8.564L20.273,9.7c-1.257-3.9-3.9-6.158-7.681-6.158-5.16,0-9.067,3.773-9.067,11.062s3.907,11.061,9.067,11.061c4.91,0,7.432-3.268,7.807-7.794h-6.17V14.473h.127ZM31.732.016a2.519,2.519,0,0,1,2.522,2.515c0,.042,0,.084,0,.126a2.512,2.512,0,0,1-2.509,2.514h-.009a2.438,2.438,0,0,1-2.518-2.355c0-.053,0-.106,0-.159A2.416,2.416,0,0,1,31.732.016m1.637,28.663h-3.4V8.314h3.4ZM55.28,8.314l-6.8,20.366H44.953L38.281,8.314h3.525l5.037,16.093L51.88,8.314h3.4ZM76.31,19.251H61.326c.251,3.772,2.015,6.662,5.792,6.662,3.022,0,4.534-1.382,5.666-3.9l3.022,1.257c-1.887,3.9-4.407,5.657-8.688,5.657-6.17,0-9.194-5.029-9.194-10.56S60.946,7.81,67.117,7.81s9.193,4.651,9.193,9.68v1.759ZM61.576,16.107H72.783c-.628-2.892-2.392-5.028-5.666-5.028s-4.911,2.137-5.541,5.028m38.03-6.286a6.832,6.832,0,0,0-7.052-4.9c-4.407,0-8.058,3.017-8.058,9.553s3.652,9.553,8.058,9.553a6.941,6.941,0,0,0,7.052-4.9l4.785,1.257c-1.385,5.405-5.54,8.549-11.711,8.549-7.051,0-13.348-5.028-13.348-14.458S85.627.017,92.682.017c6.17,0,10.451,3.143,11.709,8.549L99.607,9.823ZM108.8,28.679V8.314h5.037v3.268a7.248,7.248,0,0,1,6.044-3.645,8.726,8.726,0,0,1,2.518.377l-.881,4.651a3.857,3.857,0,0,0-2.142-.5c-2.894,0-5.413,2.388-5.413,8.925v7.292H108.8ZM129.45,8.314l4.785,12.823,4.408-12.823h5.037L133.1,36.979h-4.914l3.526-9.553L124.283,8.317h5.16Zm26.194,20.741a6.666,6.666,0,0,1-4.914-2.137V36.979h-5.037V8.314h5.037v2.137a5.913,5.913,0,0,1,4.914-2.389c6.17,0,9.319,4.275,9.319,10.561s-3.149,10.432-9.319,10.432m-.756-16.719c-2.641,0-4.659,2.137-4.659,6.16s2.015,6.16,4.659,6.16,4.785-2.137,4.785-6.158-2.141-6.16-4.785-6.16ZM181.082,28.3a8.208,8.208,0,0,1-3.274.754c-4.66,0-7.432-2.514-7.432-7.543V12.587h-3.149V8.314h3.149V3.285L175.412.141v8.3h5.415v4.275h-5.415v8.8c0,2.514,1.007,3.269,2.641,3.269a3.56,3.56,0,0,0,1.889-.5l1.133,4.023ZM193.674,7.936C200.222,7.936,204,12.587,204,18.5s-3.779,10.559-10.326,10.559S183.348,24.4,183.348,18.5s3.777-10.559,10.326-10.559m0,16.845c3.274,0,5.037-2.892,5.037-6.16s-1.889-6.161-5.037-6.161-5.037,2.892-5.037,6.161,1.888,6.16,5.037,6.16" transform="translate(0 0)" fill="#424d63"/>
  </g>
</svg>
