<svg xmlns="http://www.w3.org/2000/svg" width="193.574" height="77.279" viewBox="0 0 193.574 77.279">
  <g id="layer1" transform="translate(-0.558 -1012.648)">
    <path id="path2276" d="M29.275,1013.067a.214.214,0,0,1-.225-.209.217.217,0,0,1,.225-.209H166.249v77.28c-31.424-41.243-80.539-69.962-136.975-76.862" transform="translate(27.882 0)" fill="#f3912d"/>
    <path id="path2976" d="M96.446,1057.154c1.123-14.655,1.214-22.366,3.756-24.446,1.933-1.583,6.167-2.386,14.475-2.928-9.1-.591-12.092-1.06-14.662-3.141-2.483-2.008-2.965-4.763-3.57-12.679-.6,7.763-.91,10.277-3.4,12.55-2.651,2.418-5.253,2.647-14.83,3.269,8.786.574,12.111,1.084,14.475,3.02,2.76,2.257,2.624,9.563,3.756,24.354" transform="translate(75.995 1.283)" fill="#fff"/>
    <path id="path2272" d="M36.861,1038.886V1051.9H40.05v-10.586c1.072-1.041,1.837-.691,3.954,1.277l1.288-3.249a5.749,5.749,0,0,0-2.666-.658,3.16,3.16,0,0,0-2.517,1.244l-.153.209-.03-.035.03-1.21h-3.1ZM49.769,1032H46.581v19.9h3.189Zm-27.9,13.392c0,3.633,2.39,6.641,6.255,6.641s6.255-3.009,6.255-6.641-2.394-6.646-6.255-6.646-6.255,3.013-6.255,6.646m66.777-6.506H85.456v13.009h3.189Zm13.674,0v7.3c0,3.734,1.411,6.123,8.1,6.123,7.819,0,10.579-3.392,10.579-7.13a6.237,6.237,0,0,0-6.195-6.54,5.9,5.9,0,0,0-6.161,5.921,6.024,6.024,0,0,0,3.678,5.5l.765-1a6.919,6.919,0,0,1-1.408-4.256c0-2.6,1.408-4.808,3.062-4.808,2.087,0,3.036,2.63,3.036,5.361s-.855,5.815-6.531,5.815c-4.5,0-5.732-1.037-5.732-4.118v-8.167h-3.189Zm1.658-5.883a1.917,1.917,0,1,0,1.684,1.9,1.779,1.779,0,0,0-1.684-1.9m-16.527,0a1.916,1.916,0,1,0,1.688,1.9,1.779,1.779,0,0,0-1.688-1.9m3.771,9.448c-.306,4.948,6.131,3.772,5.948,6.781a1.709,1.709,0,0,1-1.994,1.593,4.832,4.832,0,0,1-3.435-2.318l-.948,2.385a8.667,8.667,0,0,0,3.925,1.349c2.759.21,5.09-1.142,5.243-4.151.276-4.669-6.378-4.083-6.255-6.468.06-1.041,1.1-1.559,2.177-1.488a4.872,4.872,0,0,1,2.913,1.762l.859-2.145a9.866,9.866,0,0,0-3.342-.969c-2.976-.207-4.966,1.56-5.09,3.67m-33.207,9.723a5.646,5.646,0,0,0,3.835-1.559l.06.038v1.243h2.946V1032H61.666v7.923a5.731,5.731,0,0,0-3.618-1.244c-1.748,0-5.919,1.21-5.919,6.92a6.289,6.289,0,0,0,5.885,6.574m18.734-.276H78.1l6.744-17.472H83.1l-4.69,12.284-4.63-12.284H69.911l6.837,17.472Zm58.532,0v-7.16c0-4.846-3.282-6.056-5.213-6.056a5.976,5.976,0,0,0-3.712,1.488l-.06-.034v-1.248h-2.942V1051.9h3.189v-10.485a3.915,3.915,0,0,1,2.666-1.315c1.688,0,2.853,1.837,2.853,3.843v7.956h3.219ZM13.56,1036.085H11.749l-3.618,10.552L4.27,1034.492H.558l5.736,17.371H8.041l3.708-10.725,3.678,10.725h1.751l5.732-17.333H21.163l-4.018,12.107-3.585-10.552Zm17.446,9.309c0,3.009-.889,5.4-2.883,5.4s-2.883-2.389-2.883-5.4.889-5.4,2.883-5.4,2.883,2.385,2.883,5.4m30.66-3.911v7.855a3.843,3.843,0,0,1-2.759,1.382c-1.411,0-3.252-1.349-3.252-5.259,0-4.223,2.913-7.265,6.012-3.978" transform="translate(0 18.937)"/>
  </g>
</svg>
