<svg xmlns="http://www.w3.org/2000/svg" width="40" height="40" viewBox="0 0 40 40">
  <g id="Group_2086" data-name="Group 2086" transform="translate(949 -11548)">
    <circle id="Ellipse_303" data-name="Ellipse 303" cx="20" cy="20" r="20" transform="translate(-949 11548)" fill="#2b6aff"/>
    <g id="Group_2085" data-name="Group 2085" transform="translate(-61.006 -1.122)">
      <path id="Path_1847" data-name="Path 1847" d="M17.706,11.153c-.235.368-.471.736-.705,1.105-.878,1.386-1.723,2.794-2.58,4.193a4,4,0,0,1-1.02,1.157,1.724,1.724,0,0,1-2.794-1.145,16.822,16.822,0,0,1-.183-2.206c0-.856,0-1.712,0-2.567,0-.125-.012-.25-.019-.375-.059,0-.065.045-.082.074C8.7,14.068,7,16.7,5.345,19.35c-.1.161-.2.325-.3.483a.123.123,0,0,0,.018.187,10.527,10.527,0,0,0,6.059,3.269A10.2,10.2,0,0,0,19.05,21.32c.288-.214.548-.464.832-.683a1.374,1.374,0,0,1,1.192-.332.357.357,0,0,1,.168.082,4.222,4.222,0,0,0,.331.295.845.845,0,0,1,.275.992,2.07,2.07,0,0,1-.777,1.052A12.542,12.542,0,0,1,15.6,25.448,12.4,12.4,0,0,1,4.912,23,12.644,12.644,0,0,1,.3,15.618a12.817,12.817,0,0,1-.15-4.7A12.975,12.975,0,0,1,8.285.8,12.146,12.146,0,0,1,12.236.01,12.705,12.705,0,0,1,16.58.546a12.9,12.9,0,0,1,8.769,9.889,11.341,11.341,0,0,1,.1,3.953,4.308,4.308,0,0,1-3.288,3.5,3.566,3.566,0,0,1-4.032-2.246,5.884,5.884,0,0,1-.385-2.263c0-.713,0-1.426,0-2.139,0-.025,0-.049,0-.074l-.036-.013" transform="translate(-881 11556.146)" fill="#fefefe"/>
      <path id="Path_1848" data-name="Path 1848" d="M49.672,51.216q0-.535,0-1.071c0-1.474.006-2.947-.01-4.421a2.221,2.221,0,0,0-.58-1.613,1.364,1.364,0,0,0-1.506-.29,2.048,2.048,0,0,0-.874.733c-.519.739-.955,1.531-1.45,2.285-1.586,2.415-3.059,4.9-4.622,7.331-.125.195-.229.2-.339-.019-.13-.258-.242-.526-.347-.8a10.181,10.181,0,0,1-.707-3.6,10.46,10.46,0,0,1,2.313-6.922,10.414,10.414,0,0,1,15.538-.817,10.284,10.284,0,0,1,2.954,5.814,9.263,9.263,0,0,1,.087,2.508,2.212,2.212,0,0,1-.8,1.547,1.338,1.338,0,0,1-1.384.3,1.474,1.474,0,0,1-.914-1.221,13.607,13.607,0,0,1-.1-2.495,9.051,9.051,0,0,0-.1-2.131,1.958,1.958,0,0,0-1.5-1.605,1.579,1.579,0,0,0-1.139.222A3.791,3.791,0,0,0,52.9,46.179c-.617.87-1.145,1.8-1.711,2.7L49.77,51.146c-.016.026-.034.051-.05.077Z" transform="translate(-917.917 11519.527)" fill="#2b6aff"/>
      <rect id="Rectangle_786" data-name="Rectangle 786" width="25.58" height="25.766" transform="translate(-881 11556.146)" fill="none"/>
    </g>
  </g>
</svg>
