<svg xmlns="http://www.w3.org/2000/svg" width="40" height="40" viewBox="0 0 40 40">
  <g id="Group_2084" data-name="Group 2084" transform="translate(-1444 -11548)">
    <circle id="Ellipse_303" data-name="Ellipse 303" cx="20" cy="20" r="20" transform="translate(1444 11548)" fill="#5865f2"/>
    <g id="discord-icon-svgrepo-com" transform="translate(1452 11558)">
      <path id="Path_1846" data-name="Path 1846" d="M21.016,1.608A20.206,20.206,0,0,0,15.9,0a15.021,15.021,0,0,0-.656,1.361,18.794,18.794,0,0,0-5.673,0A14.551,14.551,0,0,0,8.906,0,20.139,20.139,0,0,0,3.784,1.612,21.466,21.466,0,0,0,.105,15.986,20.464,20.464,0,0,0,6.383,19.2a15.615,15.615,0,0,0,1.344-2.214,13.216,13.216,0,0,1-2.117-1.03c.178-.132.351-.269.519-.411a14.467,14.467,0,0,0,12.551,0c.17.141.343.279.519.411a13.181,13.181,0,0,1-2.121,1.032A15.538,15.538,0,0,0,18.423,19.2,20.423,20.423,0,0,0,24.7,15.986,21.445,21.445,0,0,0,21.016,1.608ZM8.283,13.092a2.408,2.408,0,0,1-2.23-2.537,2.4,2.4,0,0,1,2.23-2.539,2.38,2.38,0,0,1,2.23,2.539A2.392,2.392,0,0,1,8.283,13.092Zm8.242,0a2.408,2.408,0,0,1-2.23-2.537,2.4,2.4,0,0,1,2.23-2.539,2.38,2.38,0,0,1,2.23,2.539A2.394,2.394,0,0,1,16.526,13.092Z" transform="translate(0)" fill="#fff"/>
    </g>
  </g>
</svg>
