<?xml version="1.0" encoding="utf-8"?>
<!-- Generator: Adobe Illustrator 26.0.1, SVG Export Plug-In . SVG Version: 6.00 Build 0)  -->
<svg version="1.1" id="Layer_1" xmlns="http://www.w3.org/2000/svg" xmlns:xlink="http://www.w3.org/1999/xlink" x="0px" y="0px"
	 viewBox="0 0 40 40" style="enable-background:new 0 0 40 40;" xml:space="preserve">
<path d="M20,0c11,0,20,8.9,20,20c0,11.1-8.9,20-20,20C9,40,0,31.1,0,20C0,9,8.9,0,20,0z M22,20c0-4.9-3.9-8.9-8.8-8.9
	c-4.8,0-8.8,3.9-8.9,8.8c0,5,3.9,9,8.8,9C18,29,22,25,22,20z M22.9,20.4c0,0.9,0.1,2.2,0.5,3.5c0.4,1.4,1,2.7,2.1,3.7
	c1.2,1,2.5,1,3.7,0c0.7-0.7,1.2-1.5,1.6-2.4c1.2-3.1,1.3-6.2,0.4-9.4c-0.4-1.3-0.9-2.5-2-3.4c-1.1-1-2.5-1-3.6,0
	c-0.7,0.6-1.2,1.5-1.6,2.4C23.1,16.4,22.9,18.2,22.9,20.4z M35.7,19.3c-0.1-0.8-0.1-2.3-0.4-3.8c-0.1-0.9-0.4-1.7-0.7-2.5
	c-0.2-0.6-0.7-0.6-1,0c-0.2,0.5-0.4,1-0.5,1.5c-0.7,3.5-0.7,7.1-0.1,10.6c0.1,0.7,0.4,1.5,0.7,2.2c0.2,0.5,0.6,0.5,0.9,0
	c0.2-0.4,0.4-0.8,0.5-1.2C35.6,24.1,35.7,22,35.7,19.3z"/>
</svg>
