<svg xmlns="http://www.w3.org/2000/svg" width="40" height="40" viewBox="0 0 40 40"><defs><style>.a{fill:red;}.b{fill:#fff;}</style></defs><g transform="translate(-1194 -8433.112)"><circle class="a" cx="20" cy="20" r="20" transform="translate(1194 8433.112)"/><path class="b" d="M792.63,392.348a5.188,5.188,0,0,0-.954-2.382,3.434,3.434,0,0,0-2.405-1.016c-3.359-.243-8.4-.243-8.4-.243h-.01s-5.038,0-8.4.243a3.435,3.435,0,0,0-2.405,1.016,5.187,5.187,0,0,0-.954,2.382,36.267,36.267,0,0,0-.24,3.883v1.82a36.265,36.265,0,0,0,.24,3.883,5.188,5.188,0,0,0,.954,2.382,4.071,4.071,0,0,0,2.647,1.026c1.921.184,8.161.241,8.161.241s5.044-.007,8.4-.25a3.434,3.434,0,0,0,2.405-1.016,5.189,5.189,0,0,0,.954-2.382,36.32,36.32,0,0,0,.24-3.883v-1.82A36.321,36.321,0,0,0,792.63,392.348Zm-14.241,7.91v-6.742l6.486,3.383Z" transform="translate(433.134 8056.405)"/></g></svg>