<svg xmlns="http://www.w3.org/2000/svg" width="40" height="40" viewBox="0 0 40 40"><defs><style>.a{fill:#256bb3;}.b{fill:#fff;}</style></defs><g transform="translate(-1344 -8433.112)"><circle class="a" cx="20" cy="20" r="20" transform="translate(1344 8433.112)"/><path class="b" d="M3642.056,390.976c-.057.808-.519,3.636-.981,6.694l-1.443,9.061s-.115,1.327-1.1,1.558-2.6-.808-2.885-1.039c-.231-.173-4.328-2.77-5.829-4.04a1.094,1.094,0,0,1,.058-1.847c2.078-1.9,4.559-4.271,6.06-5.771.692-.693,1.385-2.308-1.5-.346l-8.137,5.483a3.392,3.392,0,0,1-2.655.058c-1.731-.519-3.751-1.212-3.751-1.212s-1.385-.866.981-1.789h0l13.447-5.54c1.327-.577,5.829-2.424,5.829-2.424S3642.229,389.014,3642.056,390.976Z" transform="translate(-2269.492 8056.456)"/></g></svg>