<svg xmlns="http://www.w3.org/2000/svg" width="40" height="40" viewBox="0 0 40 40"><defs><style>.a{fill:#0077b5;}.b{fill:#fff;}</style></defs><g transform="translate(-1394 -8433.112)"><circle class="a" cx="20" cy="20" r="20" transform="translate(1394 8433.112)"/><path class="b" d="M5286.931,389.864a2.063,2.063,0,1,1-2.063-2.063A2.065,2.065,0,0,1,5286.931,389.864Zm-3.844,15.083h3.56V393.494h-3.56Zm12.623-11.738a3.74,3.74,0,0,0-3.368,1.85h-.047v-1.565h-3.414v11.453h3.557v-5.666c0-1.494.284-2.94,2.136-2.94,1.826,0,1.85,1.708,1.85,3.036v5.57h3.557v-6.282C5299.979,395.582,5299.314,393.209,5295.709,393.209Z" transform="translate(-3876.804 8056.312)"/></g></svg>