<svg xmlns="http://www.w3.org/2000/svg" width="40" height="40" viewBox="0 0 40 40"><defs><style>.a{fill:#5da9dd;}.b{fill:#fff;}</style></defs><g transform="translate(-1294 -8433.112)"><circle class="a" cx="20" cy="20" r="20" transform="translate(1294 8433.112)"/><path class="b" d="M2410.948,400.258a13.625,13.625,0,0,0,13.718-13.718q0-.313-.014-.623a9.806,9.806,0,0,0,2.405-2.5,9.624,9.624,0,0,1-2.769.759,4.838,4.838,0,0,0,2.12-2.667,9.661,9.661,0,0,1-3.062,1.17,4.826,4.826,0,0,0-8.216,4.4,13.688,13.688,0,0,1-9.938-5.037,4.825,4.825,0,0,0,1.492,6.437,4.785,4.785,0,0,1-2.184-.6c0,.02,0,.04,0,.062a4.823,4.823,0,0,0,3.868,4.727,4.813,4.813,0,0,1-2.177.083,4.827,4.827,0,0,0,4.5,3.349,9.675,9.675,0,0,1-5.988,2.064,9.805,9.805,0,0,1-1.15-.067,13.649,13.649,0,0,0,7.39,2.166" transform="translate(-1101.557 8061.953)"/></g></svg>