<svg xmlns="http://www.w3.org/2000/svg" xmlns:xlink="http://www.w3.org/1999/xlink" viewBox="0 0 26.54 26.54"><defs><style>.cls-1{fill:url(#linear-gradient);}.cls-2{fill:#fff;fill-rule:evenodd;}</style><linearGradient id="linear-gradient" x1="-14.84" y1="43.84" x2="22.25" y2="3.5" gradientUnits="userSpaceOnUse"><stop offset="0" stop-color="#ff365e"/><stop offset="1" stop-color="#ffbe49"/></linearGradient></defs><g id="Layer_2" data-name="Layer 2"><g id="Layer_1-2" data-name="Layer 1"><rect class="cls-1" width="26.54" height="26.54" rx="13.27"/><path id="LOGO" class="cls-2" d="M20.63,10.21a5.63,5.63,0,0,0-.34-1.79,3.63,3.63,0,0,0-.86-1.31,3.51,3.51,0,0,0-1.31-.86,5.37,5.37,0,0,0-1.8-.34c-.79,0-1,0-3.05,0s-2.27,0-3.06,0a5.36,5.36,0,0,0-1.79.34,3.51,3.51,0,0,0-1.31.86,3.51,3.51,0,0,0-.86,1.31,5.36,5.36,0,0,0-.34,1.79c0,.79,0,1,0,3.06s0,2.26,0,3.05a5.37,5.37,0,0,0,.34,1.8,3.51,3.51,0,0,0,.86,1.31,3.63,3.63,0,0,0,1.31.86,5.63,5.63,0,0,0,1.79.34c.79,0,1,0,3.06,0s2.26,0,3.05,0a5.64,5.64,0,0,0,1.8-.34,3.86,3.86,0,0,0,2.17-2.17,5.64,5.64,0,0,0,.34-1.8c0-.79,0-1,0-3.05S20.67,11,20.63,10.21Zm-7.36,6.86a3.8,3.8,0,1,1,3.8-3.8A3.8,3.8,0,0,1,13.27,17.07Zm3.95-6.87a.89.89,0,1,1,.89-.89A.89.89,0,0,1,17.22,10.2Zm-1.48,3.07a2.47,2.47,0,1,1-2.47-2.47A2.48,2.48,0,0,1,15.74,13.27Z"/></g></g></svg>