<svg xmlns="http://www.w3.org/2000/svg" xmlns:xlink="http://www.w3.org/1999/xlink" viewBox="0 0 26.54 26.54"><defs><style>.cls-1{fill:url(#linear-gradient);}.cls-2{fill:#fff;}</style><linearGradient id="linear-gradient" x1="-14.84" y1="43.84" x2="22.25" y2="3.5" gradientUnits="userSpaceOnUse"><stop offset="0" stop-color="#ff365e"/><stop offset="1" stop-color="#ffbe49"/></linearGradient></defs><g id="Layer_2" data-name="Layer 2"><g id="Layer_1-2" data-name="Layer 1"><rect class="cls-1" width="26.54" height="26.54" rx="13.27"/><path id="_Compound_Clipping_Path_" data-name="&lt;Compound Clipping Path&gt;" class="cls-2" d="M9.25,6.41A1.86,1.86,0,1,1,7.39,4.55,1.86,1.86,0,0,1,9.25,6.41ZM5.79,20H9V9.67H5.79ZM17.16,9.42a3.38,3.38,0,0,0-3,1.66h0V9.67H11V20h3.2v-5.1c0-1.35.25-2.65,1.92-2.65S17.8,13.78,17.8,15v5H21V14.33C21,11.55,20.4,9.42,17.16,9.42Z"/></g></g></svg>