<?xml version="1.0" encoding="utf-8"?>
<!-- Generator: Adobe Illustrator 25.3.1, SVG Export Plug-In . SVG Version: 6.00 Build 0)  -->
<svg version="1.1" id="Layer_1" xmlns="http://www.w3.org/2000/svg" xmlns:xlink="http://www.w3.org/1999/xlink" x="0px" y="0px"
	 viewBox="0 0 29.2 30.6" style="enable-background:new 0 0 29.2 30.6;" xml:space="preserve">
<style type="text/css">
	.st0{fill:url(#SVGID_1_);}
	.st1{clip-path:url(#_x3C_Compound_Clipping_Path_x3E__1_);}
	.st2{fill:#FFFFFF;}
	.st3{fill-rule:evenodd;clip-rule:evenodd;fill:#FFFFFF;}
	.st4{opacity:0.6;fill:#FFFFFF;}
</style>
<linearGradient id="SVGID_1_" gradientUnits="userSpaceOnUse" x1="-13.6284" y1="-16.6058" x2="23.4616" y2="23.7342" gradientTransform="matrix(1 0 0 -1 0 31.2756)">
	<stop  offset="0" style="stop-color:#FF365E"/>
	<stop  offset="1" style="stop-color:#FFBE49"/>
</linearGradient>
<path class="st0" d="M14.5,4L14.5,4c7.3,0,13.3,5.9,13.3,13.3l0,0c0,7.3-5.9,13.3-13.3,13.3h0c-7.3,0-13.3-5.9-13.3-13.3l0,0
	C1.2,10,7.2,4,14.5,4z"/>
<g id="LOGO_9_">
	<defs>
		<path id="_x3C_Compound_Clipping_Path_x3E__2_" d="M10.8,10.4c0,1-0.8,1.9-1.9,1.9c-1,0-1.9-0.8-1.9-1.9c0-1,0.8-1.9,1.9-1.9
			C10,8.5,10.8,9.4,10.8,10.4z M7.4,24l3.2,0l0-10.3l-3.2,0L7.4,24z M18.7,13.4c-1.6,0-2.6,0.9-3,1.7l0,0l0-1.4l-3.1,0l0,10.3l3.2,0
			l0-5.1c0-1.3,0.3-2.6,1.9-2.6c1.6,0,1.7,1.5,1.7,2.7l0,5l3.2,0l0-5.7C22.6,15.5,22,13.4,18.7,13.4z"/>
	</defs>
	<use xlink:href="#_x3C_Compound_Clipping_Path_x3E__2_"  style="overflow:visible;fill:#FFFFFF;"/>
	<clipPath id="_x3C_Compound_Clipping_Path_x3E__1_">
		<use xlink:href="#_x3C_Compound_Clipping_Path_x3E__2_"  style="overflow:visible;"/>
	</clipPath>
	<g id="BACK_7_" class="st1">
		<g id="BACK_8_">
			<path class="st2" d="M14.8,34.3L14.8,34.3c-9.9,0-18-8.1-18-18v0c0-9.9,8.1-18,18-18h0c9.9,0,18,8.1,18,18v0
				C32.8,26.2,24.8,34.3,14.8,34.3z"/>
			<path class="st3" d="M21.6,34.3l-13.5,0c-6.2,0-11.3-5-11.3-11.3l0-13.5c0-6.2,5-11.3,11.3-11.3l13.5,0c6.2,0,11.3,5,11.3,11.3
				l0,13.5C32.8,29.2,27.8,34.3,21.6,34.3z"/>
		</g>
		<g id="COLOR_8_">
			<path class="st2" d="M14.8,34.3L14.8,34.3c-9.9,0-18-8.1-18-18v0c0-9.9,8.1-18,18-18h0c9.9,0,18,8.1,18,18v0
				C32.8,26.2,24.8,34.3,14.8,34.3z"/>
			<path class="st4" d="M14.8,34.3L14.8,34.3c-9.9,0-18-8.1-18-18v0c0-9.9,8.1-18,18-18h0c9.9,0,18,8.1,18,18v0
				C32.8,26.2,24.8,34.3,14.8,34.3z"/>
		</g>
	</g>
</g>
</svg>
