<svg xmlns="http://www.w3.org/2000/svg" xmlns:xlink="http://www.w3.org/1999/xlink" viewBox="0 0 210.76 43.63"><defs><style>.cls-1{fill:url(#linear-gradient);}.cls-2{fill:#fff;}</style><linearGradient id="linear-gradient" x1="2.25" y1="1872.03" x2="41.74" y2="1858.88" gradientTransform="translate(0 -1844)" gradientUnits="userSpaceOnUse"><stop offset="0" stop-color="#ff365e"/><stop offset="1" stop-color="#ffbe49"/></linearGradient></defs><g id="Layer_2" data-name="Layer 2"><g id="Layer_1-2" data-name="Layer 1"><path class="cls-1" d="M40.65,13.17H27.07A1.18,1.18,0,0,1,26,12a1.09,1.09,0,0,1,.67-1l8.41-2.91a1.06,1.06,0,0,0,.67-1.42,1.47,1.47,0,0,0-.42-.58L26.16.17a1.2,1.2,0,0,0-1.59.34h0L16.91,12.59a1.18,1.18,0,0,1-1.58.33,1.06,1.06,0,0,1-.5-1.17l2.08-9.08a1.12,1.12,0,0,0-.83-1.33,1.22,1.22,0,0,0-.75.08L3.08,7.84a1.12,1.12,0,0,0-.5,1.5.08.08,0,0,0,.09.08l6.24,9.33a1.17,1.17,0,0,1-.33,1.58,1.13,1.13,0,0,1-1.33-.08L1.92,15.42a1.09,1.09,0,0,0-1.59.08,1.55,1.55,0,0,0-.33.75V29.33a1.1,1.1,0,0,0,1.08,1.08H14.16a1.12,1.12,0,0,1,1.08,1.17,1.15,1.15,0,0,1-.83,1.08l-8.33,2.5a1.16,1.16,0,0,0-.75,1.42,1.45,1.45,0,0,0,.42.58l10.16,6.33a1.17,1.17,0,0,0,1.5-.33L25.16,31a1.09,1.09,0,0,1,1.58-.25,1.15,1.15,0,0,1,.5,1.08L24.91,41a1,1,0,0,0,.75,1.33,1.2,1.2,0,0,0,.91-.16l11.83-7a1.2,1.2,0,0,0,.42-1.5h0l-6.08-10a1.05,1.05,0,0,1,.33-1.49,1,1,0,0,1,1.33.16L40,27.5a1.09,1.09,0,0,0,1.58-.09,1.55,1.55,0,0,0,.33-.75V14.25a1.26,1.26,0,0,0-1.25-1.08ZM26.57,22.75l-7.49,4.33a1,1,0,0,1-1.5-.5,1.11,1.11,0,0,1-.17-.5V17.42a1,1,0,0,1,1.17-1.09,1.29,1.29,0,0,1,.5.17l7.49,4.33A1.12,1.12,0,0,1,27,22.42C26.91,22.5,26.74,22.58,26.57,22.75Z"/><path class="cls-2" d="M64.06,28.83a4.78,4.78,0,0,1-2.17-1.67,4.53,4.53,0,0,1-.83-2.58h4a2.19,2.19,0,0,0,.58,1.33,1.71,1.71,0,0,0,1.34.42,2.13,2.13,0,0,0,1.33-.42,1.24,1.24,0,0,0,.5-1.08,1.2,1.2,0,0,0-.42-.92,3.53,3.53,0,0,0-.91-.58c-.42-.17-.92-.33-1.59-.58a19.06,19.06,0,0,1-2.5-.92,5.16,5.16,0,0,1-1.66-1.33,4,4,0,0,1-.67-2.33,4.08,4.08,0,0,1,1.58-3.42,7.43,7.43,0,0,1,8.25,0,4.42,4.42,0,0,1,1.67,3.42H68.47A1.47,1.47,0,0,0,67.89,17a2.11,2.11,0,0,0-1.33-.42,1.53,1.53,0,0,0-1.08.34A1.43,1.43,0,0,0,65.06,18a1.26,1.26,0,0,0,.75,1.17,17,17,0,0,0,2.25.91,14.8,14.8,0,0,1,2.41,1,5.13,5.13,0,0,1,1.67,1.34,3.75,3.75,0,0,1,.67,2.24,4.75,4.75,0,0,1-.67,2.42,4.18,4.18,0,0,1-2,1.75,6.58,6.58,0,0,1-3,.67A8.92,8.92,0,0,1,64.06,28.83Z"/><path class="cls-2" d="M86.3,13.67v3H82.22V29.16H78.47V16.67H74.39v-3Z"/><path class="cls-2" d="M96.13,29.25l-3.25-5.84H92v5.84H88.22V13.67h6.33a7.44,7.44,0,0,1,3.16.66,4.37,4.37,0,0,1,1.92,1.75,5.08,5.08,0,0,1,.67,2.5,4.57,4.57,0,0,1-.92,2.75,4.46,4.46,0,0,1-2.58,1.75l3.58,6.17ZM92,20.75H94.3a2.27,2.27,0,0,0,1.58-.5,2,2,0,0,0,.5-1.42,2,2,0,0,0-.5-1.41,2.08,2.08,0,0,0-1.58-.5H92Z"/><path class="cls-2" d="M106.46,16.75v3.17h5.08v2.91h-5.08v3.42h5.75v3h-9.5V13.67h9.5v3h-5.75Z"/><path class="cls-2" d="M124.29,26.5h-5.83l-.92,2.75h-4l5.67-15.58h4.41l5.67,15.58h-4Zm-.92-2.92-1.91-5.66-1.92,5.66Z"/><path class="cls-2" d="M148.61,13.67V29.25h-3.75V19.92l-3.5,9.33h-3.08l-3.5-9.33v9.33H131V13.67h4.5l4.34,10.74,4.33-10.74Z"/><path class="cls-2" d="M156.36,17.33a7.55,7.55,0,0,1,2.75-2.83,8,8,0,0,1,4.08-1,7.69,7.69,0,0,1,4.75,1.5,7.44,7.44,0,0,1,2.66,4h-4.16a3.32,3.32,0,0,0-1.33-1.5,3.93,3.93,0,0,0-1.92-.5,3.61,3.61,0,0,0-2.83,1.25,4.65,4.65,0,0,0-1.09,3.25,4.67,4.67,0,0,0,1.09,3.25A3.61,3.61,0,0,0,163.19,26a3.71,3.71,0,0,0,1.92-.5,3.43,3.43,0,0,0,1.33-1.5h4.16a7,7,0,0,1-2.66,4,7.63,7.63,0,0,1-4.75,1.41,8.41,8.41,0,0,1-4.08-1,6.43,6.43,0,0,1-2.75-2.83,8.41,8.41,0,0,1-1-4.08A8.54,8.54,0,0,1,156.36,17.33Z"/><path class="cls-2" d="M176.18,28.41a7.9,7.9,0,0,1-2.91-2.83,7.67,7.67,0,0,1-1.08-4.08,7.78,7.78,0,0,1,4-6.92,8.46,8.46,0,0,1,4-1,7.84,7.84,0,0,1,6.92,3.83,8.59,8.59,0,0,1,1.08,4.08,7.48,7.48,0,0,1-1.08,4.08,7.29,7.29,0,0,1-2.92,2.83,8.5,8.5,0,0,1-8,0Zm7.09-3.66a4.67,4.67,0,0,0,1.08-3.25,4.86,4.86,0,0,0-1.08-3.33,4.22,4.22,0,0,0-6,0,4.71,4.71,0,0,0-1.09,3.33,4.86,4.86,0,0,0,1.09,3.33,3.85,3.85,0,0,0,3,1.25A4.2,4.2,0,0,0,183.27,24.75Z"/><path class="cls-2" d="M194.1,13.67V29.25h-3.75V13.67Z"/><path class="cls-2" d="M210.76,29.25H207l-6.33-9.58v9.58h-3.75V13.67h3.75L207,23.33V13.67h3.75Z"/></g></g></svg>