<svg xmlns="http://www.w3.org/2000/svg" xmlns:xlink="http://www.w3.org/1999/xlink" viewBox="0 0 26.54 26.54"><defs><style>.cls-1{fill:url(#linear-gradient);}.cls-2{fill:#fff;}</style><linearGradient id="linear-gradient" x1="-14.84" y1="43.84" x2="22.25" y2="3.5" gradientUnits="userSpaceOnUse"><stop offset="0" stop-color="#ff365e"/><stop offset="1" stop-color="#ffbe49"/></linearGradient></defs><g id="Layer_2" data-name="Layer 2"><g id="Layer_1-2" data-name="Layer 1"><rect class="cls-1" width="26.54" height="26.54" rx="13.27"/><path class="cls-2" d="M19.46,9.16c0,.52-.34,2.32-.63,4.27l-.92,5.77s-.07.85-.7,1a3.09,3.09,0,0,1-1.84-.67c-.14-.11-2.76-1.76-3.71-2.57a.7.7,0,0,1,0-1.18c1.33-1.21,2.91-2.72,3.87-3.68.44-.44.88-1.47-1-.22l-5.19,3.5a2.18,2.18,0,0,1-1.69,0c-1.1-.33-2.39-.77-2.39-.77s-.88-.55.63-1.14H6L14.53,10c.84-.37,3.71-1.54,3.71-1.54S19.57,7.91,19.46,9.16Z"/></g></g></svg>