<svg xmlns="http://www.w3.org/2000/svg" xmlns:xlink="http://www.w3.org/1999/xlink" viewBox="0 0 28.65 28.71"><defs><style>.cls-1,.cls-5,.cls-6{fill:#fff;}.cls-2{isolation:isolate;}.cls-3{fill:url(#linear-gradient);}.cls-4{clip-path:url(#clip-path);}.cls-5{mix-blend-mode:color;}.cls-6{mix-blend-mode:soft-light;opacity:0.6;}</style><linearGradient id="linear-gradient" x1="-14.08" y1="43.84" x2="23.01" y2="3.5" gradientUnits="userSpaceOnUse"><stop offset="0" stop-color="#ff365e"/><stop offset="1" stop-color="#ffbe49"/></linearGradient><clipPath id="clip-path" transform="translate(0.76)"><path id="_Compound_Clipping_Path_" data-name="&lt;Compound Clipping Path&gt;" class="cls-1" d="M10.44,21.23a9.76,9.76,0,0,0,9.83-9.83c0-.15,0-.3,0-.45A6.66,6.66,0,0,0,22,9.16a6.83,6.83,0,0,1-2,.55A3.52,3.52,0,0,0,21.52,7.8a7.26,7.26,0,0,1-2.19.84,3.45,3.45,0,0,0-6,2.36,3.48,3.48,0,0,0,.09.79A9.82,9.82,0,0,1,6.32,8.18a3.4,3.4,0,0,0-.47,1.73,3.46,3.46,0,0,0,1.54,2.88,3.4,3.4,0,0,1-1.56-.43v0A3.46,3.46,0,0,0,8.6,15.79,3.53,3.53,0,0,1,7,15.85a3.44,3.44,0,0,0,3.22,2.39A6.9,6.9,0,0,1,6,19.72a5.56,5.56,0,0,1-.82,0,9.77,9.77,0,0,0,5.29,1.56"/></clipPath></defs><g class="cls-2"><g id="Layer_2" data-name="Layer 2"><g id="Layer_1-2" data-name="Layer 1"><rect class="cls-3" x="0.76" width="26.54" height="26.54" rx="13.27"/><g id="LOGO"><path id="_Compound_Clipping_Path_2" data-name="&lt;Compound Clipping Path&gt;" class="cls-1" d="M10.44,21.23a9.76,9.76,0,0,0,9.83-9.83c0-.15,0-.3,0-.45A6.66,6.66,0,0,0,22,9.16a6.83,6.83,0,0,1-2,.55A3.52,3.52,0,0,0,21.52,7.8a7.26,7.26,0,0,1-2.19.84,3.45,3.45,0,0,0-6,2.36,3.48,3.48,0,0,0,.09.79A9.82,9.82,0,0,1,6.32,8.18a3.4,3.4,0,0,0-.47,1.73,3.46,3.46,0,0,0,1.54,2.88,3.4,3.4,0,0,1-1.56-.43v0A3.46,3.46,0,0,0,8.6,15.79,3.53,3.53,0,0,1,7,15.85a3.44,3.44,0,0,0,3.22,2.39A6.9,6.9,0,0,1,6,19.72a5.56,5.56,0,0,1-.82,0,9.77,9.77,0,0,0,5.29,1.56" transform="translate(0.76)"/><g class="cls-4"><g id="BACK"><g id="BACK-2" data-name="BACK"><rect class="cls-1" y="0.06" width="28.65" height="28.65" rx="14.33"/><rect class="cls-1" y="0.06" width="28.65" height="28.65" rx="8.95"/></g><g id="COLOR"><rect class="cls-5" y="0.06" width="28.65" height="28.65" rx="14.33"/><rect class="cls-6" y="0.06" width="28.65" height="28.65" rx="14.33"/></g></g></g></g></g></g></g></svg>