<svg xmlns="http://www.w3.org/2000/svg" xmlns:xlink="http://www.w3.org/1999/xlink" viewBox="0 0 26.54 26.54"><defs><style>.cls-1{fill:url(#linear-gradient);}.cls-2{fill:#fff;}</style><linearGradient id="linear-gradient" x1="-14.84" y1="43.84" x2="22.25" y2="3.5" gradientUnits="userSpaceOnUse"><stop offset="0" stop-color="#ff365e"/><stop offset="1" stop-color="#ffbe49"/></linearGradient></defs><g id="Layer_2" data-name="Layer 2"><g id="Layer_1-2" data-name="Layer 1"><rect class="cls-1" width="26.54" height="26.54" rx="13.27"/><path id="_Compound_Clipping_Path_" data-name="&lt;Compound Clipping Path&gt;" class="cls-2" d="M10.15,20.11A9.75,9.75,0,0,0,20,10.28c0-.15,0-.3,0-.44a7.18,7.18,0,0,0,1.73-1.79,7,7,0,0,1-2,.54,3.44,3.44,0,0,0,1.52-1.91A7,7,0,0,1,19,7.52a3.46,3.46,0,0,0-6,2.36,3.42,3.42,0,0,0,.09.79A9.84,9.84,0,0,1,6,7.06,3.51,3.51,0,0,0,5.55,8.8a3.45,3.45,0,0,0,1.54,2.87,3.43,3.43,0,0,1-1.56-.43v0A3.46,3.46,0,0,0,8.3,14.67a3.53,3.53,0,0,1-1.56.06A3.46,3.46,0,0,0,10,17.13a7,7,0,0,1-4.29,1.48,7.52,7.52,0,0,1-.82-.05,9.77,9.77,0,0,0,5.3,1.55"/></g></g></svg>