<svg xmlns="http://www.w3.org/2000/svg" xmlns:xlink="http://www.w3.org/1999/xlink" viewBox="0 0 30.76 30.76"><defs><style>.cls-1,.cls-5,.cls-6{fill:#fff;}.cls-2{isolation:isolate;}.cls-3{fill:url(#linear-gradient);}.cls-4{clip-path:url(#clip-path);}.cls-5{mix-blend-mode:color;}.cls-6{mix-blend-mode:soft-light;opacity:0.6;}</style><linearGradient id="linear-gradient" x1="-12.77" y1="45.96" x2="24.31" y2="5.62" gradientUnits="userSpaceOnUse"><stop offset="0" stop-color="#ff365e"/><stop offset="1" stop-color="#ffbe49"/></linearGradient><clipPath id="clip-path" transform="translate(2.07 2.12)"><path class="cls-1" d="M22.36,9.57a4,4,0,0,0-.73-1.83A2.65,2.65,0,0,0,19.78,7c-2.59-.19-6.46-.19-6.46-.19h0s-3.87,0-6.46.19A2.66,2.66,0,0,0,5,7.74a4,4,0,0,0-.73,1.83,28.79,28.79,0,0,0-.18,3V14a28.54,28.54,0,0,0,.18,3A4,4,0,0,0,5,18.78a3.15,3.15,0,0,0,2,.79c1.48.14,6.28.19,6.28.19s3.87,0,6.46-.2a2.6,2.6,0,0,0,1.85-.78A4,4,0,0,0,22.36,17a27.06,27.06,0,0,0,.19-3v-1.4A27.3,27.3,0,0,0,22.36,9.57ZM11.41,15.66V10.47l5,2.6Z"/></clipPath></defs><g class="cls-2"><g id="Layer_2" data-name="Layer 2"><g id="Layer_1-2" data-name="Layer 1"><rect class="cls-3" x="2.07" y="2.12" width="26.54" height="26.54" rx="13.27"/><g id="LOGO"><path class="cls-1" d="M22.36,9.57a4,4,0,0,0-.73-1.83A2.65,2.65,0,0,0,19.78,7c-2.59-.19-6.46-.19-6.46-.19h0s-3.87,0-6.46.19A2.66,2.66,0,0,0,5,7.74a4,4,0,0,0-.73,1.83,28.79,28.79,0,0,0-.18,3V14a28.54,28.54,0,0,0,.18,3A4,4,0,0,0,5,18.78a3.15,3.15,0,0,0,2,.79c1.48.14,6.28.19,6.28.19s3.87,0,6.46-.2a2.6,2.6,0,0,0,1.85-.78A4,4,0,0,0,22.36,17a27.06,27.06,0,0,0,.19-3v-1.4A27.3,27.3,0,0,0,22.36,9.57ZM11.41,15.66V10.47l5,2.6Z" transform="translate(2.07 2.12)"/><g class="cls-4"><g id="LOGO-2" data-name="LOGO"><g id="BACK"><rect class="cls-1" width="30.76" height="30.76" rx="15.38"/><rect class="cls-1" width="30.76" height="30.76" rx="9.61"/></g><g id="COLOR"><rect class="cls-5" width="30.76" height="30.76" rx="15.38"/><rect class="cls-6" width="30.76" height="30.76" rx="15.38"/></g></g></g></g></g></g></g></svg>