<svg xmlns="http://www.w3.org/2000/svg" xmlns:xlink="http://www.w3.org/1999/xlink" viewBox="0 0 26.54 26.54"><defs><style>.cls-1{fill:url(#linear-gradient);}.cls-2{fill:#fff;}</style><linearGradient id="linear-gradient" x1="-14.84" y1="43.84" x2="22.25" y2="3.5" gradientUnits="userSpaceOnUse"><stop offset="0" stop-color="#ff365e"/><stop offset="1" stop-color="#ffbe49"/></linearGradient></defs><g id="Layer_2" data-name="Layer 2"><g id="Layer_1-2" data-name="Layer 1"><rect class="cls-1" width="26.54" height="26.54" rx="13.27"/><path class="cls-2" d="M22.31,9.58a4,4,0,0,0-.73-1.83A2.67,2.67,0,0,0,19.73,7c-2.58-.18-6.46-.18-6.46-.18h0s-3.87,0-6.45.18A2.67,2.67,0,0,0,5,7.75a4,4,0,0,0-.74,1.83,28.54,28.54,0,0,0-.18,3V14a28.48,28.48,0,0,0,.18,3A4,4,0,0,0,5,18.79a3.09,3.09,0,0,0,2,.78c1.48.15,6.28.19,6.28.19s3.88,0,6.46-.19a2.69,2.69,0,0,0,1.85-.78A4,4,0,0,0,22.31,17a27,27,0,0,0,.19-3v-1.4A27.06,27.06,0,0,0,22.31,9.58ZM11.36,15.66V10.48l5,2.6Z"/></g></g></svg>