<svg xmlns="http://www.w3.org/2000/svg" xmlns:xlink="http://www.w3.org/1999/xlink" width="244.714" height="107.747" viewBox="0 0 244.714 107.747"><defs><style>.a,.al,.ao,.bf,.bi,.bu,.by,.e{isolation:isolate;}.b{fill:url(#a);}.c{fill:url(#b);}.d{fill:url(#c);}.al,.ao,.bf,.bi,.bu,.by,.e{opacity:0.7;mix-blend-mode:overlay;}.e{fill:url(#d);}.f{fill:#5e606f;}.aa,.ab,.ac,.ad,.ae,.af,.ag,.ah,.ai,.ap,.aq,.ar,.as,.at,.au,.av,.aw,.ax,.ay,.az,.ba,.bb,.bc,.bl,.bm,.bn,.bo,.bp,.bq,.g,.h,.i,.j,.k,.l,.m,.n,.o,.p,.q,.r,.s,.t,.u,.v,.w,.x,.y,.z{fill:#aec6df;}.g{opacity:0;}.h{opacity:0.036;}.i{opacity:0.071;}.j{opacity:0.107;}.k{opacity:0.143;}.l{opacity:0.179;}.m{opacity:0.214;}.n{opacity:0.25;}.o{opacity:0.286;}.p{opacity:0.321;}.q{opacity:0.357;}.r{opacity:0.393;}.s{opacity:0.429;}.t{opacity:0.464;}.u{opacity:0.5;}.v{opacity:0.536;}.w{opacity:0.571;}.x{opacity:0.607;}.y{opacity:0.643;}.z{opacity:0.679;}.aa{opacity:0.714;}.ab{opacity:0.75;}.ac{opacity:0.786;}.ad{opacity:0.821;}.ae{opacity:0.857;}.af{opacity:0.893;}.ag{opacity:0.929;}.ah{opacity:0.964;}.aj{fill:url(#e);}.ak{fill:url(#f);}.al{fill:url(#g);}.am{fill:url(#h);}.an{fill:url(#i);}.ao{fill:url(#j);}.ap{opacity:0.067;}.aq{opacity:0.133;}.ar{opacity:0.2;}.as{opacity:0.267;}.at{opacity:0.333;}.au{opacity:0.4;}.av{opacity:0.467;}.aw{opacity:0.533;}.ax{opacity:0.6;}.ay{opacity:0.667;}.az{opacity:0.733;}.ba{opacity:0.8;}.bb{opacity:0.867;}.bc{opacity:0.933;}.bd{fill:url(#k);}.be{fill:url(#l);}.bf{fill:url(#m);}.bg{fill:url(#n);}.bh{fill:url(#o);}.bi{fill:url(#r);}.bj{fill:url(#s);}.bk{fill:url(#t);}.bl{opacity:0.083;}.bm{opacity:0.167;}.bn{opacity:0.417;}.bo{opacity:0.583;}.bp{opacity:0.833;}.bq{opacity:0.917;}.br{fill:url(#u);}.bs{fill:url(#v);}.bt{fill:url(#w);}.bu{fill:url(#x);}.bv{fill:url(#y);}.bw{fill:url(#z);}.bx{fill:url(#ab);}.by{fill:url(#ad);}</style><linearGradient id="a" x1="2.237" y1="1.684" x2="0.293" y2="0.431" gradientUnits="objectBoundingBox"><stop offset="0" stop-color="#f2f9ff"/><stop offset="0.587" stop-color="#b4d0e7"/><stop offset="0.723" stop-color="#a6c7e2"/><stop offset="0.778" stop-color="#a0c4df"/><stop offset="0.9" stop-color="#88adcf"/></linearGradient><linearGradient id="b" x1="0.828" y1="1.552" x2="0.153" y2="-0.002" gradientUnits="objectBoundingBox"><stop offset="0" stop-color="#f2f9ff"/><stop offset="0.024" stop-color="#e6f1fa"/><stop offset="0.085" stop-color="#cfe2f1"/><stop offset="0.155" stop-color="#bcd5ea"/><stop offset="0.238" stop-color="#afcde5"/><stop offset="0.346" stop-color="#a8c8e2"/><stop offset="0.573" stop-color="#a6c7e2"/><stop offset="0.769" stop-color="#a0c4df"/><stop offset="0.874" stop-color="#88adcf"/><stop offset="0.919" stop-color="#8aafd0"/><stop offset="0.951" stop-color="#94b7d6"/><stop offset="0.978" stop-color="#a3c4e0"/><stop offset="0.982" stop-color="#a6c7e2"/></linearGradient><linearGradient id="c" x1="0.586" y1="-0.043" x2="0.274" y2="1.926" gradientUnits="objectBoundingBox"><stop offset="0" stop-color="#f2f9ff"/><stop offset="0.795" stop-color="#c0d6f2"/><stop offset="0.999" stop-color="#b3cdec"/></linearGradient><linearGradient id="d" x1="0.648" y1="-0.18" x2="0.405" y2="0.935" gradientUnits="objectBoundingBox"><stop offset="0.076" stop-color="#fff"/><stop offset="1" stop-color="#fff" stop-opacity="0"/></linearGradient><linearGradient id="e" x1="0.493" y1="1.36" x2="0.533" y2="-3.342" gradientUnits="objectBoundingBox"><stop offset="0" stop-color="#27bcf5"/><stop offset="0.668" stop-color="#2591e1"/><stop offset="0.689" stop-color="#208fde"/><stop offset="0.819" stop-color="#088ad2"/><stop offset="0.901" stop-color="#0088ce"/><stop offset="0.927" stop-color="#028bd0"/><stop offset="0.95" stop-color="#0b96d8"/><stop offset="0.973" stop-color="#19a8e6"/><stop offset="0.995" stop-color="#2dc2f9"/><stop offset="1" stop-color="#33caff"/></linearGradient><linearGradient id="f" x1="0.258" y1="4.173" x2="0.567" y2="-0.525" gradientUnits="objectBoundingBox"><stop offset="0.017" stop-color="#33a0ff"/><stop offset="0.333" stop-color="#33bfff"/><stop offset="0.429" stop-color="#33caff"/><stop offset="0.999" stop-color="#7beeff"/></linearGradient><linearGradient id="g" x1="0.509" y1="-0.319" x2="0.497" y2="0.811" xlink:href="#d"/><linearGradient id="h" x1="0.505" y1="1.465" x2="0.474" y2="-4.384" xlink:href="#e"/><linearGradient id="i" x1="0.292" y1="3.614" x2="0.567" y2="-0.509" xlink:href="#f"/><linearGradient id="j" x1="0.292" y1="3.614" x2="0.567" y2="-0.509" xlink:href="#d"/><linearGradient id="k" y1="0.5" x2="1" y2="0.5" gradientUnits="objectBoundingBox"><stop offset="0.077" stop-color="#0088ce"/><stop offset="0.543" stop-color="#18a7e5"/><stop offset="1" stop-color="#33caff"/></linearGradient><linearGradient id="l" x1="-0.001" y1="1.052" x2="1.586" y2="-0.186" gradientUnits="objectBoundingBox"><stop offset="0.072" stop-color="#33acff"/><stop offset="0.591" stop-color="#33caff"/><stop offset="1" stop-color="#7bddff"/></linearGradient><linearGradient id="m" x1="1.208" y1="0.156" x2="0.235" y2="0.823" xlink:href="#d"/><linearGradient id="n" x1="0.431" y1="-1.188" x2="0.618" y2="3.373" gradientUnits="objectBoundingBox"><stop offset="0.086" stop-color="#005a88"/><stop offset="0.525" stop-color="#006ea7"/><stop offset="1" stop-color="#0088ce"/></linearGradient><linearGradient id="o" x1="0.916" y1="-0.057" x2="0.012" y2="1.153" xlink:href="#n"/><linearGradient id="r" x1="1.208" y1="0.156" x2="0.235" y2="0.823" xlink:href="#d"/><linearGradient id="s" x1="0.431" y1="-1.188" x2="0.618" y2="3.373" xlink:href="#n"/><linearGradient id="t" x1="0.916" y1="-0.057" x2="0.012" y2="1.153" xlink:href="#n"/><linearGradient id="u" x1="0.481" y1="0.009" x2="0.519" y2="1.005" xlink:href="#n"/><linearGradient id="v" x1="0.888" y1="0.055" x2="-0.447" y2="1.586" xlink:href="#n"/><linearGradient id="w" x1="0.258" y1="0.962" x2="1.031" y2="-1.043" xlink:href="#l"/><linearGradient id="x" x1="0.813" y1="-0.085" x2="0.052" y2="0.864" gradientUnits="objectBoundingBox"><stop offset="0.076" stop-color="#fff"/><stop offset="0.498" stop-color="#fff" stop-opacity="0.502"/><stop offset="1" stop-color="#fff" stop-opacity="0"/></linearGradient><linearGradient id="y" x1="0" y1="0.5" x2="1" y2="0.5" xlink:href="#n"/><linearGradient id="z" x1="0.631" y1="-0.25" x2="0.401" y2="1.067" xlink:href="#n"/><linearGradient id="ab" x1="0.888" y1="0.055" x2="-0.447" y2="1.586" xlink:href="#n"/><linearGradient id="ad" x1="0.813" y1="-0.085" x2="0.052" y2="0.864" xlink:href="#x"/></defs><g transform="translate(-41.691 -47.077)"><g class="a" transform="translate(41.691 48.477)"><path class="b" d="M68.583,129.744a2.051,2.051,0,0,1-1.824-2.091l.547-15.386-5.387,4.519-.547,15.386a2.053,2.053,0,0,0,1.824,2.092,1.712,1.712,0,0,0,1.3-.394l5.387-4.519A1.706,1.706,0,0,1,68.583,129.744Z" transform="translate(-36.357 -30.806)"/><path class="c" d="M278.664,145.105l-5.387,4.519a17.547,17.547,0,0,1-13.229,3.935L87.055,135.378l5.388-4.52,172.992,18.183A17.553,17.553,0,0,0,278.664,145.105ZM65.189,127.994a20.542,20.542,0,0,1-18.1-20.88l1.518-42.761a18.719,18.719,0,0,1,.538-3.851A17.69,17.69,0,0,1,50.417,57a17.186,17.186,0,0,1,4.407-5.646h0l-5.387,4.519a17.6,17.6,0,0,0-6.216,13L41.7,111.634a20.54,20.54,0,0,0,18.1,20.879l7.451.783,5.387-4.519Z" transform="translate(-41.691 -47.316)"/><path class="d" d="M267.146,69.328,66.9,48.282A17.384,17.384,0,0,0,47.459,65.215l-1.518,42.761a20.542,20.542,0,0,0,18.1,20.88l7.451.783-.547,15.386a2.051,2.051,0,0,0,1.824,2.091A1.706,1.706,0,0,0,74.1,146.7l17.2-14.981L264.286,149.9a17.377,17.377,0,0,0,19.441-16.933l1.518-42.761A20.549,20.549,0,0,0,267.146,69.328Z" transform="translate(-40.543 -48.178)"/><path class="e" d="M267.146,69.328,66.9,48.282A17.384,17.384,0,0,0,47.459,65.215l-1.518,42.761a20.542,20.542,0,0,0,18.1,20.88l7.451.783-.547,15.386a2.051,2.051,0,0,0,1.824,2.091A1.706,1.706,0,0,0,74.1,146.7l17.2-14.981L264.286,149.9a17.377,17.377,0,0,0,19.441-16.933l1.518-42.761A20.549,20.549,0,0,0,267.146,69.328Zm16.2,63.627a16.925,16.925,0,0,1-17.086,16.67,18.355,18.355,0,0,1-1.935-.1l-173.157-18.2L73.845,146.413a1.331,1.331,0,0,1-.883.333,1.229,1.229,0,0,1-.153-.009,1.68,1.68,0,0,1-1.483-1.7l.559-15.743-7.806-.82A20.181,20.181,0,0,1,46.323,107.99l1.518-42.76A16.927,16.927,0,0,1,64.929,48.558a18.275,18.275,0,0,1,1.932.1L267.107,69.709a20.18,20.18,0,0,1,17.758,20.486Z" transform="translate(-40.543 -48.178)"/></g><g class="a" transform="translate(79.86 77.009)"><g class="a" transform="translate(167.895 23.393)"><path class="f" d="M207.5,89.03l-1.209,1.014a3.285,3.285,0,0,1-2.48.736l1.21-1.014a3.282,3.282,0,0,0,2.479-.736" transform="translate(-203.81 -89.03)"/></g><g transform="translate(0 1.221)"><path class="g" d="M237.357,90.623,75.377,73.6a3.261,3.261,0,0,0-3.654,3.171,3.855,3.855,0,0,0,3.4,3.912L237.106,97.706a3.253,3.253,0,0,0,3.643-3.173A3.844,3.844,0,0,0,237.357,90.623Z" transform="translate(-71.72 -71.047)"/><path class="h" d="M75.448,73.527A3.261,3.261,0,0,0,71.793,76.7a3.856,3.856,0,0,0,3.4,3.912L237.178,97.635a3.252,3.252,0,0,0,3.642-3.173,3.844,3.844,0,0,0-3.391-3.911Z" transform="translate(-71.701 -71.066)"/><path class="i" d="M75.519,73.455a3.261,3.261,0,0,0-3.653,3.173,3.855,3.855,0,0,0,3.4,3.912L237.249,97.565a3.252,3.252,0,0,0,3.642-3.173,3.844,3.844,0,0,0-3.39-3.911Z" transform="translate(-71.682 -71.086)"/><path class="j" d="M75.59,73.384a3.262,3.262,0,0,0-3.653,3.171,3.855,3.855,0,0,0,3.4,3.914L237.32,97.494a3.252,3.252,0,0,0,3.642-3.173,3.844,3.844,0,0,0-3.39-3.911Z" transform="translate(-71.662 -71.105)"/><path class="k" d="M75.661,73.313a3.262,3.262,0,0,0-3.653,3.171,3.855,3.855,0,0,0,3.4,3.914L237.391,97.423a3.254,3.254,0,0,0,3.643-3.173,3.844,3.844,0,0,0-3.391-3.911Z" transform="translate(-71.643 -71.124)"/><path class="l" d="M75.732,73.242a3.262,3.262,0,0,0-3.653,3.171,3.855,3.855,0,0,0,3.4,3.914L237.462,97.352a3.254,3.254,0,0,0,3.643-3.173,3.846,3.846,0,0,0-3.391-3.912Z" transform="translate(-71.624 -71.143)"/><path class="m" d="M75.8,73.171a3.262,3.262,0,0,0-3.653,3.171,3.855,3.855,0,0,0,3.4,3.914L237.533,97.281a3.253,3.253,0,0,0,3.643-3.173,3.846,3.846,0,0,0-3.391-3.912Z" transform="translate(-71.605 -71.163)"/><path class="n" d="M75.874,73.1a3.261,3.261,0,0,0-3.653,3.171,3.856,3.856,0,0,0,3.4,3.914L237.6,97.21a3.254,3.254,0,0,0,3.643-3.173,3.845,3.845,0,0,0-3.391-3.912Z" transform="translate(-71.585 -71.182)"/><path class="o" d="M75.946,73.029A3.261,3.261,0,0,0,72.291,76.2a3.855,3.855,0,0,0,3.4,3.912L237.675,97.139a3.254,3.254,0,0,0,3.643-3.174,3.844,3.844,0,0,0-3.391-3.911Z" transform="translate(-71.566 -71.201)"/><path class="p" d="M76.017,72.958a3.261,3.261,0,0,0-3.654,3.171,3.856,3.856,0,0,0,3.4,3.912L237.747,97.066a3.252,3.252,0,0,0,3.642-3.173A3.844,3.844,0,0,0,238,89.983Z" transform="translate(-71.547 -71.22)"/><path class="q" d="M76.088,72.887a3.261,3.261,0,0,0-3.654,3.171,3.856,3.856,0,0,0,3.4,3.912L237.818,97a3.252,3.252,0,0,0,3.642-3.173,3.844,3.844,0,0,0-3.391-3.911Z" transform="translate(-71.528 -71.24)"/><path class="r" d="M76.159,72.815a3.261,3.261,0,0,0-3.653,3.173,3.855,3.855,0,0,0,3.4,3.912L237.889,96.925a3.252,3.252,0,0,0,3.642-3.173,3.844,3.844,0,0,0-3.39-3.911Z" transform="translate(-71.508 -71.259)"/><path class="s" d="M76.23,72.744a3.262,3.262,0,0,0-3.653,3.171,3.855,3.855,0,0,0,3.4,3.914L237.96,96.854a3.252,3.252,0,0,0,3.642-3.173,3.842,3.842,0,0,0-3.39-3.911Z" transform="translate(-71.489 -71.278)"/><path class="t" d="M76.3,72.673a3.262,3.262,0,0,0-3.653,3.171,3.855,3.855,0,0,0,3.4,3.914L238.031,96.783a3.254,3.254,0,0,0,3.643-3.173,3.846,3.846,0,0,0-3.391-3.912Z" transform="translate(-71.47 -71.297)"/><path class="u" d="M76.372,72.6a3.262,3.262,0,0,0-3.653,3.171,3.855,3.855,0,0,0,3.4,3.914L238.1,96.712a3.254,3.254,0,0,0,3.643-3.173,3.846,3.846,0,0,0-3.391-3.912Z" transform="translate(-71.45 -71.317)"/><path class="v" d="M76.443,72.531A3.262,3.262,0,0,0,72.789,75.7a3.855,3.855,0,0,0,3.4,3.914L238.173,96.641a3.253,3.253,0,0,0,3.643-3.173,3.845,3.845,0,0,0-3.391-3.912Z" transform="translate(-71.431 -71.336)"/><path class="w" d="M76.514,72.46a3.261,3.261,0,0,0-3.653,3.171,3.856,3.856,0,0,0,3.4,3.914L238.244,96.57a3.254,3.254,0,0,0,3.643-3.173,3.845,3.845,0,0,0-3.391-3.912Z" transform="translate(-71.412 -71.355)"/><path class="x" d="M76.586,72.389a3.261,3.261,0,0,0-3.654,3.171,3.855,3.855,0,0,0,3.4,3.912L238.315,96.5a3.253,3.253,0,0,0,3.643-3.173,3.844,3.844,0,0,0-3.391-3.911Z" transform="translate(-71.393 -71.375)"/><path class="y" d="M76.657,72.318A3.261,3.261,0,0,0,73,75.489a3.856,3.856,0,0,0,3.4,3.912L238.387,96.426a3.252,3.252,0,0,0,3.642-3.173,3.844,3.844,0,0,0-3.391-3.911Z" transform="translate(-71.373 -71.394)"/><path class="z" d="M76.728,72.246a3.261,3.261,0,0,0-3.653,3.173,3.855,3.855,0,0,0,3.4,3.912L238.458,96.356a3.252,3.252,0,0,0,3.642-3.173,3.844,3.844,0,0,0-3.39-3.911Z" transform="translate(-71.354 -71.413)"/><path class="aa" d="M76.8,72.175a3.262,3.262,0,0,0-3.653,3.171,3.855,3.855,0,0,0,3.4,3.914L238.529,96.285a3.252,3.252,0,0,0,3.642-3.173,3.844,3.844,0,0,0-3.39-3.911Z" transform="translate(-71.335 -71.432)"/><path class="ab" d="M76.87,72.1a3.262,3.262,0,0,0-3.653,3.171,3.855,3.855,0,0,0,3.4,3.914L238.6,96.214a3.252,3.252,0,0,0,3.642-3.173,3.842,3.842,0,0,0-3.39-3.911Z" transform="translate(-71.315 -71.452)"/><path class="ac" d="M76.941,72.033A3.262,3.262,0,0,0,73.287,75.2a3.855,3.855,0,0,0,3.4,3.914L238.671,96.143a3.254,3.254,0,0,0,3.643-3.173,3.846,3.846,0,0,0-3.391-3.912Z" transform="translate(-71.296 -71.471)"/><path class="ad" d="M77.012,71.962a3.262,3.262,0,0,0-3.653,3.171,3.855,3.855,0,0,0,3.4,3.914L238.742,96.072a3.253,3.253,0,0,0,3.643-3.173,3.846,3.846,0,0,0-3.391-3.912Z" transform="translate(-71.277 -71.49)"/><path class="ae" d="M77.083,71.891a3.261,3.261,0,0,0-3.653,3.171,3.856,3.856,0,0,0,3.4,3.914L238.813,96a3.253,3.253,0,0,0,3.643-3.173,3.845,3.845,0,0,0-3.391-3.912Z" transform="translate(-71.258 -71.509)"/><path class="af" d="M77.155,71.82A3.261,3.261,0,0,0,73.5,74.992a3.857,3.857,0,0,0,3.4,3.914L238.884,95.93a3.254,3.254,0,0,0,3.643-3.174,3.844,3.844,0,0,0-3.391-3.911Z" transform="translate(-71.238 -71.529)"/><path class="ag" d="M77.226,71.749a3.261,3.261,0,0,0-3.654,3.171,3.855,3.855,0,0,0,3.4,3.912L238.955,95.857a3.253,3.253,0,0,0,3.643-3.173,3.844,3.844,0,0,0-3.391-3.911Z" transform="translate(-71.219 -71.548)"/><path class="ah" d="M77.3,71.678a3.261,3.261,0,0,0-3.654,3.171,3.856,3.856,0,0,0,3.4,3.912L239.027,95.786a3.252,3.252,0,0,0,3.642-3.173,3.844,3.844,0,0,0-3.391-3.911Z" transform="translate(-71.2 -71.567)"/><path class="ai" d="M239.349,88.632,77.368,71.606a3.261,3.261,0,0,0-3.653,3.171,3.855,3.855,0,0,0,3.4,3.914L239.1,95.716a3.252,3.252,0,0,0,3.642-3.173A3.844,3.844,0,0,0,239.349,88.632Z" transform="translate(-71.18 -71.587)"/></g><path class="aj" d="M240.29,94.593,78.308,77.568a3.854,3.854,0,0,1-3.4-3.912,3.288,3.288,0,0,1,1.163-2.432l-1.21,1.014A3.287,3.287,0,0,0,73.7,74.67a3.854,3.854,0,0,0,3.4,3.912L239.081,95.607a3.284,3.284,0,0,0,2.479-.736l1.209-1.014A3.282,3.282,0,0,1,240.29,94.593Z" transform="translate(-71.185 -70.464)"/><path class="ak" d="M240.282,87.671,78.3,70.645a3.261,3.261,0,0,0-3.653,3.173,3.854,3.854,0,0,0,3.4,3.912L240.032,94.755a3.252,3.252,0,0,0,3.642-3.173A3.844,3.844,0,0,0,240.282,87.671Z" transform="translate(-70.927 -70.626)"/><path class="al" d="M240.282,87.671,78.3,70.645a3.261,3.261,0,0,0-3.653,3.173,3.854,3.854,0,0,0,3.4,3.912L240.032,94.755a3.252,3.252,0,0,0,3.642-3.173A3.844,3.844,0,0,0,240.282,87.671Zm.122,6.723a2.958,2.958,0,0,1-.333-.019L78.089,77.351a3.475,3.475,0,0,1-3.061-3.521,2.87,2.87,0,0,1,2.9-2.822,3.255,3.255,0,0,1,.332.017L240.243,88.051a3.465,3.465,0,0,1,3.051,3.517A2.865,2.865,0,0,1,240.4,94.394Z" transform="translate(-70.927 -70.626)"/></g><g class="a" transform="translate(113.253 97.088)"><g transform="translate(0 1.114)"><path class="g" d="M195.6,99.078,101.648,89.31a3.261,3.261,0,0,0-3.653,3.171,3.855,3.855,0,0,0,3.4,3.912l93.957,9.768A3.253,3.253,0,0,0,199,102.989,3.844,3.844,0,0,0,195.6,99.078Z" transform="translate(-97.992 -86.759)"/><path class="h" d="M101.72,89.238a3.263,3.263,0,0,0-3.654,3.173,3.856,3.856,0,0,0,3.4,3.912l93.956,9.768a3.253,3.253,0,0,0,3.643-3.173,3.846,3.846,0,0,0-3.391-3.912Z" transform="translate(-97.973 -86.778)"/><path class="i" d="M101.791,89.167a3.263,3.263,0,0,0-3.654,3.171,3.856,3.856,0,0,0,3.4,3.914l93.956,9.768a3.253,3.253,0,0,0,3.643-3.173,3.845,3.845,0,0,0-3.391-3.912Z" transform="translate(-97.954 -86.798)"/><path class="j" d="M101.862,89.1a3.261,3.261,0,0,0-3.653,3.171,3.855,3.855,0,0,0,3.4,3.914l93.956,9.768a3.253,3.253,0,0,0,3.643-3.173,3.845,3.845,0,0,0-3.391-3.912Z" transform="translate(-97.934 -86.817)"/><path class="k" d="M101.933,89.025A3.26,3.26,0,0,0,98.279,92.2a3.855,3.855,0,0,0,3.4,3.914l93.956,9.768a3.253,3.253,0,0,0,3.643-3.173,3.844,3.844,0,0,0-3.391-3.912Z" transform="translate(-97.915 -86.836)"/><path class="l" d="M102,88.954a3.262,3.262,0,0,0-3.653,3.171,3.855,3.855,0,0,0,3.4,3.914l93.957,9.768a3.254,3.254,0,0,0,3.642-3.174,3.844,3.844,0,0,0-3.391-3.911Z" transform="translate(-97.896 -86.855)"/><path class="m" d="M102.075,88.883a3.261,3.261,0,0,0-3.653,3.171,3.856,3.856,0,0,0,3.4,3.914l93.957,9.767a3.252,3.252,0,0,0,3.642-3.173,3.844,3.844,0,0,0-3.39-3.911Z" transform="translate(-97.876 -86.875)"/><path class="n" d="M102.146,88.812a3.261,3.261,0,0,0-3.653,3.171,3.854,3.854,0,0,0,3.4,3.912l93.957,9.768a3.252,3.252,0,0,0,3.642-3.173,3.844,3.844,0,0,0-3.39-3.911Z" transform="translate(-97.857 -86.894)"/><path class="o" d="M102.217,88.741a3.261,3.261,0,0,0-3.653,3.171,3.855,3.855,0,0,0,3.4,3.912l93.957,9.768a3.253,3.253,0,0,0,3.643-3.173,3.846,3.846,0,0,0-3.391-3.911Z" transform="translate(-97.838 -86.913)"/><path class="p" d="M102.288,88.67a3.261,3.261,0,0,0-3.653,3.171,3.856,3.856,0,0,0,3.4,3.912l93.957,9.768a3.254,3.254,0,0,0,3.643-3.173,3.844,3.844,0,0,0-3.391-3.911Z" transform="translate(-97.819 -86.932)"/><path class="q" d="M102.36,88.6a3.263,3.263,0,0,0-3.654,3.173,3.856,3.856,0,0,0,3.4,3.912l93.956,9.768a3.253,3.253,0,0,0,3.643-3.173,3.846,3.846,0,0,0-3.391-3.912Z" transform="translate(-97.799 -86.952)"/><path class="r" d="M102.431,88.527A3.263,3.263,0,0,0,98.776,91.7a3.856,3.856,0,0,0,3.4,3.914l93.956,9.768a3.253,3.253,0,0,0,3.643-3.173,3.845,3.845,0,0,0-3.391-3.912Z" transform="translate(-97.78 -86.971)"/><path class="s" d="M102.5,88.456a3.261,3.261,0,0,0-3.653,3.171,3.855,3.855,0,0,0,3.4,3.914l93.956,9.768a3.253,3.253,0,0,0,3.643-3.173,3.844,3.844,0,0,0-3.391-3.912Z" transform="translate(-97.761 -86.99)"/><path class="t" d="M102.573,88.385a3.261,3.261,0,0,0-3.653,3.171,3.855,3.855,0,0,0,3.4,3.914l93.956,9.768a3.253,3.253,0,0,0,3.643-3.173,3.844,3.844,0,0,0-3.391-3.912Z" transform="translate(-97.741 -87.01)"/><path class="u" d="M102.644,88.314a3.262,3.262,0,0,0-3.653,3.171,3.855,3.855,0,0,0,3.4,3.914l93.957,9.767a3.252,3.252,0,0,0,3.642-3.173,3.844,3.844,0,0,0-3.391-3.911Z" transform="translate(-97.722 -87.029)"/><path class="v" d="M102.715,88.243a3.261,3.261,0,0,0-3.653,3.171,3.856,3.856,0,0,0,3.4,3.914l93.957,9.767a3.252,3.252,0,0,0,3.642-3.173,3.844,3.844,0,0,0-3.39-3.911Z" transform="translate(-97.703 -87.048)"/><path class="w" d="M102.786,88.172a3.261,3.261,0,0,0-3.653,3.171,3.854,3.854,0,0,0,3.4,3.912l93.957,9.768a3.252,3.252,0,0,0,3.642-3.173,3.844,3.844,0,0,0-3.39-3.911Z" transform="translate(-97.684 -87.067)"/><path class="x" d="M102.857,88.1A3.261,3.261,0,0,0,99.2,91.272a3.855,3.855,0,0,0,3.4,3.912l93.957,9.768a3.253,3.253,0,0,0,3.643-3.173,3.846,3.846,0,0,0-3.391-3.911Z" transform="translate(-97.664 -87.087)"/><path class="y" d="M102.929,88.029A3.263,3.263,0,0,0,99.274,91.2a3.856,3.856,0,0,0,3.4,3.912l93.956,9.768a3.254,3.254,0,0,0,3.643-3.173,3.844,3.844,0,0,0-3.391-3.911Z" transform="translate(-97.645 -87.106)"/><path class="z" d="M103,87.958a3.263,3.263,0,0,0-3.654,3.171,3.856,3.856,0,0,0,3.4,3.914l93.956,9.768a3.253,3.253,0,0,0,3.643-3.173,3.846,3.846,0,0,0-3.391-3.912Z" transform="translate(-97.626 -87.125)"/><path class="aa" d="M103.071,87.887a3.263,3.263,0,0,0-3.654,3.171,3.856,3.856,0,0,0,3.4,3.914l93.956,9.768a3.253,3.253,0,0,0,3.643-3.173,3.845,3.845,0,0,0-3.391-3.912Z" transform="translate(-97.607 -87.144)"/><path class="ab" d="M103.142,87.816a3.261,3.261,0,0,0-3.653,3.171,3.855,3.855,0,0,0,3.4,3.914l93.956,9.768a3.253,3.253,0,0,0,3.643-3.173,3.844,3.844,0,0,0-3.391-3.912Z" transform="translate(-97.587 -87.164)"/><path class="ac" d="M103.213,87.745a3.262,3.262,0,0,0-3.653,3.171,3.855,3.855,0,0,0,3.4,3.914l93.957,9.768a3.254,3.254,0,0,0,3.642-3.174,3.844,3.844,0,0,0-3.391-3.911Z" transform="translate(-97.568 -87.183)"/><path class="ad" d="M103.284,87.674a3.261,3.261,0,0,0-3.653,3.171,3.856,3.856,0,0,0,3.4,3.914l93.957,9.767a3.252,3.252,0,0,0,3.642-3.173,3.844,3.844,0,0,0-3.39-3.911Z" transform="translate(-97.549 -87.202)"/><path class="ae" d="M103.355,87.6A3.261,3.261,0,0,0,99.7,90.775a3.854,3.854,0,0,0,3.4,3.912l93.957,9.768a3.252,3.252,0,0,0,3.642-3.173,3.844,3.844,0,0,0-3.39-3.911Z" transform="translate(-97.529 -87.222)"/><path class="af" d="M103.426,87.532A3.261,3.261,0,0,0,99.772,90.7a3.854,3.854,0,0,0,3.4,3.912l93.957,9.768a3.252,3.252,0,0,0,3.642-3.173,3.844,3.844,0,0,0-3.39-3.911Z" transform="translate(-97.51 -87.241)"/><path class="ag" d="M103.5,87.461a3.261,3.261,0,0,0-3.653,3.171,3.855,3.855,0,0,0,3.4,3.912l93.957,9.768a3.253,3.253,0,0,0,3.643-3.173,3.846,3.846,0,0,0-3.391-3.911Z" transform="translate(-97.491 -87.26)"/><path class="ah" d="M103.569,87.389a3.263,3.263,0,0,0-3.654,3.173,3.856,3.856,0,0,0,3.4,3.912l93.956,9.768a3.254,3.254,0,0,0,3.643-3.173,3.844,3.844,0,0,0-3.391-3.911Z" transform="translate(-97.472 -87.279)"/><path class="ai" d="M197.6,97.086,103.64,87.318a3.263,3.263,0,0,0-3.654,3.171,3.856,3.856,0,0,0,3.4,3.914l93.956,9.768A3.253,3.253,0,0,0,200.987,101,3.846,3.846,0,0,0,197.6,97.086Z" transform="translate(-97.452 -87.299)"/></g><path class="am" d="M198.563,103.252l-93.969-9.876a3.855,3.855,0,0,1-3.391-3.923,3.3,3.3,0,0,1,1.163-2.437l-1.209,1.014a3.293,3.293,0,0,0-1.163,2.437,3.855,3.855,0,0,0,3.39,3.923l93.97,9.876a3.288,3.288,0,0,0,2.484-.741l1.21-1.014A3.293,3.293,0,0,1,198.563,103.252Z" transform="translate(-97.45 -86.261)"/><path class="an" d="M198.557,96.318l-93.969-9.876a3.253,3.253,0,0,0-3.643,3.173,3.855,3.855,0,0,0,3.391,3.923l93.969,9.876a3.269,3.269,0,0,0,3.653-3.181A3.855,3.855,0,0,0,198.557,96.318Z" transform="translate(-97.192 -86.423)"/><path class="ao" d="M198.557,96.318l-93.969-9.876a3.253,3.253,0,0,0-3.643,3.173,3.855,3.855,0,0,0,3.391,3.923l93.969,9.876a3.269,3.269,0,0,0,3.653-3.181A3.855,3.855,0,0,0,198.557,96.318Zm.119,6.734h0a2.931,2.931,0,0,1-.33-.019l-93.969-9.875a3.472,3.472,0,0,1-3.049-3.531,2.864,2.864,0,0,1,2.888-2.824,3.3,3.3,0,0,1,.333.018l93.97,9.877a3.471,3.471,0,0,1,3.061,3.518A2.877,2.877,0,0,1,198.676,103.052Z" transform="translate(-97.192 -86.423)"/></g><g class="a" transform="translate(65.685 47.077)"><g transform="translate(0)"><g transform="translate(0 1.014)"><path class="g" d="M75.08,50.505,67.442,48.78,60.895,58.892l-.327,11.376L74.2,71.323l.062-12.615-4.06-.282Z" transform="translate(-60.568 -47.63)"/><path class="ap" d="M67.518,48.72,60.971,58.831l-.327,11.376,13.629,1.055.062-12.615-4.06-.282,4.881-7.92Z" transform="translate(-60.547 -47.646)"/><path class="aq" d="M67.595,48.66,61.048,58.771l-.327,11.376L74.35,71.2l.062-12.615-4.06-.282,4.881-7.92Z" transform="translate(-60.527 -47.662)"/><path class="ar" d="M67.671,48.6,61.124,58.711,60.8,70.087l13.629,1.055.062-12.615-4.06-.282,4.881-7.92Z" transform="translate(-60.506 -47.679)"/><path class="as" d="M67.748,48.539,61.2,58.65l-.327,11.376L74.5,71.081l.062-12.615-4.06-.282,4.881-7.92Z" transform="translate(-60.485 -47.695)"/><path class="at" d="M67.824,48.479,61.277,58.59,60.95,69.966,74.58,71.021l.062-12.615-4.06-.282,4.881-7.92Z" transform="translate(-60.465 -47.711)"/><path class="au" d="M67.9,48.418,61.354,58.53l-.327,11.376,13.629,1.055.062-12.615-4.06-.282,4.881-7.92Z" transform="translate(-60.444 -47.728)"/><path class="av" d="M67.977,48.358,61.43,58.469,61.1,69.845,74.732,70.9l.062-12.615L70.734,58l4.881-7.92Z" transform="translate(-60.423 -47.744)"/><path class="aw" d="M68.054,48.3,61.506,58.409,61.18,69.785,74.809,70.84l.062-12.615-4.06-.282,4.881-7.92Z" transform="translate(-60.402 -47.76)"/><path class="ax" d="M68.13,48.237,61.583,58.348l-.327,11.376L74.885,70.78l.062-12.615-4.06-.282,4.881-7.92Z" transform="translate(-60.382 -47.777)"/><path class="ay" d="M68.206,48.177,61.659,58.288l-.327,11.376,13.629,1.055L75.023,58.1l-4.06-.282,4.881-7.92Z" transform="translate(-60.361 -47.793)"/><path class="az" d="M68.283,48.116,61.736,58.228,61.409,69.6l13.629,1.055L75.1,58.043l-4.06-.282,4.881-7.92Z" transform="translate(-60.34 -47.81)"/><path class="ba" d="M68.359,48.056,61.812,58.167l-.327,11.376L75.115,70.6l.062-12.615-4.06-.282L76,49.781Z" transform="translate(-60.32 -47.826)"/><path class="bb" d="M68.436,48,61.889,58.107l-.327,11.376,13.629,1.055.062-12.615-4.06-.282,4.881-7.92Z" transform="translate(-60.299 -47.842)"/><path class="bc" d="M68.512,47.935,61.965,58.047l-.327,11.376,13.629,1.055.062-12.615-4.06-.282,4.881-7.92Z" transform="translate(-60.278 -47.859)"/><path class="ai" d="M76.226,49.6l-7.638-1.725L62.042,57.986l-.327,11.376,13.629,1.055L75.406,57.8l-4.06-.282Z" transform="translate(-60.257 -47.875)"/></g><path class="bd" d="M68.391,48.091,61.843,58.2l1.209-1.014L69.6,47.077Z" transform="translate(-60.223 -47.077)"/><path class="be" d="M77.049,48.8l-7.638-1.725L62.864,57.189l-.327,11.376L76.167,69.62,76.228,57l-4.06-.282Z" transform="translate(-60.034 -47.077)"/><path class="bf" d="M77.048,48.8l-7.638-1.725L62.865,57.188l-.327,11.376,13.628,1.055L76.229,57l-4.061-.282Zm-1.2,8.558-.057,11.848-12.858-1,.313-10.906,6.345-9.8,6.857,1.549-4.932,8Z" transform="translate(-60.034 -47.077)"/><path class="bg" d="M62.8,63.982,61.587,65l13.629,1.055,1.209-1.014Z" transform="translate(-60.292 -42.495)"/><path class="bh" d="M61.913,56.047l-.326,11.376L62.8,66.408l.327-11.376Z" transform="translate(-60.292 -44.921)"/></g></g><g class="a" transform="translate(82.391 48.518)"><g transform="translate(0 1.014)"><path class="g" d="M88.223,51.639l-7.638-1.725L74.038,60.025,73.712,71.4l13.629,1.055L87.4,59.841l-4.06-.282Z" transform="translate(-73.712 -48.763)"/><path class="ap" d="M80.662,49.853,74.115,59.965l-.327,11.376L87.417,72.4l.062-12.615-4.06-.282,4.881-7.92Z" transform="translate(-73.691 -48.779)"/><path class="aq" d="M80.738,49.793,74.191,59.9l-.327,11.376,13.629,1.055.062-12.615-4.06-.282,4.881-7.92Z" transform="translate(-73.67 -48.796)"/><path class="ar" d="M80.815,49.733,74.268,59.844,73.941,71.22,87.57,72.275l.062-12.615-4.06-.282,4.881-7.92Z" transform="translate(-73.65 -48.812)"/><path class="as" d="M80.891,49.672,74.344,59.784,74.018,71.16l13.629,1.055L87.708,59.6l-4.06-.282,4.881-7.92Z" transform="translate(-73.629 -48.828)"/><path class="at" d="M80.968,49.612,74.421,59.723,74.094,71.1l13.629,1.055.062-12.615-4.06-.282,4.881-7.92Z" transform="translate(-73.608 -48.845)"/><path class="au" d="M81.044,49.552,74.5,59.663l-.327,11.376L87.8,72.094l.062-12.615L83.8,59.2l4.881-7.92Z" transform="translate(-73.587 -48.861)"/><path class="av" d="M81.121,49.491,74.574,59.6l-.327,11.376,13.629,1.055.062-12.615-4.06-.282,4.881-7.92Z" transform="translate(-73.567 -48.878)"/><path class="aw" d="M81.2,49.431,74.65,59.542l-.327,11.376,13.629,1.055.062-12.615-4.06-.282,4.881-7.92Z" transform="translate(-73.546 -48.894)"/><path class="ax" d="M81.274,49.371,74.726,59.482,74.4,70.858l13.629,1.055L88.091,59.3l-4.06-.282,4.881-7.92Z" transform="translate(-73.525 -48.91)"/><path class="ay" d="M81.35,49.31,74.8,59.422,74.476,70.8l13.629,1.055.062-12.615-4.06-.282,4.881-7.92Z" transform="translate(-73.505 -48.927)"/><path class="az" d="M81.426,49.25,74.879,59.361l-.327,11.376,13.629,1.055.062-12.615-4.06-.282,4.881-7.92Z" transform="translate(-73.484 -48.943)"/><path class="ba" d="M81.5,49.189,74.956,59.3l-.327,11.376,13.629,1.055.062-12.615-4.06-.282,4.881-7.92Z" transform="translate(-73.463 -48.959)"/><path class="bb" d="M81.579,49.129,75.032,59.241l-.327,11.376,13.629,1.055L88.4,59.056l-4.06-.282,4.881-7.92Z" transform="translate(-73.442 -48.976)"/><path class="bc" d="M81.656,49.069,75.109,59.18l-.327,11.376,13.629,1.055L88.473,59l-4.06-.282,4.881-7.92Z" transform="translate(-73.422 -48.992)"/><path class="ai" d="M89.37,50.733l-7.638-1.725L75.185,59.12,74.859,70.5l13.629,1.055.062-12.615-4.06-.282Z" transform="translate(-73.401 -49.008)"/></g><path class="bd" d="M81.534,49.225,74.987,59.336,76.2,58.322,82.743,48.21Z" transform="translate(-73.366 -48.21)"/><path class="be" d="M90.193,49.936,82.555,48.21,76.008,58.322,75.681,69.7,89.31,70.753l.062-12.615-4.06-.282Z" transform="translate(-73.178 -48.21)"/><path class="bi" d="M90.193,49.936l-7.638-1.725L76.008,58.322,75.681,69.7l13.63,1.055.061-12.615-4.06-.282Zm-1.2,8.557L88.932,70.34l-12.859-1,.313-10.906,6.345-9.8,6.857,1.549-4.932,8Z" transform="translate(-73.178 -48.21)"/><path class="bj" d="M75.939,65.116,74.73,66.13l13.629,1.055,1.209-1.014Z" transform="translate(-73.436 -43.628)"/><path class="bk" d="M75.057,57.18,74.73,68.556l1.209-1.014.327-11.376Z" transform="translate(-73.436 -46.054)"/></g><g class="a" transform="translate(249.911 117.857)"><g transform="translate(0 0.964)"><path class="g" d="M206.773,104.386l-.515,12.334,4.068.361-4.82,8.082,7.784,1.963,6.544-10.034.64-11.5Z" transform="translate(-205.506 -103.288)"/><path class="bl" d="M206.841,104.314l-.515,12.334,4.068.361-4.82,8.082,7.784,1.963L219.9,117.02l.64-11.5Z" transform="translate(-205.488 -103.307)"/><path class="bm" d="M206.908,104.242l-.515,12.334,4.068.361-4.82,8.082,7.784,1.963,6.544-10.034.64-11.5Z" transform="translate(-205.47 -103.327)"/><path class="n" d="M206.976,104.17l-.515,12.334,4.068.361-4.82,8.082,7.784,1.962,6.544-10.034.64-11.5Z" transform="translate(-205.451 -103.346)"/><path class="at" d="M207.043,104.1l-.515,12.334,4.068.361-4.82,8.082,7.784,1.962L220.1,116.8l.64-11.5Z" transform="translate(-205.433 -103.366)"/><path class="bn" d="M207.111,104.026,206.6,116.36l4.068.361-4.82,8.082,7.784,1.962,6.544-10.034.64-11.5Z" transform="translate(-205.415 -103.385)"/><path class="u" d="M207.178,103.954l-.515,12.334,4.068.361-4.82,8.082,7.784,1.962,6.544-10.034.64-11.5Z" transform="translate(-205.396 -103.405)"/><path class="bo" d="M207.246,103.882l-.515,12.334,4.068.361-4.82,8.082,7.784,1.962,6.544-10.034.64-11.5Z" transform="translate(-205.378 -103.424)"/><path class="ay" d="M207.314,103.81l-.515,12.334,4.068.361-4.82,8.082,7.784,1.962,6.544-10.034.64-11.5Z" transform="translate(-205.36 -103.444)"/><path class="ab" d="M207.381,103.738l-.515,12.334,4.068.361-4.82,8.082,7.784,1.962,6.544-10.034.64-11.5Z" transform="translate(-205.342 -103.463)"/><path class="bp" d="M207.449,103.666,206.934,116l4.068.361-4.82,8.082,7.784,1.962,6.544-10.034.64-11.5Z" transform="translate(-205.323 -103.483)"/><path class="bq" d="M207.516,103.594,207,115.928l4.068.361-4.82,8.082,7.784,1.962,6.544-10.034.64-11.5Z" transform="translate(-205.305 -103.502)"/><path class="ai" d="M207.584,103.522l-.515,12.334,4.068.361-4.82,8.082,7.784,1.962,6.544-10.034.64-11.5Z" transform="translate(-205.287 -103.522)"/></g><path class="br" d="M207.424,103.778l-.515,12.334,1.209-1.014.515-12.334Z" transform="translate(-205.126 -102.763)"/><path class="bs" d="M208.118,112.467l-1.209,1.014,4.068.361,1.209-1.014Z" transform="translate(-205.126 -100.133)"/><path class="bt" d="M208.535,102.763,208.02,115.1l4.068.361-4.82,8.082,7.784,1.962,6.544-10.034.64-11.5Z" transform="translate(-205.029 -102.763)"/><path class="bu" d="M208.535,102.763,208.02,115.1l4.069.361-4.821,8.083,7.784,1.963,6.545-10.035.639-11.5Zm12.686,12.584-6.34,9.721-7.024-1.772,4.869-8.163-4.311-.383.483-11.573,12.936,1.141Z" transform="translate(-205.029 -102.763)"/><path class="bv" d="M207.526,119.11l-1.209,1.014,7.784,1.962,1.209-1.014Z" transform="translate(-205.287 -98.332)"/><path class="bw" d="M211.137,113.765l-4.82,8.082,1.209-1.014,4.82-8.082Z" transform="translate(-205.287 -100.056)"/></g><g class="a" transform="translate(233.661 116.22)"><g transform="translate(0 0.964)"><path class="g" d="M193.989,103.1l-.515,12.334,4.068.361-4.82,8.082,7.784,1.963L207.05,115.8l.64-11.5Z" transform="translate(-192.722 -101.999)"/><path class="bl" d="M194.056,103.025l-.515,12.334,4.068.361-4.82,8.082,7.784,1.963,6.544-10.034.64-11.5Z" transform="translate(-192.704 -102.019)"/><path class="bm" d="M194.124,102.953l-.515,12.334,4.068.361-4.82,8.082,7.784,1.962,6.544-10.034.64-11.5Z" transform="translate(-192.685 -102.038)"/><path class="n" d="M194.191,102.881l-.515,12.334,4.068.361-4.82,8.082,7.784,1.962,6.544-10.034.64-11.5Z" transform="translate(-192.667 -102.058)"/><path class="at" d="M194.259,102.809l-.515,12.334,4.068.361-4.82,8.082,7.784,1.962,6.544-10.034.64-11.5Z" transform="translate(-192.649 -102.077)"/><path class="bn" d="M194.326,102.737l-.515,12.334,4.068.361-4.82,8.082,7.784,1.962,6.544-10.034.64-11.5Z" transform="translate(-192.63 -102.097)"/><path class="u" d="M194.394,102.665,193.879,115l4.068.361-4.82,8.082,7.784,1.962,6.544-10.034.64-11.5Z" transform="translate(-192.612 -102.116)"/><path class="bo" d="M194.461,102.593l-.515,12.334,4.068.361-4.82,8.082,7.784,1.962,6.544-10.034.64-11.5Z" transform="translate(-192.594 -102.136)"/><path class="ay" d="M194.529,102.521l-.515,12.334,4.068.361-4.82,8.082,7.784,1.962,6.544-10.034.64-11.5Z" transform="translate(-192.575 -102.155)"/><path class="ab" d="M194.6,102.449l-.515,12.334,4.068.361-4.82,8.082,7.784,1.962,6.544-10.034.64-11.5Z" transform="translate(-192.557 -102.175)"/><path class="bp" d="M194.664,102.377l-.515,12.334,4.068.361-4.82,8.082,7.784,1.962,6.544-10.034.64-11.5Z" transform="translate(-192.539 -102.194)"/><path class="bq" d="M194.732,102.305l-.515,12.334,4.068.361-4.82,8.082,7.784,1.962,6.544-10.034.64-11.5Z" transform="translate(-192.52 -102.214)"/><path class="ai" d="M194.8,102.233l-.515,12.334,4.068.361-4.82,8.082,7.784,1.962,6.544-10.034.64-11.5Z" transform="translate(-192.502 -102.233)"/></g><path class="br" d="M194.639,102.489l-.515,12.334,1.209-1.014.515-12.334Z" transform="translate(-192.342 -101.475)"/><path class="bx" d="M195.333,111.178l-1.209,1.014,4.068.361,1.209-1.014Z" transform="translate(-192.342 -98.844)"/><path class="bt" d="M195.75,101.475l-.515,12.334,4.069.361-4.82,8.082,7.784,1.963,6.544-10.034.64-11.5Z" transform="translate(-192.244 -101.475)"/><path class="by" d="M195.75,101.475l-.515,12.333,4.069.361-4.82,8.083,7.783,1.963,6.545-10.034.639-11.5Zm12.686,12.582-6.34,9.721-7.023-1.771,4.868-8.164-4.31-.383.483-11.572,12.934,1.14Z" transform="translate(-192.244 -101.474)"/><path class="bv" d="M194.742,117.821l-1.209,1.014,7.784,1.962,1.209-1.014Z" transform="translate(-192.502 -97.044)"/><path class="bw" d="M198.353,112.477l-4.82,8.082,1.209-1.014,4.82-8.082Z" transform="translate(-192.502 -98.767)"/></g></g></svg>