<svg xmlns="http://www.w3.org/2000/svg" viewBox="0 0 843.81 250.02"><defs><style>.cls-1{fill:#fff;}.cls-2{fill:#dbdbdb;}.cls-3{fill:#666;opacity:0.03;}.cls-4{fill:#231f20;}</style></defs><g id="Layer_2" data-name="Layer 2"><g id="Layer_1-2" data-name="Layer 1"><path class="cls-1" d="M838.21,220.5a24,24,0,0,1-24,23.95H29.57a24,24,0,0,1-24-23.95v-191a24,24,0,0,1,24-24H814.23a24,24,0,0,1,24,24h0v191Z"/><path class="cls-2" d="M814.23,250H29.57A29.58,29.58,0,0,1,0,220.5V29.55A29.59,29.59,0,0,1,29.57,0H814.23A29.61,29.61,0,0,1,843.8,29.55v191A29.58,29.58,0,0,1,814.23,250Z"/><path class="cls-1" d="M838.21,220.5a24,24,0,0,1-24,23.95H29.57a24,24,0,0,1-24-23.95v-191a24,24,0,0,1,24-24H814.23a24,24,0,0,1,24,24h0v191Z"/><path class="cls-3" d="M814.23,0H394L558.57,250H814.23a29.61,29.61,0,0,0,29.58-29.54V29.55A29.61,29.61,0,0,0,814.23,0Z"/><path class="cls-2" d="M194.43,127.25c-.18-19.7,16.14-29.29,16.89-29.74C202.08,84,187.75,82.2,182.72,82.05c-12-1.26-23.7,7.2-29.83,7.2S137.2,82.18,127,82.38c-13.09.21-25.34,7.78-32,19.55-13.86,24-3.52,59.24,9.75,78.63,6.65,9.5,14.41,20.1,24.57,19.72,9.94-.4,13.65-6.33,25.64-6.33s15.37,6.33,25.73,6.09c10.67-.16,17.39-9.53,23.8-19.12a78.37,78.37,0,0,0,10.88-22.15c-.25-.09-20.71-7.9-20.92-31.52ZM174.86,69.3c5.34-6.68,9-15.78,8-25-7.74.34-17.42,5.35-23,11.88-4.93,5.76-9.33,15.2-8.2,24.08,8.7.65,17.62-4.38,23.2-11Z"/><path class="cls-4" d="M338.39,191.85H324.5L316.89,168H290.44l-7.24,23.9H269.67l26.21-81.37h16.19l26.32,81.37ZM314.6,157.92l-6.88-21.25q-1.1-3.25-4.11-15.33h-.24q-1.22,5.2-3.87,15.33l-6.76,21.25Zm91.06,3.87q0,15-8.14,23.66a23.82,23.82,0,0,1-18.09,7.73q-11.65,0-16.76-8.32v30.79h-13V152.46q0-9.41-.48-19.28h11.47l.73,9.3h.24Q368.12,132,381.39,132a21.76,21.76,0,0,1,17.33,8.2q6.93,8.24,6.94,21.62Zm-13.29.48q0-8.57-3.86-14.13a13.36,13.36,0,0,0-11.35-5.79,13.55,13.55,0,0,0-8.76,3.2,14.85,14.85,0,0,0-5.13,8.39,16.73,16.73,0,0,0-.6,4v9.79a15.73,15.73,0,0,0,3.92,10.81,13,13,0,0,0,10.21,4.41,13.35,13.35,0,0,0,11.46-5.67Q392.37,171.57,392.37,162.27Zm80.79-.48q0,15-8.13,23.66a23.84,23.84,0,0,1-18.1,7.73q-11.65,0-16.76-8.32v30.79h-13V152.46q0-9.41-.48-19.28h11.47l.73,9.3h.24Q435.6,132,448.89,132a21.82,21.82,0,0,1,17.34,8.2q6.91,8.24,6.93,21.62Zm-13.29.48q0-8.57-3.87-14.13a13.33,13.33,0,0,0-11.34-5.79,13.57,13.57,0,0,0-8.76,3.2,14.8,14.8,0,0,0-5.13,8.39,17.32,17.32,0,0,0-.61,4v9.79a15.78,15.78,0,0,0,3.92,10.81,13.07,13.07,0,0,0,10.22,4.41,13.34,13.34,0,0,0,11.46-5.67Q459.87,171.57,459.87,162.27ZM548.64,169q0,10.38-7.24,16.9-7.93,7.13-22.17,7.13-13.14,0-21.07-5.07l3-10.87A36.27,36.27,0,0,0,520,182.2q7.38,0,11.47-3.32a10.87,10.87,0,0,0,4.11-8.87,11.35,11.35,0,0,0-3.38-8.33c-2.26-2.25-6-4.35-11.23-6.28q-21.39-8-21.39-23.31a20.56,20.56,0,0,1,7.55-16.41q7.54-6.41,20-6.41,11.11,0,18.48,3.87l-3.28,10.63A32.24,32.24,0,0,0,526.69,120c-4.59,0-8.2,1.13-10.78,3.38a9.68,9.68,0,0,0-3.28,7.38,10,10,0,0,0,3.75,8q3.25,2.88,11.83,6.27,10.51,4.24,15.46,9.89a20.64,20.64,0,0,1,5,14.12ZM591.86,143H577.49v28.49q0,10.86,7.61,10.86a22.86,22.86,0,0,0,5.79-.61l.36,9.9a29.53,29.53,0,0,1-10.14,1.45q-7.73,0-12.08-4.72t-4.35-15.82V142.94h-8.56v-9.79h8.56V122.41l12.81-3.87v14.61h14.37V143ZM656.59,162q0,13.53-7.73,22.22-8.08,8.94-21.5,8.93-12.93,0-20.59-8.56T599.1,163q0-13.63,7.91-22.33t21.32-8.7q12.92,0,20.76,8.58,7.51,8.31,7.5,21.47Zm-13.52.3a26.27,26.27,0,0,0-3.49-13.84q-4.11-7-11.72-7a13.1,13.1,0,0,0-12,7,26.77,26.77,0,0,0-3.5,14.09,26.26,26.26,0,0,0,3.5,13.85c2.82,4.66,6.75,7,11.85,7s8.89-2.37,11.72-7.1a26.35,26.35,0,0,0,3.6-14ZM699,144.64a23.52,23.52,0,0,0-4.11-.36,12.3,12.3,0,0,0-10.63,5.2A19.61,19.61,0,0,0,681,161.07v30.78H668v-40.2q0-9.22-.38-18.47h11.36l.47,11.23h.36a20.19,20.19,0,0,1,6.52-9.3,15.74,15.74,0,0,1,9.43-3.14,21.45,21.45,0,0,1,3.26.23v12.44Zm58.32,15.1a30.82,30.82,0,0,1-.48,5.91H717.71q.22,8.7,5.68,13.3,5,4.08,12.8,4.09A43.29,43.29,0,0,0,752,180.27l2,9a49,49,0,0,1-19.68,3.62q-13.65,0-21.44-8t-7.79-21.55q0-13.26,7.26-22.09,7.59-9.41,20.52-9.41,12.68,0,19.21,9.41,5.16,7.47,5.17,18.46Zm-12.43-3.38a17.62,17.62,0,0,0-2.54-10c-2.25-3.64-5.73-5.45-10.38-5.45a12.36,12.36,0,0,0-10.38,5.32,19.49,19.49,0,0,0-3.86,10.13l27.16,0Z"/><path class="cls-4" d="M286.68,88.77a83.31,83.31,0,0,1-9.37-.47V49a70.3,70.3,0,0,1,11-.84c14.95,0,21.84,7.36,21.84,19.35C310.19,81.3,302.05,88.77,286.68,88.77Zm2.19-35.6a26.48,26.48,0,0,0-5.16.41V83.49a34.12,34.12,0,0,0,4.33.18c9.8,0,15.38-5.58,15.38-16C303.42,58.34,298.37,53.17,288.87,53.17Zm42.78,35.9c-8.43,0-13.89-6.29-13.89-14.83,0-8.9,5.58-15.25,14.37-15.25,8.3,0,13.89,6,13.89,14.78,0,9-5.76,15.3-14.37,15.3Zm.25-25.4c-4.63,0-7.6,4.33-7.6,10.39s3,10.26,7.53,10.26,7.54-4.63,7.54-10.39-3-10.26-7.47-10.26Zm62.18-4.09-9,28.84h-5.88L375.44,75.9a93.23,93.23,0,0,1-2.31-9.32H373a61.91,61.91,0,0,1-2.31,9.32l-4,12.52h-5.94l-8.49-28.84h6.58l3.27,13.71c.77,3.27,1.42,6.35,2,9.26h.12c.47-2.43,1.24-5.46,2.37-9.2l4.1-13.76h5.22l3.93,13.47c.94,3.26,1.71,6.47,2.31,9.5h.17a83,83,0,0,1,2-9.5l3.51-13.47Zm33.21,28.84h-6.41V71.86c0-5.1-2-7.65-5.81-7.65s-6.41,3.26-6.41,7.06V88.42h-6.41V67.83c0-2.55-.07-5.29-.24-8.25h5.64L408,64h.17a10.38,10.38,0,0,1,9.15-5c6.05,0,10,4.63,10,12.16V88.42Zm17.68,0h-6.42V46.35H445Zm23.37.65c-8.42,0-13.89-6.29-13.89-14.83,0-8.9,5.58-15.25,14.36-15.25,8.31,0,13.89,6,13.89,14.78,0,9-5.76,15.3-14.36,15.3Zm.24-25.4C464,63.67,461,68,461,74.06s3,10.26,7.53,10.26,7.54-4.63,7.54-10.39-3-10.26-7.47-10.26ZM508,88.42l-.46-3.32h-.17a9.86,9.86,0,0,1-8.44,4c-5.17,0-8.84-3.62-8.84-8.48,0-7.12,6.18-10.8,16.86-10.8v-.53c0-3.8-2-5.7-6-5.7a13.44,13.44,0,0,0-7.53,2.14l-1.31-4.22A18.5,18.5,0,0,1,502,59c7.53,0,11.34,4,11.34,11.93V81.54a44.68,44.68,0,0,0,.41,6.89Zm-.88-14.36c-7.12,0-10.69,1.72-10.69,5.81,0,3,1.84,4.51,4.4,4.51a6.14,6.14,0,0,0,6.29-5.87Zm37.37,14.36-.3-4.63H544c-1.85,3.5-4.94,5.28-9.26,5.28-7,0-12.11-6.11-12.11-14.71,0-9,5.34-15.38,12.63-15.38,3.86,0,6.59,1.31,8.14,3.92h.12V46.35h6.42v34.3c0,2.79.07,5.4.24,7.77Zm-1-17c0-4-2.67-7.48-6.75-7.48-4.75,0-7.66,4.22-7.66,10.15s3,9.79,7.53,9.79c4,0,6.88-3.5,6.88-7.65V71.45Zm47.1,17.62c-8.42,0-13.88-6.29-13.88-14.83,0-8.9,5.57-15.25,14.36-15.25C599.4,59,605,65,605,73.77c0,9-5.75,15.3-14.37,15.3Zm.24-25.4c-4.62,0-7.59,4.33-7.59,10.39s3,10.26,7.53,10.26,7.53-4.63,7.53-10.39-3-10.26-7.47-10.26Zm48.6,24.75H633V71.86c0-5.1-1.95-7.65-5.81-7.65s-6.41,3.26-6.41,7.06V88.42H614.4V67.83c0-2.55-.06-5.29-.24-8.25h5.64l.3,4.45h.17A10.38,10.38,0,0,1,629.41,59c6.06,0,10,4.63,10,12.17Zm43.13-24h-7.06v14q0,5.35,3.73,5.35a13.1,13.1,0,0,0,2.85-.3l.18,4.86a14.19,14.19,0,0,1-5,.72c-5,0-8.07-2.79-8.07-10.09V64.39H665V59.58h4.21V54.3l6.29-1.9v7.18h7.06v4.81Zm33.93,24h-6.4V72c0-5.16-2-7.77-5.82-7.77-3.32,0-6.42,2.26-6.42,6.83V88.42h-6.4V46.35h6.4V63.67H698A9.73,9.73,0,0,1,706.67,59c6.11,0,9.84,4.75,9.84,12.29V88.42Zm34.76-12.88H732c.12,5.46,3.74,8.54,9.09,8.54a21.58,21.58,0,0,0,7.77-1.36l1,4.45A24,24,0,0,1,740.22,89c-9,0-14.36-5.7-14.36-14.53s5.47-15.49,13.64-15.49c7.37,0,12,5.46,12,13.71a11.75,11.75,0,0,1-.22,2.9ZM745.4,71c0-4.45-2.25-7.59-6.35-7.59-3.68,0-6.59,3.2-7,7.59Z"/></g></g></svg>