<svg xmlns="http://www.w3.org/2000/svg" xmlns:xlink="http://www.w3.org/1999/xlink" viewBox="0 0 843.81 250.02"><defs><style>.cls-1{fill:#fff;}.cls-2{fill:#dbdbdb;}.cls-3{fill:#666;opacity:0.03;}.cls-4{fill:#231f20;}.cls-5{fill:url(#linear-gradient);}.cls-6{fill:url(#linear-gradient-2);}.cls-7{fill:url(#linear-gradient-3);}.cls-8{fill:url(#linear-gradient-4);}</style><linearGradient id="linear-gradient" x1="128.09" y1="50.29" x2="128.09" y2="202.38" gradientUnits="userSpaceOnUse"><stop offset="0" stop-color="#267caf"/><stop offset="0.29" stop-color="#4a92b4"/><stop offset="0.77" stop-color="#79bcba"/><stop offset="1" stop-color="#88cebc"/></linearGradient><linearGradient id="linear-gradient-2" x1="206.75" y1="108.77" x2="188.2" y2="150.72" gradientUnits="userSpaceOnUse"><stop offset="0" stop-color="#f48879"/><stop offset="0.12" stop-color="#f5907a"/><stop offset="0.71" stop-color="#fbb777"/><stop offset="1" stop-color="#fdc874"/></linearGradient><linearGradient id="linear-gradient-3" x1="179.17" y1="140.67" x2="95.71" y2="208.16" gradientUnits="userSpaceOnUse"><stop offset="0" stop-color="#eb413d"/><stop offset="0.17" stop-color="#d94452"/><stop offset="0.57" stop-color="#af487a"/><stop offset="0.86" stop-color="#954b92"/><stop offset="1" stop-color="#894a9c"/></linearGradient><linearGradient id="linear-gradient-4" x1="101.63" y1="54.42" x2="181.46" y2="115.38" gradientUnits="userSpaceOnUse"><stop offset="0" stop-color="#54c0ac"/><stop offset="1" stop-color="#dde79a"/></linearGradient></defs><g id="Layer_2" data-name="Layer 2"><g id="Layer_1-2" data-name="Layer 1"><path class="cls-1" d="M838.21,220.5a24,24,0,0,1-24,23.95H29.57a24,24,0,0,1-24-23.95v-191a24,24,0,0,1,24-24H814.23a24,24,0,0,1,24,24h0v191Z"/><path class="cls-2" d="M814.23,250H29.57A29.58,29.58,0,0,1,0,220.5V29.55A29.59,29.59,0,0,1,29.57,0H814.23A29.61,29.61,0,0,1,843.8,29.55v191A29.58,29.58,0,0,1,814.23,250Z"/><path class="cls-1" d="M838.21,220.5a24,24,0,0,1-24,23.95H29.57a24,24,0,0,1-24-23.95v-191a24,24,0,0,1,24-24H814.23a24,24,0,0,1,24,24h0v191Z"/><path class="cls-3" d="M814.23,0H394L558.57,250H814.23a29.61,29.61,0,0,0,29.58-29.54V29.55A29.61,29.61,0,0,0,814.23,0Z"/><path class="cls-4" d="M298.16,75.58c0,4.89-1.22,9.17-4.28,12.22a18.95,18.95,0,0,1-32.39-13.44,18.78,18.78,0,0,1,18.95-19,16.17,16.17,0,0,1,7.33,1.84c2.44,1.22,4.28,2.44,5.5,4.27l-3.06,3.06c-2.44-3.06-5.5-4.28-9.77-4.28a12.14,12.14,0,0,0-9.78,4.28C267.6,67,266.38,70.69,266.38,75s1.22,7.94,4.28,10.39,6.11,4.28,9.78,4.28a13.44,13.44,0,0,0,10.39-4.28A10.13,10.13,0,0,0,293.88,78H280.44V73.14h17.72v2.44ZM326.27,60.3h-16.5V71.91h15.28v4.28H309.77V87.8h16.5v4.89H304.88V56h21.39Zm20.17,32.39h-4.89V60.3H331.16V56h25.67V60.3H346.44Zm28.11,0V56h4.89V92.69Zm25.67,0h-4.89V60.3H384.94V56H410V60.3H399.61V92.69Zm58.06-4.89a18.95,18.95,0,0,1-32.39-13.44,18.95,18.95,0,1,1,37.89,0A17.94,17.94,0,0,1,458.28,87.8Zm-23.22-3A14.43,14.43,0,0,0,444.83,89a12.17,12.17,0,0,0,9.78-4.28,14.73,14.73,0,0,0,4.28-10.39c0-4.28-1.22-8-4.28-10.39a14.39,14.39,0,0,0-9.78-4.28A12.14,12.14,0,0,0,435.06,64a14.71,14.71,0,0,0-4.28,10.39C430.78,78.64,432,82.3,435.06,84.75Zm35.44,7.94V56H476l17.72,28.73V56h4.89V92.69h-4.89L474.78,62.75V92.69Z"/><path class="cls-4" d="M424.67,138.52c-14.67,0-26.28,11-26.28,26.28a26.08,26.08,0,0,0,26.28,26.28c14.66,0,26.28-11,26.28-26.28C451,148.91,439.33,138.52,424.67,138.52Zm0,41.56c-7.95,0-14.67-6.72-14.67-15.89s6.72-15.89,14.67-15.89,14.66,6.11,14.66,15.89C439.33,173.36,432.61,180.08,424.67,180.08Zm-56.84-41.56c-14.67,0-26.28,11-26.28,26.28a26.08,26.08,0,0,0,26.28,26.28c14.67,0,26.28-11,26.28-26.28C394.11,148.91,382.5,138.52,367.83,138.52Zm0,41.56c-7.95,0-14.67-6.72-14.67-15.89s6.72-15.89,14.67-15.89,14.67,6.11,14.67,15.89C382.5,173.36,375.77,180.08,367.83,180.08ZM300,146.47v11h26.28a23.1,23.1,0,0,1-6.11,14.06c-3.67,3.66-9.78,7.94-20.17,7.94-16.5,0-28.72-12.83-28.72-29.33S284.1,120.8,300,120.8a30.3,30.3,0,0,1,20.17,8l7.95-8c-6.73-6.11-15.28-11-27.51-11-22,0-40.94,18.33-40.94,40.34s18.94,40.33,40.94,40.33c12.23,0,20.78-3.67,28.12-11.61,7.33-7.33,9.77-17.72,9.77-25.67a22.94,22.94,0,0,0-.61-6.72ZM577.45,155c-2.44-6.11-8.55-16.5-22-16.5S531,148.91,531,164.8c0,14.67,11,26.28,25.67,26.28a25.06,25.06,0,0,0,21.39-11.61l-8.55-6.11c-3.06,4.28-6.73,7.33-12.84,7.33s-9.78-2.44-12.83-7.94l34.83-14.67L577.45,155ZM542,163.58c0-9.78,7.94-15.28,13.44-15.28,4.28,0,8.56,2.45,9.78,5.5L542,163.58Zm-28.73,25.06h11.61v-76.4H513.28ZM495,144a20.17,20.17,0,0,0-14.06-6.11c-12.83,0-25.06,11.61-25.06,26.28a25.31,25.31,0,0,0,25.06,25.67,17.59,17.59,0,0,0,13.45-6.11H495v3.66c0,9.78-5.5,15.28-14.06,15.28a13.58,13.58,0,0,1-12.83-9.16l-9.78,4.27c3.05,6.73,10.39,15.28,23.22,15.28,13.45,0,24.45-7.94,24.45-26.89V139.75H495V144ZM481.5,180.08c-7.94,0-14.67-6.72-14.67-15.89s6.73-15.89,14.67-15.89,14.06,6.72,14.06,15.89S489.45,180.08,481.5,180.08Zm149.12-67.84h-27.5v76.4h11.61V159.91h15.89c12.83,0,25.06-9.16,25.06-23.83S643.45,112.24,630.62,112.24Zm.61,36.67h-16.5V122.63h16.5a13.43,13.43,0,0,1,13.45,12.84c-.61,6.72-5.5,13.44-13.45,13.44Zm70.28-11c-8.55,0-17.11,3.67-20.16,11.61l10.38,4.28c2.45-4.28,6.12-5.5,10.39-5.5,6.12,0,11.62,3.67,12.23,9.78v.61a24.32,24.32,0,0,0-11.61-3.05c-11,0-22,6.11-22,17.11,0,10.39,9.17,17.11,18.95,17.11,7.94,0,11.61-3.67,14.67-7.33H715v6.11h11V159.3c-1.22-13.44-11.61-21.39-24.45-21.39Zm-1.22,42.17c-3.67,0-9.17-1.83-9.17-6.72,0-6.11,6.73-8,12.23-8,4.89,0,7.33,1.23,10.39,2.45C712.51,175.19,706.4,180.08,700.29,180.08Zm64.17-40.33-12.83,33H751l-13.45-33H725.35l20.17,46.44L733.9,211.86h11.62l31.16-72.11ZM661.79,188.64H673.4v-76.4H661.79Z"/><path class="cls-5" d="M90.81,50.73c-1.83,1.84-2.44,4.89-2.44,8.56V194.35a12.12,12.12,0,0,0,3,8.56l.62.61,75.78-75.78v-1.22Z"/><path class="cls-6" d="M192.26,153.41l-25-25.06v-1.83l25-25.06.61.61,29.95,17.11c8.56,4.89,8.56,12.84,0,17.72Z"/><path class="cls-7" d="M192.87,152.79l-25.66-25.66-76.4,76.39c3.06,3.06,7.34,3.06,12.84.61l89.22-51.34"/><path class="cls-8" d="M192.87,101.46,103.65,50.73c-5.5-3-9.78-2.44-12.84.62l76.4,75.78,25.66-25.67Z"/></g></g></svg>