<svg xmlns="http://www.w3.org/2000/svg" viewBox="0 0 843.81 250.02"><defs><style>.cls-1{fill:#fff;}.cls-2{fill:#dbdbdb;}.cls-3{fill:#666;opacity:0.03;}.cls-4{fill:#231f20;}.cls-5{fill:#f25022;}.cls-6{fill:#7fba00;}.cls-7{fill:#00a4ef;}.cls-8{fill:#ffb900;}</style></defs><g id="Layer_2" data-name="Layer 2"><g id="Layer_1-2" data-name="Layer 1"><path class="cls-1" d="M838.21,220.5a24,24,0,0,1-24,23.95H29.57a24,24,0,0,1-24-23.95v-191a24,24,0,0,1,24-24H814.23a24,24,0,0,1,24,24h0v191Z"/><path class="cls-2" d="M814.23,250H29.57A29.58,29.58,0,0,1,0,220.5V29.55A29.59,29.59,0,0,1,29.57,0H814.23A29.61,29.61,0,0,1,843.8,29.55v191A29.58,29.58,0,0,1,814.23,250Z"/><path class="cls-1" d="M838.21,220.5a24,24,0,0,1-24,23.95H29.57a24,24,0,0,1-24-23.95v-191a24,24,0,0,1,24-24H814.23a24,24,0,0,1,24,24h0v191Z"/><path class="cls-3" d="M814.23,0H394L558.57,250H814.23a29.61,29.61,0,0,0,29.58-29.54V29.55A29.61,29.61,0,0,0,814.23,0Z"/><path class="cls-4" d="M247.39,78.2l-4.61,13.94h-5.92L251.92,47.8h6.91L274,92.14h-6.12L263.11,78.2Zm14.53-4.48L257.58,61c-1-2.9-1.64-5.52-2.3-8.09h-.13c-.66,2.63-1.38,5.33-2.24,8l-4.34,12.82Z"/><path class="cls-4" d="M281.14,60.3l6.25,17.9A80.23,80.23,0,0,1,290,86.35h.2c.72-2.63,1.64-5.26,2.69-8.15L299,60.3h6l-12.5,31.84h-5.53L275,60.3Z"/><path class="cls-4" d="M327.92,92.14l-.46-4h-.19a11.87,11.87,0,0,1-9.74,4.74c-6.45,0-9.73-4.54-9.73-9.15,0-7.69,6.84-11.9,19.14-11.84v-.66c0-2.63-.73-7.36-7.24-7.36a15.85,15.85,0,0,0-8.29,2.36l-1.31-3.81a19.74,19.74,0,0,1,10.46-2.83c9.73,0,12.1,6.64,12.1,13V84.51a44.27,44.27,0,0,0,.53,7.63Zm-.85-16.25c-6.32-.13-13.49,1-13.49,7.17A5.13,5.13,0,0,0,319,88.59a7.92,7.92,0,0,0,7.7-5.33,6,6,0,0,0,.33-1.84Z"/><path class="cls-4" d="M348.46,51.36a3.59,3.59,0,0,1-7.17,0,3.52,3.52,0,0,1,3.61-3.62A3.44,3.44,0,0,1,348.46,51.36ZM342,92.14V60.3h5.79V92.14Z"/><path class="cls-4" d="M357.41,45.43h5.79V92.14h-5.79Z"/><path class="cls-4" d="M390.57,92.14l-.47-4h-.19a11.87,11.87,0,0,1-9.74,4.74c-6.44,0-9.73-4.54-9.73-9.15,0-7.69,6.84-11.9,19.14-11.84v-.66c0-2.63-.72-7.36-7.24-7.36a15.85,15.85,0,0,0-8.29,2.36l-1.31-3.81a19.77,19.77,0,0,1,10.46-2.83c9.73,0,12.1,6.64,12.1,13V84.51a44.27,44.27,0,0,0,.53,7.63Zm-.86-16.25c-6.31-.13-13.49,1-13.49,7.17a5.13,5.13,0,0,0,5.46,5.53,7.92,7.92,0,0,0,7.7-5.33,6,6,0,0,0,.33-1.84Z"/><path class="cls-4" d="M404.39,92.14c.13-2.17.26-5.39.26-8.22V45.43h5.72v20h.14c2-3.55,5.72-5.85,10.85-5.85,7.9,0,13.48,6.58,13.42,16.25,0,11.38-7.17,17-14.28,17-4.6,0-8.28-1.78-10.65-6h-.2l-.26,5.26Zm6-12.76a11.07,11.07,0,0,0,.27,2.11,8.93,8.93,0,0,0,8.68,6.77c6.05,0,9.67-4.94,9.67-12.23,0-6.39-3.29-11.85-9.47-11.85a9.24,9.24,0,0,0-8.82,7.11,11.45,11.45,0,0,0-.33,2.36Z"/><path class="cls-4" d="M442.09,45.43h5.79V92.14h-5.79Z"/><path class="cls-4" d="M460.84,77.27C461,85.1,466,88.33,471.76,88.33a20.94,20.94,0,0,0,8.82-1.65l1,4.15a26,26,0,0,1-10.59,2c-9.8,0-15.65-6.45-15.65-16S461,59.58,470.25,59.58c10.39,0,13.16,9.14,13.16,15a22.82,22.82,0,0,1-.2,2.69Zm17-4.14c.07-3.69-1.51-9.41-8-9.41-5.86,0-8.42,5.4-8.88,9.41Z"/><path class="cls-4" d="M533.35,76c0,11.77-8.16,16.91-15.86,16.91-8.61,0-15.26-6.32-15.26-16.38,0-10.66,7-16.91,15.79-16.91C527.16,59.58,533.35,66.22,533.35,76Zm-25.26.33c0,7,4,12.23,9.67,12.23s9.67-5.2,9.67-12.37c0-5.39-2.7-12.23-9.54-12.23S508.09,70.24,508.09,76.29Z"/><path class="cls-4" d="M540.66,68.92c0-3.29-.07-6-.26-8.62h5.13l.33,5.27H546a11.7,11.7,0,0,1,10.52-6c4.41,0,11.25,2.63,11.25,13.55v19H562V73.79c0-5.13-1.9-9.41-7.36-9.41a8.24,8.24,0,0,0-7.77,5.92,8.45,8.45,0,0,0-.39,2.7V92.14h-5.79Z"/><path class="cls-4" d="M367.28,143.6q-9.46,0-14.48,8.7h-.18v-7.62H342.46v45.9h10.16V164.4a13.51,13.51,0,0,1,3-9c2-2.37,4.5-4.3,7.58-4.3,5.91,0,10.53,2.43,10.35,13.61v25.86h8.69V162.52q0-9.2-3.84-14.06T367.28,143.6Zm97.12,0q-11.2,0-17.82,6.5T440,168.17q0,10.62,6.34,17.05t17,6.44q10.94,0,17.42-6.61t6.47-17.6q0-11.2-6-17.53T464.4,143.6Zm8.81,35.73q-3.29,4.08-9.44,4.08a12,12,0,0,1-9.59-4.15q-3.58-4.14-3.58-11.36c0-5,1.17-8.91,3.54-11.75a11.86,11.86,0,0,1,9.63-4.26q6.15,0,9.44,4.13t3.3,11.7Q476.51,175.25,473.21,179.33Zm-49.47-30.08h-.18c-2.8-5-7.3-5.65-13.49-5.65a18.42,18.42,0,0,0-15,6.86q-5.62,6.85-5.63,18.24,0,10.63,5.09,16.79a16.69,16.69,0,0,0,13.56,6.17c7,0,12.12-1.8,15.46-7.72h.18v6.64h10.4v-68h-10.4Zm.14,20.43a15.34,15.34,0,0,1-3.45,10.26,11.21,11.21,0,0,1-9,4.07,10.83,10.83,0,0,1-9-4.21q-3.33-4.22-3.33-11.47,0-8,3.47-12.52a11.35,11.35,0,0,1,9.52-4.51,11,11,0,0,1,8.42,3.53,12.13,12.13,0,0,1,3.31,8.61Zm112.47,8.22a20.64,20.64,0,0,0-.67,3.94h-.31a23.11,23.11,0,0,0-.58-3.94l-8.19-33.22h-9.7l-9.21,33a22.05,22.05,0,0,0-.71,4h-.31a19.56,19.56,0,0,0-.54-4l-8.27-33.08H487.18l13.39,45.9h10.59l9-31.2a18.21,18.21,0,0,0,.8-3.94h.18a20.31,20.31,0,0,0,.62,4L530,190.58h10.82l13.44-45.9h-9.84ZM323.06,190.58h10.4v-45.9h-10.4Zm-25.47-17a36.74,36.74,0,0,0-1,5.91h-.18a37,37,0,0,0-.92-5.73l-12-47.43H272.65l-13,47.07a35.45,35.45,0,0,0-1.24,6.19h-.22a35,35,0,0,0-.88-6.19L245.85,126.3H234.32L252,190.58h12.14l12.1-45.05a31,31,0,0,0,1.06-6.19h.18a30.7,30.7,0,0,0,.92,6.28l12.06,45h11.87l17.35-64.28H308.85Zm284.72-4.28a16.71,16.71,0,0,0-3.7-2.85,49.67,49.67,0,0,0-4.89-2.46c-1.38-.51-2.6-1-3.66-1.42a14.05,14.05,0,0,1-2.72-1.43,5.48,5.48,0,0,1-1.72-1.82,5.09,5.09,0,0,1-.57-2.51,4.42,4.42,0,0,1,.57-2.22,5.23,5.23,0,0,1,1.62-1.72,7.82,7.82,0,0,1,2.49-1.12,12.34,12.34,0,0,1,3.29-.41,16.74,16.74,0,0,1,10.24,3.32v-9.1a27,27,0,0,0-10.49-1.93,23.28,23.28,0,0,0-6.41.88,17.94,17.94,0,0,0-5.53,2.6,13.05,13.05,0,0,0-3.88,4.25,11.54,11.54,0,0,0-1.45,5.85,14,14,0,0,0,.71,4.71,10.78,10.78,0,0,0,2.08,3.61,14.42,14.42,0,0,0,3.47,2.85,38.87,38.87,0,0,0,4.69,2.37c1.27.52,2.54,1,3.82,1.53a14.72,14.72,0,0,1,3,1.52,7.3,7.3,0,0,1,2,1.95,4.61,4.61,0,0,1,.75,2.67q0,5.55-8.67,5.56a18.18,18.18,0,0,1-11.86-4.44v9.64a26.9,26.9,0,0,0,12,2.51,27.62,27.62,0,0,0,6.84-.83A17.82,17.82,0,0,0,580,188.3a13,13,0,0,0,4-4.31,12.05,12.05,0,0,0,1.49-6.09,13.45,13.45,0,0,0-.83-5A11.14,11.14,0,0,0,582.31,169.27ZM328.56,123.84a5.78,5.78,0,1,0,6.26,5.76A6,6,0,0,0,328.56,123.84Zm422.9,20.39a12.27,12.27,0,0,0-7.33,2.44,15.6,15.6,0,0,0-5.06,7.23h-.29l-.37-8.73h-8.82q.3,7.17.29,14.36v31.24H740V166.84a15.21,15.21,0,0,1,2.52-9,9.57,9.57,0,0,1,8.27-4,17,17,0,0,1,3.19.28h0v-9.67A16.17,16.17,0,0,0,751.46,144.23ZM665.41,133.8l-9.95,3v8.35H648.8v7.6h6.66v23q0,8.64,3.38,12.29c2.26,2.44,5.38,3.66,9.39,3.66a22.91,22.91,0,0,0,7.88-1.12l-.28-7.69a17.77,17.77,0,0,1-4.51.47q-5.91,0-5.91-8.44V152.77h11.17v-7.62H665.41Zm37,10.44q-10.41,0-16.57,6.76t-6.15,17.35q0,10.13,6,16.8t16,6.65q10.41,0,16.7-6.94,6-6.75,6-17.27,0-10.23-5.82-16.69Q712.46,144.24,702.42,144.24Zm8.66,34.45c-2.2,3.67-5.24,5.52-9.11,5.52s-7-1.81-9.21-5.43A20.41,20.41,0,0,1,690,168a20.77,20.77,0,0,1,2.72-10.94,10.16,10.16,0,0,1,9.29-5.44,10,10,0,0,1,9.11,5.44,22.55,22.55,0,0,1-.08,21.62Zm85.74-12.88q0-8.53-4-14.34-5.07-7.32-14.93-7.32-10,0-16,7.32-5.64,6.84-5.63,17.16,0,10.5,6.05,16.75T779,191.61a38,38,0,0,0,15.29-2.81l-1.59-7a33.61,33.61,0,0,1-12.3,2.15,15.06,15.06,0,0,1-9.94-3.18c-2.82-2.38-4.3-5.83-4.41-10.34h30.4A23.51,23.51,0,0,0,796.82,165.81Zm-30.77-2.64a15.22,15.22,0,0,1,3-7.88,9.64,9.64,0,0,1,8.07-4.13,8.85,8.85,0,0,1,8.07,4.23,13.75,13.75,0,0,1,2,7.79Zm-133.93-8.8q-6.66-2.62-9.2-4.87a7.75,7.75,0,0,1-2.91-6.2,7.52,7.52,0,0,1,2.54-5.73q3-2.62,8.39-2.62a25.08,25.08,0,0,1,12.15,2.9l2.54-8.26c-3.8-2-8.6-3-14.36-3q-9.66,0-15.53,5a16,16,0,0,0-5.86,12.76q0,11.91,16.61,18.11c4.08,1.5,7,3.13,8.73,4.88a8.82,8.82,0,0,1,2.63,6.47,8.41,8.41,0,0,1-3.2,6.89q-3.18,2.58-8.91,2.58a28.25,28.25,0,0,1-14.64-3.94l-2.34,8.44q6.16,3.94,16.38,3.94,11.05,0,17.23-5.53A16.9,16.9,0,0,0,648,173a16,16,0,0,0-3.86-11C641.57,159.12,637.56,156.57,632.12,154.37Z"/><polygon class="cls-5" points="76.41 109.19 76.41 134.16 104.04 134.16 104.04 105.47 76.41 109.19"/><polygon class="cls-6" points="104.07 108.93 104.07 133.9 139.74 133.9 139.74 105.21 104.07 108.93"/><polygon class="cls-7" points="76.41 135.48 76.41 167.77 104.04 167.77 104.04 134.16 76.41 135.48"/><polygon class="cls-8" points="104.07 135.14 104.07 167.43 139.74 167.43 137.36 134.16 104.07 135.14"/><path id="path205" class="cls-2" d="M117.53,58.54c-6.62,2.32-11.45,4.29-11.45,16.82v6.08l3.93-.72V75.53c-.18-8.58,2.15-10.37,7.88-12.88A13.94,13.94,0,0,0,117.53,58.54Z"/><path id="path207" class="cls-2" d="M129,55.85a26,26,0,0,1,.54,3.94c10.38-1.43,10.2,2.86,10.2,11.63v3.22l3.93-.72v-2.5c0-13.78-2.14-17.54-14.67-15.57Z"/><path id="path209" class="cls-2" d="M88.36,85V66.77c-.18-11.28,5.73-14.68,16.46-17.18C120.93,45.83,122,56.21,122,62.83V78.22l3.94-.72V63.19c0-12.53-3.94-22-22-17.9-9.66,2.15-19.5,4.66-19.5,21.12V85.73L88.36,85Z"/><path id="path211" class="cls-2" d="M163.52,74.82,54.72,96.65v79.09l108.8,21.83,21.65-7.87V82.87l-21.65-8.05Zm-61.2,84.46-24.16-3.4v-20h24.16v23.44Zm0-26.48H78.16V114.36l24.16-3.4Zm33.46,31.13-30.42-4.47V135.84h30.42Zm0-31.13H105.36v-22l30.42-4.48Z"/></g></g></svg>