<svg xmlns="http://www.w3.org/2000/svg" width="159.158" height="54" viewBox="0 0 159.158 54"><defs><style>.a{fill:#fff;}.a,.f{fill-rule:evenodd;}.b{fill:#f35022;}.c{fill:#03a5f0;}.d{fill:#ffb903;}.e{fill:#80bb03;}.f{fill:#231f20;}</style></defs><g transform="translate(0)"><path class="a" d="M6.821,0A6.821,6.821,0,0,0,0,6.821V47.179A6.821,6.821,0,0,0,6.821,54H152.337a6.821,6.821,0,0,0,6.821-6.821V6.821A6.821,6.821,0,0,0,152.337,0Z"/><path class="b" d="M16.971,38.176v8.489h10.07V36.778Z" transform="translate(-7.324 -15.872)"/><path class="c" d="M16.971,55.87H27.007v9.837L16.971,64.259Z" transform="translate(-7.324 -24.112)"/><path class="d" d="M36.766,56.075v9.8l13.449,1.964V56.075Z" transform="translate(-15.867 -24.201)"/><path class="e" d="M36.766,34.964V44.9L50.2,44.8V33Z" transform="translate(-15.867 -14.242)"/><path d="M91.583,41.912l-4.428,16.64H85.034L81.8,47.645l-.373-1.352q-.186-.676-.3-1.189-.117-.536-.163-.746a11.545,11.545,0,0,1-.256,1.305q-.21.979-.536,2.051L77.017,58.552H74.9l-4.4-16.64h2.191L75.27,52.073q.28,1.072.466,2.074.21,1,.326,1.888.116-.909.35-1.981t.536-2.1l2.936-10.045h2.167L85.1,52.027q.326,1.072.559,2.144.233,1.049.35,1.864.116-.862.326-1.864.21-1.025.489-2.121l2.564-10.138Zm3.325-.536a1.157,1.157,0,0,1,.816.326,1.19,1.19,0,0,1,.373.979,1.232,1.232,0,0,1-.373.979,1.157,1.157,0,0,1-.816.326,1.216,1.216,0,0,1-.862-.326,1.276,1.276,0,0,1-.35-.979,1.231,1.231,0,0,1,.35-.979A1.216,1.216,0,0,1,94.909,41.376Zm1,4.684V58.552H93.86V46.06Zm9.97-.233a4.7,4.7,0,0,1,3.379,1.1,4.613,4.613,0,0,1,1.142,3.5v8.134h-2.028V50.558q0-3.006-2.8-3.006a3.221,3.221,0,0,0-2.867,1.165,5.953,5.953,0,0,0-.792,3.356v6.479H99.868V46.06h1.655l.3,1.7h.117a3.628,3.628,0,0,1,1.678-1.445A5.382,5.382,0,0,1,105.881,45.827ZM118.7,58.785a4.7,4.7,0,0,1-3.729-1.608,7.277,7.277,0,0,1-1.4-4.847,7.277,7.277,0,0,1,1.4-4.847,4.7,4.7,0,0,1,3.752-1.655,4.59,4.59,0,0,1,2.354.536,4.979,4.979,0,0,1,1.515,1.305h.14q-.023-.3-.093-.886-.046-.606-.047-.956V40.84h2.051V58.552h-1.655l-.3-1.678h-.093a4.833,4.833,0,0,1-1.492,1.352A4.613,4.613,0,0,1,118.7,58.785Zm.326-1.7a3.232,3.232,0,0,0,2.773-1.072,5.476,5.476,0,0,0,.816-3.286v-.373a6.792,6.792,0,0,0-.769-3.566,3.059,3.059,0,0,0-2.843-1.258,2.76,2.76,0,0,0-2.494,1.328,6.6,6.6,0,0,0-.816,3.519,6.275,6.275,0,0,0,.816,3.472A2.84,2.84,0,0,0,119.029,57.084Zm20.444-4.8a6.78,6.78,0,0,1-1.585,4.8,5.474,5.474,0,0,1-4.242,1.7,5.857,5.857,0,0,1-2.96-.746,5.389,5.389,0,0,1-2.028-2.214,7.744,7.744,0,0,1-.746-3.542,6.753,6.753,0,0,1,1.561-4.778,5.511,5.511,0,0,1,4.242-1.678,5.687,5.687,0,0,1,2.983.769,5.052,5.052,0,0,1,2.028,2.191A7.461,7.461,0,0,1,139.473,52.283Zm-9.439,0A6.3,6.3,0,0,0,130.9,55.8a3.666,3.666,0,0,0,5.57,0,6.182,6.182,0,0,0,.886-3.519,5.953,5.953,0,0,0-.886-3.472,3.182,3.182,0,0,0-2.8-1.258A3.12,3.12,0,0,0,130.9,48.81,6.07,6.07,0,0,0,130.035,52.283Zm20.3-.792q-.3-.956-.536-1.864-.21-.932-.326-1.445h-.093q-.093.513-.3,1.445-.21.909-.536,1.888L146.3,58.529H143.97l-3.426-12.492h2.121l1.725,6.665q.257,1,.489,2.028t.326,1.7h.093q.094-.4.21-.979.14-.583.3-1.212.164-.653.326-1.165l2.214-7.038h2.237l2.144,7.038q.257.792.489,1.725a12.75,12.75,0,0,1,.35,1.608h.093q.07-.583.3-1.608.257-1.025.536-2.1l1.748-6.665h2.1l-3.472,12.492h-2.4ZM168.723,55.1a3.126,3.126,0,0,1-1.352,2.75,6.3,6.3,0,0,1-3.636.932,10.658,10.658,0,0,1-2.261-.21,6.892,6.892,0,0,1-1.655-.583V56.128a12.039,12.039,0,0,0,1.795.7,7.933,7.933,0,0,0,2.167.3,4.032,4.032,0,0,0,2.261-.489,1.6,1.6,0,0,0,.7-1.352,1.449,1.449,0,0,0-.256-.839,2.707,2.707,0,0,0-.932-.746,13.889,13.889,0,0,0-1.888-.839,17.927,17.927,0,0,1-2.074-.932,3.824,3.824,0,0,1-1.328-1.119,2.818,2.818,0,0,1-.466-1.678,2.777,2.777,0,0,1,1.282-2.447,6.07,6.07,0,0,1,3.4-.862,9.147,9.147,0,0,1,2.121.233,8.747,8.747,0,0,1,1.864.606l-.7,1.631a13.819,13.819,0,0,0-1.655-.559,6.761,6.761,0,0,0-1.771-.233,3.686,3.686,0,0,0-1.934.419,1.224,1.224,0,0,0-.653,1.1,1.359,1.359,0,0,0,.3.886,3.262,3.262,0,0,0,1,.7q.722.326,1.911.792a14.972,14.972,0,0,1,2.028.909,3.556,3.556,0,0,1,1.282,1.142A2.886,2.886,0,0,1,168.723,55.1Z" transform="translate(-28.423 -16.626)"/><path class="f" d="M74.342,15.243A3.779,3.779,0,0,0,70.4,19.131a3.794,3.794,0,0,0,3.945,3.9,4.06,4.06,0,0,0,3.088-1.375V18.849H73.868V20.01h2.254v1.161a2.7,2.7,0,0,1-1.781.676,2.582,2.582,0,0,1-2.592-2.716,2.569,2.569,0,0,1,2.592-2.716,2.425,2.425,0,0,1,1.95,1l1.071-.62A3.518,3.518,0,0,0,74.342,15.243Zm4.719.124v7.517h5.15V21.723H80.378v-2.1h3.753V18.466H80.378V16.528H84.21V15.367Zm8.8,7.517V16.528H85.583V15.367h5.871v1.162H89.178v6.356Zm9.5-7.517H96.036v7.517h1.318Zm3.673,7.517V16.528H98.75V15.367h5.871v1.162h-2.276v6.356Zm11.694-7.641a3.729,3.729,0,0,0-3.843,3.888,3.843,3.843,0,1,0,7.686,0A3.736,3.736,0,0,0,112.721,15.243Zm2.49,3.888a2.5,2.5,0,1,0-4.981,0,2.5,2.5,0,1,0,4.981,0Zm4.21-1.623,3.922,5.376h1.274V15.367H123.3v5.207l-3.843-5.207H118.1v7.517h1.318Z" transform="translate(-28.382 -5.578)"/></g></svg>