<svg xmlns="http://www.w3.org/2000/svg" xmlns:xlink="http://www.w3.org/1999/xlink" width="123.914" height="111.799" viewBox="0 0 123.914 111.799"><defs><style>.a{fill:none;}.b,.e,.f,.gv,.ij,.in{isolation:isolate;}.c{fill:url(#a);}.d{fill:url(#b);}.e,.gv,.ij,.in{mix-blend-mode:overlay;}.e{fill:url(#c);}.f{opacity:0.8;mix-blend-mode:multiply;}.g{fill:#d7c8ff;}.g,.gy{opacity:0;}.h{fill:#d6c7fe;opacity:0.006;}.i{fill:#d5c6fe;opacity:0.013;}.j{fill:#d4c6fd;opacity:0.019;}.k{fill:#d3c5fc;opacity:0.025;}.l{fill:#d2c4fb;opacity:0.032;}.m{fill:#d1c3fb;opacity:0.038;}.n{fill:#d0c3fa;opacity:0.045;}.o{fill:#cfc2f9;opacity:0.051;}.p{fill:#cec1f9;opacity:0.057;}.q{fill:#cdc0f8;opacity:0.064;}.r{fill:#ccc0f7;opacity:0.07;}.s{fill:#cbbff6;opacity:0.076;}.t{fill:#cabef6;opacity:0.083;}.u{fill:#c9bdf5;opacity:0.089;}.v{fill:#c8bdf4;opacity:0.096;}.w{fill:#c7bcf3;opacity:0.102;}.x{fill:#c6bbf3;opacity:0.108;}.y{fill:#c5baf2;opacity:0.115;}.z{fill:#c4b9f1;opacity:0.121;}.aa{fill:#c3b9f1;opacity:0.127;}.ab{fill:#c2b8f0;opacity:0.134;}.ac{fill:#c1b7ef;opacity:0.14;}.ad{fill:#c0b6ee;opacity:0.146;}.ae{fill:#bfb6ee;opacity:0.153;}.af{fill:#beb5ed;opacity:0.159;}.ag{fill:#bdb4ec;opacity:0.166;}.ah{fill:#bcb3ec;opacity:0.172;}.ai{fill:#bbb3eb;opacity:0.178;}.aj{fill:#bab2ea;opacity:0.185;}.ak{fill:#b9b1e9;opacity:0.191;}.al{fill:#b8b0e9;opacity:0.197;}.am{fill:#b7b0e8;opacity:0.204;}.an{fill:#b6afe7;opacity:0.21;}.ao{fill:#b5aee7;opacity:0.217;}.ap{fill:#b4ade6;opacity:0.223;}.aq{fill:#b3ace5;opacity:0.229;}.ar{fill:#b2ace4;opacity:0.236;}.as{fill:#b1abe4;opacity:0.242;}.at{fill:#b0aae3;opacity:0.248;}.au{fill:#afa9e2;opacity:0.255;}.av{fill:#aea9e1;opacity:0.261;}.aw{fill:#ada8e1;opacity:0.268;}.ax{fill:#aca7e0;opacity:0.274;}.ay{fill:#aba6df;opacity:0.28;}.az{fill:#aaa6df;opacity:0.287;}.ba{fill:#a9a5de;opacity:0.293;}.bb{fill:#a8a4dd;opacity:0.299;}.bc{fill:#a7a3dc;opacity:0.306;}.bd{fill:#a6a3dc;opacity:0.312;}.be{fill:#a5a2db;opacity:0.318;}.bf{fill:#a4a1da;opacity:0.325;}.bg{fill:#a3a0da;opacity:0.331;}.bh{fill:#a29fd9;opacity:0.338;}.bi{fill:#a19fd8;opacity:0.344;}.bj{fill:#a09ed7;opacity:0.35;}.bk{fill:#9f9dd7;opacity:0.357;}.bl{fill:#9e9cd6;opacity:0.363;}.bm{fill:#9d9cd5;opacity:0.369;}.bn{fill:#9c9bd5;opacity:0.376;}.bo{fill:#9b9ad4;opacity:0.382;}.bp{fill:#9a99d3;opacity:0.389;}.bq{fill:#9999d2;opacity:0.395;}.br{fill:#9898d2;opacity:0.401;}.bs{fill:#9797d1;opacity:0.408;}.bt{fill:#9696d0;opacity:0.414;}.bu{fill:#9596cf;opacity:0.42;}.bv{fill:#9495cf;opacity:0.427;}.bw{fill:#9394ce;opacity:0.433;}.bx{fill:#9293cd;opacity:0.439;}.by{fill:#9192cd;opacity:0.446;}.bz{fill:#9092cc;opacity:0.452;}.ca{fill:#8f91cb;opacity:0.459;}.cb{fill:#8e90ca;opacity:0.465;}.cc{fill:#8d8fca;opacity:0.471;}.cd{fill:#8c8fc9;opacity:0.478;}.ce{fill:#8b8ec8;opacity:0.484;}.cf{fill:#8a8dc8;opacity:0.49;}.cg{fill:#898cc7;opacity:0.497;}.ch{fill:#888cc6;opacity:0.503;}.ci{fill:#878bc5;opacity:0.51;}.cj{fill:#868ac5;opacity:0.516;}.ck{fill:#8589c4;opacity:0.522;}.cl{fill:#8489c3;opacity:0.529;}.cm{fill:#8388c3;opacity:0.535;}.cn{fill:#8287c2;opacity:0.541;}.co{fill:#8186c1;opacity:0.548;}.cp{fill:#8086c0;opacity:0.554;}.cq{fill:#7f85c0;opacity:0.561;}.cr{fill:#7e84bf;opacity:0.567;}.cs{fill:#7d83be;opacity:0.573;}.ct{fill:#7c82be;opacity:0.58;}.cu{fill:#7b82bd;opacity:0.586;}.cv{fill:#7a81bc;opacity:0.592;}.cw{fill:#7980bb;opacity:0.599;}.cx{fill:#787fbb;opacity:0.605;}.cy{fill:#777fba;opacity:0.611;}.cz{fill:#767eb9;opacity:0.618;}.da{fill:#757db8;opacity:0.624;}.db{fill:#747cb8;opacity:0.631;}.dc{fill:#737cb7;opacity:0.637;}.dd{fill:#727bb6;opacity:0.643;}.de{fill:#717ab6;opacity:0.65;}.df{fill:#7079b5;opacity:0.656;}.dg{fill:#6f79b4;opacity:0.662;}.dh{fill:#6e78b3;opacity:0.669;}.di{fill:#6d77b3;opacity:0.675;}.dj{fill:#6c76b2;opacity:0.682;}.dk{fill:#6b75b1;opacity:0.688;}.dl{fill:#6a75b1;opacity:0.694;}.dm{fill:#6974b0;opacity:0.701;}.dn{fill:#6873af;opacity:0.707;}.do{fill:#6772ae;opacity:0.713;}.dp{fill:#6672ae;opacity:0.72;}.dq{fill:#6571ad;opacity:0.726;}.dr{fill:#6470ac;opacity:0.732;}.ds{fill:#636fac;opacity:0.739;}.dt{fill:#626fab;opacity:0.745;}.du{fill:#616eaa;opacity:0.752;}.dv{fill:#606da9;opacity:0.758;}.dw{fill:#5f6ca9;opacity:0.764;}.dx{fill:#5e6ca8;opacity:0.771;}.dy{fill:#5d6ba7;opacity:0.777;}.dz{fill:#5c6aa6;opacity:0.783;}.ea{fill:#5b69a6;opacity:0.79;}.eb{fill:#5a68a5;opacity:0.796;}.ec{fill:#5968a4;opacity:0.803;}.ed{fill:#5867a4;opacity:0.809;}.ee{fill:#5766a3;opacity:0.815;}.ef{fill:#5665a2;opacity:0.822;}.eg{fill:#5565a1;opacity:0.828;}.eh{fill:#5464a1;opacity:0.834;}.ei{fill:#5363a0;opacity:0.841;}.ej{fill:#52629f;opacity:0.847;}.ek{fill:#51629f;opacity:0.854;}.el{fill:#50619e;opacity:0.86;}.em{fill:#4f609d;opacity:0.866;}.en{fill:#4e5f9c;opacity:0.873;}.eo{fill:#4d5f9c;opacity:0.879;}.ep{fill:#4c5e9b;opacity:0.885;}.eq{fill:#4b5d9a;opacity:0.892;}.er{fill:#4a5c9a;opacity:0.898;}.es{fill:#495b99;opacity:0.904;}.et{fill:#485b98;opacity:0.911;}.eu{fill:#475a97;opacity:0.917;}.ev{fill:#465997;opacity:0.924;}.ew{fill:#455896;opacity:0.93;}.ex{fill:#445895;opacity:0.936;}.ey{fill:#435794;opacity:0.943;}.ez{fill:#425694;opacity:0.949;}.fa{fill:#415593;opacity:0.955;}.fb{fill:#405592;opacity:0.962;}.fc{fill:#3f5492;opacity:0.968;}.fd{fill:#3e5391;opacity:0.975;}.fe{fill:#3d5290;opacity:0.981;}.ff{fill:#3c528f;opacity:0.987;}.fg{fill:#3b518f;opacity:0.994;}.fh{fill:#3a508e;}.fi{clip-path:url(#d);}.fj{fill:#70166b;}.fk{fill:#74176f;}.fl{fill:#781873;}.fm{fill:#7d1977;}.fn{fill:#811a7b;}.fo{fill:#851b7f;}.fp{fill:#8a1c83;}.fq{fill:#8e1c87;}.fr{fill:#921d8b;}.fs{clip-path:url(#e);}.ft{fill:#616b85;}.fu{fill:#656f8a;}.fv{fill:#69738f;}.fw{fill:#6c7794;}.fx{fill:#707b99;}.fy{fill:#747f9e;}.fz{fill:#7883a3;}.ga{fill:#7b87a8;}.gb{fill:#7f8bad;}.gc{clip-path:url(#f);}.gd{fill:#9d1f95;}.ge{clip-path:url(#g);}.gf{clip-path:url(#h);}.gg{fill:#767385;}.gh{fill:#6c1667;}.gi{clip-path:url(#i);}.gj{fill:#7c798c;}.gk{clip-path:url(#j);}.gl{fill:#918da3;}.gm{fill:#9592a8;}.gn{fill:#9a96ad;}.go{fill:#8c899e;}.gp{fill:#888599;}.gq{fill:#838094;}.gr{fill:#7f7c8f;}.gs{fill:#7a778a;}.gt{fill:url(#k);}.gu{fill:url(#l);}.gv{fill:url(#m);}.gw{fill:url(#n);}.gx{fill:url(#o);}.gy,.gz,.ha,.hb,.hc,.hd,.he,.hf,.hg,.hh,.hi,.hj,.hk,.hl,.hm,.hn,.ho,.hp,.hq,.hr,.hs,.ht,.hu,.hv,.hw,.hx,.hy,.hz,.ia,.ib,.ic,.id,.ie,.if,.ig{fill:#012b7e;}.gz{opacity:0.029;}.ha{opacity:0.059;}.hb{opacity:0.088;}.hc{opacity:0.118;}.hd{opacity:0.147;}.he{opacity:0.176;}.hf{opacity:0.206;}.hg{opacity:0.235;}.hh{opacity:0.265;}.hi{opacity:0.294;}.hj{opacity:0.324;}.hk{opacity:0.353;}.hl{opacity:0.382;}.hm{opacity:0.412;}.hn{opacity:0.441;}.ho{opacity:0.471;}.hp{opacity:0.5;}.hq{opacity:0.529;}.hr{opacity:0.559;}.hs{opacity:0.588;}.ht{opacity:0.618;}.hu{opacity:0.647;}.hv{opacity:0.676;}.hw{opacity:0.706;}.hx{opacity:0.735;}.hy{opacity:0.765;}.hz{opacity:0.794;}.ia{opacity:0.824;}.ib{opacity:0.853;}.ic{opacity:0.882;}.id{opacity:0.912;}.ie{opacity:0.941;}.if{opacity:0.971;}.ih{fill:url(#p);}.ii{fill:url(#q);}.ij{fill:url(#r);}.ik{fill:url(#s);}.il{fill:url(#t);}.im{fill:url(#u);}.in{fill:url(#v);}</style><linearGradient id="a" x1="0.593" y1="1.339" x2="0.43" y2="-0.14" gradientUnits="objectBoundingBox"><stop offset="0.067" stop-color="#005bc3"/><stop offset="0.27" stop-color="#1f75d0"/><stop offset="0.714" stop-color="#6fb7f4"/><stop offset="0.818" stop-color="#83c8fd"/></linearGradient><linearGradient id="b" x1="0.305" y1="0.042" x2="0.705" y2="0.977" gradientUnits="objectBoundingBox"><stop offset="0" stop-color="#f2f9ff"/><stop offset="0.227" stop-color="#edf1ff"/><stop offset="0.576" stop-color="#e1dbff"/><stop offset="0.997" stop-color="#ceb9ff"/></linearGradient><linearGradient id="c" x1="0.459" y1="-0.02" x2="0.537" y2="0.972" gradientUnits="objectBoundingBox"><stop offset="0.076" stop-color="#fff"/><stop offset="1" stop-color="#fff" stop-opacity="0"/></linearGradient><clipPath id="d"><path class="a" d="M597.066,346.361l.628,1.427a.6.6,0,0,0-.276-.2.857.857,0,0,0-1,.373l-.628-1.427a.856.856,0,0,1,1-.372A.6.6,0,0,1,597.066,346.361Z" transform="translate(-595.786 -346.112)"/></clipPath><clipPath id="e"><path class="a" d="M570.328,346.291a17.8,17.8,0,0,0-1.711,14.779l-.628-1.427a17.8,17.8,0,0,1,1.711-14.778c5.676-9.923,18.777-14.811,29.256-10.914a17.1,17.1,0,0,1,9.946,9.069l.628,1.427a17.1,17.1,0,0,0-9.946-9.07C589.1,331.48,576,336.368,570.328,346.291Z" transform="translate(-567.09 -332.61)"/></clipPath><clipPath id="f"><path class="a" d="M568.987,372.2q.21.606.468,1.192l-.628-1.427q-.258-.586-.469-1.192l.074.167.078.176.081.183.082.186C568.778,371.726,568.892,371.96,568.987,372.2Z" transform="translate(-568.359 -370.775)"/></clipPath><clipPath id="g"><path class="a" d="M584.578,368.761a.6.6,0,0,0-.042.545l-.628-1.427a.6.6,0,0,1,.043-.545Z" transform="translate(-583.86 -367.334)"/></clipPath><clipPath id="h"><path class="a" d="M584.554,369.531l-.628-1.427a.59.59,0,0,0,.341.314.76.76,0,0,0,.374.035l.628,1.427a.76.76,0,0,1-.374-.035A.59.59,0,0,1,584.554,369.531Z" transform="translate(-583.926 -368.104)"/></clipPath><clipPath id="i"><path class="a" d="M610.629,363.907l.628,1.427a.536.536,0,0,0-.064-.109l-.628-1.427A.536.536,0,0,1,610.629,363.907Z" transform="translate(-610.565 -363.798)"/></clipPath><clipPath id="j"><path class="a" d="M610.377,363.952l.628,1.427a.753.753,0,0,1-.676.96l-.628-1.426A.753.753,0,0,0,610.377,363.952Z" transform="translate(-609.702 -363.952)"/></clipPath><linearGradient id="k" x1="0.145" y1="0.954" x2="0.975" y2="0.155" gradientUnits="objectBoundingBox"><stop offset="0" stop-color="#a81c69"/><stop offset="0.077" stop-color="#891159"/><stop offset="0.128" stop-color="#7a0d52"/><stop offset="0.284" stop-color="#700d52"/><stop offset="0.584" stop-color="#610d52"/><stop offset="0.66" stop-color="#660d53"/><stop offset="0.756" stop-color="#761057"/><stop offset="0.864" stop-color="#90145d"/><stop offset="0.978" stop-color="#b41a67"/><stop offset="1" stop-color="#bc1c69"/></linearGradient><radialGradient id="l" cx="0.617" cy="1.655" r="1.807" gradientTransform="translate(0.053) scale(0.895 1)" gradientUnits="objectBoundingBox"><stop offset="0.342" stop-color="#da334f"/><stop offset="0.676" stop-color="#ff597d"/><stop offset="0.989" stop-color="#ffa19a"/></radialGradient><linearGradient id="m" x1="0.303" y1="-0.025" x2="0.661" y2="0.927" xlink:href="#c"/><linearGradient id="n" x1="0.074" y1="0.119" x2="0.957" y2="1.706" gradientUnits="objectBoundingBox"><stop offset="0" stop-color="#f2f9ff"/><stop offset="0.957" stop-color="#cfbbff"/><stop offset="1" stop-color="#ceb9ff"/></linearGradient><linearGradient id="o" x1="1.21" y1="0.193" x2="-1.836" y2="1.497" gradientUnits="objectBoundingBox"><stop offset="0.002" stop-color="#e0d4ff"/><stop offset="0.016" stop-color="#c9baf5"/><stop offset="0.03" stop-color="#baaaef"/><stop offset="0.04" stop-color="#b6a5ed"/><stop offset="0.176" stop-color="#a595e1"/><stop offset="0.443" stop-color="#7a6dc4"/><stop offset="0.534" stop-color="#6b5fba"/><stop offset="0.718" stop-color="#6c60bb"/><stop offset="0.784" stop-color="#7367bf"/><stop offset="0.832" stop-color="#7f73c6"/><stop offset="0.87" stop-color="#9084d0"/><stop offset="0.903" stop-color="#a69add"/><stop offset="0.931" stop-color="#c0b4ec"/><stop offset="0.956" stop-color="#e0d4ff"/></linearGradient><linearGradient id="p" x1="0.044" y1="0.807" x2="0.95" y2="0.153" gradientUnits="objectBoundingBox"><stop offset="0" stop-color="#e07cec"/><stop offset="0.023" stop-color="#c86bda"/><stop offset="0.064" stop-color="#a352bf"/><stop offset="0.103" stop-color="#8940ab"/><stop offset="0.137" stop-color="#7935a0"/><stop offset="0.164" stop-color="#74329c"/><stop offset="0.615" stop-color="#74329c"/><stop offset="0.689" stop-color="#74329c"/><stop offset="0.803" stop-color="#74329c"/><stop offset="0.822" stop-color="#74329c"/><stop offset="0.853" stop-color="#78359f"/><stop offset="0.888" stop-color="#863ea9"/><stop offset="0.926" stop-color="#9d4eba"/><stop offset="0.965" stop-color="#bc63d1"/><stop offset="1" stop-color="#e07cec"/></linearGradient><linearGradient id="q" x1="0.264" y1="2.646" x2="0.499" y2="0.511" gradientUnits="objectBoundingBox"><stop offset="0.285" stop-color="#cb25df"/><stop offset="0.994" stop-color="#e07cec"/></linearGradient><linearGradient id="r" x1="0.563" y1="-0.08" x2="0.471" y2="0.766" xlink:href="#c"/><linearGradient id="s" x1="0.975" y1="-0.386" x2="0.097" y2="0.991" gradientUnits="objectBoundingBox"><stop offset="0" stop-color="#32a5fc"/><stop offset="0.019" stop-color="#2a96ee"/><stop offset="0.073" stop-color="#1874cc"/><stop offset="0.124" stop-color="#0a5bb4"/><stop offset="0.17" stop-color="#024ca6"/><stop offset="0.208" stop-color="#0047a1"/><stop offset="0.251" stop-color="#00429b"/><stop offset="0.305" stop-color="#00358b"/><stop offset="0.346" stop-color="#00287b"/><stop offset="0.505" stop-color="#002c80"/><stop offset="0.708" stop-color="#003990"/><stop offset="0.861" stop-color="#0047a1"/><stop offset="0.886" stop-color="#024ca6"/><stop offset="0.917" stop-color="#0b5cb5"/><stop offset="0.951" stop-color="#1976ce"/><stop offset="0.988" stop-color="#2c9af1"/><stop offset="0.998" stop-color="#32a5fc"/></linearGradient><linearGradient id="t" x1="0.024" y1="0.776" x2="0.999" y2="0.188" gradientUnits="objectBoundingBox"><stop offset="0" stop-color="#31ffae"/><stop offset="0.003" stop-color="#2af3a6"/><stop offset="0.01" stop-color="#1eda96"/><stop offset="0.017" stop-color="#16cb8c"/><stop offset="0.023" stop-color="#14c689"/><stop offset="0.039" stop-color="#10bb83"/><stop offset="0.079" stop-color="#0aa579"/><stop offset="0.127" stop-color="#059470"/><stop offset="0.187" stop-color="#02886b"/><stop offset="0.27" stop-color="#008167"/><stop offset="0.501" stop-color="#008067"/><stop offset="0.799" stop-color="#008067"/><stop offset="0.842" stop-color="#008067"/><stop offset="0.86" stop-color="#018569"/><stop offset="0.882" stop-color="#059370"/><stop offset="0.906" stop-color="#0cac7c"/><stop offset="0.925" stop-color="#14c689"/><stop offset="0.943" stop-color="#17cb8b"/><stop offset="0.967" stop-color="#21dc91"/><stop offset="0.993" stop-color="#31f79b"/><stop offset="1" stop-color="#36ff9f"/></linearGradient><linearGradient id="u" x1="0.479" y1="1.728" x2="0.515" y2="-0.383" gradientUnits="objectBoundingBox"><stop offset="0" stop-color="#08bf8c"/><stop offset="0.411" stop-color="#20e49f"/><stop offset="0.673" stop-color="#31ffae"/><stop offset="0.99" stop-color="#6effcd"/></linearGradient><linearGradient id="v" x1="0.482" y1="-0.153" x2="0.518" y2="1.148" xlink:href="#c"/></defs><g class="b" transform="translate(-500.054 -300.288)"><path class="c" d="M512.27,380.109l-11.322,19.8a5.759,5.759,0,0,0,2.986,8.577l67.237,25.005a8.548,8.548,0,0,0,10.022-3.739l11.323-19.8Z" transform="translate(0 -23.284)"/><path class="d" d="M624.5,325.754a5.758,5.758,0,0,1,2.981,8.575l-29.927,52.329L517.31,356.815l29.926-52.328a8.55,8.55,0,0,1,10.029-3.737Z" transform="translate(-5.033)"/><path class="e" d="M619.469,325.754l-67.237-25.005a8.55,8.55,0,0,0-10.029,3.737l-29.926,52.328.319.132-.325-.121-11.322,19.8a5.759,5.759,0,0,0,2.986,8.577l67.237,25.005a8.548,8.548,0,0,0,10.022-3.739l11.323-19.8-.108-.04.113.029,29.927-52.329A5.758,5.758,0,0,0,619.469,325.754Zm2.789,8.466-29.926,52.327.1-.043-.06.193-.05-.138L581,406.357a8.391,8.391,0,0,1-7.213,4.088,7.265,7.265,0,0,1-2.542-.446l-67.237-25.005a5.589,5.589,0,0,1-3.417-3.317,5.842,5.842,0,0,1,.545-4.944L512.369,357.1l.149.056.162-.41-.088-.036,29.8-52.111a8.392,8.392,0,0,1,7.213-4.088,7.285,7.285,0,0,1,2.548.448l67.237,25.005a5.584,5.584,0,0,1,3.411,3.313A5.849,5.849,0,0,1,622.258,334.221Z"/><g class="f" transform="translate(548.138 324.586)"><path class="g" d="M602.479,339.66c-10.479-3.9-23.581.99-29.256,10.913s-1.782,21.137,8.7,25.034,23.586-.988,29.264-10.917S612.963,343.559,602.479,339.66Z" transform="translate(-568.72 -335.68)"/><path class="h" d="M602.462,339.636c-10.479-3.9-23.581.99-29.256,10.914s-1.782,21.138,8.7,25.035,23.586-.989,29.264-10.917S612.946,343.535,602.462,339.636Z" transform="translate(-568.715 -335.673)"/><path class="i" d="M602.445,339.612c-10.479-3.9-23.581.991-29.256,10.913s-1.782,21.138,8.7,25.035,23.586-.988,29.264-10.917S612.929,343.512,602.445,339.612Z" transform="translate(-568.71 -335.666)"/><path class="j" d="M602.428,339.589c-10.479-3.9-23.581.99-29.256,10.914s-1.782,21.137,8.7,25.034,23.586-.988,29.264-10.917S612.912,343.488,602.428,339.589Z" transform="translate(-568.705 -335.659)"/><path class="k" d="M602.411,339.565c-10.479-3.9-23.581.99-29.256,10.913s-1.782,21.138,8.7,25.034,23.586-.988,29.264-10.916S612.9,343.464,602.411,339.565Z" transform="translate(-568.7 -335.652)"/><path class="l" d="M602.394,339.541c-10.479-3.9-23.581.991-29.256,10.913s-1.782,21.138,8.7,25.035,23.586-.989,29.264-10.917S612.878,343.44,602.394,339.541Z" transform="translate(-568.695 -335.645)"/><path class="m" d="M602.377,339.517c-10.479-3.9-23.581.991-29.256,10.914s-1.782,21.137,8.7,25.034,23.586-.988,29.264-10.917S612.861,343.417,602.377,339.517Z" transform="translate(-568.69 -335.638)"/><path class="n" d="M602.36,339.494c-10.479-3.9-23.581.99-29.256,10.913s-1.782,21.137,8.7,25.034,23.586-.988,29.264-10.917S612.844,343.393,602.36,339.494Z" transform="translate(-568.685 -335.631)"/><path class="o" d="M602.343,339.47c-10.479-3.9-23.581.99-29.256,10.913s-1.782,21.138,8.7,25.034,23.586-.988,29.264-10.916S612.827,343.369,602.343,339.47Z" transform="translate(-568.68 -335.624)"/><path class="p" d="M602.326,339.446c-10.479-3.9-23.581.991-29.256,10.913s-1.782,21.138,8.7,25.035,23.586-.989,29.264-10.917S612.81,343.345,602.326,339.446Z" transform="translate(-568.675 -335.618)"/><path class="q" d="M602.309,339.423c-10.479-3.9-23.581.99-29.256,10.913s-1.782,21.138,8.7,25.035,23.586-.988,29.264-10.917S612.793,343.322,602.309,339.423Z" transform="translate(-568.67 -335.611)"/><path class="r" d="M602.292,339.4c-10.479-3.9-23.581.99-29.256,10.914s-1.782,21.137,8.7,25.034,23.586-.988,29.265-10.917S612.776,343.3,602.292,339.4Z" transform="translate(-568.665 -335.604)"/><path class="s" d="M602.275,339.375c-10.479-3.9-23.581.99-29.256,10.913s-1.782,21.138,8.7,25.035,23.586-.989,29.265-10.917S612.759,343.274,602.275,339.375Z" transform="translate(-568.66 -335.597)"/><path class="t" d="M602.258,339.351c-10.479-3.9-23.581.991-29.256,10.913S571.22,371.4,581.7,375.3s23.586-.988,29.265-10.917S612.742,343.25,602.258,339.351Z" transform="translate(-568.655 -335.59)"/><path class="u" d="M602.241,339.328c-10.479-3.9-23.581.99-29.256,10.913s-1.782,21.137,8.7,25.034,23.586-.988,29.265-10.917S612.725,343.227,602.241,339.328Z" transform="translate(-568.65 -335.583)"/><path class="v" d="M602.223,339.3c-10.479-3.9-23.58.99-29.255,10.913s-1.782,21.137,8.7,25.034,23.586-.988,29.265-10.917S612.708,343.2,602.223,339.3Z" transform="translate(-568.645 -335.576)"/><path class="w" d="M602.206,339.28c-10.479-3.9-23.58.99-29.255,10.913s-1.782,21.138,8.7,25.035,23.586-.989,29.265-10.917S612.691,343.179,602.206,339.28Z" transform="translate(-568.64 -335.569)"/><path class="x" d="M602.189,339.256c-10.479-3.9-23.58.991-29.255,10.913s-1.782,21.138,8.7,25.035,23.586-.988,29.264-10.917S612.674,343.156,602.189,339.256Z" transform="translate(-568.635 -335.562)"/><path class="y" d="M602.172,339.233c-10.479-3.9-23.58.99-29.255,10.913s-1.782,21.137,8.7,25.034,23.586-.988,29.264-10.917S612.657,343.132,602.172,339.233Z" transform="translate(-568.631 -335.555)"/><path class="z" d="M602.155,339.209c-10.479-3.9-23.58.99-29.255,10.914s-1.782,21.138,8.7,25.034,23.586-.988,29.264-10.916S612.64,343.108,602.155,339.209Z" transform="translate(-568.626 -335.548)"/><path class="aa" d="M602.138,339.185c-10.479-3.9-23.58.991-29.255,10.913s-1.782,21.138,8.7,25.035,23.586-.989,29.264-10.917S612.623,343.084,602.138,339.185Z" transform="translate(-568.621 -335.541)"/><path class="ab" d="M602.121,339.161c-10.479-3.9-23.58.991-29.256,10.913s-1.781,21.138,8.7,25.035,23.586-.988,29.264-10.917S612.606,343.061,602.121,339.161Z" transform="translate(-568.616 -335.534)"/><path class="ac" d="M602.1,339.138c-10.479-3.9-23.58.99-29.256,10.913s-1.781,21.137,8.7,25.034,23.586-.988,29.264-10.917S612.589,343.037,602.1,339.138Z" transform="translate(-568.611 -335.528)"/><path class="ad" d="M602.087,339.114c-10.479-3.9-23.58.99-29.256,10.914s-1.781,21.138,8.7,25.034,23.586-.988,29.264-10.916S612.572,343.013,602.087,339.114Z" transform="translate(-568.606 -335.521)"/><path class="ae" d="M602.07,339.09c-10.479-3.9-23.58.991-29.256,10.913s-1.781,21.138,8.7,25.035,23.586-.989,29.264-10.917S612.555,342.989,602.07,339.09Z" transform="translate(-568.601 -335.514)"/><path class="af" d="M602.053,339.067c-10.479-3.9-23.58.99-29.256,10.913s-1.781,21.138,8.7,25.035,23.586-.988,29.264-10.917S612.538,342.966,602.053,339.067Z" transform="translate(-568.596 -335.507)"/><path class="ag" d="M602.036,339.043c-10.479-3.9-23.581.99-29.256,10.913s-1.781,21.137,8.7,25.034,23.586-.988,29.264-10.917S612.521,342.942,602.036,339.043Z" transform="translate(-568.591 -335.5)"/><path class="ah" d="M602.019,339.019c-10.479-3.9-23.581.99-29.256,10.913s-1.782,21.138,8.7,25.035,23.586-.989,29.264-10.917S612.5,342.918,602.019,339.019Z" transform="translate(-568.586 -335.493)"/><path class="ai" d="M602,338.995c-10.479-3.9-23.581.991-29.256,10.913s-1.782,21.138,8.7,25.035,23.586-.988,29.264-10.917S612.487,342.894,602,338.995Z" transform="translate(-568.581 -335.486)"/><path class="aj" d="M601.985,338.972c-10.479-3.9-23.581.99-29.256,10.914s-1.782,21.137,8.7,25.034,23.586-.988,29.264-10.917S612.47,342.871,601.985,338.972Z" transform="translate(-568.576 -335.479)"/><path class="ak" d="M601.968,338.948c-10.479-3.9-23.581.99-29.256,10.913S570.93,371,581.41,374.9s23.586-.988,29.264-10.916S612.453,342.847,601.968,338.948Z" transform="translate(-568.571 -335.472)"/><path class="al" d="M601.951,338.924c-10.479-3.9-23.581.99-29.256,10.913s-1.782,21.138,8.7,25.035,23.586-.989,29.264-10.917S612.435,342.823,601.951,338.924Z" transform="translate(-568.566 -335.465)"/><path class="am" d="M601.934,338.9c-10.479-3.9-23.581.991-29.256,10.913s-1.782,21.138,8.7,25.035,23.586-.988,29.264-10.917S612.418,342.8,601.934,338.9Z" transform="translate(-568.561 -335.458)"/><path class="an" d="M601.917,338.877c-10.479-3.9-23.581.99-29.256,10.913s-1.782,21.137,8.7,25.034,23.586-.988,29.264-10.917S612.4,342.776,601.917,338.877Z" transform="translate(-568.556 -335.451)"/><path class="ao" d="M601.9,338.853c-10.479-3.9-23.581.99-29.256,10.913s-1.782,21.138,8.7,25.034,23.586-.988,29.264-10.916S612.384,342.752,601.9,338.853Z" transform="translate(-568.551 -335.444)"/><path class="ap" d="M601.883,338.829c-10.479-3.9-23.581.991-29.256,10.913s-1.782,21.138,8.7,25.035,23.586-.989,29.264-10.917S612.367,342.728,601.883,338.829Z" transform="translate(-568.546 -335.438)"/><path class="aq" d="M601.866,338.806c-10.479-3.9-23.581.99-29.256,10.913s-1.782,21.138,8.7,25.035,23.586-.988,29.264-10.917S612.35,342.705,601.866,338.806Z" transform="translate(-568.541 -335.431)"/><path class="ar" d="M601.849,338.782c-10.479-3.9-23.581.99-29.256,10.913s-1.782,21.137,8.7,25.034,23.586-.988,29.264-10.917S612.333,342.681,601.849,338.782Z" transform="translate(-568.536 -335.424)"/><path class="as" d="M601.832,338.758c-10.479-3.9-23.581.99-29.256,10.913s-1.782,21.138,8.7,25.035,23.586-.989,29.264-10.917S612.316,342.657,601.832,338.758Z" transform="translate(-568.531 -335.417)"/><path class="at" d="M601.815,338.734c-10.479-3.9-23.581.991-29.256,10.913s-1.782,21.138,8.7,25.035,23.586-.988,29.264-10.917S612.3,342.633,601.815,338.734Z" transform="translate(-568.526 -335.41)"/><path class="au" d="M601.8,338.711c-10.479-3.9-23.581.99-29.256,10.913s-1.782,21.137,8.7,25.034,23.586-.988,29.264-10.917S612.282,342.61,601.8,338.711Z" transform="translate(-568.521 -335.403)"/><path class="av" d="M601.781,338.687c-10.479-3.9-23.581.99-29.256,10.913s-1.782,21.137,8.7,25.034,23.586-.988,29.264-10.917S612.265,342.586,601.781,338.687Z" transform="translate(-568.516 -335.396)"/><path class="aw" d="M601.764,338.663c-10.479-3.9-23.581.99-29.256,10.913s-1.782,21.138,8.7,25.035,23.586-.989,29.264-10.917S612.248,342.562,601.764,338.663Z" transform="translate(-568.511 -335.389)"/><path class="ax" d="M601.747,338.639c-10.479-3.9-23.581.991-29.256,10.913s-1.782,21.138,8.7,25.035,23.586-.988,29.265-10.917S612.231,342.539,601.747,338.639Z" transform="translate(-568.506 -335.382)"/><path class="ay" d="M601.73,338.616c-10.479-3.9-23.581.99-29.256,10.913s-1.782,21.137,8.7,25.034,23.586-.988,29.265-10.917S612.214,342.515,601.73,338.616Z" transform="translate(-568.501 -335.375)"/><path class="az" d="M601.713,338.592c-10.479-3.9-23.581.99-29.256,10.913s-1.782,21.138,8.7,25.034,23.586-.988,29.265-10.916S612.2,342.491,601.713,338.592Z" transform="translate(-568.496 -335.368)"/><path class="ba" d="M601.7,338.568c-10.479-3.9-23.581.991-29.256,10.913s-1.782,21.138,8.7,25.035,23.586-.989,29.265-10.917S612.18,342.467,601.7,338.568Z" transform="translate(-568.491 -335.361)"/><path class="bb" d="M601.678,338.544c-10.479-3.9-23.58.991-29.255,10.913s-1.782,21.138,8.7,25.035,23.586-.988,29.265-10.917S612.163,342.444,601.678,338.544Z" transform="translate(-568.486 -335.355)"/><path class="bc" d="M601.661,338.521c-10.479-3.9-23.58.99-29.255,10.913s-1.782,21.137,8.7,25.034,23.586-.988,29.265-10.917S612.146,342.42,601.661,338.521Z" transform="translate(-568.482 -335.348)"/><path class="bd" d="M601.644,338.5c-10.479-3.9-23.58.99-29.255,10.913s-1.782,21.138,8.7,25.034,23.586-.988,29.264-10.916S612.129,342.4,601.644,338.5Z" transform="translate(-568.477 -335.341)"/><path class="be" d="M601.627,338.473c-10.479-3.9-23.58.991-29.255,10.914s-1.782,21.138,8.7,25.035,23.586-.989,29.264-10.917S612.112,342.372,601.627,338.473Z" transform="translate(-568.472 -335.334)"/><path class="bf" d="M601.61,338.45c-10.479-3.9-23.58.99-29.255,10.913s-1.782,21.138,8.7,25.035,23.586-.988,29.264-10.917S612.1,342.349,601.61,338.45Z" transform="translate(-568.467 -335.327)"/><path class="bg" d="M601.593,338.426c-10.479-3.9-23.58.99-29.255,10.913s-1.782,21.137,8.7,25.034,23.586-.988,29.264-10.917S612.078,342.325,601.593,338.426Z" transform="translate(-568.462 -335.32)"/><path class="bh" d="M601.576,338.4c-10.479-3.9-23.58.99-29.256,10.913s-1.781,21.138,8.7,25.035,23.586-.989,29.264-10.917S612.061,342.3,601.576,338.4Z" transform="translate(-568.457 -335.313)"/><path class="bi" d="M601.559,338.378c-10.479-3.9-23.58.991-29.256,10.914s-1.781,21.138,8.7,25.035,23.586-.988,29.264-10.917S612.044,342.277,601.559,338.378Z" transform="translate(-568.452 -335.306)"/><path class="bj" d="M601.542,338.355c-10.479-3.9-23.58.99-29.256,10.913s-1.781,21.137,8.7,25.034,23.586-.988,29.264-10.917S612.027,342.254,601.542,338.355Z" transform="translate(-568.447 -335.299)"/><path class="bk" d="M601.525,338.331c-10.479-3.9-23.58.99-29.256,10.913s-1.781,21.137,8.7,25.034,23.586-.988,29.264-10.917S612.01,342.23,601.525,338.331Z" transform="translate(-568.442 -335.292)"/><path class="bl" d="M601.508,338.307c-10.479-3.9-23.58.99-29.256,10.913s-1.781,21.138,8.7,25.035,23.586-.989,29.264-10.917S611.993,342.206,601.508,338.307Z" transform="translate(-568.437 -335.285)"/><path class="bm" d="M601.491,338.283c-10.479-3.9-23.581.991-29.256,10.914s-1.781,21.138,8.7,25.035,23.586-.988,29.264-10.917S611.976,342.183,601.491,338.283Z" transform="translate(-568.432 -335.278)"/><path class="bn" d="M601.474,338.26c-10.479-3.9-23.581.99-29.256,10.913s-1.782,21.137,8.7,25.034,23.586-.988,29.264-10.917S611.959,342.159,601.474,338.26Z" transform="translate(-568.427 -335.272)"/><path class="bo" d="M601.457,338.236c-10.479-3.9-23.581.99-29.256,10.914s-1.782,21.138,8.7,25.034,23.586-.988,29.264-10.916S611.942,342.135,601.457,338.236Z" transform="translate(-568.422 -335.265)"/><path class="bp" d="M601.44,338.212c-10.479-3.9-23.581.991-29.256,10.913s-1.782,21.138,8.7,25.035,23.586-.989,29.264-10.917S611.925,342.111,601.44,338.212Z" transform="translate(-568.417 -335.258)"/><path class="bq" d="M601.423,338.188c-10.479-3.9-23.581.991-29.256,10.913s-1.782,21.138,8.7,25.035,23.586-.988,29.264-10.917S611.908,342.088,601.423,338.188Z" transform="translate(-568.412 -335.251)"/><path class="br" d="M601.406,338.165c-10.479-3.9-23.581.99-29.256,10.913s-1.782,21.137,8.7,25.034,23.586-.988,29.264-10.917S611.89,342.064,601.406,338.165Z" transform="translate(-568.407 -335.244)"/><path class="bs" d="M601.389,338.141c-10.479-3.9-23.581.99-29.256,10.914s-1.782,21.138,8.7,25.034,23.586-.988,29.264-10.916S611.873,342.04,601.389,338.141Z" transform="translate(-568.402 -335.237)"/><path class="bt" d="M601.372,338.117c-10.479-3.9-23.581.991-29.256,10.913s-1.782,21.138,8.7,25.035,23.586-.989,29.264-10.917S611.856,342.016,601.372,338.117Z" transform="translate(-568.397 -335.23)"/><path class="bu" d="M601.355,338.094c-10.479-3.9-23.581.99-29.256,10.913s-1.782,21.137,8.7,25.034,23.586-.988,29.264-10.917S611.839,341.993,601.355,338.094Z" transform="translate(-568.392 -335.223)"/><path class="bv" d="M601.338,338.07c-10.479-3.9-23.581.99-29.256,10.913s-1.782,21.137,8.7,25.034,23.586-.988,29.264-10.917S611.822,341.969,601.338,338.07Z" transform="translate(-568.387 -335.216)"/><path class="bw" d="M601.321,338.046c-10.479-3.9-23.581.99-29.256,10.913s-1.782,21.138,8.7,25.035,23.586-.989,29.264-10.917S611.805,341.945,601.321,338.046Z" transform="translate(-568.382 -335.209)"/><path class="bx" d="M601.3,338.022c-10.479-3.9-23.581.991-29.256,10.914s-1.782,21.138,8.7,25.035,23.586-.988,29.264-10.917S611.788,341.921,601.3,338.022Z" transform="translate(-568.377 -335.202)"/><path class="by" d="M601.287,338c-10.479-3.9-23.581.99-29.256,10.914s-1.782,21.137,8.7,25.034,23.586-.988,29.264-10.917S611.771,341.9,601.287,338Z" transform="translate(-568.372 -335.195)"/><path class="bz" d="M601.27,337.975c-10.479-3.9-23.581.99-29.256,10.913s-1.782,21.138,8.7,25.034,23.586-.988,29.264-10.916S611.754,341.874,601.27,337.975Z" transform="translate(-568.367 -335.188)"/><path class="ca" d="M601.253,337.951c-10.479-3.9-23.581.99-29.256,10.914s-1.782,21.138,8.7,25.035,23.586-.989,29.264-10.917S611.737,341.85,601.253,337.951Z" transform="translate(-568.362 -335.181)"/><path class="cb" d="M601.236,337.927c-10.479-3.9-23.581.991-29.256,10.913s-1.782,21.138,8.7,25.035,23.586-.988,29.264-10.917S611.72,341.827,601.236,337.927Z" transform="translate(-568.357 -335.175)"/><path class="cc" d="M601.219,337.9c-10.479-3.9-23.581.99-29.256,10.914s-1.782,21.137,8.7,25.034,23.586-.988,29.264-10.917S611.7,341.8,601.219,337.9Z" transform="translate(-568.352 -335.168)"/><path class="cd" d="M601.2,337.88c-10.479-3.9-23.581.99-29.256,10.913s-1.782,21.138,8.7,25.034,23.586-.988,29.265-10.916S611.686,341.779,601.2,337.88Z" transform="translate(-568.347 -335.161)"/><path class="ce" d="M601.185,337.856c-10.479-3.9-23.581.991-29.256,10.914s-1.782,21.138,8.7,25.035,23.586-.989,29.265-10.917S611.669,341.755,601.185,337.856Z" transform="translate(-568.342 -335.154)"/><path class="cf" d="M601.168,337.833c-10.479-3.9-23.581.99-29.256,10.913s-1.782,21.138,8.7,25.035,23.586-.988,29.265-10.917S611.652,341.732,601.168,337.833Z" transform="translate(-568.337 -335.147)"/><path class="cg" d="M601.151,337.809c-10.479-3.9-23.581.99-29.256,10.914s-1.782,21.137,8.7,25.034,23.586-.988,29.265-10.917S611.635,341.708,601.151,337.809Z" transform="translate(-568.332 -335.14)"/><path class="ch" d="M601.133,337.785c-10.479-3.9-23.58.99-29.255,10.913s-1.782,21.138,8.7,25.035,23.586-.989,29.265-10.917S611.618,341.684,601.133,337.785Z" transform="translate(-568.327 -335.133)"/><path class="ci" d="M601.116,337.761c-10.479-3.9-23.58.991-29.255,10.914s-1.782,21.138,8.7,25.035,23.586-.988,29.265-10.917S611.6,341.66,601.116,337.761Z" transform="translate(-568.323 -335.126)"/><path class="cj" d="M601.1,337.738c-10.479-3.9-23.58.99-29.255,10.913s-1.782,21.137,8.7,25.034,23.586-.988,29.264-10.917S611.584,341.637,601.1,337.738Z" transform="translate(-568.318 -335.119)"/><path class="ck" d="M601.082,337.714c-10.479-3.9-23.58.99-29.255,10.914s-1.782,21.137,8.7,25.034,23.586-.988,29.264-10.917S611.567,341.613,601.082,337.714Z" transform="translate(-568.313 -335.112)"/><path class="cl" d="M601.065,337.69c-10.479-3.9-23.58.99-29.255,10.913s-1.782,21.138,8.7,25.035,23.586-.989,29.264-10.917S611.55,341.589,601.065,337.69Z" transform="translate(-568.308 -335.105)"/><path class="cm" d="M601.048,337.666c-10.479-3.9-23.58.991-29.255,10.914s-1.782,21.138,8.7,25.035,23.586-.988,29.264-10.917S611.533,341.566,601.048,337.666Z" transform="translate(-568.303 -335.098)"/><path class="cn" d="M601.031,337.643c-10.479-3.9-23.58.99-29.256,10.913s-1.781,21.137,8.7,25.034,23.586-.988,29.264-10.917S611.516,341.542,601.031,337.643Z" transform="translate(-568.298 -335.092)"/><path class="co" d="M601.014,337.619c-10.479-3.9-23.58.99-29.256,10.913s-1.781,21.138,8.7,25.034,23.586-.988,29.264-10.916S611.5,341.518,601.014,337.619Z" transform="translate(-568.293 -335.085)"/><path class="cp" d="M601,337.595c-10.479-3.9-23.58.991-29.256,10.913s-1.781,21.138,8.7,25.035,23.586-.989,29.264-10.917S611.482,341.494,601,337.595Z" transform="translate(-568.288 -335.078)"/><path class="cq" d="M600.98,337.571c-10.479-3.9-23.58.991-29.256,10.913s-1.781,21.138,8.7,25.035,23.586-.988,29.264-10.917S611.465,341.471,600.98,337.571Z" transform="translate(-568.283 -335.071)"/><path class="cr" d="M600.963,337.548c-10.479-3.9-23.58.99-29.256,10.913s-1.781,21.137,8.7,25.034,23.586-.988,29.264-10.917S611.448,341.447,600.963,337.548Z" transform="translate(-568.278 -335.064)"/><path class="cs" d="M600.946,337.524c-10.479-3.9-23.581.99-29.256,10.914s-1.781,21.138,8.7,25.034,23.586-.988,29.264-10.916S611.431,341.423,600.946,337.524Z" transform="translate(-568.273 -335.057)"/><path class="ct" d="M600.929,337.5c-10.479-3.9-23.581.991-29.256,10.913s-1.782,21.138,8.7,25.035,23.586-.989,29.264-10.917S611.414,341.4,600.929,337.5Z" transform="translate(-568.268 -335.05)"/><path class="cu" d="M600.912,337.477c-10.479-3.9-23.581.99-29.256,10.913s-1.782,21.138,8.7,25.035,23.586-.988,29.264-10.917S611.4,341.376,600.912,337.477Z" transform="translate(-568.263 -335.043)"/><path class="cv" d="M600.9,337.453c-10.479-3.9-23.581.99-29.256,10.913s-1.782,21.137,8.7,25.034,23.586-.988,29.264-10.917S611.38,341.352,600.9,337.453Z" transform="translate(-568.258 -335.036)"/><path class="cw" d="M600.878,337.429c-10.479-3.9-23.581.99-29.256,10.914s-1.782,21.138,8.7,25.035,23.586-.989,29.264-10.917S611.363,341.328,600.878,337.429Z" transform="translate(-568.253 -335.029)"/><path class="cx" d="M600.861,337.4c-10.479-3.9-23.581.991-29.256,10.913s-1.782,21.138,8.7,25.035,23.586-.988,29.264-10.917S611.345,341.3,600.861,337.4Z" transform="translate(-568.248 -335.022)"/><path class="cy" d="M600.844,337.382c-10.479-3.9-23.581.99-29.256,10.914s-1.782,21.137,8.7,25.034,23.586-.988,29.264-10.917S611.328,341.281,600.844,337.382Z" transform="translate(-568.243 -335.015)"/><path class="cz" d="M600.827,337.358c-10.479-3.9-23.581.99-29.256,10.913s-1.782,21.137,8.7,25.034,23.586-.988,29.264-10.917S611.311,341.257,600.827,337.358Z" transform="translate(-568.238 -335.008)"/><path class="da" d="M600.81,337.334c-10.479-3.9-23.581.99-29.256,10.914s-1.782,21.138,8.7,25.035,23.586-.989,29.264-10.917S611.294,341.233,600.81,337.334Z" transform="translate(-568.233 -335.001)"/><path class="db" d="M600.793,337.31c-10.479-3.9-23.581.991-29.256,10.913s-1.782,21.138,8.7,25.035,23.586-.989,29.264-10.917S611.277,341.21,600.793,337.31Z" transform="translate(-568.228 -334.995)"/><path class="dc" d="M600.776,337.287c-10.479-3.9-23.581.99-29.256,10.914s-1.782,21.137,8.7,25.034,23.586-.988,29.264-10.917S611.26,341.186,600.776,337.287Z" transform="translate(-568.223 -334.988)"/><path class="dd" d="M600.759,337.263c-10.479-3.9-23.581.99-29.256,10.913s-1.782,21.138,8.7,25.034,23.586-.988,29.264-10.916S611.243,341.162,600.759,337.263Z" transform="translate(-568.218 -334.981)"/><path class="de" d="M600.742,337.239c-10.479-3.9-23.581.991-29.256,10.913s-1.782,21.138,8.7,25.035,23.586-.989,29.264-10.917S611.226,341.138,600.742,337.239Z" transform="translate(-568.213 -334.974)"/><path class="df" d="M600.725,337.215c-10.479-3.9-23.581.991-29.256,10.913s-1.782,21.138,8.7,25.035,23.586-.988,29.264-10.917S611.209,341.115,600.725,337.215Z" transform="translate(-568.208 -334.967)"/><path class="dg" d="M600.708,337.192c-10.479-3.9-23.581.99-29.256,10.913s-1.782,21.137,8.7,25.034,23.586-.988,29.264-10.917S611.192,341.091,600.708,337.192Z" transform="translate(-568.203 -334.96)"/><path class="dh" d="M600.691,337.168c-10.479-3.9-23.581.99-29.256,10.913s-1.782,21.138,8.7,25.034,23.586-.988,29.264-10.916S611.175,341.067,600.691,337.168Z" transform="translate(-568.198 -334.953)"/><path class="di" d="M600.674,337.144c-10.479-3.9-23.581.991-29.256,10.913s-1.782,21.138,8.7,25.035,23.586-.989,29.264-10.917S611.158,341.043,600.674,337.144Z" transform="translate(-568.193 -334.946)"/><path class="dj" d="M600.657,337.121c-10.479-3.9-23.581.99-29.256,10.913s-1.782,21.137,8.7,25.034,23.586-.988,29.265-10.917S611.141,341.02,600.657,337.121Z" transform="translate(-568.188 -334.939)"/><path class="dk" d="M600.64,337.1c-10.479-3.9-23.581.99-29.256,10.914s-1.782,21.137,8.7,25.034,23.586-.988,29.265-10.917S611.124,341,600.64,337.1Z" transform="translate(-568.183 -334.932)"/><path class="dl" d="M600.623,337.073c-10.479-3.9-23.581.99-29.256,10.913s-1.782,21.138,8.7,25.035,23.586-.989,29.265-10.917S611.107,340.972,600.623,337.073Z" transform="translate(-568.178 -334.925)"/><path class="dm" d="M600.606,337.049c-10.479-3.9-23.581.991-29.256,10.913s-1.782,21.138,8.7,25.035,23.586-.988,29.265-10.917S611.09,340.948,600.606,337.049Z" transform="translate(-568.173 -334.918)"/><path class="dn" d="M600.588,337.026c-10.479-3.9-23.58.99-29.255,10.913s-1.782,21.137,8.7,25.034,23.586-.988,29.265-10.917S611.073,340.925,600.588,337.026Z" transform="translate(-568.169 -334.912)"/><path class="do" d="M600.571,337c-10.479-3.9-23.58.99-29.255,10.913s-1.782,21.138,8.7,25.034,23.586-.988,29.265-10.916S611.056,340.9,600.571,337Z" transform="translate(-568.164 -334.905)"/><path class="dp" d="M600.554,336.978c-10.479-3.9-23.58.991-29.255,10.914s-1.782,21.138,8.7,25.035,23.586-.989,29.264-10.917S611.039,340.877,600.554,336.978Z" transform="translate(-568.159 -334.898)"/><path class="dq" d="M600.537,336.954c-10.479-3.9-23.58.991-29.255,10.913s-1.782,21.138,8.7,25.035,23.586-.988,29.264-10.917S611.022,340.854,600.537,336.954Z" transform="translate(-568.154 -334.891)"/><path class="dr" d="M600.52,336.931c-10.479-3.9-23.58.99-29.255,10.913s-1.782,21.137,8.7,25.034,23.586-.988,29.264-10.917S611.005,340.83,600.52,336.931Z" transform="translate(-568.149 -334.884)"/><path class="ds" d="M600.5,336.907c-10.479-3.9-23.58.99-29.255,10.913s-1.782,21.138,8.7,25.034,23.586-.988,29.264-10.916S610.988,340.806,600.5,336.907Z" transform="translate(-568.144 -334.877)"/><path class="dt" d="M600.486,336.883c-10.479-3.9-23.58.991-29.256,10.913s-1.781,21.138,8.7,25.035,23.586-.989,29.264-10.917S610.971,340.782,600.486,336.883Z" transform="translate(-568.139 -334.87)"/><path class="du" d="M600.469,336.86c-10.479-3.9-23.58.99-29.256,10.913s-1.781,21.138,8.7,25.035,23.586-.988,29.264-10.917S610.954,340.759,600.469,336.86Z" transform="translate(-568.134 -334.863)"/><path class="dv" d="M600.452,336.836c-10.479-3.9-23.58.99-29.256,10.913s-1.781,21.137,8.7,25.034,23.586-.988,29.264-10.917S610.937,340.735,600.452,336.836Z" transform="translate(-568.129 -334.856)"/><path class="dw" d="M600.435,336.812c-10.479-3.9-23.58.99-29.256,10.913s-1.781,21.138,8.7,25.035,23.586-.989,29.264-10.917S610.92,340.711,600.435,336.812Z" transform="translate(-568.124 -334.849)"/><path class="dx" d="M600.418,336.788c-10.479-3.9-23.58.991-29.256,10.914s-1.781,21.138,8.7,25.035,23.586-.989,29.264-10.917S610.9,340.687,600.418,336.788Z" transform="translate(-568.119 -334.842)"/><path class="dy" d="M600.4,336.765c-10.479-3.9-23.581.99-29.256,10.914s-1.781,21.137,8.7,25.034,23.586-.988,29.264-10.917S610.886,340.664,600.4,336.765Z" transform="translate(-568.114 -334.835)"/><path class="dz" d="M600.384,336.741c-10.479-3.9-23.581.99-29.256,10.913s-1.782,21.137,8.7,25.034,23.586-.988,29.264-10.917S610.869,340.64,600.384,336.741Z" transform="translate(-568.109 -334.828)"/><path class="ea" d="M600.367,336.717c-10.479-3.9-23.581.99-29.256,10.913s-1.782,21.138,8.7,25.035,23.586-.989,29.264-10.917S610.852,340.616,600.367,336.717Z" transform="translate(-568.104 -334.821)"/><path class="eb" d="M600.35,336.693c-10.479-3.9-23.581.991-29.256,10.914s-1.782,21.138,8.7,25.035,23.586-.988,29.264-10.917S610.835,340.593,600.35,336.693Z" transform="translate(-568.099 -334.815)"/><path class="ec" d="M600.333,336.67c-10.479-3.9-23.581.99-29.256,10.914s-1.782,21.137,8.7,25.034,23.586-.988,29.264-10.917S610.818,340.569,600.333,336.67Z" transform="translate(-568.094 -334.808)"/><path class="ed" d="M600.316,336.646c-10.479-3.9-23.581.99-29.256,10.913s-1.782,21.138,8.7,25.034,23.586-.988,29.264-10.916S610.8,340.545,600.316,336.646Z" transform="translate(-568.089 -334.801)"/><path class="ee" d="M600.3,336.622c-10.479-3.9-23.581.991-29.256,10.913s-1.782,21.138,8.7,25.035,23.586-.989,29.264-10.917S610.783,340.521,600.3,336.622Z" transform="translate(-568.084 -334.794)"/><path class="ef" d="M600.282,336.6c-10.479-3.9-23.581.991-29.256,10.914s-1.782,21.138,8.7,25.035,23.586-.988,29.264-10.917S610.766,340.5,600.282,336.6Z" transform="translate(-568.079 -334.787)"/><path class="eg" d="M600.265,336.575c-10.479-3.9-23.581.99-29.256,10.913s-1.782,21.137,8.7,25.034,23.586-.988,29.264-10.917S610.749,340.474,600.265,336.575Z" transform="translate(-568.074 -334.78)"/><path class="eh" d="M600.248,336.551c-10.479-3.9-23.581.99-29.256,10.913s-1.782,21.138,8.7,25.034,23.586-.988,29.264-10.916S610.732,340.45,600.248,336.551Z" transform="translate(-568.069 -334.773)"/><path class="ei" d="M600.231,336.527c-10.479-3.9-23.581.991-29.256,10.913s-1.782,21.138,8.7,25.035,23.586-.989,29.264-10.917S610.715,340.426,600.231,336.527Z" transform="translate(-568.064 -334.766)"/><path class="ej" d="M600.214,336.5c-10.479-3.9-23.581.99-29.256,10.913s-1.782,21.138,8.7,25.035,23.586-.988,29.264-10.917S610.7,340.4,600.214,336.5Z" transform="translate(-568.059 -334.759)"/><path class="ek" d="M600.2,336.48c-10.479-3.9-23.581.99-29.256,10.913s-1.782,21.137,8.7,25.034,23.586-.988,29.264-10.917S610.681,340.379,600.2,336.48Z" transform="translate(-568.054 -334.752)"/><path class="el" d="M600.18,336.456c-10.479-3.9-23.581.99-29.256,10.913s-1.782,21.138,8.7,25.035,23.586-.989,29.264-10.917S610.664,340.355,600.18,336.456Z" transform="translate(-568.049 -334.745)"/><path class="em" d="M600.163,336.432c-10.479-3.9-23.581.991-29.256,10.913s-1.782,21.138,8.7,25.035,23.586-.988,29.264-10.917S610.647,340.331,600.163,336.432Z" transform="translate(-568.044 -334.738)"/><path class="en" d="M600.146,336.409c-10.479-3.9-23.581.99-29.256,10.913s-1.782,21.137,8.7,25.034,23.586-.988,29.264-10.917S610.63,340.308,600.146,336.409Z" transform="translate(-568.039 -334.732)"/><path class="eo" d="M600.129,336.385c-10.479-3.9-23.581.99-29.256,10.913s-1.782,21.138,8.7,25.034,23.586-.988,29.264-10.917S610.613,340.284,600.129,336.385Z" transform="translate(-568.034 -334.725)"/><path class="ep" d="M600.112,336.361c-10.479-3.9-23.581.99-29.256,10.914s-1.782,21.138,8.7,25.035,23.586-.989,29.265-10.917S610.6,340.26,600.112,336.361Z" transform="translate(-568.029 -334.718)"/><path class="eq" d="M600.095,336.337c-10.479-3.9-23.581.991-29.256,10.913s-1.782,21.138,8.7,25.035,23.586-.989,29.265-10.917S610.579,340.237,600.095,336.337Z" transform="translate(-568.024 -334.711)"/><path class="er" d="M600.078,336.314c-10.479-3.9-23.581.99-29.256,10.913s-1.782,21.137,8.7,25.034,23.586-.988,29.265-10.917S610.562,340.213,600.078,336.314Z" transform="translate(-568.019 -334.704)"/><path class="es" d="M600.061,336.29c-10.479-3.9-23.581.99-29.256,10.913s-1.782,21.138,8.7,25.034,23.586-.988,29.265-10.916S610.545,340.189,600.061,336.29Z" transform="translate(-568.014 -334.697)"/><path class="et" d="M600.043,336.266c-10.479-3.9-23.58.991-29.255,10.913s-1.782,21.138,8.7,25.035,23.586-.989,29.265-10.917S610.528,340.165,600.043,336.266Z" transform="translate(-568.01 -334.69)"/><path class="eu" d="M600.026,336.242c-10.479-3.9-23.58.991-29.255,10.913s-1.782,21.138,8.7,25.035,23.586-.988,29.265-10.917S610.511,340.142,600.026,336.242Z" transform="translate(-568.005 -334.683)"/><path class="ev" d="M600.009,336.219c-10.479-3.9-23.58.99-29.255,10.913s-1.782,21.137,8.7,25.034,23.586-.988,29.264-10.917S610.494,340.118,600.009,336.219Z" transform="translate(-568 -334.676)"/><path class="ew" d="M599.992,336.195c-10.479-3.9-23.58.99-29.255,10.913s-1.782,21.138,8.7,25.034,23.586-.988,29.264-10.916S610.477,340.094,599.992,336.195Z" transform="translate(-567.995 -334.669)"/><path class="ex" d="M599.975,336.171c-10.479-3.9-23.58.991-29.255,10.914s-1.782,21.138,8.7,25.035S603,371.13,608.681,361.2,610.46,340.07,599.975,336.171Z" transform="translate(-567.99 -334.662)"/><path class="ey" d="M599.958,336.148c-10.479-3.9-23.58.99-29.255,10.913s-1.782,21.137,8.7,25.034,23.586-.988,29.264-10.917S610.443,340.047,599.958,336.148Z" transform="translate(-567.985 -334.655)"/><path class="ez" d="M599.941,336.124c-10.479-3.9-23.58.99-29.256,10.914s-1.781,21.137,8.7,25.034,23.586-.988,29.264-10.917S610.426,340.023,599.941,336.124Z" transform="translate(-567.98 -334.648)"/><path class="fa" d="M599.924,336.1c-10.479-3.9-23.58.99-29.256,10.913s-1.781,21.138,8.7,25.035,23.586-.989,29.264-10.917S610.409,340,599.924,336.1Z" transform="translate(-567.975 -334.641)"/><path class="fb" d="M599.907,336.076c-10.479-3.9-23.58.991-29.256,10.914s-1.781,21.138,8.7,25.035,23.586-.988,29.264-10.917S610.392,339.975,599.907,336.076Z" transform="translate(-567.97 -334.634)"/><path class="fc" d="M599.89,336.053c-10.479-3.9-23.58.99-29.256,10.913s-1.781,21.137,8.7,25.034,23.586-.988,29.264-10.917S610.375,339.952,599.89,336.053Z" transform="translate(-567.965 -334.628)"/><path class="fd" d="M599.873,336.029c-10.479-3.9-23.58.99-29.256,10.914s-1.781,21.138,8.7,25.034,23.586-.988,29.264-10.916S610.358,339.928,599.873,336.029Z" transform="translate(-567.96 -334.621)"/><path class="fe" d="M599.856,336c-10.479-3.9-23.581.991-29.256,10.913s-1.781,21.138,8.7,25.035,23.586-.989,29.264-10.917S610.341,339.9,599.856,336Z" transform="translate(-567.955 -334.614)"/><path class="ff" d="M599.839,335.981c-10.479-3.9-23.581.991-29.256,10.914s-1.782,21.138,8.7,25.035,23.586-.988,29.264-10.917S610.324,339.881,599.839,335.981Z" transform="translate(-567.95 -334.607)"/><path class="fg" d="M599.822,335.958c-10.479-3.9-23.581.99-29.256,10.913s-1.782,21.137,8.7,25.034,23.586-.988,29.264-10.917S610.307,339.857,599.822,335.958Z" transform="translate(-567.945 -334.6)"/><path class="fh" d="M599.8,335.934c-10.479-3.9-23.581.99-29.256,10.914s-1.782,21.138,8.7,25.034,23.586-.988,29.264-10.916S610.29,339.833,599.8,335.934Z" transform="translate(-567.94 -334.593)"/></g><g class="b" transform="translate(567.861 332.745)"><g class="fi" transform="translate(0)"><g class="b" transform="translate(0 0)"><path class="fj" d="M597.3,346.361l.628,1.427a.6.6,0,0,0-.276-.2.806.806,0,0,0-.437-.028l-.628-1.427a.793.793,0,0,1,.437.028.6.6,0,0,1,.276.2" transform="translate(-596.02 -346.112)"/><path class="fk" d="M596.541,346.138l.628,1.427a1.072,1.072,0,0,0-.113.031l-.628-1.427a.884.884,0,0,1,.113-.031" transform="translate(-595.973 -346.12)"/><path class="fl" d="M596.392,346.182l.628,1.427a.937.937,0,0,0-.088.036l-.628-1.427a.8.8,0,0,1,.089-.035" transform="translate(-595.937 -346.133)"/><path class="fm" d="M596.271,346.232l.628,1.427a.8.8,0,0,0-.077.041l-.628-1.427c.025-.015.05-.028.076-.041" transform="translate(-595.905 -346.147)"/><path class="fn" d="M596.166,346.29l.628,1.427c-.023.014-.047.03-.069.046l-.628-1.427a.782.782,0,0,1,.069-.046" transform="translate(-595.877 -346.164)"/><path class="fo" d="M596.07,346.355l.628,1.427a.813.813,0,0,0-.065.054L596,346.409c.021-.019.043-.037.066-.054" transform="translate(-595.85 -346.183)"/><path class="fp" d="M595.977,346.431l.628,1.427a.721.721,0,0,0-.065.067l-.628-1.427c.021-.023.042-.045.065-.067" transform="translate(-595.823 -346.205)"/><path class="fq" d="M595.883,346.525l.628,1.427a.775.775,0,0,0-.071.094l-.628-1.427a.831.831,0,0,1,.07-.094" transform="translate(-595.794 -346.233)"/><path class="fr" d="M595.805,346.658l.628,1.427c-.006.01-.013.021-.018.031l-.628-1.427.019-.031" transform="translate(-595.786 -346.271)"/></g></g></g><g class="b" transform="translate(547.536 323.182)"><g class="fs"><g class="b" transform="translate(0 0)"><path class="ft" d="M616.848,343.019l.628,1.427a17.1,17.1,0,0,0-9.946-9.069,22.917,22.917,0,0,0-12.568-.835l-.628-1.427a22.917,22.917,0,0,1,12.568.836,17.1,17.1,0,0,1,9.946,9.068" transform="translate(-575.037 -332.61)"/><path class="fu" d="M592.988,333.323l.628,1.427a25.914,25.914,0,0,0-3.268.9l-.628-1.427a25.838,25.838,0,0,1,3.268-.9" transform="translate(-573.691 -332.818)"/><path class="fv" d="M588.647,334.589l.628,1.427a26.328,26.328,0,0,0-2.6,1.061l-.628-1.427a26.154,26.154,0,0,1,2.6-1.06" transform="translate(-572.619 -333.187)"/><path class="fw" d="M585.109,336.086l.628,1.427q-1.163.547-2.269,1.208l-.628-1.427q1.1-.661,2.269-1.209" transform="translate(-571.684 -333.624)"/><path class="fx" d="M581.986,337.793l.628,1.427q-1.069.64-2.073,1.38l-.628-1.427q1-.74,2.073-1.38" transform="translate(-570.831 -334.122)"/><path class="fy" d="M579.106,339.742l.628,1.427a24.757,24.757,0,0,0-1.959,1.608l-.628-1.427a24.746,24.746,0,0,1,1.959-1.607" transform="translate(-570.024 -334.69)"/><path class="fz" d="M576.351,342.011l.628,1.427a23.722,23.722,0,0,0-1.932,1.973l-.628-1.427a23.853,23.853,0,0,1,1.932-1.973" transform="translate(-569.228 -335.352)"/><path class="ga" d="M573.579,344.8l.628,1.427a22.778,22.778,0,0,0-2.039,2.723l-.628-1.427a22.778,22.778,0,0,1,2.038-2.723" transform="translate(-568.388 -336.165)"/><path class="gb" d="M570.243,348.641l.628,1.427q-.282.442-.543.9a18.571,18.571,0,0,0-2.542,10.9l-.628-1.427a18.574,18.574,0,0,1,2.542-10.9q.261-.457.543-.9" transform="translate(-567.09 -337.286)"/><path class="ga" d="M567.185,365.3l.628,1.427a16.257,16.257,0,0,0,.551,2.988l-.628-1.427a16.282,16.282,0,0,1-.552-2.989" transform="translate(-567.118 -342.145)"/><path class="fz" d="M567.964,369.519l.628,1.427a15.951,15.951,0,0,0,.749,2.082l-.628-1.426a15.937,15.937,0,0,1-.749-2.082" transform="translate(-567.345 -343.376)"/></g></g></g><g class="b" transform="translate(548.435 350.214)"><g class="gc" transform="translate(0)"><g class="b" transform="translate(-0.28 -0.89)"><path class="fz" d="M567.964,369.519l.628,1.427a15.951,15.951,0,0,0,.749,2.082l-.628-1.426a15.937,15.937,0,0,1-.749-2.082" transform="translate(-567.964 -369.519)"/></g></g></g><g transform="translate(559.504 333.163)"><path class="gd" d="M592.344,346.7l.628,1.427-8.357,14.613-.628-1.427Z" transform="translate(-583.987 -346.703)"/></g><g class="b" transform="translate(559.414 347.777)"><g class="ge"><g class="b" transform="translate(0)"><path class="fr" d="M583.95,367.334l.628,1.427a.631.631,0,0,0-.087.373l-.628-1.427a.634.634,0,0,1,.088-.373" transform="translate(-583.86 -367.334)"/><path class="fq" d="M583.863,367.861l.628,1.427a.535.535,0,0,0,.018.1l-.628-1.427a.551.551,0,0,1-.019-.1" transform="translate(-583.861 -367.488)"/><path class="fp" d="M583.89,368l.628,1.427a.473.473,0,0,0,.026.072l-.628-1.427a.489.489,0,0,1-.026-.071" transform="translate(-583.869 -367.529)"/></g></g></g><g class="b" transform="translate(559.461 348.322)"><g class="gf" transform="translate(0)"><g class="b"><path class="gg" d="M584.641,368.453l.628,1.427a.76.76,0,0,1-.374-.035.59.59,0,0,1-.341-.314l-.628-1.427a.59.59,0,0,0,.341.314.76.76,0,0,0,.374.035" transform="translate(-583.926 -368.104)"/></g></g></g><g transform="translate(569.141 332.994)"><path class="gh" d="M606.781,358.742l.628,1.427-9.188-12.278-.628-1.427Z" transform="translate(-597.593 -346.464)"/></g><g class="b" transform="translate(578.329 345.272)"><g class="gi"><g class="b"><path class="fj" d="M610.629,363.907l.628,1.427a.536.536,0,0,0-.064-.109l-.628-1.427a.536.536,0,0,1,.064.109" transform="translate(-610.565 -363.798)"/></g></g></g><g transform="translate(560.175 346.341)"><path class="gj" d="M602.477,365.307l.628,1.427-17.542,2.33-.628-1.427Z" transform="translate(-584.935 -365.307)"/></g><g class="b" transform="translate(577.718 345.381)"><g class="gk"><g class="b"><path class="gl" d="M610.655,363.952l.628,1.427a.508.508,0,0,1,.025.069l-.628-1.427a.585.585,0,0,0-.025-.07" transform="translate(-609.98 -363.952)"/><path class="gm" d="M610.691,364.051l.628,1.427a.5.5,0,0,1,.018.1l-.628-1.427a.6.6,0,0,0-.018-.1" transform="translate(-609.99 -363.981)"/><path class="gn" d="M610.673,364.193l.628,1.427a.653.653,0,0,1-.107.4l-.628-1.427a.653.653,0,0,0,.107-.4" transform="translate(-609.954 -364.022)"/><path class="gm" d="M610.536,364.763l.628,1.427a.859.859,0,0,1-.072.1l-.628-1.427a.831.831,0,0,0,.072-.1" transform="translate(-609.924 -364.189)"/><path class="gl" d="M610.436,364.9l.628,1.427c-.021.023-.044.047-.067.069l-.628-1.427a.767.767,0,0,0,.067-.069" transform="translate(-609.897 -364.228)"/><path class="go" d="M610.341,365l.628,1.427c-.022.019-.045.038-.068.055l-.628-1.427c.024-.018.047-.037.068-.056" transform="translate(-609.869 -364.257)"/><path class="gp" d="M610.244,365.075l.628,1.427c-.023.017-.047.033-.071.047l-.628-1.427a.819.819,0,0,0,.071-.047" transform="translate(-609.839 -364.28)"/><path class="gq" d="M610.141,365.141l.628,1.427c-.025.015-.051.028-.077.041l-.628-1.427a.715.715,0,0,0,.077-.041" transform="translate(-609.808 -364.299)"/><path class="gr" d="M610.028,365.2l.628,1.427c-.028.013-.058.026-.088.036l-.628-1.427a.882.882,0,0,0,.088-.036" transform="translate(-609.771 -364.316)"/><path class="gs" d="M609.892,365.25l.628,1.427a.908.908,0,0,1-.116.031l-.628-1.427a.992.992,0,0,0,.116-.032" transform="translate(-609.724 -364.331)"/><path class="gg" d="M609.754,365.3l.628,1.427c-.018,0-.035.007-.053.009L609.7,365.3l.052-.009" transform="translate(-609.702 -364.344)"/></g></g></g><path class="gt" d="M609.666,363.108q.211-.455.4-.91c.05-.123.1-.244.147-.366.157-.408.3-.816.43-1.225l0-.011c.128-.413.235-.826.332-1.238.029-.123.054-.245.08-.368q.1-.458.171-.914c.02-.122.041-.244.058-.365.056-.4.1-.807.131-1.208v-.02c.028-.407.038-.812.036-1.216,0-.119,0-.238-.007-.357q-.011-.445-.044-.886c-.006-.074,0-.149-.011-.222,0-.04-.012-.079-.016-.12-.043-.443-.1-.884-.181-1.32-.014-.079-.033-.157-.048-.237q-.113-.575-.266-1.138c-.016-.057-.024-.116-.04-.174-.011-.038-.025-.074-.036-.112-.066-.226-.14-.449-.215-.671-.037-.109-.07-.219-.109-.327-.119-.327-.247-.65-.387-.968v0l-.628-1.427c.14.319.268.644.388.972.039.108.072.218.109.327.076.222.15.446.216.672.027.094.05.19.076.285q.153.563.266,1.139c.015.079.033.157.048.236q.117.653.181,1.32c.011.113.018.227.027.341q.034.441.045.887c0,.119.006.237.007.356,0,.4-.008.809-.036,1.216l0,.02c-.028.4-.074.8-.131,1.208-.017.122-.038.244-.057.365-.049.3-.106.609-.172.914-.026.123-.051.245-.079.368-.1.412-.2.825-.333,1.238l0,.011c-.126.409-.273.817-.429,1.225-.047.122-.1.244-.148.366q-.186.456-.4.91c-.057.122-.112.244-.171.365-.2.409-.41.817-.642,1.222q-.264.461-.548.907c-.273.428-.565.842-.865,1.249-.064.088-.129.176-.195.262-.3.395-.609.78-.933,1.154-.067.077-.137.152-.2.229q-.315.354-.643.7c-.094.1-.19.195-.285.291q-.327.327-.667.642c-.085.079-.168.159-.254.237q-.4.36-.812.7c-.026.021-.05.045-.076.066-.3.249-.613.488-.928.722-.1.075-.2.146-.306.22-.213.154-.427.306-.645.453-.122.083-.247.163-.37.243q-.306.2-.618.39-.191.117-.384.23c-.229.135-.46.264-.693.392-.118.064-.234.13-.352.192q-.437.229-.881.442c-.061.028-.12.06-.181.089-.382.18-.768.348-1.158.509-.11.045-.222.088-.334.132-.29.115-.584.226-.878.33q-.173.063-.348.122c-.467.159-.937.306-1.412.438-.078.021-.156.04-.235.061q-.657.176-1.322.317c-.079.017-.159.036-.238.052q-.69.139-1.385.238l-.314.042c-.412.054-.825.1-1.24.131l-.219.02c-.466.033-.932.05-1.4.056-.11,0-.219,0-.329,0-.425,0-.849-.011-1.273-.035l-.169-.008c-.465-.03-.929-.077-1.391-.135-.111-.014-.222-.03-.332-.045-.438-.062-.875-.134-1.309-.222l-.1-.018c-.458-.1-.912-.21-1.363-.336-.11-.031-.22-.062-.329-.095-.453-.134-.9-.278-1.349-.443a17.6,17.6,0,0,1-8.315-6.211,15.993,15.993,0,0,1-1.624-2.852h0l.628,1.426a17.084,17.084,0,0,0,9.939,9.064c.445.165.9.309,1.349.443l.329.095c.451.125.9.24,1.362.335l.1.018c.433.089.871.16,1.308.222.111.016.222.032.333.045.462.058.926.106,1.391.135.057,0,.113,0,.169.007q.635.035,1.272.035c.11,0,.22,0,.331,0,.465-.006.931-.023,1.4-.057.073,0,.146-.013.219-.019q.62-.05,1.238-.132c.106-.013.211-.026.317-.041.463-.067.924-.145,1.383-.238l.077-.013c.055-.011.109-.028.164-.04q.664-.14,1.321-.316c.078-.021.156-.04.234-.062q.712-.2,1.412-.437c.045-.016.091-.027.136-.043.071-.024.14-.054.211-.079q.442-.157.878-.33c.111-.044.223-.086.334-.132q.584-.24,1.157-.508l.024-.011c.053-.025.1-.054.157-.079q.444-.212.88-.441c.119-.063.237-.129.355-.193q.349-.19.691-.39c.062-.036.125-.069.186-.1s.132-.085.2-.125c.208-.127.414-.257.618-.39.124-.081.248-.16.37-.243.219-.147.433-.3.647-.454.079-.057.161-.11.239-.168l.064-.05c.314-.234.625-.475.928-.722.026-.021.051-.045.077-.066q.413-.342.812-.7c.026-.023.052-.045.078-.067.06-.055.116-.115.176-.17.226-.21.449-.424.667-.643.1-.1.19-.193.285-.291q.328-.341.642-.7c.053-.059.11-.115.161-.174.016-.018.029-.037.044-.055.324-.373.633-.759.933-1.153.066-.086.13-.174.195-.262.3-.407.591-.822.864-1.249l0-.006q.283-.443.544-.9c.232-.405.443-.813.642-1.222C609.554,363.352,609.609,363.23,609.666,363.108Z" transform="translate(-20.118 -13.715)"/><path class="gu" d="M598.955,333.951c-10.479-3.9-23.58.99-29.255,10.914S567.918,366,578.4,369.9s23.586-.988,29.264-10.917S609.44,337.85,598.955,333.951Z" transform="translate(-19.554 -9.428)"/><path class="gv" d="M598.955,333.951c-10.479-3.9-23.58.99-29.255,10.914S567.918,366,578.4,369.9s23.586-.988,29.264-10.917S609.44,337.85,598.955,333.951Zm8.515,24.922a24.934,24.934,0,0,1-21.428,12.147,21.628,21.628,0,0,1-7.569-1.328,16.712,16.712,0,0,1-10.206-9.924,17.487,17.487,0,0,1,1.623-14.794,24.929,24.929,0,0,1,21.425-12.145,21.623,21.623,0,0,1,7.563,1.327,16.724,16.724,0,0,1,10.213,9.929A17.48,17.48,0,0,1,607.47,358.872Z" transform="translate(-19.554 -9.428)"/><g transform="translate(559.414 332.745)"><path class="gw" d="M593.312,346.158a.6.6,0,0,1,.276.2l9.188,12.278c.3.4-.042.987-.611,1.07l-17.542,2.33a.761.761,0,0,1-.374-.035.578.578,0,0,1-.3-.859l8.357-14.614A.856.856,0,0,1,593.312,346.158Z" transform="translate(-583.86 -346.112)"/></g><path class="gx" d="M661.85,345.8c.022-.084.045-.167.062-.251a6.043,6.043,0,0,0,.124-.837v-.006a5.769,5.769,0,0,0-.009-.829c0-.03,0-.06,0-.09-.011-.117-.03-.232-.047-.346-.006-.045-.011-.089-.018-.134a5.381,5.381,0,0,0-.123-.543c0-.013-.01-.026-.013-.038a5.5,5.5,0,0,0-.243-.675l-.628-1.427a5.336,5.336,0,0,1,.242.674,5.544,5.544,0,0,1,.137.582c.008.045.011.09.018.134.022.145.037.29.048.436a5.868,5.868,0,0,1,.008.829v.006a6.29,6.29,0,0,1-.124.837c-.018.083-.041.166-.062.25a6.391,6.391,0,0,1-.195.628c-.03.084-.059.168-.093.251a7.094,7.094,0,0,1-.4.842L630.6,398.425l.628,1.427,29.926-52.329a7.03,7.03,0,0,0,.405-.842c.035-.084.063-.167.094-.251A6.446,6.446,0,0,0,661.85,345.8Z" transform="translate(-38.081 -11.767)"/><g transform="translate(526.352 381.922)"><path class="gy" d="M571.473,430.1l-30.03-11.168a2.616,2.616,0,0,0-3.07,1.145,1.761,1.761,0,0,0,.916,2.621l30.03,11.168a2.616,2.616,0,0,0,3.067-1.14A1.763,1.763,0,0,0,571.473,430.1Z" transform="translate(-537.45 -416.489)"/><path class="gz" d="M571.446,430l-30.03-11.168a2.617,2.617,0,0,0-3.07,1.145,1.761,1.761,0,0,0,.916,2.621l30.03,11.168a2.615,2.615,0,0,0,3.067-1.14A1.762,1.762,0,0,0,571.446,430Z" transform="translate(-537.442 -416.461)"/><path class="ha" d="M571.419,429.909l-30.03-11.168a2.617,2.617,0,0,0-3.07,1.145,1.761,1.761,0,0,0,.916,2.621l30.03,11.168a2.616,2.616,0,0,0,3.067-1.14A1.763,1.763,0,0,0,571.419,429.909Z" transform="translate(-537.434 -416.433)"/><path class="hb" d="M571.392,429.813l-30.03-11.168a2.616,2.616,0,0,0-3.07,1.145,1.761,1.761,0,0,0,.916,2.621l30.03,11.168a2.616,2.616,0,0,0,3.066-1.14A1.763,1.763,0,0,0,571.392,429.813Z" transform="translate(-537.426 -416.405)"/><path class="hc" d="M571.365,429.718l-30.03-11.168a2.618,2.618,0,0,0-3.07,1.145,1.762,1.762,0,0,0,.917,2.621l30.03,11.168a2.615,2.615,0,0,0,3.066-1.14A1.763,1.763,0,0,0,571.365,429.718Z" transform="translate(-537.418 -416.377)"/><path class="hd" d="M571.338,429.622l-30.029-11.168a2.618,2.618,0,0,0-3.07,1.145,1.761,1.761,0,0,0,.917,2.621l30.029,11.168a2.615,2.615,0,0,0,3.067-1.14A1.763,1.763,0,0,0,571.338,429.622Z" transform="translate(-537.41 -416.349)"/><path class="he" d="M571.311,429.526l-30.03-11.168a2.617,2.617,0,0,0-3.07,1.145,1.762,1.762,0,0,0,.917,2.621l30.029,11.168a2.616,2.616,0,0,0,3.067-1.14A1.763,1.763,0,0,0,571.311,429.526Z" transform="translate(-537.403 -416.321)"/><path class="hf" d="M571.284,429.431l-30.03-11.168a2.617,2.617,0,0,0-3.07,1.145,1.762,1.762,0,0,0,.916,2.621L569.13,433.2a2.615,2.615,0,0,0,3.067-1.14A1.762,1.762,0,0,0,571.284,429.431Z" transform="translate(-537.395 -416.294)"/><path class="hg" d="M571.257,429.335l-30.03-11.168a2.617,2.617,0,0,0-3.07,1.145,1.761,1.761,0,0,0,.916,2.621L569.1,433.1a2.614,2.614,0,0,0,3.067-1.14A1.763,1.763,0,0,0,571.257,429.335Z" transform="translate(-537.387 -416.266)"/><path class="hh" d="M571.23,429.239,541.2,418.071a2.617,2.617,0,0,0-3.07,1.145,1.762,1.762,0,0,0,.916,2.621l30.03,11.168a2.615,2.615,0,0,0,3.067-1.14A1.763,1.763,0,0,0,571.23,429.239Z" transform="translate(-537.379 -416.238)"/><path class="hi" d="M571.2,429.144l-30.03-11.168a2.617,2.617,0,0,0-3.07,1.145,1.761,1.761,0,0,0,.916,2.621l30.03,11.168a2.615,2.615,0,0,0,3.067-1.14A1.763,1.763,0,0,0,571.2,429.144Z" transform="translate(-537.371 -416.21)"/><path class="hj" d="M571.176,429.048l-30.03-11.168a2.618,2.618,0,0,0-3.07,1.145,1.761,1.761,0,0,0,.916,2.621l30.03,11.168a2.615,2.615,0,0,0,3.067-1.14A1.762,1.762,0,0,0,571.176,429.048Z" transform="translate(-537.363 -416.182)"/><path class="hk" d="M571.149,428.953l-30.03-11.168a2.617,2.617,0,0,0-3.07,1.145,1.762,1.762,0,0,0,.916,2.621l30.03,11.168a2.615,2.615,0,0,0,3.067-1.14A1.763,1.763,0,0,0,571.149,428.953Z" transform="translate(-537.355 -416.154)"/><path class="hl" d="M571.122,428.857l-30.03-11.168a2.616,2.616,0,0,0-3.07,1.145,1.761,1.761,0,0,0,.916,2.621l30.03,11.168a2.616,2.616,0,0,0,3.067-1.14A1.763,1.763,0,0,0,571.122,428.857Z" transform="translate(-537.347 -416.126)"/><path class="hm" d="M571.095,428.762l-30.03-11.168a2.618,2.618,0,0,0-3.07,1.145,1.762,1.762,0,0,0,.916,2.621l30.03,11.168a2.616,2.616,0,0,0,3.067-1.14A1.763,1.763,0,0,0,571.095,428.762Z" transform="translate(-537.34 -416.098)"/><path class="hn" d="M571.068,428.666,541.038,417.5a2.616,2.616,0,0,0-3.07,1.145,1.761,1.761,0,0,0,.916,2.621l30.03,11.168a2.616,2.616,0,0,0,3.067-1.14A1.763,1.763,0,0,0,571.068,428.666Z" transform="translate(-537.332 -416.071)"/><path class="ho" d="M571.04,428.57,541.011,417.4a2.616,2.616,0,0,0-3.07,1.145,1.761,1.761,0,0,0,.916,2.621l30.03,11.168a2.615,2.615,0,0,0,3.067-1.14A1.762,1.762,0,0,0,571.04,428.57Z" transform="translate(-537.324 -416.043)"/><path class="hp" d="M571.013,428.475l-30.03-11.168a2.617,2.617,0,0,0-3.07,1.145,1.761,1.761,0,0,0,.916,2.621l30.03,11.168a2.616,2.616,0,0,0,3.067-1.14A1.763,1.763,0,0,0,571.013,428.475Z" transform="translate(-537.316 -416.015)"/><path class="hq" d="M570.986,428.379l-30.03-11.168a2.616,2.616,0,0,0-3.07,1.145,1.761,1.761,0,0,0,.916,2.621l30.03,11.168a2.616,2.616,0,0,0,3.067-1.14A1.763,1.763,0,0,0,570.986,428.379Z" transform="translate(-537.308 -415.987)"/><path class="hr" d="M570.959,428.284l-30.03-11.168a2.616,2.616,0,0,0-3.07,1.145,1.761,1.761,0,0,0,.916,2.621l30.03,11.168a2.615,2.615,0,0,0,3.066-1.14A1.763,1.763,0,0,0,570.959,428.284Z" transform="translate(-537.3 -415.959)"/><path class="hs" d="M570.932,428.188,540.9,417.02a2.618,2.618,0,0,0-3.07,1.145,1.762,1.762,0,0,0,.917,2.621l30.03,11.168a2.615,2.615,0,0,0,3.066-1.14A1.763,1.763,0,0,0,570.932,428.188Z" transform="translate(-537.292 -415.931)"/><path class="ht" d="M570.9,428.092l-30.029-11.168a2.618,2.618,0,0,0-3.07,1.145,1.762,1.762,0,0,0,.917,2.621l30.029,11.168a2.615,2.615,0,0,0,3.067-1.14A1.762,1.762,0,0,0,570.9,428.092Z" transform="translate(-537.284 -415.903)"/><path class="hu" d="M570.878,428l-30.03-11.168a2.618,2.618,0,0,0-3.07,1.145,1.762,1.762,0,0,0,.916,2.621l30.03,11.168a2.615,2.615,0,0,0,3.067-1.14A1.763,1.763,0,0,0,570.878,428Z" transform="translate(-537.276 -415.875)"/><path class="hv" d="M570.851,427.9l-30.03-11.168a2.617,2.617,0,0,0-3.07,1.145,1.761,1.761,0,0,0,.916,2.621l30.03,11.168a2.616,2.616,0,0,0,3.067-1.14A1.763,1.763,0,0,0,570.851,427.9Z" transform="translate(-537.268 -415.847)"/><path class="hw" d="M570.824,427.806l-30.03-11.168a2.618,2.618,0,0,0-3.07,1.145,1.762,1.762,0,0,0,.916,2.621l30.03,11.168a2.616,2.616,0,0,0,3.067-1.14A1.763,1.763,0,0,0,570.824,427.806Z" transform="translate(-537.26 -415.82)"/><path class="hx" d="M570.8,427.71l-30.03-11.168a2.617,2.617,0,0,0-3.07,1.145,1.761,1.761,0,0,0,.916,2.621l30.03,11.168a2.615,2.615,0,0,0,3.067-1.14A1.763,1.763,0,0,0,570.8,427.71Z" transform="translate(-537.253 -415.792)"/><path class="hy" d="M570.77,427.614l-30.03-11.168a2.617,2.617,0,0,0-3.07,1.145,1.762,1.762,0,0,0,.916,2.621l30.03,11.168a2.615,2.615,0,0,0,3.067-1.14A1.762,1.762,0,0,0,570.77,427.614Z" transform="translate(-537.245 -415.764)"/><path class="hz" d="M570.743,427.519l-30.03-11.168a2.617,2.617,0,0,0-3.07,1.145,1.762,1.762,0,0,0,.916,2.621l30.03,11.168a2.616,2.616,0,0,0,3.067-1.14A1.763,1.763,0,0,0,570.743,427.519Z" transform="translate(-537.237 -415.736)"/><path class="ia" d="M570.716,427.423l-30.03-11.168a2.616,2.616,0,0,0-3.07,1.145,1.761,1.761,0,0,0,.916,2.621l30.03,11.168a2.616,2.616,0,0,0,3.067-1.14A1.763,1.763,0,0,0,570.716,427.423Z" transform="translate(-537.229 -415.708)"/><path class="ib" d="M570.689,427.328l-30.03-11.168a2.616,2.616,0,0,0-3.07,1.145,1.762,1.762,0,0,0,.916,2.621l30.03,11.168a2.616,2.616,0,0,0,3.067-1.14A1.763,1.763,0,0,0,570.689,427.328Z" transform="translate(-537.221 -415.68)"/><path class="ic" d="M570.662,427.232l-30.03-11.168a2.616,2.616,0,0,0-3.07,1.145,1.761,1.761,0,0,0,.916,2.621L568.508,431a2.615,2.615,0,0,0,3.067-1.14A1.763,1.763,0,0,0,570.662,427.232Z" transform="translate(-537.213 -415.652)"/><path class="id" d="M570.635,427.136,540.6,415.968a2.617,2.617,0,0,0-3.07,1.145,1.762,1.762,0,0,0,.916,2.621l30.03,11.168a2.615,2.615,0,0,0,3.067-1.14A1.762,1.762,0,0,0,570.635,427.136Z" transform="translate(-537.205 -415.624)"/><path class="ie" d="M570.607,427.041l-30.03-11.168a2.617,2.617,0,0,0-3.07,1.145,1.761,1.761,0,0,0,.916,2.621l30.03,11.168a2.616,2.616,0,0,0,3.067-1.14A1.763,1.763,0,0,0,570.607,427.041Z" transform="translate(-537.197 -415.597)"/><path class="if" d="M570.58,426.945l-30.03-11.168a2.616,2.616,0,0,0-3.07,1.145,1.761,1.761,0,0,0,.916,2.621l30.03,11.168a2.616,2.616,0,0,0,3.067-1.14A1.763,1.763,0,0,0,570.58,426.945Z" transform="translate(-537.189 -415.569)"/><path class="ig" d="M570.553,426.85l-30.03-11.168a2.617,2.617,0,0,0-3.07,1.145,1.761,1.761,0,0,0,.916,2.621l30.03,11.168a2.616,2.616,0,0,0,3.067-1.14A1.763,1.763,0,0,0,570.553,426.85Z" transform="translate(-537.182 -415.541)"/></g><path class="ih" d="M571.564,429.292h0a1.86,1.86,0,0,0,0-.281c0-.028-.012-.055-.016-.083s-.013-.079-.022-.119-.011-.075-.021-.111a1.7,1.7,0,0,0-.079-.218l-.628-1.427a1.7,1.7,0,0,1,.1.33c.008.039.016.079.022.118a1.722,1.722,0,0,1,.018.363h0a1.943,1.943,0,0,1-.072.382q-.014.048-.03.1a2.116,2.116,0,0,1-.168.384,2.281,2.281,0,0,1-.229.324c-.011.015-.021.031-.033.045a2.545,2.545,0,0,1-.283.276l-.061.05a2.672,2.672,0,0,1-.317.218l-.055.028a2.739,2.739,0,0,1-.317.148c-.023.009-.047.021-.071.029a2.635,2.635,0,0,1-.393.11c-.019,0-.038,0-.057.009a2.606,2.606,0,0,1-.339.037c-.041,0-.082,0-.123,0a2.441,2.441,0,0,1-.287-.019c-.039,0-.079-.009-.118-.016a2.263,2.263,0,0,1-.383-.1L537.57,418.7a1.846,1.846,0,0,1-.874-.652,1.678,1.678,0,0,1-.171-.3h0l.628,1.427a1.8,1.8,0,0,0,1.045.952l30.03,11.168a2.121,2.121,0,0,0,.383.1c.04.007.079.011.118.016a2.411,2.411,0,0,0,.286.019c.042,0,.082,0,.124,0a2.7,2.7,0,0,0,.338-.037l.058-.008h.013a2.79,2.79,0,0,0,.343-.094l.037-.015.071-.029c.055-.022.111-.042.165-.067s.1-.053.152-.081c.018-.01.036-.018.054-.029s.022-.011.032-.017c.075-.045.147-.093.217-.144.024-.018.046-.038.069-.057s.041-.033.061-.05.052-.04.076-.062a2.389,2.389,0,0,0,.2-.206l.006-.008c.013-.015.022-.031.034-.045a2.385,2.385,0,0,0,.173-.231c.019-.03.038-.062.056-.093a2.14,2.14,0,0,0,.169-.384q.016-.048.03-.1A1.941,1.941,0,0,0,571.564,429.292Z" transform="translate(-10.639 -34.263)"/><path class="ii" d="M569.695,424.884l-30.03-11.168a2.616,2.616,0,0,0-3.07,1.145,1.761,1.761,0,0,0,.916,2.621l30.03,11.168a2.616,2.616,0,0,0,3.067-1.14A1.763,1.763,0,0,0,569.695,424.884Z" transform="translate(-10.58 -33.046)"/><path class="ij" d="M569.695,424.884l-30.03-11.168a2.616,2.616,0,0,0-3.07,1.145,1.761,1.761,0,0,0,.916,2.621l30.03,11.168a2.616,2.616,0,0,0,3.067-1.14A1.763,1.763,0,0,0,569.695,424.884Zm.722,2.517a2.441,2.441,0,0,1-2.073,1.171,2.066,2.066,0,0,1-.727-.128l-30.03-11.168a1.562,1.562,0,0,1-.956-.925,1.629,1.629,0,0,1,.154-1.38,2.446,2.446,0,0,1,2.076-1.175,2.06,2.06,0,0,1,.726.127l30.03,11.168a1.56,1.56,0,0,1,.955.924A1.639,1.639,0,0,1,570.416,427.4Z" transform="translate(-10.58 -33.046)"/><path class="ik" d="M592.709,420.358l-11.323,19.8c-.079.139-.169.271-.257.4a7.749,7.749,0,0,1-.613.82c-.033.038-.069.072-.1.11q-.237.263-.5.506c-.071.066-.144.13-.217.193q-.2.171-.4.329c-.08.061-.16.122-.242.181-.141.1-.286.2-.432.288-.079.049-.156.1-.236.147q-.314.185-.643.343c-.026.012-.049.027-.074.038-.261.123-.531.23-.8.327-.067.024-.135.044-.2.066a8.711,8.711,0,0,1-.92.252c-.035.008-.069.018-.1.026a8.529,8.529,0,0,1-.955.132c-.077.007-.154.011-.232.016a7.974,7.974,0,0,1-.91.006h-.069a7.807,7.807,0,0,1-.951-.126c-.077-.015-.153-.031-.229-.048a7.154,7.154,0,0,1-.934-.268h0l-67.237-25.005a6.628,6.628,0,0,1-1.14-.55,5.675,5.675,0,0,1-2.272-2.56l.628,1.427a5.862,5.862,0,0,0,3.412,3.109l67.236,25.005a7.316,7.316,0,0,0,.934.268c.076.017.152.033.229.047a7.654,7.654,0,0,0,.951.127h.069a7.973,7.973,0,0,0,.911-.006c.077,0,.154-.009.231-.016a8.539,8.539,0,0,0,.955-.132l.028,0c.026,0,.052-.016.078-.021a8.881,8.881,0,0,0,.919-.252c.04-.013.081-.02.122-.033s.053-.023.081-.033c.272-.1.54-.2.8-.327l.009,0c.023-.011.045-.026.068-.037q.327-.157.641-.341c.022-.013.045-.023.068-.036.057-.035.11-.076.167-.112.147-.092.292-.187.433-.288.035-.026.074-.047.11-.073s.087-.074.132-.109c.137-.106.27-.215.4-.329.045-.039.094-.073.137-.113.028-.026.052-.055.079-.081.172-.161.337-.33.5-.506.028-.031.06-.058.088-.089.006-.006.009-.013.015-.02a7.825,7.825,0,0,0,.613-.819c.022-.033.05-.061.071-.094q.1-.152.186-.309l11.322-19.8Z" transform="translate(-0.193 -33.689)"/><g transform="translate(517.184 370.233)"><path class="gy" d="M584.516,423.33l-56.016-20.9a2.618,2.618,0,0,0-3.07,1.145,1.762,1.762,0,0,0,.916,2.621l56.016,20.9a2.616,2.616,0,0,0,3.067-1.14A1.762,1.762,0,0,0,584.516,423.33Z" transform="translate(-524.506 -399.986)"/><path class="gz" d="M584.489,423.234l-56.016-20.9a2.617,2.617,0,0,0-3.07,1.145,1.761,1.761,0,0,0,.916,2.621L582.335,427a2.616,2.616,0,0,0,3.067-1.14A1.763,1.763,0,0,0,584.489,423.234Z" transform="translate(-524.498 -399.958)"/><path class="ha" d="M584.462,423.138l-56.016-20.9a2.618,2.618,0,0,0-3.07,1.145,1.761,1.761,0,0,0,.916,2.621l56.016,20.9a2.614,2.614,0,0,0,3.066-1.14A1.762,1.762,0,0,0,584.462,423.138Z" transform="translate(-524.491 -399.93)"/><path class="hb" d="M584.435,423.043l-56.016-20.9a2.617,2.617,0,0,0-3.07,1.145,1.762,1.762,0,0,0,.916,2.621l56.016,20.9a2.615,2.615,0,0,0,3.066-1.14A1.763,1.763,0,0,0,584.435,423.043Z" transform="translate(-524.483 -399.902)"/><path class="hc" d="M584.407,422.947l-56.015-20.9a2.616,2.616,0,0,0-3.07,1.145,1.761,1.761,0,0,0,.916,2.621l56.016,20.9a2.615,2.615,0,0,0,3.066-1.14A1.763,1.763,0,0,0,584.407,422.947Z" transform="translate(-524.475 -399.874)"/><path class="hd" d="M584.38,422.852l-56.015-20.9a2.617,2.617,0,0,0-3.07,1.145,1.762,1.762,0,0,0,.916,2.621l56.015,20.9a2.615,2.615,0,0,0,3.067-1.14A1.763,1.763,0,0,0,584.38,422.852Z" transform="translate(-524.467 -399.847)"/><path class="he" d="M584.353,422.756l-56.015-20.9a2.616,2.616,0,0,0-3.07,1.145,1.761,1.761,0,0,0,.916,2.621l56.015,20.9a2.615,2.615,0,0,0,3.067-1.14A1.763,1.763,0,0,0,584.353,422.756Z" transform="translate(-524.459 -399.819)"/><path class="hf" d="M584.326,422.66l-56.015-20.9a2.616,2.616,0,0,0-3.07,1.145,1.762,1.762,0,0,0,.916,2.621l56.015,20.9a2.617,2.617,0,0,0,3.067-1.14A1.763,1.763,0,0,0,584.326,422.66Z" transform="translate(-524.451 -399.791)"/><path class="hg" d="M584.3,422.565l-56.015-20.9a2.617,2.617,0,0,0-3.07,1.145,1.762,1.762,0,0,0,.916,2.621l56.015,20.9a2.616,2.616,0,0,0,3.067-1.14A1.763,1.763,0,0,0,584.3,422.565Z" transform="translate(-524.443 -399.763)"/><path class="hh" d="M584.272,422.469l-56.015-20.9a2.616,2.616,0,0,0-3.07,1.145,1.761,1.761,0,0,0,.916,2.621l56.015,20.9a2.615,2.615,0,0,0,3.067-1.14A1.763,1.763,0,0,0,584.272,422.469Z" transform="translate(-524.435 -399.735)"/><path class="hi" d="M584.245,422.374l-56.015-20.9a2.616,2.616,0,0,0-3.07,1.145,1.761,1.761,0,0,0,.916,2.621l56.015,20.9a2.616,2.616,0,0,0,3.067-1.14A1.762,1.762,0,0,0,584.245,422.374Z" transform="translate(-524.427 -399.707)"/><path class="hj" d="M584.218,422.278l-56.015-20.9a2.616,2.616,0,0,0-3.07,1.145,1.761,1.761,0,0,0,.916,2.621l56.015,20.9a2.615,2.615,0,0,0,3.067-1.14A1.763,1.763,0,0,0,584.218,422.278Z" transform="translate(-524.42 -399.679)"/><path class="hk" d="M584.191,422.182l-56.015-20.9a2.617,2.617,0,0,0-3.07,1.145,1.761,1.761,0,0,0,.916,2.621l56.015,20.9a2.615,2.615,0,0,0,3.067-1.14A1.763,1.763,0,0,0,584.191,422.182Z" transform="translate(-524.412 -399.651)"/><path class="hl" d="M584.164,422.087l-56.015-20.9a2.617,2.617,0,0,0-3.07,1.145,1.761,1.761,0,0,0,.916,2.621l56.015,20.9a2.616,2.616,0,0,0,3.067-1.14A1.763,1.763,0,0,0,584.164,422.087Z" transform="translate(-524.404 -399.624)"/><path class="hm" d="M584.137,421.991l-56.015-20.9a2.618,2.618,0,0,0-3.07,1.145,1.761,1.761,0,0,0,.917,2.621l56.015,20.9a2.616,2.616,0,0,0,3.067-1.14A1.763,1.763,0,0,0,584.137,421.991Z" transform="translate(-524.396 -399.596)"/><path class="hn" d="M584.11,421.9,528.094,401a2.618,2.618,0,0,0-3.07,1.145,1.762,1.762,0,0,0,.917,2.621l56.015,20.9a2.615,2.615,0,0,0,3.067-1.14A1.763,1.763,0,0,0,584.11,421.9Z" transform="translate(-524.388 -399.568)"/><path class="ho" d="M584.083,421.8l-56.016-20.9a2.617,2.617,0,0,0-3.07,1.145,1.762,1.762,0,0,0,.916,2.621l56.016,20.9a2.616,2.616,0,0,0,3.067-1.14A1.763,1.763,0,0,0,584.083,421.8Z" transform="translate(-524.38 -399.54)"/><path class="hp" d="M584.056,421.7,528.04,400.8a2.617,2.617,0,0,0-3.07,1.145,1.762,1.762,0,0,0,.916,2.621l56.016,20.9a2.616,2.616,0,0,0,3.067-1.14A1.763,1.763,0,0,0,584.056,421.7Z" transform="translate(-524.372 -399.512)"/><path class="hq" d="M584.029,421.609l-56.016-20.9a2.617,2.617,0,0,0-3.07,1.145,1.762,1.762,0,0,0,.916,2.621l56.016,20.9a2.615,2.615,0,0,0,3.066-1.14A1.762,1.762,0,0,0,584.029,421.609Z" transform="translate(-524.364 -399.484)"/><path class="hr" d="M584,421.513l-56.016-20.9a2.617,2.617,0,0,0-3.07,1.145,1.761,1.761,0,0,0,.916,2.621l56.016,20.9a2.615,2.615,0,0,0,3.066-1.14A1.763,1.763,0,0,0,584,421.513Z" transform="translate(-524.356 -399.456)"/><path class="hs" d="M583.974,421.418l-56.015-20.9a2.616,2.616,0,0,0-3.07,1.145,1.762,1.762,0,0,0,.916,2.621l56.016,20.9a2.614,2.614,0,0,0,3.066-1.14A1.762,1.762,0,0,0,583.974,421.418Z" transform="translate(-524.349 -399.428)"/><path class="ht" d="M583.947,421.322l-56.015-20.9a2.617,2.617,0,0,0-3.07,1.145,1.761,1.761,0,0,0,.916,2.621l56.015,20.9a2.615,2.615,0,0,0,3.067-1.14A1.763,1.763,0,0,0,583.947,421.322Z" transform="translate(-524.341 -399.4)"/><path class="hu" d="M583.92,421.226l-56.015-20.9a2.617,2.617,0,0,0-3.07,1.145,1.762,1.762,0,0,0,.916,2.621l56.015,20.9a2.616,2.616,0,0,0,3.067-1.14A1.763,1.763,0,0,0,583.92,421.226Z" transform="translate(-524.333 -399.372)"/><path class="hv" d="M583.893,421.131l-56.015-20.9a2.617,2.617,0,0,0-3.07,1.145,1.762,1.762,0,0,0,.916,2.621l56.015,20.9a2.616,2.616,0,0,0,3.067-1.14A1.763,1.763,0,0,0,583.893,421.131Z" transform="translate(-524.325 -399.345)"/><path class="hw" d="M583.866,421.035l-56.015-20.9a2.616,2.616,0,0,0-3.07,1.145,1.761,1.761,0,0,0,.916,2.621l56.015,20.9a2.615,2.615,0,0,0,3.067-1.14A1.763,1.763,0,0,0,583.866,421.035Z" transform="translate(-524.317 -399.317)"/><path class="hx" d="M583.839,420.94l-56.015-20.9a2.617,2.617,0,0,0-3.07,1.145,1.761,1.761,0,0,0,.916,2.621l56.015,20.9a2.615,2.615,0,0,0,3.067-1.14A1.762,1.762,0,0,0,583.839,420.94Z" transform="translate(-524.309 -399.289)"/><path class="hy" d="M583.812,420.844l-56.015-20.9a2.616,2.616,0,0,0-3.07,1.145,1.761,1.761,0,0,0,.916,2.621l56.015,20.9a2.616,2.616,0,0,0,3.067-1.14A1.763,1.763,0,0,0,583.812,420.844Z" transform="translate(-524.301 -399.261)"/><path class="hz" d="M583.785,420.748l-56.015-20.9a2.617,2.617,0,0,0-3.07,1.145,1.761,1.761,0,0,0,.916,2.621l56.015,20.9a2.616,2.616,0,0,0,3.067-1.14A1.763,1.763,0,0,0,583.785,420.748Z" transform="translate(-524.293 -399.233)"/><path class="ia" d="M583.758,420.653l-56.015-20.9a2.617,2.617,0,0,0-3.07,1.145,1.761,1.761,0,0,0,.916,2.621l56.015,20.9a2.615,2.615,0,0,0,3.067-1.14A1.763,1.763,0,0,0,583.758,420.653Z" transform="translate(-524.285 -399.205)"/><path class="ib" d="M583.731,420.557l-56.015-20.9a2.616,2.616,0,0,0-3.07,1.145,1.761,1.761,0,0,0,.916,2.621l56.015,20.9a2.616,2.616,0,0,0,3.067-1.14A1.763,1.763,0,0,0,583.731,420.557Z" transform="translate(-524.278 -399.177)"/><path class="ic" d="M583.7,420.462l-56.015-20.9a2.618,2.618,0,0,0-3.07,1.145,1.762,1.762,0,0,0,.917,2.621l56.015,20.9a2.615,2.615,0,0,0,3.067-1.14A1.762,1.762,0,0,0,583.7,420.462Z" transform="translate(-524.27 -399.15)"/><path class="id" d="M583.677,420.366l-56.016-20.9a2.617,2.617,0,0,0-3.07,1.145,1.762,1.762,0,0,0,.917,2.621l56.015,20.9a2.616,2.616,0,0,0,3.067-1.14A1.763,1.763,0,0,0,583.677,420.366Z" transform="translate(-524.262 -399.122)"/><path class="ie" d="M583.65,420.27l-56.016-20.9a2.617,2.617,0,0,0-3.07,1.145,1.762,1.762,0,0,0,.916,2.621l56.016,20.9a2.616,2.616,0,0,0,3.067-1.14A1.763,1.763,0,0,0,583.65,420.27Z" transform="translate(-524.254 -399.094)"/><path class="if" d="M583.623,420.175l-56.016-20.9a2.617,2.617,0,0,0-3.07,1.145,1.762,1.762,0,0,0,.916,2.621l56.016,20.9a2.616,2.616,0,0,0,3.067-1.14A1.763,1.763,0,0,0,583.623,420.175Z" transform="translate(-524.246 -399.066)"/><path class="ig" d="M583.6,420.079l-56.016-20.9a2.617,2.617,0,0,0-3.07,1.145,1.761,1.761,0,0,0,.916,2.621l56.016,20.9a2.615,2.615,0,0,0,3.066-1.14A1.762,1.762,0,0,0,583.6,420.079Z" transform="translate(-524.238 -399.038)"/></g><g transform="translate(516.64 368.869)"><path class="il" d="M584.72,422.507h0a1.753,1.753,0,0,0,0-.28c0-.028-.011-.055-.016-.083s-.013-.08-.022-.119-.011-.076-.021-.112a1.651,1.651,0,0,0-.079-.217l-.628-1.427a1.659,1.659,0,0,1,.1.329c.008.04.016.079.022.118a1.73,1.73,0,0,1,.018.364h0a1.947,1.947,0,0,1-.072.383q-.014.048-.03.1a2.136,2.136,0,0,1-.168.384,2.4,2.4,0,0,1-.228.323c-.013.016-.023.033-.037.049a2.551,2.551,0,0,1-.283.277l-.062.05a2.62,2.62,0,0,1-.317.218c-.018.011-.036.019-.053.028a2.807,2.807,0,0,1-.317.149c-.024.009-.047.021-.072.029a2.679,2.679,0,0,1-.394.111c-.018,0-.036,0-.055.008a2.511,2.511,0,0,1-.341.038c-.042,0-.083,0-.124,0a2.414,2.414,0,0,1-.286-.019c-.04-.005-.079-.009-.118-.016a2.259,2.259,0,0,1-.383-.1L524.71,402.245a1.92,1.92,0,0,1-.637-.386,1.7,1.7,0,0,1-.4-.561h0l.628,1.427a1.784,1.784,0,0,0,1.038.948l56.042,20.842a2.2,2.2,0,0,0,.384.1c.039.007.079.011.118.016a2.29,2.29,0,0,0,.287.019c.041,0,.082,0,.123,0a2.643,2.643,0,0,0,.341-.037l.054-.008h.013a2.757,2.757,0,0,0,.342-.094l.038-.016.072-.029c.054-.022.109-.042.162-.067s.1-.054.154-.082l.053-.028.031-.016c.074-.045.147-.093.217-.144.024-.018.047-.039.07-.058s.041-.033.062-.05.05-.039.074-.06a2.443,2.443,0,0,0,.2-.208l.007-.009c.014-.015.023-.033.037-.048a2.463,2.463,0,0,0,.171-.229c.02-.031.039-.062.057-.094a2.145,2.145,0,0,0,.168-.385c.011-.032.021-.063.029-.1A1.881,1.881,0,0,0,584.72,422.507Z" transform="translate(-523.529 -398.333)"/><g transform="translate(0)"><path class="im" d="M582.851,418.095a1.763,1.763,0,0,1,.913,2.626,2.618,2.618,0,0,1-3.07,1.145l-56.043-20.842a1.762,1.762,0,0,1-.907-2.624,2.617,2.617,0,0,1,3.064-1.147Z" transform="translate(-523.47 -397.113)"/><path class="in" d="M582.851,418.095l-56.043-20.842a2.616,2.616,0,0,0-3.064,1.147,1.762,1.762,0,0,0,.907,2.624l56.043,20.842a2.618,2.618,0,0,0,3.07-1.145A1.763,1.763,0,0,0,582.851,418.095Zm.722,2.517a2.447,2.447,0,0,1-2.076,1.175,2.075,2.075,0,0,1-.726-.127l-56.043-20.842a1.553,1.553,0,0,1-.949-.92,1.642,1.642,0,0,1,.157-1.388,2.449,2.449,0,0,1,2.076-1.176,2.064,2.064,0,0,1,.72.126L582.775,418.3a1.564,1.564,0,0,1,.955.924A1.639,1.639,0,0,1,583.573,420.612Z" transform="translate(-523.47 -397.113)"/></g></g></g></svg>