<svg xmlns="http://www.w3.org/2000/svg" xmlns:xlink="http://www.w3.org/1999/xlink" width="113.928" height="100.505" viewBox="0 0 113.928 100.505"><defs><style>.a{fill:none;}.b,.o{isolation:isolate;}.c{clip-path:url(#a);}.d{fill:#616b85;}.e{fill:#656f8a;}.f{fill:#69738f;}.g{fill:#6c7794;}.h{fill:#707b99;}.i{fill:#747f9e;}.j{fill:#7883a3;}.k{fill:#7b87a8;}.l{fill:#7f8bad;}.m{fill:url(#b);}.n{fill:url(#c);}.o{mix-blend-mode:overlay;fill:url(#d);}.p{fill:#fff;}</style><clipPath id="a"><path class="a" d="M492.708,387.88C503.65,397.717,509,410.267,508.814,422.6q.193-2,.383-3.993c.189-12.338-5.165-24.889-16.106-34.725-21.874-19.664-57.828-21.031-80.284-3.052-10.238,8.2-15.909,19-16.98,30.184l-.383,3.994c1.072-11.189,6.743-21.989,16.98-30.185C434.881,366.85,470.834,368.216,492.708,387.88Z" transform="translate(-395.444 -368.197)"/></clipPath><linearGradient id="b" x1="-44.407" y1="7.785" x2="-43.61" y2="6.728" gradientUnits="objectBoundingBox"><stop offset="0" stop-color="#a81c69"/><stop offset="0.077" stop-color="#891159"/><stop offset="0.128" stop-color="#7a0d52"/><stop offset="0.284" stop-color="#700d52"/><stop offset="0.584" stop-color="#610d52"/><stop offset="0.66" stop-color="#660d53"/><stop offset="0.756" stop-color="#761057"/><stop offset="0.864" stop-color="#90145d"/><stop offset="0.978" stop-color="#b41a67"/><stop offset="1" stop-color="#bc1c69"/></linearGradient><radialGradient id="c" cx="0.708" cy="1.672" r="1.861" gradientTransform="matrix(-0.807, 0.314, 0.267, 0.95, -81.132, 14.109)" gradientUnits="objectBoundingBox"><stop offset="0.342" stop-color="#da334f"/><stop offset="0.676" stop-color="#ff597d"/><stop offset="0.989" stop-color="#ffa19a"/></radialGradient><linearGradient id="d" x1="-44.355" y1="4.039" x2="-44.004" y2="5.019" gradientUnits="objectBoundingBox"><stop offset="0.076" stop-color="#fff"/><stop offset="1" stop-color="#fff" stop-opacity="0"/></linearGradient></defs><g transform="translate(-395.302 -368.197)"><g class="b" transform="translate(395.471 368.197)"><g class="c"><g class="b" transform="translate(0.001 0)"><path class="d" d="M395.827,410.945l-.382,3.993c1.071-11.189,6.743-21.987,16.979-30.183a58.963,58.963,0,0,1,30.033-12.183l.382-3.994a58.964,58.964,0,0,0-30.031,12.185c-10.238,8.195-15.908,18.994-16.98,30.183" transform="translate(-395.445 -368.124)"/><path class="e" d="M435.332,368.651l-.382,3.994a66.4,66.4,0,0,1,8.706-.447l.383-3.994a66.616,66.616,0,0,0-8.707.447" transform="translate(-387.938 -368.197)"/><path class="f" d="M442.649,368.2l-.383,3.994a67.543,67.543,0,0,1,7.22.488l.383-3.993a67.284,67.284,0,0,0-7.22-.489" transform="translate(-386.548 -368.196)"/><path class="g" d="M448.716,368.613l-.383,3.992q3.284.4,6.519,1.122l.383-3.992q-3.231-.723-6.519-1.122" transform="translate(-385.395 -368.117)"/><path class="h" d="M454.194,369.556l-.383,3.993q3.129.7,6.179,1.7l.383-3.994q-3.045-1-6.179-1.7" transform="translate(-384.354 -367.938)"/><path class="i" d="M459.386,370.984,459,374.978a63.8,63.8,0,0,1,6.085,2.346l.382-3.994a63.9,63.9,0,0,0-6.083-2.345" transform="translate(-383.368 -367.667)"/><path class="j" d="M464.5,372.955l-.382,3.994a61.466,61.466,0,0,1,6.313,3.261l.382-3.992a61.574,61.574,0,0,0-6.313-3.262" transform="translate(-382.396 -367.292)"/><path class="k" d="M469.8,375.7l-.382,3.992A58.618,58.618,0,0,1,476.6,384.7l.382-3.993A58.487,58.487,0,0,0,469.8,375.7" transform="translate(-381.388 -366.771)"/><path class="l" d="M475.834,379.9l-.382,3.993q1.046.853,2.053,1.759a47.79,47.79,0,0,1,15.009,24.579l.382-3.994a47.776,47.776,0,0,0-15.007-24.578q-1.009-.907-2.054-1.759" transform="translate(-380.242 -365.972)"/><path class="k" d="M490.171,402.035l-.382,3.994a42.057,42.057,0,0,1,1.065,7.746l.382-3.992a41.862,41.862,0,0,0-1.065-7.747" transform="translate(-377.518 -361.766)"/><path class="j" d="M491.09,408.545l-.382,3.992a41.3,41.3,0,0,1-.15,5.692l.383-3.993a41.1,41.1,0,0,0,.149-5.692" transform="translate(-377.371 -360.529)"/></g></g></g><path class="m" d="M408.115,442.95q-.884-.941-1.705-1.9c-.22-.258-.443-.514-.657-.775-.712-.87-1.4-1.749-2.039-2.645l-.017-.024c-.645-.906-1.241-1.827-1.811-2.756-.17-.276-.33-.556-.493-.834q-.609-1.037-1.157-2.093c-.146-.282-.3-.563-.436-.846-.463-.941-.9-1.887-1.295-2.844l-.02-.046c-.4-.973-.746-1.956-1.07-2.943-.1-.292-.181-.584-.27-.877q-.334-1.1-.608-2.2c-.045-.184-.108-.367-.151-.551-.024-.1-.035-.2-.057-.306-.253-1.12-.464-2.243-.625-3.371-.029-.2-.046-.411-.073-.615q-.189-1.5-.269-3c-.008-.151-.035-.3-.042-.456,0-.1,0-.2,0-.3-.021-.606-.02-1.21-.015-1.815,0-.3-.006-.59,0-.884.026-.895.079-1.787.163-2.679v-.011l.382-3.993c-.086.894-.137,1.79-.164,2.687-.008.3,0,.591,0,.887-.006.6-.007,1.21.015,1.815.008.253.03.506.043.758q.08,1.5.27,3c.025.206.044.411.073.616.159,1.127.371,2.25.624,3.37.065.287.138.571.209.857q.273,1.1.608,2.2c.088.293.174.585.27.878.322.987.671,1.968,1.069,2.942l.021.046c.392.957.831,1.9,1.295,2.844.139.284.289.565.436.846q.548,1.055,1.157,2.094c.163.278.323.557.491.833.571.929,1.166,1.852,1.811,2.757l.018.023c.639.9,1.326,1.777,2.039,2.647.213.259.436.516.656.773q.823.966,1.705,1.9c.237.252.47.506.714.754.819.838,1.662,1.665,2.555,2.467q1.016.914,2.071,1.773c1.011.825,2.059,1.6,3.12,2.355.228.162.457.325.688.483,1.05.721,2.118,1.414,3.209,2.065.226.136.458.262.685.393q1.057.612,2.133,1.18c.309.164.62.324.933.482q1.064.537,2.148,1.032c.271.124.539.253.813.375q1.264.557,2.551,1.059c.081.031.159.067.24.1.941.362,1.892.7,2.85,1.016.306.1.616.193.925.289.645.2,1.291.4,1.942.586.365.1.733.2,1.1.3q.908.239,1.824.455c.374.087.749.171,1.123.251.668.144,1.338.275,2.01.4.338.062.676.126,1.015.183.834.14,1.671.261,2.51.369.171.023.342.051.513.071,1.077.131,2.157.23,3.238.307.308.023.615.037.922.055q1.2.07,2.412.1c.315.007.631.014.946.017,1.269.011,2.537-.01,3.8-.07.207-.011.414-.029.622-.04q1.749-.1,3.487-.294c.208-.023.417-.04.624-.065q1.8-.218,3.575-.537c.268-.048.534-.1.8-.152q1.578-.3,3.136-.678c.182-.045.368-.083.55-.13,1.165-.3,2.318-.63,3.463-.991.268-.086.534-.176.8-.264,1.038-.345,2.067-.713,3.083-1.113.134-.054.272-.1.407-.155,1.114-.447,2.209-.938,3.29-1.452.261-.124.518-.252.776-.38,1.021-.5,2.03-1.033,3.019-1.6.074-.043.15-.081.224-.124,1.041-.6,2.056-1.25,3.057-1.919.244-.163.487-.33.728-.5,1-.693,1.985-1.409,2.937-2.172a45.286,45.286,0,0,0,15.3-21.885,41.288,41.288,0,0,0,1.665-8.28h0l-.383,3.993c-1.071,11.185-6.739,21.977-16.967,30.166-.953.763-1.939,1.478-2.938,2.172-.242.167-.483.333-.727.5-1,.67-2.016,1.316-3.057,1.919-.075.043-.151.081-.226.124-.988.565-2,1.092-3.017,1.6-.258.127-.516.255-.776.378-1.083.515-2.178,1-3.29,1.453-.136.054-.274.1-.408.155q-1.523.6-3.08,1.111c-.269.089-.538.18-.808.265-1.144.362-2.3.7-3.459.99-.183.048-.368.086-.551.13q-1.555.38-3.131.678c-.269.051-.538.106-.808.154-1.183.211-2.373.391-3.569.536-.067.008-.132.023-.2.03-.143.018-.288.021-.432.037q-1.735.193-3.481.294c-.208.012-.415.03-.624.039-1.265.062-2.534.082-3.8.071-.123,0-.245.008-.368.007-.193,0-.386-.02-.58-.024q-1.207-.027-2.411-.1c-.308-.018-.615-.031-.922-.054-1.082-.077-2.161-.176-3.238-.307l-.068-.006c-.15-.018-.3-.046-.447-.065q-1.257-.162-2.505-.368c-.342-.057-.682-.125-1.023-.187q-1-.184-2-.4c-.178-.038-.359-.065-.538-.106-.2-.044-.389-.1-.586-.145q-.916-.214-1.826-.456c-.368-.1-.734-.192-1.1-.294-.652-.184-1.3-.383-1.946-.588-.24-.075-.483-.138-.722-.217-.067-.023-.131-.049-.2-.07-.958-.319-1.909-.655-2.85-1.018-.081-.031-.161-.067-.242-.1q-1.287-.5-2.551-1.059c-.081-.036-.164-.065-.245-.1-.192-.086-.376-.186-.568-.273q-1.084-.5-2.148-1.033-.468-.236-.932-.481-1.078-.568-2.133-1.181c-.176-.1-.359-.192-.535-.3-.051-.031-.1-.065-.15-.1-1.092-.652-2.16-1.344-3.209-2.065-.231-.159-.459-.321-.688-.484-1.063-.753-2.109-1.529-3.121-2.355l-.014-.011q-1.048-.855-2.055-1.761c-.894-.8-1.737-1.63-2.556-2.467C408.584,443.454,408.352,443.2,408.115,442.95Z" transform="translate(0 6.838)"/><path class="n" d="M412.776,380.835c22.456-17.979,58.41-16.612,80.283,3.052s21.413,50.2-1.044,68.181-58.422,16.621-80.308-3.054S390.307,398.822,412.776,380.835Z" transform="translate(0.058)"/><path class="o" d="M411.708,449.015c21.886,19.675,57.84,21.042,80.308,3.054s22.929-48.507,1.044-68.181-57.827-21.031-80.283-3.052S389.835,429.352,411.708,449.015Zm-15.517-35.238c.358-12.5,6.374-24.042,16.939-32.5a55.6,55.6,0,0,1,17.406-9.346c21.491-7.1,45.884-2.241,62.145,12.379,10.627,9.552,16.276,21.923,15.906,34.833-.357,12.494-6.368,24.031-16.926,32.483a55.627,55.627,0,0,1-17.421,9.352c-21.491,7.1-45.89,2.24-62.155-12.385C401.468,439.049,395.823,426.684,396.191,413.777Z" transform="translate(0.058)"/><g transform="translate(432.125 392.098)"><path class="p" d="M439.367,388.716a1.555,1.555,0,0,0-.509.72l-12.539,37.412c-.4,1.208.9,2.379,2.357,2.118l44.739-8.465a1.938,1.938,0,0,0,.884-.388,1.487,1.487,0,0,0,.034-2.34l-32.212-28.958A2.205,2.205,0,0,0,439.367,388.716Z" transform="translate(-426.245 -388.281)"/></g></g></svg>