<svg xmlns="http://www.w3.org/2000/svg" xmlns:xlink="http://www.w3.org/1999/xlink" width="113.017" height="111.477" viewBox="0 0 113.017 111.477"><defs><style>.a,.d{isolation:isolate;}.b{fill:url(#a);}.c{fill:url(#b);}.d{opacity:0.4;mix-blend-mode:overlay;fill:url(#c);}.e{fill:url(#d);}</style><linearGradient id="a" x1="2.047" y1="1.844" x2="-0.305" y2="-0.2" gradientUnits="objectBoundingBox"><stop offset="0" stop-color="#6c60bb"/><stop offset="0.03" stop-color="#6e62bc"/><stop offset="0.049" stop-color="#776ac2"/><stop offset="0.064" stop-color="#8577cb"/><stop offset="0.07" stop-color="#8c7ed0"/><stop offset="0.268" stop-color="#9284d3"/><stop offset="0.475" stop-color="#a092db"/><stop offset="0.987" stop-color="#e0d4ff"/></linearGradient><linearGradient id="b" x1="0.034" y1="1.196" x2="0.754" y2="-0.191" gradientUnits="objectBoundingBox"><stop offset="0" stop-color="#f2f9ff"/><stop offset="0.957" stop-color="#cfbbff"/><stop offset="1" stop-color="#ceb9ff"/></linearGradient><linearGradient id="c" x1="0.266" y1="1.285" x2="0.508" y2="0.267" gradientUnits="objectBoundingBox"><stop offset="0.076" stop-color="#fff"/><stop offset="1" stop-color="#fff" stop-opacity="0"/></linearGradient><linearGradient id="d" x1="1.266" y1="1.968" x2="0.029" y2="-0.403" xlink:href="#a"/></defs><g class="a" transform="translate(1.916) rotate(1)"><path class="b" d="M36.643,52.364,0,17.942,12.122,0,48.765,34.422Z" transform="translate(0 0)"/><path class="c" d="M56.434,86.9,28.507,60.141.9,91.824,0,0,36.643,34.422,52.824,3.678,99.061,54.89Z" transform="translate(0 17.941)"/><path class="d" d="M56.433,86.9,28.508,60.14.9,91.824,0,0,36.643,34.421,52.824,3.677,99.062,54.889ZM36.816,35.456.649,1.483l.874,88.665L28.465,59.222,56.484,86.073,98.125,54.8,52.964,4.779Z" transform="translate(0 17.942)"/><path class="e" d="M46.236,69.153,0,17.94,12.122,0,58.358,51.212Z" transform="translate(52.825 3.679)"/></g></svg>