<svg xmlns="http://www.w3.org/2000/svg" xmlns:xlink="http://www.w3.org/1999/xlink" width="114.123" height="115.363" viewBox="0 0 114.123 115.363"><defs><style>.a,.e{isolation:isolate;}.b{fill:url(#a);}.c{fill:url(#b);}.d{fill:url(#c);}.e{opacity:0.7;mix-blend-mode:overlay;fill:url(#d);}.f{fill:url(#e);}</style><linearGradient id="a" x1="-10.036" y1="-3.915" x2="-9.12" y2="-0.428" gradientUnits="objectBoundingBox"><stop offset="0" stop-color="#ed1d77"/><stop offset="0.015" stop-color="#e91d78"/><stop offset="0.226" stop-color="#b61f88"/><stop offset="0.33" stop-color="#a3218f"/><stop offset="0.437" stop-color="#810d7a"/><stop offset="0.496" stop-color="#751176"/><stop offset="0.57" stop-color="#611a71"/><stop offset="0.663" stop-color="#5c1e76"/><stop offset="0.775" stop-color="#4f2a84"/><stop offset="0.897" stop-color="#393e9d"/><stop offset="1" stop-color="#2254b8"/></linearGradient><linearGradient id="b" x1="-4.6" y1="-0.16" x2="-4.292" y2="0.98" gradientUnits="objectBoundingBox"><stop offset="0" stop-color="#ed1d77"/><stop offset="0.015" stop-color="#e91d78"/><stop offset="0.226" stop-color="#b61f88"/><stop offset="0.33" stop-color="#a3218f"/><stop offset="0.437" stop-color="#810d7a"/><stop offset="0.544" stop-color="#751176"/><stop offset="0.677" stop-color="#611a71"/><stop offset="0.724" stop-color="#5c1e76"/><stop offset="0.781" stop-color="#4f2a84"/><stop offset="0.842" stop-color="#393e9d"/><stop offset="0.895" stop-color="#2254b8"/><stop offset="0.905" stop-color="#2d50b4"/><stop offset="0.922" stop-color="#4c48aa"/><stop offset="0.944" stop-color="#7d3b9a"/><stop offset="0.972" stop-color="#c12884"/><stop offset="0.988" stop-color="#ed1d77"/></linearGradient><radialGradient id="c" cx="0.53" cy="1.397" r="1.426" gradientTransform="matrix(1.097, 0.096, -0.106, 0.995, 0.412, 0.284)" gradientUnits="objectBoundingBox"><stop offset="0.28" stop-color="#008cff"/><stop offset="0.52" stop-color="#9435ff"/><stop offset="0.704" stop-color="#d124dc"/><stop offset="0.752" stop-color="#d528d0"/><stop offset="0.838" stop-color="#e235b2"/><stop offset="0.951" stop-color="#f64980"/><stop offset="0.996" stop-color="#ff526b"/></radialGradient><linearGradient id="d" x1="2.3" y1="0.53" x2="1.887" y2="1.727" gradientUnits="objectBoundingBox"><stop offset="0.076" stop-color="#fff"/><stop offset="1" stop-color="#fff" stop-opacity="0"/></linearGradient><linearGradient id="e" x1="-8.491" y1="-0.498" x2="-9.602" y2="0.828" gradientUnits="objectBoundingBox"><stop offset="0" stop-color="#f2f9ff"/><stop offset="0.795" stop-color="#c0d6f2"/><stop offset="0.999" stop-color="#b3cdec"/></linearGradient></defs><g class="a" transform="translate(-50.373 -47.819)"><path class="b" d="M134.579,169.337l-13.928,4.938,21.817,7.867L156.4,177.2Z" transform="translate(-12.457 -21.54)"/><path class="c" d="M64.586,93.962c.066-.387.143-.77.233-1.146.05-.211.1-.422.159-.629.106-.386.23-.761.361-1.133.063-.176.118-.356.187-.529a15.244,15.244,0,0,1,.668-1.475c.013-.025.022-.051.035-.076.136-.258.295-.5.445-.744.109-.179.207-.369.324-.542.164-.241.349-.463.526-.693.125-.16.237-.331.369-.484.228-.267.478-.511.727-.756.1-.1.188-.207.29-.3a11.634,11.634,0,0,1,1.139-.926l48.39-34.52a11.047,11.047,0,0,1,2.729-1.427l-13.929,4.937a11.074,11.074,0,0,0-2.728,1.427L56.121,89.466a11.752,11.752,0,0,0-1.139.926c-.125.114-.233.246-.352.365-.226.226-.457.448-.666.692-.132.154-.244.324-.369.485-.178.229-.362.451-.526.693-.12.178-.221.372-.333.556-.147.242-.3.477-.436.73l0,.007c-.012.022-.02.048-.032.071a15.387,15.387,0,0,0-.666,1.473c-.068.173-.124.353-.188.53-.131.371-.254.746-.36,1.131-.058.208-.109.418-.16.629-.09.378-.166.759-.233,1.147-.036.212-.073.424-.1.638-.058.431-.1.868-.128,1.309-.009.137-.033.27-.039.407,0,.044,0,.09,0,.135-.008.191,0,.385-.007.577,0,.337-.007.675,0,1.015.007.215.025.431.039.647.021.322.044.643.08.966.025.227.056.453.088.68.044.318.1.634.155.953.042.229.087.457.137.686.069.319.148.638.231.956.059.225.118.45.184.674.1.329.207.657.321.983.072.211.141.421.219.63.135.356.286.709.44,1.062.077.176.146.354.227.529.244.523.506,1.043.793,1.553l22.8,40.623a18.717,18.717,0,0,0,9.279,8.494,13.2,13.2,0,0,0,3.608.853,12.009,12.009,0,0,0,1.2.044,11.283,11.283,0,0,0,1.191-.081,10.837,10.837,0,0,0,2.323-.544l13.928-4.938c-6.05,2.145-13.426-1.325-17.6-8.765l-22.8-40.622c-.286-.511-.549-1.03-.792-1.554-.082-.175-.151-.353-.228-.529-.153-.353-.305-.706-.439-1.062-.079-.209-.147-.42-.22-.629-.113-.327-.223-.654-.321-.983-.066-.225-.124-.449-.183-.675-.084-.318-.163-.637-.232-.956q-.074-.343-.137-.686-.088-.476-.155-.953c-.031-.227-.063-.453-.087-.68-.035-.323-.06-.645-.081-.966-.014-.216-.03-.433-.038-.647-.012-.341-.009-.678,0-1.014,0-.193,0-.387.007-.578s.029-.361.041-.542c.03-.44.07-.878.128-1.308C64.512,94.386,64.55,94.174,64.586,93.962Z" transform="translate(0 -0.135)"/><path class="d" d="M164.558,97.823,141.756,57.2c-4.829-8.6-13.929-11.885-20.318-7.327l-48.39,34.52c-6.389,4.558-7.655,15.233-2.825,23.836l22.8,40.622c4.829,8.6,13.937,11.9,20.327,7.341l11.769-8.4,21.817,7.867,3.034-25.595,11.769-8.4C168.13,117.115,169.388,106.426,164.558,97.823Z" transform="translate(-2.998 0)"/><path class="e" d="M164.558,97.823,141.756,57.2c-4.829-8.6-13.929-11.885-20.318-7.327l-48.39,34.52c-6.389,4.558-7.655,15.233-2.825,23.836l22.8,40.622c4.829,8.6,13.937,11.9,20.327,7.341l11.769-8.4,21.817,7.867,3.034-25.595,11.769-8.4C168.13,117.115,169.388,106.426,164.558,97.823Zm-3.131,23.41-11.964,8.535-2.982,25.157-21.444-7.735-12,8.561a10.47,10.47,0,0,1-7.184,1.9c-4.812-.463-9.431-3.85-12.358-9.062l-22.8-40.622C66,99.607,67.2,89.228,73.362,84.833l48.39-34.519a10.482,10.482,0,0,1,7.191-1.9c4.806.462,9.42,3.847,12.342,9.053l22.8,40.621C168.783,106.454,167.589,116.837,161.427,121.233Z" transform="translate(-2.998 0)"/><path class="f" d="M137.414,94.624c-3.548-6.319-10.217-8.725-14.9-5.384-3.215,2.294-4.652,6.693-4.116,11.256-3.428-2.5-7.57-2.92-10.786-.626-4.683,3.341-5.61,11.165-2.063,17.485,3.783,6.74,10.178,9.046,15.327,10.3a62.7,62.7,0,0,0,7.015,1.256l6.86.719,2.36-7.3c.111-.374,1.175-3.723,2-7.684C140.308,108.866,141.2,101.364,137.414,94.624Z" transform="translate(-9.398 -7.075)"/></g></svg>